<?xml version="1.0" encoding="UTF-8"?>
<svg id="Calque_1" data-name="Calque 1" xmlns="http://www.w3.org/2000/svg" xmlns:xlink="http://www.w3.org/1999/xlink" version="1.1" viewBox="0 0 1440 990">
  <defs>
    <style>
      .cls-1, .cls-2, .cls-3, .cls-4, .cls-5, .cls-6, .cls-7, .cls-8, .cls-9, .cls-10, .cls-11, .cls-12, .cls-13, .cls-14, .cls-15, .cls-16 {
        fill: none;
      }

      .cls-1, .cls-3 {
        stroke-width: .5px;
      }

      .cls-1, .cls-3, .cls-5, .cls-7, .cls-9, .cls-10, .cls-11, .cls-17, .cls-18, .cls-19, .cls-15 {
        stroke-miterlimit: 10;
      }

      .cls-1, .cls-3, .cls-7, .cls-9, .cls-14, .cls-17, .cls-19 {
        stroke: #467971;
      }

      .cls-20 {
        fill: #efcaa6;
      }

      .cls-20, .cls-21, .cls-22, .cls-4, .cls-23, .cls-24, .cls-25, .cls-26, .cls-27, .cls-28, .cls-29, .cls-30, .cls-31, .cls-32, .cls-33, .cls-34, .cls-35, .cls-36, .cls-37, .cls-38, .cls-39, .cls-40, .cls-41, .cls-42, .cls-43, .cls-44, .cls-45, .cls-46, .cls-47, .cls-48, .cls-49, .cls-50, .cls-51, .cls-52, .cls-53, .cls-54, .cls-55, .cls-56, .cls-57 {
        stroke-width: 0px;
      }

      .cls-21 {
        fill: #f7cd74;
      }

      .cls-2 {
        stroke-dasharray: 0 0 0 0 2.1 3.2 3.2 2.1;
      }

      .cls-2, .cls-3, .cls-7, .cls-8, .cls-9, .cls-11, .cls-12, .cls-13, .cls-14, .cls-17, .cls-19, .cls-16 {
        stroke-linecap: round;
      }

      .cls-2, .cls-6, .cls-8, .cls-12, .cls-13, .cls-14, .cls-16 {
        stroke-linejoin: round;
      }

      .cls-2, .cls-15 {
        stroke: #f7cd74;
      }

      .cls-22 {
        fill: #1a2f2f;
      }

      .cls-58 {
        clip-path: url(#clippath);
      }

      .cls-23 {
        fill: #f59c98;
      }

      .cls-5 {
        stroke: #3f5050;
      }

      .cls-24 {
        fill: #883844;
      }

      .cls-25 {
        fill: #3a3838;
      }

      .cls-26 {
        fill: #7a323d;
      }

      .cls-27 {
        fill: #bc4e5f;
      }

      .cls-28 {
        fill: #ac8252;
      }

      .cls-29 {
        fill: #f9e8d8;
      }

      .cls-6 {
        stroke-linecap: square;
      }

      .cls-6, .cls-8 {
        stroke: #d4f3eb;
      }

      .cls-7, .cls-19 {
        stroke-width: 2px;
      }

      .cls-30 {
        fill: #1d1d1b;
      }

      .cls-31 {
        fill: #d4f3eb;
      }

      .cls-32 {
        fill: #843642;
      }

      .cls-33 {
        fill: #8e3b47;
      }

      .cls-34 {
        fill: #e1b564;
      }

      .cls-35 {
        fill: #7f3440;
      }

      .cls-36 {
        fill: #8f3b48;
      }

      .cls-10 {
        stroke: #3a3838;
      }

      .cls-59 {
        clip-path: url(#clippath-1);
      }

      .cls-60 {
        clip-path: url(#clippath-4);
      }

      .cls-61 {
        clip-path: url(#clippath-3);
      }

      .cls-62 {
        clip-path: url(#clippath-2);
      }

      .cls-63 {
        clip-path: url(#clippath-7);
      }

      .cls-64 {
        clip-path: url(#clippath-8);
      }

      .cls-65 {
        clip-path: url(#clippath-6);
      }

      .cls-66 {
        clip-path: url(#clippath-5);
      }

      .cls-67 {
        clip-path: url(#clippath-9);
      }

      .cls-11 {
        stroke: #1d1d1b;
      }

      .cls-37 {
        fill: #848484;
      }

      .cls-12 {
        stroke: #ac8252;
      }

      .cls-38 {
        fill: #000;
      }

      .cls-39 {
        fill: #a94655;
      }

      .cls-68 {
        clip-path: url(#clippath-14);
      }

      .cls-69 {
        clip-path: url(#clippath-13);
      }

      .cls-70 {
        clip-path: url(#clippath-12);
      }

      .cls-71 {
        clip-path: url(#clippath-10);
      }

      .cls-72 {
        clip-path: url(#clippath-11);
      }

      .cls-13 {
        stroke: #1a2f2f;
      }

      .cls-40 {
        fill: #953e4b;
      }

      .cls-41, .cls-17 {
        fill: #1a2f2f;
      }

      .cls-42 {
        fill: #923c49;
      }

      .cls-43 {
        fill: #e3bb94;
      }

      .cls-44 {
        fill: #f4d9bf;
      }

      .cls-18 {
        stroke: #e3bb94;
      }

      .cls-18, .cls-19, .cls-55 {
        fill: #fff;
      }

      .cls-45 {
        fill: #963e4b;
      }

      .cls-46 {
        fill: #7e343f;
      }

      .cls-47 {
        fill: #a44453;
      }

      .cls-48 {
        fill: #c15061;
      }

      .cls-73 {
        isolation: isolate;
      }

      .cls-49 {
        fill: #467971;
      }

      .cls-50 {
        fill: #ae4857;
      }

      .cls-51 {
        fill: #d4a87f;
      }

      .cls-52 {
        fill: #a04250;
      }

      .cls-53 {
        fill: #8d3a47;
      }

      .cls-54 {
        fill: #963e4c;
      }

      .cls-56 {
        fill: #9b404e;
      }

      .cls-16 {
        stroke: #795246;
      }

      .cls-57 {
        fill: #795246;
      }
    </style>
    <clipPath id="clippath">
      <path class="cls-4" d="M375.2,515.4l-9.9-1.2c4.3.5,8.5.3,12.7-.8,5.8-1.5,9.4-4.9,10.8-10.2l9.9,1.2c-1.4,5.4-5,8.8-10.8,10.2-4.1,1-8.4,1.3-12.7.8Z"/>
    </clipPath>
    <clipPath id="clippath-1">
      <path class="cls-4" d="M427.8,162.3l9.9,1.2c1.1.1,2.2.4,3.3.6.8.2,1.7.5,2.5.8l-9.9-1.2c-.8-.3-1.7-.6-2.5-.8-1.1-.3-2.2-.5-3.3-.6Z"/>
    </clipPath>
    <clipPath id="clippath-2">
      <path class="cls-4" d="M433.6,163.8l9.9,1.2c2.3.9,4.6,2.4,7.1,4.2,3.3,2.6,5.9,5.6,8,9.2,2,3.6,2.5,7.4,1.5,11.5-.5,1.9-1.8,4.2-3.8,7.1l-9.9-1.2c2.1-2.8,3.3-5.2,3.8-7.1,1.1-4.1.6-7.9-1.5-11.5-2-3.6-4.7-6.6-8-9.2-2.4-1.9-4.8-3.3-7.1-4.2Z"/>
    </clipPath>
    <clipPath id="clippath-3">
      <path class="cls-4" d="M407.8,306.1l9.9,1.2c1.9.2,3.9.6,5.9,1.1,1.8.5,3.6,1.1,5.3,1.8,4,1.6,7.5,3.8,10.6,6.5,4.4,3.9,5.9,8.8,4.3,14.8l-9.9-1.2c1.6-6,.1-10.9-4.3-14.8-3.1-2.7-6.6-4.9-10.6-6.5s-3.5-1.3-5.3-1.8c-2-.5-3.9-.9-5.9-1.1Z"/>
    </clipPath>
    <clipPath id="clippath-4">
      <path class="cls-4" d="M439.3,449.9l-9.9-1.2c3.8.5,7.7-1.1,11.7-4.6,4.5-4,7.5-8.9,9-14.5,1.6-6,1.7-11.8.3-17.3-1.2-4.8-3.9-8.1-8.2-9.9-.7-.3-1.4-.5-2.2-.7l9.9,1.2c.8.2,1.5.4,2.2.7,4.3,1.8,7,5,8.2,9.9,1.3,5.6,1.2,11.4-.3,17.3-1.5,5.7-4.5,10.5-9,14.5-4,3.5-7.9,5.1-11.7,4.6Z"/>
    </clipPath>
    <clipPath id="clippath-5">
      <path class="cls-4" d="M753.3,506.1l-10.7,2.8c-4.6,1.2-9.7,1.7-15.2,1.3s-4.8-.4-7.3-.9c-14-2.5-24.3-8.4-30.8-17.8-6.5-9.4-8.4-22.6-5.8-39.4l10.7-2.8c-2.6,16.9-.7,30,5.8,39.4,6.5,9.4,16.8,15.4,30.8,17.8,2.5.4,4.9.7,7.3.9,5.5.4,10.6,0,15.2-1.3Z"/>
    </clipPath>
    <clipPath id="clippath-6">
      <path class="cls-4" d="M730.8,299.4l10.7-2.8c-4.5,1.2-8.6,3.2-12.3,5.9-9,6.7-14.9,18.5-17.5,35.3l-10.7,2.8c2.6-16.9,8.5-28.6,17.5-35.3,3.7-2.7,7.8-4.7,12.3-5.9Z"/>
    </clipPath>
    <clipPath id="clippath-7">
      <path class="cls-4" d="M771,541.3l-10.7,2.8c13.1-3.5,24.2-10.7,33.3-21.5,9.4-11.2,15.7-27.2,18.9-47.9l10.7-2.8c-3.2,20.7-9.5,36.7-18.9,47.9-9,10.8-20.1,18-33.3,21.5Z"/>
    </clipPath>
    <clipPath id="clippath-8">
      <path class="cls-4" d="M713.4,264.1l10.7-2.8c.4-.1.8-.2,1.2-.3,9.6-2.4,19.8-3.2,30.5-2.5,4.5.3,9,.8,13.6,1.7,15.8,2.8,29.7,8.1,41.7,16,12,7.9,20.7,18.7,26.2,32.6l-10.7,2.8c-5.4-13.8-14.2-24.7-26.2-32.6-12-7.9-25.9-13.2-41.7-16-4.6-.8-9.2-1.4-13.6-1.7-10.7-.7-20.9.2-30.5,2.5-.4,0-.8.2-1.2.3Z"/>
    </clipPath>
    <clipPath id="clippath-9">
      <path class="cls-4" d="M826.6,311.5l10.7-2.8c5.4,13.8,6.5,31.1,3.3,51.8l-10.7,2.8c3.2-20.7,2.1-38-3.3-51.8Z"/>
    </clipPath>
    <clipPath id="clippath-10">
      <path class="cls-4" d="M1075.5,524l-9.9-1.2c2.6.3,5.3.3,7.9,0,5.7-.7,9.6-3.5,11.6-8.5l9.9,1.2c-2,5-5.8,7.8-11.6,8.5-2.6.3-5.3.3-7.9,0Z"/>
    </clipPath>
    <clipPath id="clippath-11">
      <path class="cls-4" d="M1159.9,192.5l9.9,1.2c2.1.3,4.2.8,6.1,1.6l-9.9-1.2c-1.9-.8-4-1.3-6.1-1.6Z"/>
    </clipPath>
    <clipPath id="clippath-12">
      <path class="cls-4" d="M1121.9,327.3l9.9,1.2c3.4.4,6.8,1.3,10.2,2.7,5.7,2.3,10.4,5.6,14.2,9.9,3.8,4.3,4.6,9.2,2.4,14.7l-9.9-1.2c2.2-5.5,1.4-10.4-2.4-14.7-3.8-4.3-8.5-7.6-14.2-9.9s-6.8-2.3-10.2-2.7Z"/>
    </clipPath>
    <clipPath id="clippath-13">
      <path class="cls-4" d="M1166,194.1l9.9,1.2c2.8,1.2,5.7,3.2,8.5,6,2.8,2.9,5,6.1,6.5,9.8,1.5,3.7,1.5,7.4,0,11.2s-2.2,3.8-4.5,6.3l-9.9-1.2c2.3-2.4,3.8-4.5,4.5-6.3,1.5-3.8,1.5-7.5,0-11.2-1.5-3.7-3.7-6.9-6.5-9.8-2.8-2.8-5.7-4.9-8.5-6Z"/>
    </clipPath>
    <clipPath id="clippath-14">
      <path class="cls-4" d="M1141.5,468.7l-9.9-1.2c3.2.4,6.7-.7,10.4-3.2,4.8-3.3,8.2-7.5,10.3-12.8s3-11,2.4-16.6c-.6-5.5-3.5-9.3-8.6-11.4l9.9,1.2c5.1,2.1,8,5.9,8.6,11.4.6,5.5-.2,11-2.4,16.6s-5.5,9.5-10.3,12.8c-3.7,2.5-7.1,3.6-10.4,3.2Z"/>
    </clipPath>
  </defs>
  <g>
    <g class="cls-73">
      <polygon class="cls-33" points="299.9 364.3 309.8 365.5 377.8 383.6 367.9 382.4 299.9 364.3"/>
      <g class="cls-73">
        <g class="cls-58">
          <g class="cls-73">
            <path class="cls-42" d="M388.8,503.1l9.9,1.2c0,.1,0,.2,0,.3l-9.9-1.2c0-.1,0-.2,0-.3"/>
            <path class="cls-53" d="M388.8,503.5l9.9,1.2c-.1.5-.3,1-.5,1.5l-9.9-1.2c.2-.5.4-1,.5-1.5"/>
            <path class="cls-24" d="M388.3,505l9.9,1.2c-.2.5-.4.9-.6,1.3l-9.9-1.2c.2-.4.4-.9.6-1.3"/>
            <path class="cls-32" d="M387.7,506.3l9.9,1.2c-.2.4-.5.9-.8,1.3l-9.9-1.2c.3-.4.5-.8.8-1.3"/>
            <path class="cls-35" d="M386.9,507.6l9.9,1.2c-.3.5-.7,1-1.1,1.4l-9.9-1.2c.4-.4.7-.9,1.1-1.4"/>
            <path class="cls-26" d="M385.8,509l9.9,1.2c-1.9,2.1-4.5,3.6-7.8,4.4-4.1,1-8.4,1.3-12.7.8l-9.9-1.2c4.3.5,8.5.3,12.7-.8,3.3-.8,5.9-2.3,7.8-4.4"/>
          </g>
        </g>
      </g>
      <g class="cls-73">
        <g class="cls-59">
          <g class="cls-73">
            <path class="cls-24" d="M427.8,162.3l9.9,1.2c.4,0,.7,0,1.1.2l-9.9-1.2c-.4,0-.7-.1-1.1-.2"/>
            <path class="cls-53" d="M428.9,162.4l9.9,1.2c.8.1,1.5.3,2.3.5,0,0,0,0,.1,0l-9.9-1.2s0,0-.1,0c-.7-.2-1.5-.4-2.3-.5"/>
            <path class="cls-42" d="M431.3,163l9.9,1.2c.6.2,1.3.4,1.9.6l-9.9-1.2c-.6-.2-1.3-.5-1.9-.6"/>
            <path class="cls-54" d="M433.2,163.6l9.9,1.2c.1,0,.3.1.4.2l-9.9-1.2c-.1,0-.3-.1-.4-.2"/>
          </g>
        </g>
      </g>
      <polygon class="cls-45" points="404.7 442.2 414.6 443.4 398.7 504.3 388.8 503.1 404.7 442.2"/>
      <polygon class="cls-46" points="446.3 195.8 456.2 197 309.8 365.5 299.9 364.3 446.3 195.8"/>
      <g class="cls-73">
        <g class="cls-62">
          <g class="cls-73">
            <path class="cls-54" d="M433.6,163.8l9.9,1.2c.6.2,1.2.5,1.8.8l-9.9-1.2c-.6-.3-1.2-.6-1.8-.8"/>
            <path class="cls-56" d="M435.4,164.6l9.9,1.2c1,.5,2,1.1,2.9,1.7l-9.9-1.2c-1-.7-2-1.2-2.9-1.7"/>
            <path class="cls-52" d="M438.4,166.3l9.9,1.2c.8.5,1.5,1.1,2.3,1.6.5.4,1,.8,1.5,1.2l-9.9-1.2c-.5-.4-1-.8-1.5-1.2-.8-.6-1.5-1.1-2.3-1.6"/>
            <path class="cls-47" d="M442.2,169.2l9.9,1.2c1.7,1.5,3.2,3.2,4.6,5l-9.9-1.2c-1.3-1.8-2.9-3.5-4.6-5"/>
            <path class="cls-39" d="M446.7,174.2l9.9,1.2c.7.9,1.3,1.9,1.9,2.9.4.7.7,1.3,1,2l-9.9-1.2c-.3-.7-.6-1.4-1-2-.6-1-1.2-2-1.9-2.9"/>
            <path class="cls-47" d="M449.6,179.2l9.9,1.2c.4,1,.7,2,.8,3l-9.9-1.2c-.2-1-.4-2-.8-3"/>
            <path class="cls-52" d="M450.5,182.2l9.9,1.2c.1.6.2,1.2.2,1.9l-9.9-1.2c0-.6,0-1.3-.2-1.9"/>
            <path class="cls-56" d="M450.6,184.1l9.9,1.2c0,.5,0,1.1,0,1.7l-9.9-1.2c0-.6,0-1.1,0-1.7"/>
            <path class="cls-54" d="M450.6,185.8l9.9,1.2c0,.5-.1,1.1-.2,1.6l-9.9-1.2c0-.5.2-1.1.2-1.6"/>
            <path class="cls-42" d="M450.4,187.4l9.9,1.2c0,.4-.2.9-.3,1.3,0,0,0,.1,0,.2l-9.9-1.2c0,0,0-.1,0-.2.1-.4.2-.9.3-1.3"/>
            <path class="cls-53" d="M450.1,188.9l9.9,1.2c0,.3-.2.7-.4,1l-9.9-1.2c.1-.4.3-.7.4-1"/>
            <path class="cls-24" d="M449.7,189.9l9.9,1.2c-.2.5-.4,1-.7,1.6l-9.9-1.2c.3-.6.5-1.1.7-1.6"/>
            <path class="cls-32" d="M449,191.5l9.9,1.2c-.4.9-1,1.8-1.7,2.8l-9.9-1.2c.7-1,1.2-1.9,1.7-2.8"/>
            <path class="cls-35" d="M447.3,194.3l9.9,1.2c-.3.5-.7,1-1,1.5l-9.9-1.2c.4-.5.7-1,1-1.5"/>
          </g>
        </g>
      </g>
      <polygon class="cls-45" points="433.9 330.3 443.8 331.5 426.8 396.7 416.9 395.5 433.9 330.3"/>
      <g class="cls-73">
        <g class="cls-61">
          <g class="cls-73">
            <path class="cls-24" d="M407.8,306.1l9.9,1.2c.6,0,1.2.2,1.8.3l-9.9-1.2c-.6-.1-1.2-.2-1.8-.3"/>
            <path class="cls-53" d="M409.7,306.4l9.9,1.2c1.3.2,2.7.5,4.1.9,0,0,.2,0,.3,0l-9.9-1.2c0,0-.2,0-.3,0-1.4-.4-2.7-.7-4.1-.9"/>
            <path class="cls-42" d="M414,307.3l9.9,1.2c1.4.4,2.8.9,4.2,1.4l-9.9-1.2c-1.4-.5-2.8-1-4.2-1.4"/>
            <path class="cls-54" d="M418.2,308.7l9.9,1.2c.3.1.6.2.8.3,1,.4,2,.9,3,1.4l-9.9-1.2c-1-.5-2-1-3-1.4s-.5-.2-.8-.3"/>
            <path class="cls-56" d="M422,310.4l9.9,1.2c1.3.7,2.5,1.4,3.7,2.2l-9.9-1.2c-1.2-.8-2.4-1.5-3.7-2.2"/>
            <path class="cls-52" d="M425.8,312.6l9.9,1.2c1.4.9,2.6,1.9,3.9,2.9,0,0,0,0,0,0l-9.9-1.2s0,0,0,0c-1.2-1.1-2.5-2-3.9-2.9"/>
            <path class="cls-47" d="M429.7,315.6l9.9,1.2c.9.8,1.7,1.7,2.4,2.6l-9.9-1.2c-.7-.9-1.5-1.8-2.4-2.6"/>
            <path class="cls-39" d="M432.1,318.2l9.9,1.2c.6.9,1.2,1.8,1.6,2.8l-9.9-1.2c-.4-1-.9-1.9-1.6-2.8"/>
            <path class="cls-47" d="M433.6,321l9.9,1.2c.3.8.6,1.7.7,2.6l-9.9-1.2c-.1-.9-.4-1.8-.7-2.6"/>
            <path class="cls-52" d="M434.4,323.6l9.9,1.2c0,.6.2,1.2.2,1.8l-9.9-1.2c0-.6,0-1.2-.2-1.8"/>
            <path class="cls-56" d="M434.5,325.4l9.9,1.2c0,.5,0,1.1,0,1.7l-9.9-1.2c0-.6,0-1.1,0-1.7"/>
            <path class="cls-54" d="M434.5,327.1l9.9,1.2c0,.6-.1,1.2-.2,1.7l-9.9-1.2c.1-.6.2-1.2.2-1.7"/>
            <path class="cls-42" d="M434.3,328.8l9.9,1.2c0,.5-.2,1-.3,1.5l-9.9-1.2c.1-.5.2-1,.3-1.5"/>
          </g>
        </g>
      </g>
      <polygon class="cls-33" points="416.9 395.5 426.8 396.7 449.9 402.9 440 401.6 416.9 395.5"/>
      <g class="cls-73">
        <g class="cls-60">
          <g class="cls-73">
            <path class="cls-53" d="M440,401.6l9.9,1.2s0,0,.1,0l-9.9-1.2s0,0-.1,0"/>
            <path class="cls-42" d="M440.2,401.7l9.9,1.2c.6.2,1.2.4,1.7.6l-9.9-1.2c-.5-.2-1.1-.4-1.7-.6"/>
            <path class="cls-54" d="M441.9,402.2l9.9,1.2c.1,0,.2,0,.3.1.4.2.8.3,1.2.5l-9.9-1.2c-.4-.2-.8-.4-1.2-.5-.1,0-.2,0-.3-.1"/>
            <path class="cls-56" d="M443.4,402.9l9.9,1.2c.5.2.9.5,1.4.8l-9.9-1.2c-.4-.3-.9-.6-1.4-.8"/>
            <path class="cls-52" d="M444.7,403.7l9.9,1.2c.5.3,1,.7,1.4,1.1l-9.9-1.2c-.4-.4-.9-.7-1.4-1.1"/>
            <path class="cls-47" d="M446.1,404.8l9.9,1.2c.7.6,1.3,1.3,1.9,2l-9.9-1.2c-.5-.8-1.2-1.4-1.9-2"/>
            <path class="cls-39" d="M448,406.8l9.9,1.2c.7.9,1.2,1.9,1.7,3.1l-9.9-1.2c-.4-1.1-1-2.1-1.7-3.1"/>
            <path class="cls-47" d="M449.7,409.9l9.9,1.2c.3.7.5,1.5.7,2.4.2.8.4,1.6.5,2.4l-9.9-1.2c-.1-.8-.3-1.6-.5-2.4-.2-.8-.5-1.6-.7-2.4"/>
            <path class="cls-52" d="M450.9,414.7l9.9,1.2c.2,1.5.4,2.9.4,4.4l-9.9-1.2c0-1.5-.2-3-.4-4.4"/>
            <path class="cls-56" d="M451.3,419.1l9.9,1.2c0,1.3,0,2.5,0,3.8l-9.9-1.2c.1-1.3.1-2.6,0-3.8"/>
            <path class="cls-54" d="M451.2,422.9l9.9,1.2c0,1.2-.3,2.5-.5,3.7l-9.9-1.2c.2-1.2.4-2.5.5-3.7"/>
            <path class="cls-42" d="M450.7,426.6l9.9,1.2c-.2,1-.4,2-.7,3,0,.2-.1.4-.2.6l-9.9-1.2c0-.2.1-.4.2-.6.3-1,.5-2,.7-3"/>
            <path class="cls-53" d="M449.9,430.2l9.9,1.2c-.3.9-.6,1.8-.9,2.7l-9.9-1.2c.3-.9.7-1.8.9-2.7"/>
            <path class="cls-24" d="M449,432.9l9.9,1.2c-.4.9-.8,1.8-1.2,2.6l-9.9-1.2c.4-.9.8-1.7,1.2-2.6"/>
            <path class="cls-32" d="M447.8,435.6l9.9,1.2c-.5.9-1,1.9-1.6,2.7l-9.9-1.2c.6-.9,1.1-1.8,1.6-2.7"/>
            <path class="cls-35" d="M446.2,438.3l9.9,1.2c-.7,1.1-1.6,2.2-2.5,3.2l-9.9-1.2c.9-1,1.8-2.1,2.5-3.2"/>
            <path class="cls-26" d="M443.7,441.5l9.9,1.2c-.8.9-1.7,1.7-2.6,2.6-4,3.5-7.9,5.1-11.7,4.6l-9.9-1.2c3.8.5,7.7-1.1,11.7-4.6.9-.8,1.8-1.7,2.6-2.6"/>
          </g>
        </g>
      </g>
      <path class="cls-48" d="M433.6,163.8c2.3.9,4.6,2.4,7.1,4.2,3.3,2.6,5.9,5.6,8,9.2,2,3.6,2.5,7.4,1.5,11.5-.5,1.9-1.8,4.2-3.8,7.1l-146.3,168.5,68,18.1,17-65.2c1.6-6,5.2-9.5,11-10.7,5.7-1.2,11.7-.9,17.9.7,1.8.5,3.6,1.1,5.3,1.8,4,1.6,7.5,3.8,10.6,6.5,4.4,3.9,5.9,8.8,4.3,14.8l-17,65.2,23.1,6.2c.8.2,1.5.4,2.2.7,4.3,1.8,7,5,8.2,9.9,1.3,5.6,1.2,11.4-.3,17.3-1.5,5.7-4.5,10.5-9,14.5-4.5,4-8.9,5.4-13.2,4.3l-23.1-6.2-15.9,60.9c-1.4,5.4-5,8.8-10.8,10.2-5.8,1.5-11.8,1.4-18-.3-1.7-.4-3.3-1-4.8-1.6-4.1-1.7-7.8-4.1-11-7.1-4.3-4.2-5.8-9-4.4-14.3l15.9-60.9-113.3-30.2c-1-.3-1.9-.6-2.8-.9-3.8-1.6-6.6-4-8.4-7.3-2.2-4.1-2.6-9-1.1-14.7.4-1.6,1.1-3.2,2.1-5,1-1.8,2.1-3.3,3.4-4.6l170.2-195.5c4.1-4.3,8.3-6.9,12.7-8,4.4-1,8.6-1,12.6,0,.8.2,1.7.5,2.5.8Z"/>
    </g>
    <path class="cls-29" d="M294.3,395.7s11.7,5.8,19.2,3.4c16-5,12.3-34.6,10.6-46.4-1.7-11.8-11.2-15.9-11.2-15.9,0,0-4.1-3.4-16.7-2-12.6,1.4-16.3,10.8-15.9,16.9.4,6.2.4,13,1.3,17.9.9,5,4.8,19.1,5.2,23.7s1.1,11,1.1,11l24.5,3.6s0-3.5,1-8.9"/>
    <path class="cls-20" d="M312.8,402s-16.2,2-19.2-8.6c0,0,5.3,6.4,19.8,4.5"/>
    <polygon class="cls-22" points="339.5 441.9 353.1 439.3 355.7 429.2 335.6 423.8 327.9 424.8 339.5 441.9"/>
    <path class="cls-57" d="M318.4,326.7c16.1,2.3,15.9,28.2,16.4,33.4.5,5.2,1.7,4.2,4.6,9.1s.7,14.2,1,17.1c.3,2.9,4.2,4.4,7.2,9.9s-1.8,11.1.2,15.5,1.4,2.2,2.2,2.9c1.8,1.4,1.4,4.3-.8,5.3s-5.2,1.6-6.2,1.6-.2,0-.3,0c-1.5-.4-3.1.2-3.8,1.6-1.9,3.8-6.6,5.7-9.5,6.5s-3.1-.3-3.7-1.8l-7-16c-.4-1-1.3-1.6-2.3-1.8l-1.7-.3c-1.6-.3-2.7-1.7-2.6-3.2l.3-5.1c0-1.1.8-2.1,1.7-2.6,14.1-7,10.9-32,9.3-44.4-1.4-11.1-6.8-13.1-8.1-13.8s-3.4-3.3-2.6-5-2.1-2.8-1.6-6.3,5.3-2.8,7.3-2.5Z"/>
    <path class="cls-57" d="M315.7,340.1c-.8,7-12.6,9.7-15.7,12.5s-.2,8.8-6.8,15c-6.6,6.2,2.4,11.7-3.1,25.2s-2.9,11.2-2.4,13.9-1.6,4.5-3.9,4c-10.5-2.1-28.6-14.4-34.1-18.2s-1.7-2.4-1.3-3.8c1.5-4.7,7.2-9.4,8.4-11s-1.9-8,.5-12.1,6.6-3.3,9-5.5c2.4-2.3-.9-9.7,3.7-16.6s14.5-7.3,17.4-8.9,3.9-11.7,20.4-10.2c0,0,9.6-.6,7.8,15.8Z"/>
    <path class="cls-30" d="M309.1,359.8c2.3,2.9,4,6.1,5.5,9.5.8,1.9,1.7,3.9,1.9,6.1,0,1-1.2,1.6-2,1.7-1,0-1.9,0-2.8-.4,0,0,0-.1,0,0,1.3.2,4.7.4,4-1.8-1.5-5.1-4.6-10.3-6.6-15h0Z"/>
    <circle class="cls-23" cx="308.2" cy="385.3" r="2.3"/>
    <path class="cls-30" d="M306,382.4c1.7,2.1,2.7,3.5,5.2,4.4,0,0,0,0,0,0-1.3.1-2.6-.2-3.6-1.1-.9-.9-1.5-2.1-1.7-3.4,0,0,0,0,0,0h0Z"/>
    <path class="cls-28" d="M298,361.8c1-3.3,5.9-4.3,8-1.7,0,0,0,.1,0,0-2.7-1.3-6-.6-7.9,1.6,0,0-.1,0,0,0h0Z"/>
    <path class="cls-28" d="M314.6,359.5c1-3.2,5.9-3.2,7.4-.3,0,.2-.6-.3-.9-.4-2-1.1-4.7-.9-6.4.8,0,0-.1,0,0,0h0Z"/>
    <circle class="cls-30" cx="304.4" cy="367.4" r="1.2"/>
    <circle class="cls-30" cx="319.7" cy="365.9" r="1.2"/>
    <rect class="cls-11" x="294" y="363.5" width="15.5" height="9.5" rx="4.2" ry="4.2" transform="translate(-39.2 35.9) rotate(-6.4)"/>
    <rect class="cls-11" x="314.9" y="361.8" width="15.5" height="9.5" rx="4.2" ry="4.2" transform="translate(-35.9 35) rotate(-5.9)"/>
    <line class="cls-11" x1="309.2" y1="365" x2="314.8" y2="364.5"/>
    <path class="cls-29" d="M371.8,466.7s8.2-5.6,9.9-7.9,4.7-8.8,5.3-9.4,1.6-1.1,2.5-.4.7,6,0,7.6-3.5,6.4-3.3,7.5,16.7-.3,26.3-1.6c0,0,2.3.1,1.9,1.6s-.8,1.5-1.7,1.7-14.6,3.7-14.8,4.4-1.2,1.6.4,1.9,16.2.5,17.8.8,2,1.5,2,2.3-.8,2-1.7,1.9-19.4-.3-19.4-.3c-.3,0-.7.7,0,1,.3.2,18.6.2,19.1.3,1,.3,1.2,1.8.4,2.5-.6.5-15.9,1-19.1,1.1s-.8.3-.9.7-.1.9.2,1.4c.7,1,11.2,3.8,12.2,4.4.8.5.9,2.2.4,2.5-.8.6-14.4-1.9-17-2s-18.9-1.2-18.9-1.2l-1.5-21Z"/>
    <path class="cls-28" d="M313.7,332.1c-10.2-.6-16.2,1.8-18.3,12.4-.2.8-.8,2-1.6,2.3-4.2,1.9-8.8,2.5-12.9,4.2-1.3.6-2.7,1.1-3.4,2.3-1.7,4.4-1.1,9.3-2.3,13.9-.8,4.2-5,3.9-7.8,5.7-3.7,2.4-2.8,7.1-2.3,11,.1,1.1.2,2.5-.7,3.4-3.4,3.9-8.3,7.4-8.4,13,0,0,0,0,0,0,0-1.1.1-2.1.5-3.2,1.1-3,3.3-5.5,5.4-7.8.7-.8,1.5-1.5,2.1-2.4.8-.8.6-2,.5-3-.7-4-1.6-9.2,2.4-11.8,2.5-1.8,6.8-1.6,7.4-5.2,2.6-15.6-1.5-15.1,15.4-19.7,1.5-.5,3.2-.7,4.4-1.7,1.3-2.3,1.4-5.1,2.8-7.4,3-6.1,11.1-7.2,16.9-6.1h0Z"/>
    <path class="cls-28" d="M331.4,366.3c2.6,4,2,9.2,1.8,13.7-.1,2.3-.5,4.1,1.4,5.8,3.2,3.2,7.3,7.4,6.7,12.4-.3,4.5-3.3,9.2.5,12.8.3.3.9.8,1.2,1.4.3.6.4,1.3.3,1.9-.1,1.3-1,2.4-2.1,2.7h0c1.1-.6,1.8-1.6,1.9-2.8.1-1.2-.6-2.2-1.5-2.9-4.1-3.6-1.4-8.8-1-13.2.4-4.8-3.4-8.5-6.4-11.7-.8-.9-1.5-1.8-1.7-3,0-1.2,0-2.3.1-3.5.5-4.5.9-9.6-1-13.7h0Z"/>
    <path class="cls-49" d="M344.3,562c-1.6,5.2-1,22.2-1,22.2,7.5,48.5,5.9,78.5,5.9,78.5l-64.5,101.3-22.5-13.4,41-89.9,1-15.3c-21.8-60.3-22.3-89.3-22.3-89.3l81.6-5.5c15.6,26.7,41,77.2,47.2,89.6,6.2,12.4,3.9,18.2,3.9,18.2l-34.9,103.9-25.1-1.6,22.8-99.4c-6.2-1.6-6.2-7.2-6.2-7.2l-37.8-38.2"/>
    <g>
      <g>
        <path class="cls-41" d="M347.9,498.1l18.1,53.3-84.7,6.5s1.1-31.8,4.4-43.3,4.4-14,3.9-16.6-5.2-14.1-7.2-21.1"/>
        <path class="cls-41" d="M348.3,498.1c-24.2,4.8-48.6,6.6-48.6,6.6-42.3-66.5-43.7-71.4-12.1-100.8l30.9,5s27.2,39.3,28.4,43.1c0,0,1,2.5,1.5,15"/>
        <path class="cls-41" d="M348.3,498.1c9.5-1.9,19.1-4.3,27.1-7.2l-2.1-28.9-24.8,5.5"/>
        <path class="cls-17" d="M309.3,485.8c1.3-6.3,5.4-10.9,5.4-10.9l33.2-7.4"/>
        <line class="cls-17" x1="293.9" y1="434.8" x2="314.8" y2="474.9"/>
      </g>
      <g>
        <ellipse class="cls-29" cx="283.1" cy="445.5" rx="12.4" ry="5.1" transform="translate(-77.7 60.2) rotate(-10.7)"/>
        <ellipse class="cls-29" cx="290.6" cy="458.7" rx="12.4" ry="5.1" transform="translate(-80 61.8) rotate(-10.7)"/>
        <ellipse class="cls-29" cx="297.8" cy="471.5" rx="12.4" ry="5.1" transform="translate(-82.2 63.4) rotate(-10.7)"/>
      </g>
      <line class="cls-41" x1="282.4" y1="476.8" x2="299.7" y2="504.6"/>
      <path class="cls-14" d="M290.2,491.5l4.6,6.4c3,4.2,8.1,6.5,13.2,6,10-1,27-2.9,40.1-5.9"/>
      <path class="cls-6" d="M289.5,405s23.2,47.1,40.4,56.4c0,0,.9-20.2-11.7-51.9"/>
      <rect class="cls-31" x="328.2" y="461.4" width="6.2" height="8.2" rx="2.8" ry="2.8" transform="translate(-127 124.2) rotate(-17.9)"/>
      <line class="cls-3" x1="330.1" y1="464.5" x2="331.1" y2="467.3"/>
      <line class="cls-3" x1="331.9" y1="464.2" x2="332.2" y2="465.2"/>
    </g>
    <path class="cls-8" d="M344.9,570.4s-1.3,12.2.7,29.7c1.9,17.5,3.1,30.7,3.1,30.7"/>
    <path class="cls-31" d="M270.1,445.6c-.3-2.5,2.5-4.1,4.4-5.2,5.1-2.5,14-4.3,19-.9.5.4.9.9.9,1.5-.4-1.2-1.6-1.7-2.6-2-4.3-1.6-21.4,1-21.7,6.6h0Z"/>
    <path class="cls-31" d="M277.9,459.2c-.3-2.5,2.5-4.1,4.4-5.2,5.1-2.5,14-4.3,19-.9.5.4.9.9.9,1.5-.4-1.2-1.6-1.7-2.6-2-4.3-1.6-21.4,1-21.7,6.6h0Z"/>
    <path class="cls-31" d="M285.1,472.2c-.3-2.5,2.5-4.1,4.4-5.2,5.1-2.5,14-4.3,19-.9.5.4.9.9.9,1.5-.4-1.2-1.6-1.7-2.6-2-4.3-1.6-21.4,1-21.7,6.6h0Z"/>
    <line class="cls-14" x1="333.3" y1="430" x2="340.9" y2="441.1"/>
    <g>
      <path class="cls-44" d="M461.5,420.4c-.2.2-.4.3-.6.4-.5.3-1.5.8-2.1.6s-1.9-1.2-1.7-1.7,1-2.3,1-2.3c0,0,0-1-.8-.6s-3.1,1.3-5,2-2.9.5-3.5-.1,0,0,0,0c-.5-.6-1.2-1.2-2-1.3s-.3,0-.5-.2c-.9-.6-1.9-1.9-1.7-2.3s0-1.2.6-1.8.6-1,.6-1c0,0-4.3-3-2.5-5s3.4-2.9,5.1-4.2,1.2-1.8,1.1-2.9,0-.1,0-.2c.1-.7,2.6-5.8,3.5-6.2s1.5-.7,2.1-.5,2,2,1.9,2.5-.8,1.6-1.3,2,.7.2,1.2.7,2.7,2.9,2.6,3.3-1,1.8-1,1.8c0,0,1.6-.3,2.2,0s2,1.7,2.4,2.7-.2,2-.5,2.3.5,0,1.1.3,1.7,2.2,2,2.7,1.4,1,.7,2.1-2.9,4.3-3.4,5.1-.2.2-.3.4l-1.2,1.2Z"/>
      <path class="cls-20" d="M455.7,398.3l-5.1,3.1,4.6-3.9c.5-.5,1.2.4.6.8h0Z"/>
      <path class="cls-20" d="M459.2,403.3l-13.5,8.7,12.9-9.6c.5-.4,1.1.4.6.8h0Z"/>
      <path class="cls-20" d="M462.6,408.5l-14,7.9,13.5-8.8c.6-.4,1.1.5.5.9h0Z"/>
      <path class="cls-20" d="M457.6,416.5l7.3-5.5-6.6,6.3c-.5.5-1.2-.3-.6-.8h0Z"/>
    </g>
    <path class="cls-5" d="M321.5,761.3"/>
    <g>
      <path class="cls-22" d="M269.9,729.7s-9.9,26-13,30.1c-2.2,3-7.7,11.3-10.5,15.6-1,1.5-.5,3.5,1.1,4.3l51.1,28.4c3.4,1.9,7-.4,8.2-4,7.8-23-14.5-26.2-22.2-40.2l15.7-20-30.5-14.2Z"/>
      <g>
        <g>
          <path class="cls-49" d="M279.1,761.7c1.6,1.5,3.7,1.4,5.6,2.4,0,0,0,.1,0,.1-1.1.5-2.3.3-3.2-.3-1-.5-1.8-1.2-2.4-2.1h0Z"/>
          <path class="cls-49" d="M281,758.9c1.6,1.5,3.7,1.4,5.6,2.4,0,0,0,.1,0,.1-1.1.5-2.3.3-3.2-.3-1-.5-1.8-1.2-2.4-2.1h0Z"/>
          <path class="cls-49" d="M283.8,755.9c1.6,1.5,3.7,1.4,5.6,2.4,0,0,0,.1,0,.1-1.1.5-2.3.3-3.2-.3-1-.5-1.8-1.2-2.4-2.1h0Z"/>
          <path class="cls-49" d="M286.4,752.4c1.6,1.5,3.7,1.4,5.6,2.4,0,0,0,.1,0,.1-1.1.5-2.3.3-3.2-.3-1-.5-1.8-1.2-2.4-2.1,0,0,0,0,0,0h0Z"/>
          <path class="cls-49" d="M289.1,749.1c1.6,1.5,3.7,1.4,5.6,2.4,0,0,0,.1,0,.1-1.1.5-2.3.3-3.2-.3-1-.5-1.8-1.2-2.4-2.1h0Z"/>
          <path class="cls-49" d="M291.2,746c1.6,1.5,3.7,1.4,5.6,2.4,0,0,0,.1,0,.1-1.1.5-2.3.3-3.2-.3-1-.5-1.8-1.2-2.4-2.1,0,0,0,0,0,0h0Z"/>
        </g>
        <circle class="cls-1" cx="291.4" cy="746.3" r=".9"/>
        <circle class="cls-1" cx="283.9" cy="756" r=".9"/>
        <circle class="cls-1" cx="281" cy="759" r=".9"/>
        <circle class="cls-1" cx="278.9" cy="761.9" r=".9"/>
        <circle class="cls-1" cx="286.2" cy="752.5" r=".9"/>
        <circle class="cls-1" cx="289.1" cy="749.2" r=".9"/>
      </g>
    </g>
    <g>
      <path class="cls-22" d="M353.9,738.2s-1.3,27.8-2.9,32.7-3.7,13.1-5.1,18.1c-.5,1.7.6,3.4,2.4,3.8l57.4,11c3.8.7,6.5-2.5,6.6-6.4.3-24.3-21.9-20.4-33.6-31.2l8.7-23.9-33.4-4Z"/>
      <g>
        <g>
          <path class="cls-49" d="M372.6,765.7c2,1,4,.2,6,.6,0,0,0,0,0,0-.9.8-2.1,1-3.2.7-1.1-.2-2.1-.6-3-1.3h0Z"/>
          <path class="cls-49" d="M373.6,762.5c2,1,4,.2,6,.6,0,0,0,0,0,0-.9.8-2.1,1-3.2.7-1.1-.2-2.1-.6-3-1.3h0Z"/>
          <path class="cls-49" d="M375.3,758.7c2,1,4,.2,6,.6,0,0,0,0,0,0-.9.8-2.1,1-3.2.7-1.1-.2-2.1-.6-3-1.3h0Z"/>
          <path class="cls-49" d="M376.6,754.5c2,1,4,.2,6,.6,0,0,0,0,0,0-.9.8-2.1,1-3.2.7-1.1-.2-2.1-.6-3-1.3h0Z"/>
          <path class="cls-49" d="M378.2,750.6c2,1,4,.2,6,.6,0,0,0,0,0,0-.9.8-2.1,1-3.2.7-1.1-.2-2.1-.6-3-1.3h0Z"/>
          <path class="cls-49" d="M379.3,747c2,1,4,.2,6,.6,0,0,0,0,0,0-.9.8-2.1,1-3.2.7-1.1-.2-2.1-.6-3-1.3h0Z"/>
        </g>
        <circle class="cls-1" cx="379.5" cy="747.2" r=".9"/>
        <circle class="cls-1" cx="375.4" cy="758.8" r=".9"/>
        <circle class="cls-1" cx="373.6" cy="762.5" r=".9"/>
        <circle class="cls-1" cx="372.5" cy="766" r=".9"/>
        <circle class="cls-1" cx="376.6" cy="754.7" r=".9"/>
        <circle class="cls-1" cx="378.3" cy="750.7" r=".9"/>
      </g>
    </g>
  </g>
  <path class="cls-44" d="M610.9,367.4l-4.2-26.9s-16.7,2-7-16.5c0,0-8.9-19.2-2.6-31.1,6.2-11.9,27.2-13.4,29.8-13.2s19.9,2.5,23.1,18.5,8.5,55.5-11.8,59.1c0,0,1.5,3.7,15.2,5.3,0,0-11,21-42.5,4.8Z"/>
  <circle class="cls-22" cx="624.5" cy="319.3" r="1.8"/>
  <circle class="cls-22" cx="644.6" cy="315.6" r="1.7"/>
  <path class="cls-30" d="M633.1,310.8c2.4,3.2,4.4,6.8,6.2,10.4.9,2,1.9,4.2,2.4,6.3,0,0,.1.9,0,.6,0,1.3-1.8,1.4-2.7,1.4-.9,0-1.7,0-2.5-.2,0,0,0,0,0,0,1.4,0,2.9,0,4.2-.6.2,0,.4-.2.3-.4-.8-3.1-2.5-5.9-3.8-8.8-1.4-2.9-2.9-5.7-4.3-8.6,0,0,0-.1,0,0h0Z"/>
  <path class="cls-43" d="M638.2,357.3s-5.8,1.4-13.8-2.2c0,0,5.5,6.8,16.7,4.5,0,0-1-.3-3-2.3Z"/>
  <path class="cls-21" d="M614.6,337.2c8.6,5.2,31.8,17.7,38.4-10.4,0,0,.3,25.6-11.1,29.5s-26.2-1.4-30.8-18.1c-.3-1.2,2.5-1.6,3.6-1Z"/>
  <path class="cls-21" d="M614.8,337.7s-3.1-36.9-6.7-43.1c0,0,6.2-9.1,12.7-9.6s14.7,11.8,19.5,12.5c4.8.7,13.3.8,15.9-4.1,2.7-4.9,1.3-15-6.9-16.2,0,0-2.3-1-7.7.5,0,0-21.3-12.2-34.4,5.5,0,0-22.6,6.4-7.9,40.3,0,0,5.7-3.3,11.6,14.2h3.9Z"/>
  <path class="cls-11" d="M652.7,506s6.3-3.3,8.9-3.7c0,0,3.5-3.7,3.7-5.9,0,0,1.1-1.1,3.3.4s2,4.3.4,6.7-6.3,6.5-4.1,10.2c2.2,3.7,21.1,15.6,21.9,17.2s-.2,3.7-7.6,3.9c-7.4.2-16.7,0-16.7,0l-19.5-10.3"/>
  <path class="cls-11" d="M801.5,502.7s-3.8,2.2-2.5,5.3.4,5.5,2,5.7,2,1.1,3.9,0c1.9-1.1,5.8-4.5,5.8-4.5"/>
  <path class="cls-30" d="M629.2,333c1.2,1.3,2.4,2.4,3.9,3.1,1,.5,1.9.8,2.9,1.3,0,0,0,0,0,0-3,.3-6.2-1.5-7-4.5,0,0,0,0,0,0h0Z"/>
  <path class="cls-30" d="M633.1,310.8c2.4,3.3,4.4,6.8,6.2,10.5,1,2.3,2.2,4.5,2.6,7-.3,1.8-4,1.2-5.3,1.1,0,0,0,0,0-.1.8,0,5.1,0,4.5-1.3-2.1-5.8-5.7-11.7-8-17.1h0Z"/>
  <path class="cls-22" d="M611.5,789.7l-1,18.9s25.1,27.1,29.5,27.9,7,2.4,11.4-.8-11.9-23.7-12.5-27.5-1.8-18.5-1.8-18.5h-25.5Z"/>
  <g>
    <path class="cls-22" d="M734.8,751.9l.3,5.8c0,1.3,1.1,2.3,2.4,2.5,9.8,1,18.4,7,23.4,11.4,1.9,1.6.7,4.7-1.8,4.7l-47.7-.3c-3.6,0-6.5-3-6.5-6.6v-18.5c.2-1.5,1.4-2.7,2.9-2.6l24.3,1.2c1.4,0,2.4,1.1,2.5,2.5Z"/>
    <circle class="cls-12" cx="731.2" cy="752.5" r="1.4"/>
    <circle class="cls-12" cx="731.3" cy="758.1" r="1.4"/>
    <path class="cls-28" d="M731,752.5c1.4-.6,2.8-.6,4.2.1-1.4.6-2.8.6-4.2-.1h0Z"/>
    <path class="cls-28" d="M731,758.2c1.4-.6,2.8-.6,4.2.1-1.4.6-2.8.6-4.2-.1h0Z"/>
  </g>
  <path class="cls-22" d="M729.5,511.5l22.4,102.9c0,18.2-13.4,137.9-13.4,137.9l-37.8-1.3,12.4-115.4-1.3-14-21.5-59.3s-6.8,42-11.1,66.1c-4.2,24.1-38.4,161.7-38.4,161.7l-32.6,1c0-26.4,30.1-167.3,30.1-167.3l-6.4-91.7,2.5-7.3s33.6-20.7,95.1-13.1Z"/>
  <path class="cls-22" d="M610.4,367.1s-12.4,8.1-18.4,16c-6,7.9-11.9,16.5-1.5,41.6s36.4,91.9,36.4,91.9l8.7,8.5,7-.4,22.9-9.6,63.6-3.4-18.4-52.3s47,39.7,80.4,52l17.3-19s-67.8-47-98.8-91.5c0,0-17.9-34.3-56.9-39,0,0-11.9,18.8-42.3,5.2Z"/>
  <line class="cls-14" x1="615.5" y1="413.2" x2="652.5" y2="505.6"/>
  <line class="cls-14" x1="695.4" y1="417.1" x2="710.8" y2="458.8"/>
  <path class="cls-28" d="M625,795.6c4.3.3,8.5.2,12.8-.2-4,1.8-8.8,1.9-12.8.2h0Z"/>
  <circle class="cls-12" cx="624.9" cy="795.6" r="1.4"/>
  <path class="cls-28" d="M625,801.1c4.3.3,8.5.2,12.8-.2-4,1.8-8.8,1.9-12.8.2h0Z"/>
  <circle class="cls-12" cx="624.9" cy="801.2" r="1.4"/>
  <path class="cls-28" d="M625,807.1c4.3.3,8.5.2,12.8-.2-4,1.8-8.8,1.9-12.8.2h0Z"/>
  <circle class="cls-12" cx="624.9" cy="807.2" r="1.4"/>
  <path class="cls-34" d="M617.1,309c1.5-3.1,6.2-3.4,8.4-1,0,0,0,.1,0,0-2.7-1.1-6-1-8.3,1,0,0-.1,0,0,0h0Z"/>
  <path class="cls-34" d="M638.3,305.9c1.5-3.1,6.2-3.4,8.4-1,0,0,0,.1,0,0-2.7-1.1-6-1-8.3,1,0,0-.1,0,0,0h0Z"/>
  <path class="cls-43" d="M601,327.1c-.6,4.7-1.6,7.6,3.8,9.3,0,0,0,.1,0,.1-4,0-6-2.5-5-6.4.2-1,.6-2.1,1.1-3,0,0,.1,0,0,0h0Z"/>
  <path class="cls-43" d="M606.6,340.4c-.7-1.8-1.2-3.7-1.2-5.7.7,1.8,1.2,3.7,1.2,5.7h0Z"/>
  <g class="cls-73">
    <g class="cls-73">
      <g class="cls-66">
        <g class="cls-73">
          <path class="cls-54" d="M683.6,452.1l10.7-2.8c-.4,2.5-.7,4.9-.9,7.2l-10.7,2.8c.2-2.3.5-4.7.9-7.2"/>
          <path class="cls-56" d="M682.7,459.4l10.7-2.8c-.2,2.4-.3,4.7-.3,7l-10.7,2.8c0-2.2,0-4.6.3-7"/>
          <path class="cls-52" d="M682.4,466.4l10.7-2.8c0,2.1.1,4.1.3,6l-10.7,2.8c-.2-1.9-.3-3.9-.3-6"/>
          <path class="cls-47" d="M682.8,472.4l10.7-2.8c.2,2,.5,3.8.9,5.6l-10.7,2.8c-.4-1.8-.7-3.7-.9-5.6"/>
          <path class="cls-39" d="M683.7,478l10.7-2.8c.5,2.1,1.1,4.2,1.8,6.1l-10.7,2.8c-.7-1.9-1.3-4-1.8-6.1"/>
          <path class="cls-50" d="M685.5,484.1l10.7-2.8c1,2.7,2.3,5.2,3.9,7.5,1.4,2.1,3,3.9,4.8,5.7l-10.7,2.8c-1.8-1.7-3.4-3.6-4.8-5.7-1.6-2.3-2.9-4.8-3.9-7.5"/>
          <path class="cls-39" d="M694.2,497.2l10.7-2.8c1.4,1.4,2.9,2.6,4.6,3.8l-10.7,2.8c-1.6-1.2-3.2-2.4-4.6-3.8"/>
          <path class="cls-47" d="M698.7,501l10.7-2.8c1.3.9,2.6,1.7,4,2.5l-10.7,2.8c-1.4-.8-2.8-1.6-4-2.5"/>
          <path class="cls-52" d="M702.8,503.5l10.7-2.8c1.3.7,2.7,1.4,4.1,2l-10.7,2.8c-1.4-.6-2.8-1.3-4.1-2"/>
          <path class="cls-56" d="M706.9,505.6l10.7-2.8c1.5.6,3,1.2,4.5,1.7l-10.7,2.8c-1.6-.5-3.1-1.1-4.5-1.7"/>
          <path class="cls-54" d="M711.5,507.2l10.7-2.8c1.7.5,3.4,1,5.3,1.4l-10.7,2.8c-1.8-.4-3.6-.9-5.3-1.4"/>
          <path class="cls-42" d="M716.7,508.7l10.7-2.8c1.1.3,2.3.5,3.5.7.9.2,1.8.3,2.7.4l-10.7,2.8c-.9-.1-1.8-.3-2.7-.4-1.2-.2-2.4-.4-3.5-.7"/>
          <path class="cls-53" d="M722.9,509.8l10.7-2.8c1.6.2,3.1.4,4.6.5s.7,0,1.1,0l-10.7,2.8c-.4,0-.7,0-1.1,0-1.5,0-3-.3-4.6-.5"/>
          <path class="cls-24" d="M728.5,510.3l10.7-2.8c1.7,0,3.5,0,5.1,0l-10.7,2.8c-1.7,0-3.4,0-5.1,0"/>
          <path class="cls-32" d="M733.6,510.3l10.7-2.8c1.7,0,3.3-.3,4.9-.5l-10.7,2.8c-1.6.3-3.2.4-4.9.5"/>
          <path class="cls-35" d="M738.6,509.8l10.7-2.8c1.4-.2,2.8-.5,4.1-.9l-10.7,2.8c-1.3.4-2.7.6-4.1.9"/>
        </g>
      </g>
    </g>
    <polygon class="cls-56" points="701 340.6 711.7 337.8 694.3 449.3 683.6 452.1 701 340.6"/>
    <g class="cls-73">
      <g class="cls-65">
        <g class="cls-73">
          <path class="cls-26" d="M730.8,299.4l10.7-2.8c-4.5,1.2-8.6,3.2-12.3,5.9-2.3,1.7-4.4,3.8-6.3,6.2l-10.7,2.8c1.9-2.4,4-4.5,6.3-6.2,3.7-2.7,7.8-4.7,12.3-5.9"/>
          <path class="cls-35" d="M712.2,311.5l10.7-2.8c-1.1,1.3-2.1,2.8-3,4.4l-10.7,2.8c.9-1.6,1.9-3,3-4.4"/>
          <path class="cls-32" d="M709.2,315.9l10.7-2.8c-.8,1.4-1.6,2.9-2.4,4.5l-10.7,2.8c.7-1.6,1.5-3.1,2.4-4.5"/>
          <path class="cls-24" d="M706.8,320.4l10.7-2.8c-.7,1.6-1.4,3.3-2.1,5.1l-10.7,2.8c.6-1.8,1.3-3.5,2.1-5.1"/>
          <path class="cls-53" d="M704.7,325.5l10.7-2.8c-.7,1.9-1.3,4-1.9,6.1l-10.7,2.8c.6-2.1,1.2-4.2,1.9-6.1"/>
          <path class="cls-42" d="M702.9,331.6l10.7-2.8c-.6,2.5-1.2,5.1-1.6,7.8l-10.7,2.8c.5-2.7,1-5.3,1.6-7.8"/>
          <path class="cls-54" d="M701.2,339.4l10.7-2.8c0,.4-.1.8-.2,1.2l-10.7,2.8c0-.4.1-.8.2-1.2"/>
        </g>
      </g>
    </g>
    <g class="cls-73">
      <g class="cls-63">
        <g class="cls-73">
          <path class="cls-54" d="M812.5,474.8l10.7-2.8c-.1.7-.2,1.3-.3,2l-10.7,2.8c.1-.6.2-1.3.3-2"/>
          <path class="cls-42" d="M812.2,476.8l10.7-2.8c-.7,4.3-1.6,8.5-2.6,12.4l-10.7,2.8c1-3.9,1.9-8,2.6-12.4"/>
          <path class="cls-53" d="M809.6,489.2l10.7-2.8c-.9,3.4-1.9,6.7-3,9.8l-10.7,2.8c1.1-3.1,2.1-6.4,3-9.8"/>
          <path class="cls-24" d="M806.6,498.9l10.7-2.8c-1,2.9-2.1,5.6-3.3,8.2l-10.7,2.8c1.2-2.6,2.3-5.3,3.3-8.2"/>
          <path class="cls-32" d="M803.3,507.1l10.7-2.8c-1.2,2.6-2.5,5-3.8,7.3l-10.7,2.8c1.4-2.3,2.7-4.7,3.8-7.3"/>
          <path class="cls-35" d="M799.4,514.4l10.7-2.8c-1.5,2.5-3.2,4.9-4.9,7.1l-10.7,2.8c1.7-2.2,3.4-4.6,4.9-7.1"/>
          <path class="cls-26" d="M794.5,521.6l10.7-2.8c-.3.4-.6.8-.9,1.1-9,10.8-20.1,18-33.3,21.5l-10.7,2.8c13.1-3.5,24.2-10.7,33.3-21.5.3-.4.6-.8.9-1.1"/>
        </g>
      </g>
    </g>
    <polygon class="cls-56" points="829.9 363.3 840.6 360.4 823.2 472 812.5 474.8 829.9 363.3"/>
    <g class="cls-73">
      <g class="cls-64">
        <g class="cls-73">
          <path class="cls-35" d="M713.4,264.1l10.7-2.8c.4-.1.8-.2,1.2-.3,2.5-.6,5-1.1,7.6-1.5l-10.7,2.8c-2.6.4-5.1.9-7.6,1.5-.4,0-.8.2-1.2.3"/>
          <path class="cls-32" d="M722.2,262.3l10.7-2.8c3.5-.6,7-.9,10.5-1.1l-10.7,2.8c-3.6.2-7.1.5-10.5,1.1"/>
          <path class="cls-24" d="M732.7,261.2l10.7-2.8c3.4-.2,6.8-.2,10.3,0l-10.7,2.8c-3.5-.2-6.9-.2-10.3,0"/>
          <path class="cls-53" d="M743,261.2l10.7-2.8c.7,0,1.4,0,2.1.1,2.9.2,5.7.5,8.7.9l-10.7,2.8c-2.9-.4-5.8-.7-8.7-.9-.7,0-1.4,0-2.1-.1"/>
          <path class="cls-42" d="M753.8,262.2l10.7-2.8c1.6.2,3.3.5,5,.8,2.2.4,4.3.8,6.4,1.3l-10.7,2.8c-2.1-.5-4.2-.9-6.4-1.3-1.7-.3-3.3-.6-5-.8"/>
          <path class="cls-54" d="M765.2,264.2l10.7-2.8c3.5.8,6.9,1.7,10.2,2.8l-10.7,2.8c-3.3-1.1-6.7-2-10.2-2.8"/>
          <path class="cls-56" d="M775.4,267l10.7-2.8c3.2,1,6.4,2.2,9.4,3.5l-10.7,2.8c-3-1.3-6.2-2.5-9.4-3.5"/>
          <path class="cls-52" d="M784.8,270.6l10.7-2.8c3.1,1.3,6.2,2.8,9.1,4.4l-10.7,2.8c-2.9-1.6-6-3.1-9.1-4.4"/>
          <path class="cls-47" d="M793.9,275l10.7-2.8c2.3,1.2,4.5,2.6,6.6,4,.7.5,1.4.9,2.1,1.4l-10.7,2.8c-.7-.5-1.4-1-2.1-1.4-2.1-1.4-4.3-2.7-6.6-4"/>
          <path class="cls-39" d="M802.6,280.4l10.7-2.8c2.8,2,5.5,4.2,7.9,6.6l-10.7,2.8c-2.5-2.4-5.1-4.6-7.9-6.6"/>
          <path class="cls-50" d="M810.5,287l10.7-2.8c7,6.7,12.3,14.9,16.1,24.5l-10.7,2.8c-3.8-9.6-9.2-17.8-16.1-24.5"/>
        </g>
      </g>
    </g>
    <path class="cls-27" d="M826.6,311.5c5.4,13.8,6.5,31.1,3.3,51.8l-17.4,111.5c-3.2,20.7-9.5,36.7-18.9,47.9-9.4,11.2-20.9,18.5-34.7,21.9-9.7,2.4-20,3.2-30.7,2.5-4.5-.3-9-.8-13.7-1.7-15.8-2.8-29.6-8.1-41.5-16-11.9-7.9-20.6-18.7-26-32.5-5.4-13.8-6.5-31.1-3.3-51.8l17.4-111.5c3.2-20.7,9.5-36.7,18.9-47.9,9.3-11.2,20.8-18.5,34.5-21.9,9.6-2.4,19.8-3.2,30.5-2.5,4.5.3,9,.8,13.6,1.7,15.8,2.8,29.7,8.1,41.7,16,12,7.9,20.7,18.7,26.2,32.6ZM790.1,356.3c2.6-16.9.6-30-6-39.5-6.6-9.4-17-15.4-31-17.9-2.5-.4-4.9-.7-7.2-.9-10.8-.7-19.9,1.7-27.4,7.2-9,6.7-14.9,18.5-17.5,35.3l-17.5,111.5c-2.6,16.9-.7,30,5.8,39.4,6.5,9.4,16.8,15.4,30.8,17.8,2.5.4,4.9.7,7.3.9,10.8.7,20-1.7,27.5-7.2,9.2-6.7,15-18.4,17.7-35.3l17.5-111.5"/>
    <g class="cls-73">
      <g class="cls-67">
        <g class="cls-73">
          <path class="cls-50" d="M826.6,311.5l10.7-2.8c0,.2.1.4.2.5l-10.7,2.8c0-.2-.1-.4-.2-.5"/>
          <path class="cls-39" d="M826.9,312.1l10.7-2.8c1.2,3.1,2.2,6.4,2.9,9.9l-10.7,2.8c-.8-3.5-1.7-6.8-2.9-9.9"/>
          <path class="cls-47" d="M829.8,322l10.7-2.8c.6,2.9,1.1,5.9,1.4,9.1l-10.7,2.8c-.3-3.1-.8-6.2-1.4-9.1"/>
          <path class="cls-52" d="M831.2,331l10.7-2.8c.3,3.1.5,6.3.5,9.7l-10.7,2.8c0-3.3-.2-6.6-.5-9.7"/>
          <path class="cls-56" d="M831.8,340.7l10.7-2.8c0,3.6-.1,7.3-.4,11.1l-10.7,2.8c.3-3.8.5-7.5.4-11.1"/>
          <path class="cls-54" d="M831.3,351.8l10.7-2.8c-.3,3.7-.8,7.6-1.4,11.5l-10.7,2.8c.6-4,1.1-7.8,1.4-11.5"/>
        </g>
      </g>
    </g>
  </g>
  <path class="cls-37" d="M704.5,504.1l32.8,6.8c2.9.6,5.5-2,4.8-4.9h0c0-.1.6.3,1.4-.6s.2-.2.2-.3c.9-1.3.2,3,0,4s3.9-.7,3.5-6.2c0,0,2,2.4,1.8,6s1,1.1,1.4.4c1-2,1.5-5.1-1.3-9.1,0,0,4.7.1,6,7.9,0,0,3.3-5.5-3.3-10.8,0,0,3-1,4.7,1,0,0,.1-3.5-4.7-4,0,0,4.1-3,7.5-9.9,0,0,15.6,2.9,20.7-7.6,0,0,.8-6.1-20.5-5.6,0,0,1.3-2.6.3-5.3,0,0,0,1.1-1.3,1.7,0,0,.9-3-1.8-6.2,0,0,5.2-12.1,2.4-15.6s-13,3.3-15.9,14.2c0,0-7.3-1.3-12.7,5.3,0,0,1.1-1.8-.8-5.8,0,0-1,.9-1.1,2.3,0,0-9.7-5.5-14.4.9,0,0-2.3-1.2-3.8-1.1,0,0,1.3,1.3,1.2,2.1,0,0-4.3.8-6.1,3.8,0,0-2.3.7-3.7,1.6,0,0,1.5,1,1.7,1.4s-4,1.6-5.2,4c0,0,1.8-.5,4.1.3,0,0-2,1-3.4,2.4,0,0,2.4,0,3.5.5,0,0-6.3,1.7-7.2,6.7h2.6c0-.1-1.6,1.3-2,3.1h2.3c0,.1-2.2,4-2.4,5.3l1-.4s-1.5,1.7-1.5,3.6c0,0,.9.8,3,.1,0,0,3.5-.4,2.6,2.2s-1.1,3.1-1.1,3.1h2.5q0,.1,0,.1c0,1.2.9,2.1,2,2.3Z"/>
  <g>
    <circle class="cls-38" cx="735.3" cy="467.7" r="1.7"/>
    <path class="cls-10" d="M736.9,467.7c0,2.2-3.3,2.2-3.3,0,0-2.2,3.3-2.2,3.3,0h0Z"/>
  </g>
  <g>
    <circle class="cls-38" cx="750.2" cy="488.1" r="1.5"/>
    <path class="cls-10" d="M751.7,488.1c0,2-3,2-3,0,0-2,3-2,3,0h0Z"/>
  </g>
  <path class="cls-25" d="M730.4,483c.8,2.1,1.8,3.5,3.7,4.6-2.4.4-4.5-2.4-3.7-4.6h0Z"/>
  <path class="cls-25" d="M718.2,464c1.2.2,2.3.5,3.2,1.3,0,0,0,.2,0,.3-1.4.2-2.8.3-4.1.9-1.2.5-2.3,1.3-3.1,2.3l-.4-.8c.8,0,2.7.3,3.4.4.4,0,.7,0,1.2.3.4.1.4.8,0,.9-1,.4-2.1.8-2.9,1.5,0,0-.2-.8-.2-.8.7.2,3.6,1,2.4,2-1,.5-2.2,1.1-3.1,1.9,0,0-.3-.8-.3-.8,1,.2,1.9.5,2.9,1,.2.1.3.4.2.7,0,.1-.2.2-.3.2-1.2.4-2.6,1-3.3,2,0,0-.3-.8-.3-.8.5.1,1.8.3,2.3.4.4,0,1.3.1,1.1.8-1.2,1.5-2.8,3-3.4,4.9,0,0-.6-.6-.6-.6,1.3-.2,2.7-.2,4,0,.3,0,.5.3.4.6,0,.2-.2.4-.4.4-.5.2-1,.7-1.3,1.1,0,0-.5-.8-.5-.8,1.5-.1,3.2-.2,4.5.8,1.7,1.5,2.8,3.8,4.5,5.3.1,0,.2.2.3.3.8,2.1,2,4.5,4.1,5.5.4.3.4.9.5,1.3.2,1.1-.2,2.3-1.1,3,0,0,0-.7,0-.7.2.1.6,0,.9-.1.2-.1.5,0,.7.2.2,1.8-1.2,3.3-2.7,4,0,0-.2-.5-.2-.5,1.6-.4,3.3-.9,4.6-1.9-1.3,1.2-2.9,1.8-4.5,2.4-.3,0-.5-.3-.2-.5,1.2-.7,2.2-1.9,2.1-3.3,0,0,.7.4.7.4-.4.3-1.1.5-1.6.3-.4,0-1-.7-.5-1.1.9-.7,1-2,.6-2.9,0,0,.3.3.3.3-2.5-1.2-3.7-3.7-4.7-6.1,0,0,.3.3.3.3-2-1.5-3-3.8-4.8-5.4-1-.8-2.5-.7-3.7-.6-.3,0-.5-.2-.6-.4,0-.5.5-.9.9-1.2.4-.3.6-.5,1.2-.6,0,0,0,1,0,1-1.2-.2-2.5-.2-3.7,0-.3,0-.6-.3-.5-.6.7-2,2.2-3.5,3.6-5.1,0,0,.2.8.2.8-.8-.2-2.1-.4-2.9-.6-1.8-.8,2.7-3,3.5-3.1,0,0,0,.9,0,.9-.7-.4-1.7-.7-2.6-.9-.3,0-.4-.3-.4-.6.9-1.2,2.3-1.7,3.5-2.3,0,0-.2.8-.2.8-.5-.5-1.3-.7-2-.9-.4,0-.5-.6-.2-.8,1-.9,2-1.3,3.2-1.7,0,0,0,.9,0,.9-.4-.2-1.5-.3-2.1-.3-.7,0-1.5-.2-2.2-.2-.4,0-.6-.5-.4-.8,1.8-2.3,5-3,7.8-2.8,0,0-.1.3-.1.3-.7-.8-1.8-1.3-2.9-1.6h0Z"/>
  <path class="cls-25" d="M760.4,474.2c5.2-.9,12.8-1.4,16.7,2.4-2.7-.9-5.4-1.6-8.2-2.1-2.8-.5-5.9-.3-8.5-.3h0Z"/>
  <path class="cls-25" d="M757.4,449.8c.3-1,.9-2.8-.5-3.2,0,0,.3-.1.2-.2,0,0,.4.3.5.4-2.7,1-5.3,2.6-7.3,4.7-1.9,2.1-3.4,4.4-4.5,7,0,0,0,0,0,0,.5-4.4,3.7-8.1,7.4-10.2,1.3-.7,2.6-1.3,4-1.7v.4c-.2-.1-.3-.2-.4-.4,0-.1,0-.3.2-.3.1,0,.2,0,.3,0,.6.2,1,.8.9,1.4,0,.8-.3,1.5-.5,2.1h0Z"/>
  <path class="cls-29" d="M721.7,514.5s8.6-4.9,10.5-7.1,5.4-8.4,6.1-8.9,1.7-.9,2.6-.2.2,6.1-.6,7.6-4,6.1-3.9,7.2,16.7,1.1,26.4.5c0,0,2.3.3,1.7,1.7s-.9,1.4-1.9,1.6-14.8,2.6-15.1,3.2-1.3,1.5.3,1.9,16.1,1.8,17.7,2.2,1.9,1.6,1.8,2.4-1,1.9-1.9,1.7-19.3-1.8-19.3-1.8c-.3,0-.8.7-.2,1,.3.2,18.5,1.7,19,1.9,1,.4,1,1.9.2,2.6-.6.5-16-.2-19.2-.4s-.8.2-1,.6-.2.9.1,1.4c.6,1,10.8,4.7,11.8,5.4.8.6.7,2.3.2,2.6-.8.5-14.2-3-16.8-3.4s-18.7-2.7-18.7-2.7l.2-21Z"/>
  <polyline class="cls-22" points="635.7 525 723.1 535.9 723.1 513.8 646 496 635.7 525"/>
  <rect class="cls-44" x="816.9" y="490.6" width="4.8" height="6.9" rx="2.4" ry="2.4" transform="translate(218.6 1238.6) rotate(-82.2)"/>
  <path class="cls-44" d="M819,496.7s0,0,0,0l-8.7-5.9c-1-.8-2.1-.8-3,0s-.6,1.4,0,2.3l-.5-.4c-1-.8-2.5-.8-3.4,0s-.9,2.6.2,3.5l.4.3c-1.1-.8-2.3-1-3.1.2-.7,1-.2,1.9.8,2.7l11.2,10.5c1,.8,2.4.8,3.3,0s.9-2.7-.2-3.5h.1c1,.8,2,.3,2.8-.7.8-1,.9-2.3,0-3.2s0,0,0,0c.9.3,1.7,0,2.3-.8h0c0-1.7-1.1-4-2.4-5Z"/>
  <path class="cls-44" d="M802.3,500.4s-2.4.7-1.7,1.9c.7,1.2,9,9.4,9.5,9.5s3.6-1.3,3.6-1.3l-11.4-10.1Z"/>
  <path class="cls-43" d="M803.6,496.3c4.5,2.7,8.6,6,12.2,9.8-4.5-2.7-8.6-6-12.2-9.8h0Z"/>
  <path class="cls-43" d="M802.2,500.2c3.7,2.4,7,5.3,9.7,8.8-3.7-2.4-7-5.3-9.7-8.8h0Z"/>
  <path class="cls-43" d="M807.1,493c4.5,2.7,8.6,6,12.2,9.8-4.5-2.7-8.6-6-12.2-9.8h0Z"/>
  <path class="cls-25" d="M744.2,459.7c3-.6,6.3-.4,9.1.8-3-.6-6-.7-9.1-.8h0Z"/>
  <path class="cls-25" d="M760.1,475.8c1,1.9.6,4.2-.3,6,.3-2.1.6-4,.3-6h0Z"/>
  <circle class="cls-25" cx="737.7" cy="480.8" r="1.6"/>
  <path class="cls-34" d="M610.6,283.7c5.8-4.7,13.7-7.5,21.2-5.8.6.2,2,.6,2.5.8.5.2,1.9.9,2.4,1.1,3.7,2,14,11.4,17.5,6.1.6-.9,0-2.2-.6-2.9-.8-.8-2-1.1-3.1-1.1,1.1,0,2.4,0,3.3.9.7.7,1.1,1.5,1.1,2.4-.2,2.4-3,3.3-5,2.8-5.3-.9-9.2-4.8-13.7-7.4-8.1-4.6-18.3-2.1-25.6,3h0Z"/>
  <g>
    <path class="cls-55" d="M1017.9,419.8s9,12.6,9.7,21.7l37-3.4-46.7-18.3Z"/>
    <path class="cls-7" d="M1028.6,424.1s6,8.3,5.5,15.1"/>
    <path class="cls-7" d="M1036.5,422.7s6,8.3,5.5,15.1"/>
    <path class="cls-7" d="M1043.5,421.2s6,8.3,5.5,15.1"/>
    <g class="cls-73">
      <polygon class="cls-40" points="1016.6 370.5 1026.5 371.7 1089.3 397.5 1079.4 396.2 1016.6 370.5"/>
      <g class="cls-73">
        <g class="cls-71">
          <g class="cls-73">
            <path class="cls-24" d="M1085,514.3l9.9,1.2c-.2.5-.4.9-.6,1.4l-9.9-1.2c.2-.4.4-.9.6-1.4"/>
            <path class="cls-32" d="M1084.4,515.7l9.9,1.2c-.2.5-.5.9-.8,1.4l-9.9-1.2c.3-.4.6-.9.8-1.4"/>
            <path class="cls-35" d="M1083.6,517.1l9.9,1.2c-.3.5-.7,1-1.1,1.4l-9.9-1.2c.4-.4.7-.9,1.1-1.4"/>
            <path class="cls-26" d="M1082.5,518.5l9.9,1.2c-2.2,2.4-5.2,3.9-9.1,4.3-2.6.3-5.3.3-7.9,0l-9.9-1.2c2.6.3,5.3.3,7.9,0,3.9-.5,6.9-1.9,9.1-4.3"/>
          </g>
        </g>
      </g>
      <polygon class="cls-36" points="1107.5 458 1117.4 459.2 1094.9 515.5 1085 514.3 1107.5 458"/>
      <g class="cls-73">
        <g class="cls-72">
          <g class="cls-73">
            <path class="cls-24" d="M1159.9,192.5l9.9,1.2c.4,0,.7,0,1.1.2l-9.9-1.2c-.4,0-.7-.1-1.1-.2"/>
            <path class="cls-53" d="M1161,192.7l9.9,1.2c.8.1,1.6.3,2.3.5l-9.9-1.2c-.8-.2-1.5-.4-2.3-.5"/>
            <path class="cls-42" d="M1163.3,193.2l9.9,1.2c.8.2,1.5.5,2.2.7l-9.9-1.2c-.7-.3-1.5-.5-2.2-.7"/>
            <path class="cls-54" d="M1165.5,193.9l9.9,1.2c.2,0,.3.1.5.2l-9.9-1.2c-.2,0-.3-.1-.5-.2"/>
          </g>
        </g>
      </g>
      <polygon class="cls-36" points="1148.7 354.6 1158.6 355.8 1134.6 416 1124.7 414.8 1148.7 354.6"/>
      <g class="cls-73">
        <g class="cls-70">
          <g class="cls-73">
            <path class="cls-24" d="M1121.9,327.3l9.9,1.2c.5,0,1.1.1,1.6.2l-9.9-1.2c-.5,0-1.1-.2-1.6-.2"/>
            <path class="cls-53" d="M1123.5,327.5l9.9,1.2c1.3.2,2.5.5,3.8.8l-9.9-1.2c-1.3-.3-2.5-.6-3.8-.8"/>
            <path class="cls-42" d="M1127.3,328.4l9.9,1.2c1.3.4,2.7.8,4,1.3l-9.9-1.2c-1.3-.5-2.7-1-4-1.3"/>
            <path class="cls-54" d="M1131.3,329.7l9.9,1.2c.3.1.6.2.9.4,1.1.5,2.2,1,3.3,1.5l-9.9-1.2c-1.1-.5-2.1-1-3.3-1.5s-.6-.2-.9-.4"/>
            <path class="cls-56" d="M1135.4,331.5l9.9,1.2c1.4.7,2.6,1.4,3.9,2.3l-9.9-1.2c-1.2-.8-2.5-1.6-3.9-2.3"/>
            <path class="cls-52" d="M1139.3,333.8l9.9,1.2c1.4.9,2.7,1.9,3.9,3l-9.9-1.2c-1.2-1.1-2.5-2.1-3.9-3"/>
            <path class="cls-47" d="M1143.3,336.8l9.9,1.2c1.1,1,2.1,2,3.1,3.1.4.4.7.8,1,1.3l-9.9-1.2c-.3-.4-.6-.8-1-1.3-1-1.1-2-2.1-3.1-3.1"/>
            <path class="cls-39" d="M1147.4,341.2l9.9,1.2c.7,1,1.3,2,1.7,3l-9.9-1.2c-.4-1-1-2-1.7-3"/>
            <path class="cls-47" d="M1149.1,344.2l9.9,1.2c.3.8.6,1.7.7,2.6l-9.9-1.2c-.1-.9-.4-1.7-.7-2.6"/>
            <path class="cls-52" d="M1149.8,346.8l9.9,1.2c0,.5.1,1.1.2,1.6l-9.9-1.2c0-.5,0-1.1-.2-1.6"/>
            <path class="cls-56" d="M1149.9,348.4l9.9,1.2c0,.5,0,1,0,1.4l-9.9-1.2c0-.5,0-1,0-1.4"/>
            <path class="cls-54" d="M1149.9,349.8l9.9,1.2c0,.5-.1,1-.2,1.4l-9.9-1.2c0-.5.2-1,.2-1.4"/>
            <path class="cls-42" d="M1149.7,351.2l9.9,1.2c0,.5-.2,1-.4,1.5l-9.9-1.2c.1-.5.3-1,.4-1.5"/>
            <path class="cls-53" d="M1149.4,352.8l9.9,1.2c-.2.6-.4,1.2-.6,1.7l-9.9-1.2c.2-.6.4-1.2.6-1.7"/>
            <path class="cls-24" d="M1148.8,354.5l9.9,1.2s0,0,0,0l-9.9-1.2s0,0,0,0"/>
          </g>
        </g>
      </g>
      <polygon class="cls-40" points="1124.7 414.8 1134.6 416 1155.9 424.8 1146.1 423.6 1124.7 414.8"/>
      <polygon class="cls-26" points="1176.6 227.4 1186.4 228.6 1026.5 371.7 1016.6 370.5 1176.6 227.4"/>
      <g class="cls-73">
        <g class="cls-69">
          <g class="cls-73">
            <path class="cls-54" d="M1166,194.1l9.9,1.2c.5.2,1,.4,1.4.7l-9.9-1.2c-.5-.2-1-.5-1.4-.7"/>
            <path class="cls-56" d="M1167.4,194.8l9.9,1.2c.7.4,1.5.8,2.2,1.3l-9.9-1.2c-.7-.5-1.5-.9-2.2-1.3"/>
            <path class="cls-52" d="M1169.6,196.1l9.9,1.2c1,.7,2.1,1.5,3.1,2.4l-9.9-1.2c-1-.9-2.1-1.7-3.1-2.4"/>
            <path class="cls-47" d="M1172.8,198.5l9.9,1.2c.6.5,1.2,1.1,1.8,1.7,1.1,1.1,2.1,2.3,3,3.6l-9.9-1.2c-.9-1.3-1.9-2.4-3-3.6-.6-.6-1.2-1.1-1.8-1.7"/>
            <path class="cls-39" d="M1177.6,203.7l9.9,1.2c1.4,1.9,2.6,4,3.5,6.2,0,0,0,.1,0,.2l-9.9-1.2c0,0,0-.1,0-.2-.9-2.2-2.1-4.3-3.5-6.2"/>
            <path class="cls-47" d="M1181.1,210.1l9.9,1.2c.4,1,.7,2.1.9,3.1l-9.9-1.2c-.2-1-.5-2.1-.9-3.1"/>
            <path class="cls-52" d="M1182,213.3l9.9,1.2c0,.6.2,1.2.2,1.8l-9.9-1.2c0-.6,0-1.2-.2-1.8"/>
            <path class="cls-56" d="M1182.2,215.1l9.9,1.2c0,.5,0,1,0,1.5l-9.9-1.2c0-.5,0-1,0-1.5"/>
            <path class="cls-54" d="M1182.1,216.6l9.9,1.2c0,.5-.1,1-.2,1.4l-9.9-1.2c0-.5.2-1,.2-1.4"/>
            <path class="cls-42" d="M1182,218l9.9,1.2c0,.5-.2,1-.3,1.4l-9.9-1.2c.1-.5.2-1,.3-1.4"/>
            <path class="cls-53" d="M1181.6,219.5l9.9,1.2c-.1.5-.3,1-.5,1.5l-9.9-1.2c.2-.5.4-1,.5-1.5"/>
            <path class="cls-24" d="M1181.1,221l9.9,1.2s0,0,0,0c-.1.3-.3.6-.4.9l-9.9-1.2c.2-.3.3-.6.4-.9s0,0,0,0"/>
            <path class="cls-32" d="M1180.7,222l9.9,1.2c-.2.5-.5,1-.9,1.5l-9.9-1.2c.3-.5.6-1,.9-1.5"/>
            <path class="cls-35" d="M1179.8,223.5l9.9,1.2c-.6,1-1.5,2-2.4,3.1l-9.9-1.2c1-1.1,1.8-2.1,2.4-3.1"/>
            <path class="cls-26" d="M1177.3,226.6l9.9,1.2c-.2.3-.5.6-.8.8l-9.9-1.2c.3-.3.5-.6.8-.8"/>
          </g>
        </g>
      </g>
      <path class="cls-48" d="M1166,194.1c2.8,1.2,5.7,3.2,8.5,6,2.8,2.9,5,6.1,6.5,9.8,1.5,3.7,1.5,7.4,0,11.2s-2.2,3.8-4.5,6.3l-159.9,143.1,62.8,25.8,24-60.2c2.2-5.5,6.1-8.5,11.7-8.9,5.6-.4,11.3.6,17,2.9s10.4,5.6,14.2,9.9c3.8,4.3,4.6,9.2,2.4,14.7l-24,60.2,21.4,8.8c5.1,2.1,8,5.9,8.6,11.4.6,5.5-.2,11-2.4,16.6s-5.5,9.5-10.3,12.8c-4.8,3.3-9.2,4.1-13.2,2.5l-21.4-8.8-22.4,56.3c-2,5-5.8,7.8-11.6,8.5-5.7.7-11.5-.1-17.2-2.5s-10.4-5.8-14-10.3c-3.7-4.6-4.5-9.3-2.5-14.2l22.4-56.3-104.6-43c-4.8-2-8.1-5.1-9.7-9.3-1.6-4.2-1.4-8.9.7-14.2s1.4-3,2.6-4.5c1.1-1.6,2.4-2.9,3.8-4l185.9-165.9c4.4-3.6,8.8-5.6,13.1-6,4.3-.4,8.3.1,12,1.6Z"/>
      <g class="cls-73">
        <g class="cls-68">
          <g class="cls-73">
            <path class="cls-54" d="M1146.1,423.6l9.9,1.2c.5.2.9.4,1.3.6l-9.9-1.2c-.4-.2-.9-.4-1.3-.6"/>
            <path class="cls-56" d="M1147.4,424.2l9.9,1.2c.5.3,1,.6,1.5.9l-9.9-1.2c-.5-.3-1-.6-1.5-.9"/>
            <path class="cls-52" d="M1148.9,425.1l9.9,1.2c.5.3,1,.7,1.5,1.1l-9.9-1.2c-.5-.4-.9-.8-1.5-1.1"/>
            <path class="cls-47" d="M1150.4,426.2l9.9,1.2c.7.6,1.3,1.3,1.8,2l-9.9-1.2c-.5-.7-1.1-1.4-1.8-2"/>
            <path class="cls-39" d="M1152.2,428.2l9.9,1.2c.6.8,1.1,1.7,1.5,2.7l-9.9-1.2c-.4-1-.9-1.9-1.5-2.7"/>
            <path class="cls-47" d="M1153.7,430.9l9.9,1.2c.4,1,.7,2,.9,3.2l-9.9-1.2c-.2-1.1-.5-2.2-.9-3.2"/>
            <path class="cls-52" d="M1154.6,434.1l9.9,1.2c0,.3,0,.6.1.9,0,.9.2,1.8.2,2.7l-9.9-1.2c0-.9,0-1.8-.2-2.7,0-.3,0-.6-.1-.9"/>
            <path class="cls-56" d="M1154.9,437.7l9.9,1.2c0,1.2,0,2.4,0,3.6l-9.9-1.2c0-1.2.1-2.4,0-3.6"/>
            <path class="cls-54" d="M1154.8,441.2l9.9,1.2c0,1.1-.2,2.2-.4,3.3l-9.9-1.2c.2-1.1.3-2.2.4-3.3"/>
            <path class="cls-42" d="M1154.4,444.6l9.9,1.2c-.2,1.1-.5,2.2-.8,3.3l-9.9-1.2c.3-1.1.6-2.2.8-3.3"/>
            <path class="cls-53" d="M1153.6,447.9l9.9,1.2c-.3,1.2-.7,2.3-1.2,3.5l-9.9-1.2c.5-1.2.9-2.3,1.2-3.5"/>
            <path class="cls-24" d="M1152.4,451.4l9.9,1.2c0,0,0,.1,0,.2-.3.9-.7,1.7-1.2,2.5l-9.9-1.2c.4-.8.8-1.7,1.2-2.5s0-.1,0-.2"/>
            <path class="cls-32" d="M1151.2,454.1l9.9,1.2c-.5.9-1,1.8-1.6,2.7l-9.9-1.2c.6-.9,1.1-1.7,1.6-2.7"/>
            <path class="cls-35" d="M1149.6,456.8l9.9,1.2c-.7,1-1.5,2-2.3,3l-9.9-1.2c.8-.9,1.6-1.9,2.3-3"/>
            <path class="cls-26" d="M1147.3,459.7l9.9,1.2c-1.5,1.7-3.3,3.2-5.3,4.6-3.7,2.5-7.1,3.6-10.4,3.2l-9.9-1.2c3.2.4,6.7-.7,10.4-3.2,2-1.4,3.8-2.9,5.3-4.6"/>
          </g>
        </g>
      </g>
    </g>
    <path class="cls-18" d="M942.5,754.9s-9.4,10-10.3,18.6l55.9,35.5s6-7.3,3.8-10.5-18.8-24.8-18.8-24.8l-30.5-18.8Z"/>
    <polygon class="cls-18" points="931.7 773.3 930.2 775.8 986.6 811.2 988.1 808.9 931.7 773.3"/>
    <rect class="cls-18" x="964.8" y="778" width="16.8" height="6.3" rx="3.2" ry="3.2" transform="translate(-188.1 324.3) rotate(-17.3)"/>
    <rect class="cls-18" x="970.1" y="785.8" width="16.8" height="6.3" rx="3.2" ry="3.2" transform="translate(-190.2 326.2) rotate(-17.3)"/>
    <path class="cls-18" d="M1038.9,762.5s-4.2,13.1-1.4,21.2l65.7,8.1s2.3-9.1-1.1-11.1c-3.4-2-27.7-14.4-27.7-14.4l-35.6-3.9Z"/>
    <polygon class="cls-18" points="1037.1 783.8 1036.8 786.7 1102.9 794.5 1103.3 791.8 1037.1 783.8"/>
    <rect class="cls-18" x="1069.5" y="770" width="16.8" height="6.3" rx="3.2" ry="3.2" transform="translate(-238.6 935.5) rotate(-42.7)"/>
    <rect class="cls-18" x="1077.7" y="774.7" width="16.8" height="6.3" rx="3.2" ry="3.2" transform="translate(-239.7 942.3) rotate(-42.7)"/>
    <path class="cls-22" d="M1028.4,617.9c1.6,18.9,2.7,36.4,1.7,43-.9,5.4-55.9,114.1-55.9,114.1l-35.9-21.7,43.5-93.5,1.2-19.6-24.4-87.1,1-6.2,84.8-5.8c18.2,26.2,54.7,107.7,54.7,107.7.8,19.8-23.3,118.2-23.3,118.2l-39.4-4.1s23.3-102.8,23.1-104.2-4.7-2.1-5.8-3.7-.8-3.5-1-5.8-23.9-30.5-23.9-30.5l-.4-.9Z"/>
    <line class="cls-9" x1="1023.5" y1="561" x2="1028.4" y2="619.2"/>
    <path class="cls-28" d="M942.8,427.5s-19.4-5.7-5.7-57.5c13.7-51.8,22.6-79.7,45.8-69.9,0,0,16.5-18.4,33.2,23.6,16.8,42,7.2,91.7,3.7,96.3"/>
    <path class="cls-57" d="M972.9,311.5c-1.7,4.1-3.8,8.2-4.1,12.7-1.1-4.5,1.2-9.3,4.1-12.7h0Z"/>
    <path class="cls-57" d="M1001.4,310.3c5.7,1.7,7.9,8.6,7.8,13.9-.2-.7-.4-1.4-.5-2-1.3-4.5-3-9.4-7.3-11.9h0Z"/>
    <path class="cls-57" d="M971.9,325.4c.9,1.8,1.2,3.7.8,5.6-.9-1.8-1.2-3.7-.8-5.6h0Z"/>
    <path class="cls-57" d="M1003.8,319.8c.9,1.8,1.2,3.7.8,5.6-.9-1.8-1.2-3.7-.8-5.6h0Z"/>
    <path class="cls-57" d="M999.2,320.5c.9,1.8,1.2,3.7.8,5.6-.9-1.8-1.2-3.7-.8-5.6h0Z"/>
    <path class="cls-57" d="M994.7,321.3c.9,1.8,1.2,3.7.8,5.6-.9-1.8-1.2-3.7-.8-5.6h0Z"/>
    <path class="cls-57" d="M990.1,322c.9,1.8,1.2,3.7.8,5.6-.9-1.8-1.2-3.7-.8-5.6h0Z"/>
    <path class="cls-57" d="M985.6,322.8c.9,1.8,1.2,3.7.8,5.6-.9-1.8-1.2-3.7-.8-5.6h0Z"/>
    <path class="cls-57" d="M981,323.6c.9,1.8,1.2,3.7.8,5.6-.9-1.8-1.2-3.7-.8-5.6h0Z"/>
    <path class="cls-57" d="M976.4,324.3c.9,1.8,1.2,3.7.8,5.6-.9-1.8-1.2-3.7-.8-5.6h0Z"/>
    <path class="cls-20" d="M1008.3,325.8l-35.4,6.2v16.4c-.1,0-1.9-2.5-3.3-.8-1.4,1.7-1.5,2-1.4,4.2.1,2.2,0,4.2,1.8,5.2,1.8,1,3.4,1.3,3.4,1.3,0,0,1.6,17.2-3.1,22.5-4.7,5.3-3.9,4.5-3.9,4.5l30.4,4.6.7-10.3c6.5-.5,10.7-7.1,12.9-12.4,3-7.2,1.1-33-2.1-41.4Z"/>
    <path class="cls-51" d="M977.5,368.9s3.8,10.5,20,10.8l-.4,5.7s-18.6-1.4-19.6-16.5Z"/>
    <ellipse class="cls-23" cx="997.9" cy="365.8" rx="2.9" ry="2.3" transform="translate(-51.3 196.3) rotate(-11)"/>
    <path class="cls-30" d="M993.4,364.5c2.6,1.3,5.4,2.2,7.4-.5.3-.3.5-.7.8-1,0,.4-.2.9-.3,1.3-1.5,3.7-5.8,3-7.8.3h0Z"/>
    <circle class="cls-30" cx="985.6" cy="344.9" r="1.1"/>
    <circle class="cls-30" cx="1004.6" cy="341.2" r="1.1"/>
    <g>
      <circle class="cls-16" cx="985.6" cy="344.9" r="6.8"/>
      <circle class="cls-2" cx="985.6" cy="344.9" r="6.8"/>
    </g>
    <g>
      <circle class="cls-16" cx="1004.7" cy="341.2" r="6.8"/>
      <circle class="cls-2" cx="1004.7" cy="341.2" r="6.8"/>
    </g>
    <path class="cls-38" d="M992.4,334c3.1,5.2,5.6,11.3,7.2,16.9.4,1.9-2.4,1.6-3.5,1.4-.4,0-.8-.1-1.1-.2h0c1.1,0,2.3,0,3.3-.3.3,0,.8-.3.7-.6-2-5-4.8-12.1-6.7-17.2,0,0,0,0,0,0h0Z"/>
    <path class="cls-15" d="M992,342.7s1.8-5.6,5.8-1.2"/>
    <path class="cls-11" d="M978.4,345.7l-8.1.5s-1.8-1.1-3.1,2"/>
    <path class="cls-28" d="M1045.2,408"/>
    <path class="cls-57" d="M1017,353.4c3.4,16.9,5.6,43.3-4.3,58.2,1.2-2.1,2.2-4.4,3-6.8,2.3-7,3-14.5,3.1-21.9.2-9.9-.6-19.8-1.8-29.6h0Z"/>
    <path class="cls-57" d="M963.1,312.2c-9.3,23.5-16.5,47.9-20.6,72.8,0,0-.4,2.6-.4,2.6l-.8,5.2c2.4-27.8,10.2-55.2,21.7-80.6h0Z"/>
    <path class="cls-29" d="M1056,449.4s8.2-5.6,9.9-7.9,4.7-8.8,5.3-9.4,1.6-1.1,2.5-.4.7,6,0,7.6-3.5,6.4-3.3,7.5,16.7-.3,26.3-1.6c0,0,2.3.1,1.9,1.6s-.8,1.5-1.7,1.7-14.6,3.7-14.8,4.4-1.2,1.6.4,1.9,16.2.5,17.8.8,2,1.5,2,2.3-.8,2-1.7,1.9-19.4-.3-19.4-.3c-.3,0-.7.7,0,1,.3.2,18.6.2,19.1.3,1,.3,1.2,1.8.4,2.5-.6.5-15.9,1-19.1,1.1s-.8.3-.9.7-.1.9.2,1.4c.7,1,11.2,3.8,12.2,4.4.8.5.9,2.2.4,2.5-.8.6-14.4-1.9-17-2s-18.9-1.2-18.9-1.2l-1.5-21Z"/>
    <path class="cls-51" d="M972.3,350.4c-.4-.5-.8-1.3-1.4-1.3-.9.3-1.3,1-1.2,1.9,0,.8,0,1.7,0,2.5.3.7.3,1.8,1.2,2-1,.1-1.5-1.1-1.8-1.8-.3-1.4-.5-2.8,0-4.1.4-.6.9-.9,1.6-1,.9,0,1.3,1.1,1.5,1.9h0Z"/>
    <path class="cls-51" d="M972.1,352.4c-.2.2-.3.3-.3.6-.1.4-.3,1.2-.5.3-.1-.5.3-1.2.8-.9h0Z"/>
    <path class="cls-15" d="M1081.1,460.6s-2.2,1.5-.6,4.7"/>
    <g>
      <path class="cls-44" d="M1149.1,427.2c-.2.2-.4.3-.6.4-.5.3-1.5.8-2.1.6s-1.9-1.2-1.7-1.7,1-2.3,1-2.3c0,0,0-1-.8-.6s-3.1,1.3-5,2-2.9.5-3.5-.1,0,0,0,0c-.5-.6-1.2-1.2-2-1.3s-.3,0-.5-.2c-.9-.6-1.9-1.9-1.7-2.3s0-1.2.6-1.8.6-1,.6-1c0,0-4.3-3-2.5-5s3.4-2.9,5.1-4.2,1.2-1.8,1.1-2.9,0-.1,0-.2c.1-.7,2.6-5.8,3.5-6.2s1.5-.7,2.1-.5,2,2,1.9,2.5-.8,1.6-1.3,2,.7.2,1.2.7,2.7,2.9,2.6,3.3-1,1.8-1,1.8c0,0,1.6-.3,2.2,0s2,1.7,2.4,2.7c.4,1-.2,2-.5,2.3s.5,0,1.1.3,1.7,2.2,2,2.7,1.4,1,.7,2.1-2.9,4.3-3.4,5.1-.2.2-.3.4l-1.2,1.2Z"/>
      <path class="cls-20" d="M1143.3,405.1l-5.1,3.1,4.6-3.9c.5-.5,1.2.4.6.8h0Z"/>
      <path class="cls-20" d="M1146.8,410.2l-13.5,8.7,12.9-9.6c.5-.4,1.1.4.6.8h0Z"/>
      <path class="cls-20" d="M1150.2,415.4l-14,7.9,13.5-8.8c.6-.4,1.1.5.5.9h0Z"/>
      <path class="cls-20" d="M1145.2,423.4l7.3-5.5-6.6,6.3c-.5.5-1.2-.3-.6-.8h0Z"/>
    </g>
    <path class="cls-55" d="M965.9,385.5s-22.3,16.4-24.4,29.4c-2.1,13,21.1,55.2,22.6,60.5s3.5,9.7,2.3,15.9c-1.2,6.2-8.8,49.2-7.8,53.7s68.5,1.1,89.8-3.5c0,0-15.6-29.7-18.5-57.3l28.2-13.2-1.6-24.8-26.8,5.9s.3-16.6-8.9-29.3c-9.2-12.7-20.4-26.2-23.1-32.6l-31.7-4.6Z"/>
    <path class="cls-19" d="M957.4,392.6s16.6,6.9,45.7,6.9"/>
    <path class="cls-19" d="M950,400.9s21.2,6.9,59.1,6.9"/>
    <path class="cls-19" d="M944.7,409.3s25,6.9,70.3,6.9"/>
    <path class="cls-19" d="M954.2,455.5s13.6,2.5,35.8-1.8"/>
    <path class="cls-19" d="M949.6,445.1s13.6,3.2,36.3.1"/>
    <path class="cls-19" d="M946,436.2s13.4,3.9,36.2,1.8"/>
    <path class="cls-19" d="M944,427.3s12.8,4,34.4,2.1"/>
    <path class="cls-19" d="M942,416s11.7,5.3,32.2,5.8"/>
    <path class="cls-19" d="M993.5,460c-20.5,6.8-33.8,5.9-33.8,5.9"/>
    <path class="cls-19" d="M968.7,479.9s11.6-4.6,25.4-18.7"/>
    <path class="cls-19" d="M978.4,490.8s9.3-10,17.2-30.6"/>
    <path class="cls-19" d="M990.2,489.9s7.2-10.6,11.2-30.7"/>
    <path class="cls-19" d="M1009.7,457.2c-1.2,20-6.9,31.2-6.9,31.2"/>
    <path class="cls-19" d="M1011.5,487.1s5.7-11.4,6.9-31.9"/>
    <path class="cls-19" d="M1020.6,485.5s5.7-11.5,6.9-32"/>
    <path class="cls-19" d="M1032,482.8s5.3-11.6,5.7-32"/>
    <path class="cls-19" d="M1042.1,477.7s4.9-10.7,4.6-29"/>
    <path class="cls-19" d="M1052.3,474s3.9-10.2,1.8-26.7"/>
    <path class="cls-19" d="M989.3,449.2s32.6,2,40.2-1"/>
    <path class="cls-19" d="M985.6,440.7s33.9,2,41.9-1"/>
    <path class="cls-19" d="M981.7,432.2s34.8,2,43-1"/>
    <path class="cls-19" d="M977.7,423.9s34.2,1.8,42.3-.9"/>
    <path class="cls-19" d="M966.6,484.1s3,.7,5.6,1.1"/>
    <path class="cls-19" d="M966,494.3s39.6,5.2,65.5,0"/>
    <path class="cls-19" d="M964.3,502.4s41.7,5.2,69.2,0"/>
    <path class="cls-19" d="M963.1,510.1s44,5.2,72.9,0"/>
    <path class="cls-19" d="M961.9,518.5s46.3,4.9,76.8,0"/>
    <path class="cls-19" d="M960.5,526.4s49.2,4.9,81.6,0"/>
    <path class="cls-19" d="M959.8,534.4s51.5,4.9,85.3,0"/>
    <path class="cls-19" d="M959,541.4s52.9,4.9,87.7,0"/>
    <polyline class="cls-13" points="972.8 416.7 994 460.4 1029.5 452.3"/>
    <path class="cls-13" d="M963.4,473.3s11.8,17.3,15.4,18.8c0,0,41-4.9,51.1-8"/>
    <path class="cls-13" d="M1020.9,422.5s7.2,10.4,8.1,18.9"/>
  </g>
</svg>