<?xml version="1.0" encoding="UTF-8"?>
<svg id="Calque_1" data-name="Calque 1" xmlns="http://www.w3.org/2000/svg" xmlns:xlink="http://www.w3.org/1999/xlink" version="1.1" viewBox="0 0 375 667">
  <defs>
    <style>
      .cls-1 {
        fill: #efcaa6;
      }

      .cls-1, .cls-2, .cls-3, .cls-4, .cls-5, .cls-6, .cls-7, .cls-8, .cls-9, .cls-10, .cls-11, .cls-12, .cls-13, .cls-14, .cls-15, .cls-16, .cls-17, .cls-18, .cls-19, .cls-20, .cls-21, .cls-22, .cls-23, .cls-24, .cls-25, .cls-26, .cls-27, .cls-28, .cls-29, .cls-30, .cls-31 {
        stroke-width: 0px;
      }

      .cls-2 {
        fill: #1a2f2f;
      }

      .cls-32 {
        clip-path: url(#clippath);
      }

      .cls-3, .cls-33, .cls-34, .cls-35, .cls-36, .cls-37, .cls-38, .cls-39 {
        fill: none;
      }

      .cls-4 {
        fill: #f59c98;
      }

      .cls-5 {
        fill: #883844;
      }

      .cls-6 {
        fill: #7a323d;
      }

      .cls-7 {
        fill: #bc4e5f;
      }

      .cls-8 {
        fill: #ac8252;
      }

      .cls-9 {
        fill: #f9e8d8;
      }

      .cls-33, .cls-34, .cls-35, .cls-36, .cls-40, .cls-38, .cls-39 {
        stroke-linecap: round;
      }

      .cls-33, .cls-34, .cls-35, .cls-41, .cls-40, .cls-37 {
        stroke-miterlimit: 10;
      }

      .cls-33, .cls-34, .cls-40 {
        stroke: #467971;
      }

      .cls-33, .cls-40 {
        stroke-width: 2px;
      }

      .cls-10 {
        fill: #1d1d1b;
      }

      .cls-11 {
        fill: #843642;
      }

      .cls-12 {
        fill: #7f3440;
      }

      .cls-13 {
        fill: #8f3b48;
      }

      .cls-42 {
        clip-path: url(#clippath-1);
      }

      .cls-43 {
        clip-path: url(#clippath-4);
      }

      .cls-44 {
        clip-path: url(#clippath-3);
      }

      .cls-45 {
        clip-path: url(#clippath-2);
      }

      .cls-46 {
        clip-path: url(#clippath-7);
      }

      .cls-47 {
        clip-path: url(#clippath-8);
      }

      .cls-48 {
        clip-path: url(#clippath-6);
      }

      .cls-49 {
        clip-path: url(#clippath-5);
      }

      .cls-50 {
        clip-path: url(#clippath-9);
      }

      .cls-35 {
        stroke: #1d1d1b;
      }

      .cls-14 {
        fill: #000;
      }

      .cls-15 {
        fill: #a94655;
      }

      .cls-51 {
        clip-path: url(#clippath-14);
      }

      .cls-52 {
        clip-path: url(#clippath-13);
      }

      .cls-53 {
        clip-path: url(#clippath-12);
      }

      .cls-54 {
        clip-path: url(#clippath-10);
      }

      .cls-55 {
        clip-path: url(#clippath-11);
      }

      .cls-36 {
        stroke: #1a2f2f;
      }

      .cls-36, .cls-38, .cls-39 {
        stroke-linejoin: round;
      }

      .cls-16 {
        fill: #953e4b;
      }

      .cls-17 {
        fill: #923c49;
      }

      .cls-18 {
        fill: #983f4c;
      }

      .cls-19 {
        fill: #78323d;
      }

      .cls-20 {
        fill: #f4d9bf;
      }

      .cls-41 {
        stroke: #e3bb94;
      }

      .cls-41, .cls-40, .cls-29 {
        fill: #fff;
      }

      .cls-21 {
        fill: #a44453;
      }

      .cls-22 {
        fill: #c15061;
      }

      .cls-23 {
        fill: #79323d;
      }

      .cls-37, .cls-38 {
        stroke: #f7cd74;
      }

      .cls-38 {
        stroke-dasharray: 0 0 0 0 2 3 3 2;
      }

      .cls-56 {
        isolation: isolate;
      }

      .cls-24 {
        fill: #ae4857;
      }

      .cls-25 {
        fill: #d4a87f;
      }

      .cls-26 {
        fill: #a04250;
      }

      .cls-27 {
        fill: #8d3a47;
      }

      .cls-28 {
        fill: #963e4c;
      }

      .cls-30 {
        fill: #9b404e;
      }

      .cls-39 {
        stroke: #795246;
      }

      .cls-31 {
        fill: #795246;
      }
    </style>
    <clipPath id="clippath">
      <path class="cls-3" d="M199.9,424.9l-10.7,2.8c-1.9.5-3.8.7-5.6.7-.4,0-.8,0-1.2,0-6.7-.4-13-3.7-19-9.9-6.3-6.5-9.5-13.4-9.5-20.6,0-7.2,3.8-14.6,11.2-22.2l10.7-2.8c-7.4,7.5-11.2,14.9-11.2,22.2,0,7.2,3.1,14.1,9.5,20.6,6,6.2,12.3,9.4,19,9.9s.8,0,1.2,0c1.9,0,3.7-.2,5.6-.7Z"/>
    </clipPath>
    <clipPath id="clippath-1">
      <path class="cls-3" d="M207.9,449.9l-10.7,2.8c8.6-2.3,17.4-7.9,26.2-16.9l10.7-2.8c-8.9,9-17.6,14.6-26.2,16.9Z"/>
    </clipPath>
    <clipPath id="clippath-2">
      <path class="cls-3" d="M230.8,315.2l10.7-2.8c-5.3,1.4-10.8,5-16.3,10.6l-10.7,2.8c5.6-5.6,11-9.2,16.3-10.6Z"/>
    </clipPath>
    <clipPath id="clippath-3">
      <path class="cls-3" d="M222.6,290.3l10.7-2.8c.3,0,.5-.1.8-.2,4.3-1,8.5-1.4,12.7-1.2s8.8,1.3,13,3.1c8.3,3.4,16,8.8,23.1,16.2,7.1,7.4,12.4,15.3,15.7,23.8l-10.7,2.8c-3.4-8.5-8.6-16.5-15.7-23.8-7.1-7.4-14.8-12.8-23.1-16.2-4.3-1.8-8.6-2.8-13-3.1s-8.4.1-12.7,1.2c-.3,0-.5.1-.8.2Z"/>
    </clipPath>
    <clipPath id="clippath-4">
      <path class="cls-3" d="M288,332l10.7-2.8c3.4,8.5,3.9,17.3,1.8,26.4-2.2,9-7.8,18.2-17,27.5l-10.7,2.8c9.1-9.3,14.8-18.4,17-27.5,2.2-9,1.6-17.8-1.8-26.4Z"/>
    </clipPath>
    <clipPath id="clippath-5">
      <path class="cls-3" d="M270.1,611.8l-9.9-1.2c1.3.2,2.7.2,4,0,3.6-.3,6.1-1.9,7.5-5l9.9,1.2c-1.4,3.1-3.9,4.7-7.5,5-1.4.1-2.7,0-4,0Z"/>
    </clipPath>
    <clipPath id="clippath-6">
      <path class="cls-3" d="M299,489.1l9.9,1.2c2.1.3,4.1.8,6.2,1.7s.7.3,1.1.5c3.5,1.6,6.4,3.8,8.6,6.6,2.2,2.8,2.6,5.9,1.1,9.3l-9.9-1.2c1.5-3.4,1.2-6.5-1.1-9.3-2.2-2.8-5.1-5-8.6-6.6-.4-.2-.7-.3-1.1-.5-2.1-.8-4.1-1.4-6.2-1.7Z"/>
    </clipPath>
    <clipPath id="clippath-7">
      <path class="cls-3" d="M326.7,405.6l9.9,1.2c1.4.2,2.7.5,3.9,1l-9.9-1.2c-1.2-.5-2.5-.8-3.9-1Z"/>
    </clipPath>
    <clipPath id="clippath-8">
      <path class="cls-3" d="M312.4,578.9l-9.9-1.2c1.9.2,4-.4,6.3-1.8,3.1-1.9,5.4-4.5,6.8-7.7,1.5-3.4,2.2-6.9,1.9-10.3-.2-3.5-1.9-5.9-5.1-7.4l9.9,1.2c3.2,1.5,4.9,3.9,5.1,7.4.2,3.5-.4,6.9-1.9,10.3-1.5,3.2-3.7,5.8-6.8,7.7-2.3,1.4-4.4,2-6.3,1.8Z"/>
    </clipPath>
    <clipPath id="clippath-9">
      <path class="cls-3" d="M330.6,406.6l9.9,1.2c.2,0,.4.2.6.3,1.8.8,3.5,2.2,5.2,4,1.7,1.9,3,4,3.8,6.3.9,2.4.8,4.7-.3,7-.5,1.1-1.5,2.4-3,3.8l-9.9-1.2c1.5-1.5,2.5-2.7,3-3.8,1-2.3,1.1-4.7.3-7-.9-2.3-2.1-4.5-3.8-6.3-1.7-1.9-3.4-3.2-5.2-4-.2,0-.4-.2-.6-.3Z"/>
    </clipPath>
    <clipPath id="clippath-10">
      <path class="cls-3" d="M135.6,310.9l-9.9-1.2c1.9.2,3.7.2,5.6,0,4.1-.5,6.9-2.5,8.3-6l9.9,1.2c-1.4,3.5-4.2,5.5-8.3,6-1.9.2-3.7.2-5.6,0Z"/>
    </clipPath>
    <clipPath id="clippath-11">
      <path class="cls-3" d="M193,74.1l9.9,1.2c1.5.2,3,.6,4.4,1.1l-9.9-1.2c-1.4-.6-2.8-.9-4.4-1.1Z"/>
    </clipPath>
    <clipPath id="clippath-12">
      <path class="cls-3" d="M165.9,170.2l9.9,1.2c2.4.3,4.9.9,7.3,2,4.1,1.7,7.4,4,10.1,7.1,2.7,3,3.3,6.5,1.7,10.5l-9.9-1.2c1.6-3.9,1-7.4-1.7-10.5-2.7-3-6.1-5.4-10.1-7.1s-4.9-1.7-7.3-2Z"/>
    </clipPath>
    <clipPath id="clippath-13">
      <path class="cls-3" d="M197.3,75.2l9.9,1.2c2,.8,4.1,2.3,6.1,4.3,2,2,3.6,4.4,4.7,7,1.1,2.6,1.1,5.3,0,8s-1.6,2.7-3.2,4.5l-9.9-1.2c1.6-1.7,2.7-3.2,3.2-4.5,1.1-2.7,1.1-5.4,0-8-1.1-2.6-2.6-4.9-4.7-7-2-2-4.1-3.5-6.1-4.3Z"/>
    </clipPath>
    <clipPath id="clippath-14">
      <path class="cls-3" d="M182.7,271.5l-9.9-1.2c2.3.3,4.8-.5,7.4-2.3,3.4-2.3,5.9-5.4,7.4-9.1s2.1-7.9,1.7-11.8-2.5-6.6-6.1-8.1l9.9,1.2c3.7,1.5,5.7,4.2,6.1,8.1s-.1,7.9-1.7,11.8-3.9,6.8-7.4,9.1c-2.6,1.8-5.1,2.6-7.4,2.3Z"/>
    </clipPath>
  </defs>
  <g class="cls-56">
    <g class="cls-56">
      <g class="cls-32">
        <g class="cls-56">
          <path class="cls-6" d="M165.2,375.7l10.7-2.8c-1.5,1.5-2.9,3.1-4.1,4.6l-10.7,2.8c1.2-1.5,2.6-3.1,4.1-4.6"/>
          <path class="cls-12" d="M161.1,380.3l10.7-2.8c-1.2,1.5-2.2,3-3.1,4.5l-10.7,2.8c.9-1.5,1.9-3,3.1-4.5"/>
          <path class="cls-11" d="M157.9,384.8l10.7-2.8c-.6,1-1.2,2-1.6,3.1l-10.7,2.8c.5-1,1-2,1.6-3.1"/>
          <path class="cls-5" d="M156.3,387.9l10.7-2.8c-.4.8-.7,1.6-1,2.4l-10.7,2.8c.3-.8.6-1.6,1-2.4"/>
          <path class="cls-27" d="M155.3,390.3l10.7-2.8c-.3.7-.5,1.4-.6,2.1l-10.7,2.8c.2-.7.4-1.4.6-2.1"/>
          <path class="cls-17" d="M154.7,392.5l10.7-2.8c-.2.6-.3,1.3-.4,1.9l-10.7,2.8c.1-.6.2-1.3.4-1.9"/>
          <path class="cls-28" d="M154.2,394.4l10.7-2.8c-.1.6-.2,1.3-.2,1.9l-10.7,2.8c0-.6.1-1.2.2-1.9"/>
          <path class="cls-30" d="M154,396.3l10.7-2.8c0,.5,0,1.1,0,1.6,0,.1,0,.2,0,.3l-10.7,2.8c0-.1,0-.2,0-.3,0-.5,0-1.1,0-1.6"/>
          <path class="cls-26" d="M153.9,398.2l10.7-2.8c0,.8,0,1.6.1,2.3l-10.7,2.8c0-.8-.1-1.5-.1-2.3"/>
          <path class="cls-21" d="M154.1,400.5l10.7-2.8c0,.9.2,1.8.4,2.6l-10.7,2.8c-.2-.9-.3-1.8-.4-2.6"/>
          <path class="cls-15" d="M154.5,403.2l10.7-2.8c.3,1.2.6,2.5,1.1,3.7l-10.7,2.8c-.5-1.2-.8-2.4-1.1-3.7"/>
          <path class="cls-24" d="M155.6,406.8l10.7-2.8c1.5,4,4.1,7.9,7.8,11.7.3.4.7.7,1.1,1.1l-10.7,2.8c-.4-.3-.7-.7-1.1-1.1-3.7-3.8-6.3-7.7-7.8-11.7"/>
          <path class="cls-15" d="M164.4,419.6l10.7-2.8c1.5,1.5,3,2.7,4.6,3.8l-10.7,2.8c-1.6-1.1-3.1-2.4-4.6-3.8"/>
          <path class="cls-21" d="M169,423.4l10.7-2.8c1,.7,2,1.3,3,1.9l-10.7,2.8c-1-.6-2-1.2-3-1.9"/>
          <path class="cls-26" d="M172,425.3l10.7-2.8c.8.4,1.6.8,2.4,1.2l-10.7,2.8c-.8-.4-1.6-.7-2.4-1.2"/>
          <path class="cls-30" d="M174.5,426.5l10.7-2.8c.7.3,1.4.6,2.2.8l-10.7,2.8c-.7-.2-1.4-.5-2.2-.8"/>
          <path class="cls-28" d="M176.6,427.3l10.7-2.8c.7.2,1.4.4,2,.6l-10.7,2.8c-.7-.2-1.4-.3-2-.6"/>
          <path class="cls-17" d="M178.7,427.8l10.7-2.8c.7.2,1.3.3,2,.4l-10.7,2.8c-.7,0-1.4-.2-2-.4"/>
          <path class="cls-27" d="M180.7,428.2l10.7-2.8c.6,0,1.1.1,1.7.2s.3,0,.4,0l-10.7,2.8c-.1,0-.3,0-.4,0-.6,0-1.1,0-1.7-.2"/>
          <path class="cls-5" d="M182.8,428.4l10.7-2.8c.3,0,.5,0,.8,0,.4,0,.8,0,1.2,0l-10.7,2.8c-.4,0-.8,0-1.2,0-.3,0-.5,0-.8,0"/>
          <path class="cls-11" d="M184.8,428.4l10.7-2.8c.7,0,1.5-.1,2.2-.2l-10.7,2.8c-.7.1-1.5.2-2.2.2"/>
          <path class="cls-12" d="M187.1,428.2l10.7-2.8c.7-.1,1.4-.3,2.2-.5l-10.7,2.8c-.7.2-1.4.3-2.2.5"/>
        </g>
      </g>
    </g>
    <g class="cls-56">
      <g class="cls-42">
        <g class="cls-56">
          <path class="cls-6" d="M223.5,435.8l10.7-2.8c-8.9,9-17.6,14.6-26.2,16.9l-10.7,2.8c8.6-2.3,17.4-7.9,26.2-16.9"/>
        </g>
      </g>
    </g>
    <polygon class="cls-23" points="214.4 325.8 225.1 323 175.8 372.9 165.2 375.7 214.4 325.8"/>
    <g class="cls-56">
      <g class="cls-45">
        <g class="cls-56">
          <path class="cls-6" d="M230.8,315.2l10.7-2.8c-5.3,1.4-10.8,5-16.3,10.6l-10.7,2.8c5.6-5.6,11-9.2,16.3-10.6"/>
        </g>
      </g>
    </g>
    <polygon class="cls-23" points="272.7 385.9 283.4 383 234.1 432.9 223.5 435.8 272.7 385.9"/>
    <g class="cls-56">
      <g class="cls-44">
        <g class="cls-56">
          <path class="cls-12" d="M222.6,290.3l10.7-2.8c.3,0,.5-.1.8-.2,1.2-.3,2.4-.5,3.6-.7l-10.7,2.8c-1.2.2-2.4.4-3.6.7-.3,0-.5.1-.8.2"/>
          <path class="cls-11" d="M227,289.4l10.7-2.8c1.5-.2,3-.4,4.5-.5l-10.7,2.8c-1.5,0-3,.2-4.5.5"/>
          <path class="cls-5" d="M231.5,288.9l10.7-2.8c1.3,0,2.6,0,3.9,0l-10.7,2.8c-1.3,0-2.6,0-3.9,0"/>
          <path class="cls-27" d="M235.4,288.9l10.7-2.8c.2,0,.5,0,.7,0,.9,0,1.9.2,2.8.3l-10.7,2.8c-.9-.1-1.9-.2-2.8-.3s-.5,0-.7,0"/>
          <path class="cls-17" d="M238.9,289.2l10.7-2.8c1.2.2,2.3.4,3.4.6l-10.7,2.8c-1.1-.3-2.3-.5-3.4-.6"/>
          <path class="cls-28" d="M242.3,289.8l10.7-2.8c1.2.3,2.3.6,3.5,1l-10.7,2.8c-1.2-.4-2.3-.7-3.5-1"/>
          <path class="cls-30" d="M245.8,290.8l10.7-2.8c1.1.4,2.2.8,3.3,1.2.2,0,.4.2.6.2l-10.7,2.8c-.2,0-.4-.2-.6-.2-1.1-.5-2.2-.9-3.3-1.2"/>
          <path class="cls-26" d="M249.7,292.3l10.7-2.8c1.8.8,3.6,1.7,5.4,2.6l-10.7,2.8c-1.8-1-3.6-1.9-5.4-2.6"/>
          <path class="cls-21" d="M255.1,294.9l10.7-2.8c2.1,1.2,4.2,2.5,6.3,4l-10.7,2.8c-2.1-1.5-4.2-2.8-6.3-4"/>
          <path class="cls-15" d="M261.4,298.8l10.7-2.8c3.1,2.2,6,4.7,8.9,7.4l-10.7,2.8c-2.9-2.8-5.9-5.3-8.9-7.4"/>
          <path class="cls-24" d="M270.3,306.3l10.7-2.8c.6.6,1.3,1.3,1.9,1.9,7.1,7.4,12.4,15.3,15.7,23.8l-10.7,2.8c-3.4-8.5-8.6-16.5-15.7-23.8-.6-.7-1.3-1.3-1.9-1.9"/>
        </g>
      </g>
    </g>
    <path class="cls-7" d="M288,332c3.4,8.5,3.9,17.3,1.8,26.4-2.2,9-7.8,18.2-17,27.5l-49.2,49.9c-9.1,9.3-18.1,15-27,17.1-4.3,1-8.4,1.4-12.6,1.2s-8.9-1.3-13.2-3.2c-8.3-3.5-16-8.9-23.2-16.3-7.1-7.4-12.4-15.3-15.6-23.7-3.3-8.5-3.9-17.2-1.7-26.3,2.2-9,7.8-18.2,17-27.5l49.2-49.9c9.1-9.3,18.1-15,27-17.1,4.3-1,8.5-1.4,12.7-1.2s8.8,1.3,13,3.1c8.3,3.4,16,8.8,23.1,16.2,7.1,7.4,12.4,15.3,15.7,23.8ZM254.7,367.3c7.5-7.5,11.2-15,11.2-22.2,0-7.3-3.2-14.2-9.5-20.7-5.9-6.1-12.2-9.4-18.7-9.8s-.9,0-1.4,0c-7.1,0-14.3,3.8-21.8,11.3l-49.2,49.9c-7.4,7.5-11.2,14.9-11.2,22.2,0,7.2,3.1,14.1,9.5,20.6,6,6.2,12.3,9.4,19,9.9s.8,0,1.2,0c7.1,0,14.4-3.7,21.9-11.2l49.2-49.9"/>
    <g class="cls-56">
      <g class="cls-43">
        <g class="cls-56">
          <path class="cls-24" d="M288,332l10.7-2.8c0,.1.1.3.2.4l-10.7,2.8c0-.1-.1-.3-.2-.4"/>
          <path class="cls-15" d="M288.1,332.4l10.7-2.8c.8,2.1,1.4,4.3,1.9,6.4l-10.7,2.8c-.5-2.2-1.1-4.3-1.9-6.4"/>
          <path class="cls-21" d="M290,338.8l10.7-2.8c.3,1.5.6,3.1.7,4.6l-10.7,2.8c-.2-1.5-.4-3.1-.7-4.6"/>
          <path class="cls-26" d="M290.8,343.5l10.7-2.8c.1,1.3.2,2.7.2,4l-10.7,2.8c0-1.3,0-2.7-.2-4"/>
          <path class="cls-30" d="M291,347.5l10.7-2.8c0,1.3,0,2.5-.1,3.8l-10.7,2.8c.1-1.3.2-2.5.1-3.8"/>
          <path class="cls-28" d="M290.9,351.3l10.7-2.8c-.1,1.3-.3,2.5-.5,3.8l-10.7,2.8c.2-1.3.4-2.5.5-3.8"/>
          <path class="cls-17" d="M290.4,355.1l10.7-2.8c-.2,1.1-.4,2.2-.7,3.3,0,.2,0,.4-.1.6l-10.7,2.8c0-.2.1-.4.1-.6.3-1.1.5-2.2.7-3.3"/>
          <path class="cls-27" d="M289.6,359l10.7-2.8c-.3,1.1-.6,2.3-1,3.4l-10.7,2.8c.4-1.1.8-2.3,1-3.4"/>
          <path class="cls-5" d="M288.5,362.4l10.7-2.8c-.5,1.3-1,2.6-1.6,4l-10.7,2.8c.6-1.3,1.1-2.6,1.6-4"/>
          <path class="cls-11" d="M286.9,366.4l10.7-2.8c-.8,1.6-1.6,3.3-2.6,4.9l-10.7,2.8c1-1.7,1.9-3.3,2.6-4.9"/>
          <path class="cls-12" d="M284.3,371.3l10.7-2.8c-1.4,2.4-3.1,4.8-5,7.2l-10.7,2.8c1.9-2.4,3.6-4.8,5-7.2"/>
          <path class="cls-6" d="M279.2,378.5l10.7-2.8c-1.9,2.4-4.1,4.9-6.5,7.3l-10.7,2.8c2.4-2.5,4.6-4.9,6.5-7.3"/>
        </g>
      </g>
    </g>
  </g>
  <g class="cls-56">
    <polygon class="cls-18" points="232.7 513.5 242.6 514.7 281.3 532.6 271.4 531.4 232.7 513.5"/>
    <g class="cls-56">
      <g class="cls-49">
        <g class="cls-56">
          <path class="cls-5" d="M271.8,605.7l9.9,1.2c0,.2-.2.3-.2.5l-9.9-1.2c0-.2.2-.3.2-.5"/>
          <path class="cls-11" d="M271.5,606.2l9.9,1.2c-.2.3-.3.6-.5.9l-9.9-1.2c.2-.3.4-.6.5-.9"/>
          <path class="cls-12" d="M271,607.1l9.9,1.2c-.2.3-.4.6-.7.9l-9.9-1.2c.2-.3.5-.6.7-.9"/>
          <path class="cls-6" d="M270.3,608l9.9,1.2c-1.4,1.6-3.4,2.5-6,2.7-1.4.1-2.7,0-4,0l-9.9-1.2c1.3.2,2.7.2,4,0,2.6-.2,4.6-1.1,6-2.7"/>
        </g>
      </g>
    </g>
    <polygon class="cls-27" points="287.4 571 297.2 572.2 281.6 606.9 271.8 605.7 287.4 571"/>
    <polygon class="cls-27" points="316 507.2 325.9 508.4 309.2 545.5 299.3 544.3 316 507.2"/>
    <g class="cls-56">
      <g class="cls-48">
        <g class="cls-56">
          <path class="cls-5" d="M299,489.1l9.9,1.2c.3,0,.7,0,1,.1l-9.9-1.2c-.3,0-.7-.1-1-.1"/>
          <path class="cls-27" d="M300,489.3l9.9,1.2c.8.1,1.5.3,2.3.5l-9.9-1.2c-.8-.2-1.5-.4-2.3-.5"/>
          <path class="cls-17" d="M302.3,489.8l9.9,1.2c.8.2,1.6.5,2.4.8l-9.9-1.2c-.8-.3-1.6-.6-2.4-.8"/>
          <path class="cls-28" d="M304.7,490.6l9.9,1.2c.2,0,.4.1.5.2.4.2.7.3,1.1.5.3.2.7.3,1,.5l-9.9-1.2c-.3-.2-.6-.3-1-.5-.4-.2-.7-.3-1.1-.5s-.4-.1-.5-.2"/>
          <path class="cls-30" d="M307.3,491.8l9.9,1.2c.9.5,1.7.9,2.5,1.5l-9.9-1.2c-.8-.5-1.6-1-2.5-1.5"/>
          <path class="cls-26" d="M309.8,493.2l9.9,1.2c.9.6,1.7,1.2,2.5,1.9l-9.9-1.2c-.8-.7-1.6-1.3-2.5-1.9"/>
          <path class="cls-21" d="M312.3,495.2l9.9,1.2c.9.8,1.8,1.7,2.6,2.7.1.1.2.3.3.4l-9.9-1.2c-.1-.1-.2-.3-.3-.4-.8-1-1.7-1.9-2.6-2.7"/>
          <path class="cls-15" d="M315.3,498.3l9.9,1.2c.5.6.8,1.3,1.1,2l-9.9-1.2c-.3-.7-.6-1.3-1.1-2"/>
          <path class="cls-21" d="M316.4,500.3l9.9,1.2c.2.5.4,1.1.5,1.6l-9.9-1.2c0-.6-.2-1.1-.5-1.6"/>
          <path class="cls-26" d="M316.8,501.9l9.9,1.2c0,.3,0,.7,0,1l-9.9-1.2c0-.3,0-.7,0-1"/>
          <path class="cls-30" d="M316.9,503l9.9,1.2c0,.3,0,.6,0,.9l-9.9-1.2c0-.3,0-.6,0-.9"/>
          <path class="cls-28" d="M316.9,503.8l9.9,1.2c0,.3,0,.6-.1.9l-9.9-1.2c0-.3,0-.6.1-.9"/>
          <path class="cls-17" d="M316.8,504.7l9.9,1.2c0,.3-.1.6-.2.9l-9.9-1.2c0-.3.2-.6.2-.9"/>
          <path class="cls-27" d="M316.6,505.6l9.9,1.2c0,.3-.2.7-.3,1l-9.9-1.2c.1-.3.3-.7.3-1"/>
          <path class="cls-5" d="M316.2,506.6l9.9,1.2c0,.2-.1.4-.2.5l-9.9-1.2c0-.2.2-.4.2-.5"/>
        </g>
      </g>
    </g>
    <polygon class="cls-18" points="299.3 544.3 309.2 545.5 322.4 551.6 312.5 550.4 299.3 544.3"/>
    <g class="cls-56">
      <g class="cls-46">
        <g class="cls-56">
          <path class="cls-5" d="M326.7,405.6l9.9,1.2c.2,0,.5,0,.7,0l-9.9-1.2c-.2,0-.5,0-.7,0"/>
          <path class="cls-27" d="M327.4,405.7l9.9,1.2c.5,0,1,.2,1.5.3l-9.9-1.2c-.5-.1-1-.2-1.5-.3"/>
          <path class="cls-17" d="M328.9,406l9.9,1.2c.5.1,1,.3,1.4.5l-9.9-1.2c-.5-.2-.9-.3-1.4-.5"/>
          <path class="cls-28" d="M330.3,406.5l9.9,1.2c0,0,.2,0,.3.1l-9.9-1.2c0,0-.2,0-.3-.1"/>
        </g>
      </g>
    </g>
    <g class="cls-56">
      <g class="cls-47">
        <g class="cls-56">
          <path class="cls-28" d="M312.5,550.4l9.9,1.2c.1,0,.3.1.4.2l-9.9-1.2c-.1,0-.3-.1-.4-.2"/>
          <path class="cls-30" d="M312.9,550.6l9.9,1.2c.4.2.7.4,1,.6l-9.9-1.2c-.3-.2-.7-.4-1-.6"/>
          <path class="cls-26" d="M313.9,551.2l9.9,1.2c.3.2.7.5,1,.7l-9.9-1.2c-.3-.3-.6-.5-1-.7"/>
          <path class="cls-21" d="M314.9,551.9l9.9,1.2c.4.4.8.8,1.2,1.3l-9.9-1.2c-.3-.5-.7-.9-1.2-1.3"/>
          <path class="cls-15" d="M316,553.2l9.9,1.2c.4.5.7,1.1.9,1.7l-9.9-1.2c-.2-.6-.6-1.2-.9-1.7"/>
          <path class="cls-21" d="M317,554.9l9.9,1.2c.2.6.4,1.2.5,1.9l-9.9-1.2c-.1-.7-.3-1.3-.5-1.9"/>
          <path class="cls-26" d="M317.5,556.8l9.9,1.2c0,.3,0,.7.1,1,0,.3,0,.5,0,.8l-9.9-1.2c0-.3,0-.5,0-.8,0-.3,0-.7-.1-1"/>
          <path class="cls-30" d="M317.6,558.6l9.9,1.2c0,.8,0,1.5,0,2.3l-9.9-1.2c0-.7,0-1.5,0-2.3"/>
          <path class="cls-28" d="M317.6,560.9l9.9,1.2c0,.7-.1,1.4-.3,2.1l-9.9-1.2c.1-.7.2-1.4.3-2.1"/>
          <path class="cls-17" d="M317.3,562.9l9.9,1.2c-.1.7-.3,1.4-.5,2l-9.9-1.2c.2-.7.3-1.4.5-2"/>
          <path class="cls-27" d="M316.9,565l9.9,1.2c-.2.7-.4,1.4-.7,2.1l-9.9-1.2c.3-.7.5-1.4.7-2.1"/>
          <path class="cls-5" d="M316.1,567.1l9.9,1.2c-.1.4-.3.7-.5,1.1-.1.3-.3.6-.4.9l-9.9-1.2c.1-.3.3-.6.4-.9.2-.4.3-.7.5-1.1"/>
          <path class="cls-11" d="M315.3,569l9.9,1.2c-.3.6-.6,1.2-1,1.7l-9.9-1.2c.4-.5.7-1.1,1-1.7"/>
          <path class="cls-12" d="M314.2,570.7l9.9,1.2c-.4.7-.9,1.3-1.4,1.9l-9.9-1.2c.5-.6,1-1.2,1.4-1.9"/>
          <path class="cls-6" d="M312.8,572.6l9.9,1.2c-1.1,1.3-2.4,2.3-3.9,3.3-2.3,1.4-4.4,2-6.3,1.8l-9.9-1.2c1.9.2,4-.4,6.3-1.8,1.5-.9,2.8-2,3.9-3.3"/>
        </g>
      </g>
    </g>
    <polygon class="cls-19" points="336.9 428.1 346.8 429.3 242.6 514.7 232.7 513.5 336.9 428.1"/>
    <g class="cls-56">
      <g class="cls-50">
        <g class="cls-56">
          <path class="cls-28" d="M330.6,406.6l9.9,1.2c.2,0,.4.2.6.3.1,0,.3.1.4.2l-9.9-1.2c-.1,0-.3-.1-.4-.2-.2,0-.4-.2-.6-.3"/>
          <path class="cls-30" d="M331.6,407.1l9.9,1.2c.4.2.9.5,1.3.8l-9.9-1.2c-.4-.3-.9-.5-1.3-.8"/>
          <path class="cls-26" d="M332.8,407.8l9.9,1.2c.6.4,1.2.9,1.8,1.4l-9.9-1.2c-.6-.5-1.2-1-1.8-1.4"/>
          <path class="cls-21" d="M334.6,409.2l9.9,1.2c.6.5,1.2,1.1,1.7,1.7.5.5.9,1.1,1.3,1.7l-9.9-1.2c-.4-.6-.9-1.1-1.3-1.7-.6-.6-1.2-1.2-1.7-1.7"/>
          <path class="cls-15" d="M337.7,412.6l9.9,1.2c.9,1.3,1.7,2.7,2.3,4.2l-9.9-1.2c-.6-1.5-1.4-2.9-2.3-4.2"/>
          <path class="cls-21" d="M340,416.7l9.9,1.2c0,.2.1.3.2.5.2.6.4,1.2.5,1.7l-9.9-1.2c0-.6-.2-1.2-.5-1.7,0-.2-.1-.3-.2-.5"/>
          <path class="cls-26" d="M340.6,419l9.9,1.2c0,.4.1.8.1,1.2l-9.9-1.2c0-.4,0-.8-.1-1.2"/>
          <path class="cls-30" d="M340.8,420.1l9.9,1.2c0,.3,0,.6,0,1l-9.9-1.2c0-.3,0-.6,0-1"/>
          <path class="cls-28" d="M340.7,421.1l9.9,1.2c0,.3,0,.6-.1.9l-9.9-1.2c0-.3,0-.6.1-.9"/>
          <path class="cls-17" d="M340.6,422l9.9,1.2c0,.3-.1.6-.2.9l-9.9-1.2c0-.3.2-.6.2-.9"/>
          <path class="cls-27" d="M340.4,422.9l9.9,1.2c0,.3-.2.6-.3.9l-9.9-1.2c.1-.3.2-.6.3-.9"/>
          <path class="cls-5" d="M340.1,423.8l9.9,1.2c0,.2-.1.3-.2.5,0,0,0,.2-.1.3l-9.9-1.2c0,0,0-.2.1-.3,0-.2.1-.3.2-.5"/>
          <path class="cls-11" d="M339.8,424.5l9.9,1.2c-.1.2-.3.5-.5.8l-9.9-1.2c.2-.3.3-.5.5-.8"/>
          <path class="cls-12" d="M339.3,425.3l9.9,1.2c-.3.5-.7,1-1.2,1.6l-9.9-1.2c.5-.6.9-1.1,1.2-1.6"/>
          <path class="cls-6" d="M338.1,426.9l9.9,1.2c-.3.4-.7.8-1.2,1.2l-9.9-1.2c.4-.4.8-.8,1.2-1.2"/>
        </g>
      </g>
    </g>
    <path class="cls-22" d="M330.6,406.6c.2,0,.4.2.6.3,1.8.8,3.5,2.2,5.2,4,1.7,1.9,3,4,3.8,6.3.9,2.4.8,4.7-.3,7-.5,1.1-1.5,2.4-3,3.8l-104.2,85.4,38.7,17.9,16.7-37.1c1.5-3.4,4.1-5.2,7.6-5.3,3.2,0,6.3.5,9.5,1.8s.7.3,1.1.5c3.5,1.6,6.4,3.8,8.6,6.6,2.2,2.8,2.6,5.9,1.1,9.3l-16.7,37.1,13.2,6.1c3.2,1.5,4.9,3.9,5.1,7.4.2,3.5-.4,6.9-1.9,10.3-1.5,3.2-3.7,5.8-6.8,7.7-3,1.9-5.7,2.3-8,1.3l-13.5-6.2-15.6,34.7c-1.4,3.1-3.9,4.7-7.5,5-3.3.2-6.5-.3-9.7-1.6s-.7-.3-1-.4c-3.5-1.6-6.3-3.9-8.5-6.9-2.2-3-2.6-6-1.2-9l15.6-34.7-64.5-29.9c-3-1.4-4.9-3.4-5.8-6.1-.9-2.7-.6-5.7.8-8.9.4-.9,1-1.8,1.7-2.8.8-1,1.6-1.8,2.5-2.4l121.1-99c2.9-2.1,5.7-3.3,8.4-3.4,2.5-.1,4.8.2,6.9,1.1Z"/>
  </g>
  <g>
    <path class="cls-29" d="M93.1,236.4s6.5,9,6.9,15.5l26.4-2.4-33.3-13.1Z"/>
    <path class="cls-33" d="M100.7,239.5s4.3,5.9,3.9,10.8"/>
    <path class="cls-33" d="M106.4,238.5s4.3,5.9,3.9,10.8"/>
    <path class="cls-33" d="M111.4,237.5s4.3,5.9,3.9,10.8"/>
    <g class="cls-56">
      <polygon class="cls-16" points="90.8 201.1 100.6 202.3 145.4 220.7 135.6 219.4 90.8 201.1"/>
      <g class="cls-56">
        <g class="cls-54">
          <g class="cls-56">
            <path class="cls-5" d="M139.6,303.7l9.9,1.2c-.1.3-.3.7-.5,1l-9.9-1.2c.2-.3.3-.6.5-1"/>
            <path class="cls-11" d="M139.1,304.7l9.9,1.2c-.2.3-.4.7-.6,1l-9.9-1.2c.2-.3.4-.6.6-1"/>
            <path class="cls-12" d="M138.6,305.7l9.9,1.2c-.2.4-.5.7-.8,1l-9.9-1.2c.3-.3.5-.6.8-1"/>
            <path class="cls-6" d="M137.8,306.7l9.9,1.2c-1.5,1.7-3.7,2.7-6.5,3.1-1.9.2-3.7.2-5.6,0l-9.9-1.2c1.9.2,3.7.2,5.6,0,2.8-.3,4.9-1.4,6.5-3.1"/>
          </g>
        </g>
      </g>
      <polygon class="cls-13" points="155.6 263.5 165.5 264.7 149.4 304.9 139.6 303.7 155.6 263.5"/>
      <g class="cls-56">
        <g class="cls-55">
          <g class="cls-56">
            <path class="cls-5" d="M193,74.1l9.9,1.2c.3,0,.5,0,.8.1l-9.9-1.2c-.3,0-.5,0-.8-.1"/>
            <path class="cls-27" d="M193.7,74.2l9.9,1.2c.6,0,1.1.2,1.7.4l-9.9-1.2c-.5-.1-1.1-.3-1.7-.4"/>
            <path class="cls-17" d="M195.4,74.5l9.9,1.2c.5.1,1.1.3,1.6.5l-9.9-1.2c-.5-.2-1.1-.4-1.6-.5"/>
            <path class="cls-28" d="M197,75.1l9.9,1.2c.1,0,.2,0,.3.1l-9.9-1.2c-.1,0-.2,0-.3-.1"/>
          </g>
        </g>
      </g>
      <polygon class="cls-13" points="185 189.7 194.9 190.9 177.8 233.9 167.9 232.7 185 189.7"/>
      <g class="cls-56">
        <g class="cls-53">
          <g class="cls-56">
            <path class="cls-5" d="M165.9,170.2l9.9,1.2c.4,0,.8.1,1.1.2l-9.9-1.2c-.4,0-.8-.1-1.1-.2"/>
            <path class="cls-27" d="M167,170.4l9.9,1.2c.9.1,1.8.3,2.7.6l-9.9-1.2c-.9-.2-1.8-.4-2.7-.6"/>
            <path class="cls-17" d="M169.7,171l9.9,1.2c.9.3,1.9.6,2.9.9l-9.9-1.2c-1-.4-1.9-.7-2.9-.9"/>
            <path class="cls-28" d="M172.6,171.9l9.9,1.2c.2,0,.4.2.6.3.8.3,1.6.7,2.3,1.1l-9.9-1.2c-.8-.4-1.5-.7-2.3-1.1s-.4-.2-.6-.3"/>
            <path class="cls-30" d="M175.5,173.3l9.9,1.2c1,.5,1.9,1,2.8,1.6l-9.9-1.2c-.9-.6-1.8-1.1-2.8-1.6"/>
            <path class="cls-26" d="M178.3,174.9l9.9,1.2c1,.7,1.9,1.4,2.8,2.2l-9.9-1.2c-.9-.8-1.8-1.5-2.8-2.2"/>
            <path class="cls-21" d="M181.1,177l9.9,1.2c.8.7,1.5,1.4,2.2,2.2.3.3.5.6.7.9l-9.9-1.2c-.2-.3-.5-.6-.7-.9-.7-.8-1.4-1.5-2.2-2.2"/>
            <path class="cls-15" d="M184.1,180.2l9.9,1.2c.5.7.9,1.4,1.2,2.1l-9.9-1.2c-.3-.7-.7-1.5-1.2-2.1"/>
            <path class="cls-21" d="M185.3,182.3l9.9,1.2c.2.6.4,1.2.5,1.8l-9.9-1.2c-.1-.6-.3-1.2-.5-1.8"/>
            <path class="cls-26" d="M185.8,184.1l9.9,1.2c0,.4,0,.8.1,1.2l-9.9-1.2c0-.4,0-.8-.1-1.2"/>
            <path class="cls-30" d="M185.9,185.3l9.9,1.2c0,.3,0,.7,0,1l-9.9-1.2c0-.3,0-.7,0-1"/>
            <path class="cls-28" d="M185.9,186.3l9.9,1.2c0,.3,0,.7-.1,1l-9.9-1.2c0-.3.1-.7.1-1"/>
            <path class="cls-17" d="M185.7,187.3l9.9,1.2c0,.4-.2.7-.3,1.1l-9.9-1.2c.1-.4.2-.7.3-1.1"/>
            <path class="cls-27" d="M185.5,188.4l9.9,1.2c-.1.4-.3.8-.4,1.2l-9.9-1.2c.2-.4.3-.8.4-1.2"/>
            <path class="cls-5" d="M185,189.7l9.9,1.2s0,0,0,0l-9.9-1.2s0,0,0,0"/>
          </g>
        </g>
      </g>
      <polygon class="cls-16" points="167.9 232.7 177.8 233.9 193 240.2 183.1 239 167.9 232.7"/>
      <polygon class="cls-6" points="204.9 99 214.8 100.2 100.6 202.3 90.8 201.1 204.9 99"/>
      <g class="cls-56">
        <g class="cls-52">
          <g class="cls-56">
            <path class="cls-28" d="M197.3,75.2l9.9,1.2c.3.1.7.3,1,.5l-9.9-1.2c-.3-.2-.7-.3-1-.5"/>
            <path class="cls-30" d="M198.4,75.7l9.9,1.2c.5.3,1,.6,1.6.9l-9.9-1.2c-.5-.3-1-.7-1.6-.9"/>
            <path class="cls-26" d="M199.9,76.6l9.9,1.2c.7.5,1.5,1,2.2,1.7l-9.9-1.2c-.7-.6-1.5-1.2-2.2-1.7"/>
            <path class="cls-21" d="M202.1,78.3l9.9,1.2c.4.4.9.8,1.3,1.2.8.8,1.5,1.7,2.2,2.6l-9.9-1.2c-.7-.9-1.4-1.8-2.2-2.6-.4-.4-.9-.8-1.3-1.2"/>
            <path class="cls-15" d="M205.6,82.1l9.9,1.2c1,1.4,1.8,2.8,2.5,4.4,0,0,0,0,0,.1l-9.9-1.2s0,0,0-.1c-.7-1.6-1.5-3.1-2.5-4.4"/>
            <path class="cls-21" d="M208.1,86.6l9.9,1.2c.3.7.5,1.5.6,2.2l-9.9-1.2c-.1-.7-.3-1.5-.6-2.2"/>
            <path class="cls-26" d="M208.8,88.9l9.9,1.2c0,.4.1.9.1,1.3l-9.9-1.2c0-.4,0-.9-.1-1.3"/>
            <path class="cls-30" d="M208.9,90.2l9.9,1.2c0,.4,0,.7,0,1.1l-9.9-1.2c0-.4,0-.7,0-1.1"/>
            <path class="cls-28" d="M208.9,91.3l9.9,1.2c0,.3,0,.7-.1,1l-9.9-1.2c0-.3.1-.7.1-1"/>
            <path class="cls-17" d="M208.7,92.3l9.9,1.2c0,.3-.1.7-.2,1l-9.9-1.2c0-.3.2-.7.2-1"/>
            <path class="cls-27" d="M208.5,93.3l9.9,1.2c-.1.4-.2.7-.4,1.1l-9.9-1.2c.1-.4.3-.7.4-1.1"/>
            <path class="cls-5" d="M208.1,94.4l9.9,1.2s0,0,0,0c0,.2-.2.4-.3.6l-9.9-1.2c.1-.2.2-.4.3-.6s0,0,0,0"/>
            <path class="cls-11" d="M207.8,95.1l9.9,1.2c-.2.3-.4.7-.6,1l-9.9-1.2c.2-.4.5-.7.6-1"/>
            <path class="cls-12" d="M207.2,96.2l9.9,1.2c-.5.7-1,1.4-1.7,2.2l-9.9-1.2c.7-.8,1.3-1.5,1.7-2.2"/>
            <path class="cls-6" d="M205.4,98.4l9.9,1.2c-.2.2-.4.4-.5.6l-9.9-1.2c.2-.2.4-.4.5-.6"/>
          </g>
        </g>
      </g>
      <g class="cls-56">
        <g class="cls-51">
          <g class="cls-56">
            <path class="cls-28" d="M183.1,239l9.9,1.2c.3.1.6.3,1,.4l-9.9-1.2c-.3-.2-.6-.3-1-.4"/>
            <path class="cls-30" d="M184.1,239.4l9.9,1.2c.4.2.7.4,1.1.6l-9.9-1.2c-.3-.2-.7-.4-1.1-.6"/>
            <path class="cls-26" d="M185.2,240l9.9,1.2c.4.2.7.5,1,.8l-9.9-1.2c-.3-.3-.7-.6-1-.8"/>
            <path class="cls-21" d="M186.2,240.8l9.9,1.2c.5.4.9.9,1.3,1.4l-9.9-1.2c-.4-.5-.8-1-1.3-1.4"/>
            <path class="cls-15" d="M187.5,242.3l9.9,1.2c.4.6.8,1.2,1.1,1.9l-9.9-1.2c-.3-.7-.6-1.3-1.1-1.9"/>
            <path class="cls-21" d="M188.6,244.2l9.9,1.2c.3.7.5,1.4.6,2.3l-9.9-1.2c-.1-.8-.3-1.6-.6-2.3"/>
            <path class="cls-26" d="M189.2,246.4l9.9,1.2c0,.2,0,.4,0,.7,0,.6.1,1.3.1,1.9l-9.9-1.2c0-.6,0-1.3-.1-1.9s0-.4,0-.7"/>
            <path class="cls-30" d="M189.4,249l9.9,1.2c0,.9,0,1.7,0,2.6l-9.9-1.2c0-.9,0-1.7,0-2.6"/>
            <path class="cls-28" d="M189.3,251.5l9.9,1.2c0,.8-.2,1.6-.3,2.4l-9.9-1.2c.1-.8.2-1.6.3-2.4"/>
            <path class="cls-17" d="M189,253.9l9.9,1.2c-.1.8-.3,1.6-.6,2.4l-9.9-1.2c.2-.8.4-1.6.6-2.4"/>
            <path class="cls-27" d="M188.5,256.3l9.9,1.2c-.2.8-.5,1.7-.9,2.5l-9.9-1.2c.3-.8.6-1.7.9-2.5"/>
            <path class="cls-5" d="M187.6,258.8l9.9,1.2s0,0,0,.1c-.2.6-.5,1.2-.8,1.8l-9.9-1.2c.3-.6.6-1.2.8-1.8s0,0,0-.1"/>
            <path class="cls-11" d="M186.8,260.7l9.9,1.2c-.3.7-.7,1.3-1.1,1.9l-9.9-1.2c.4-.6.8-1.2,1.1-1.9"/>
            <path class="cls-12" d="M185.6,262.6l9.9,1.2c-.5.7-1,1.5-1.6,2.1l-9.9-1.2c.6-.7,1.1-1.4,1.6-2.1"/>
            <path class="cls-6" d="M184,264.7l9.9,1.2c-1.1,1.2-2.3,2.3-3.8,3.3-2.6,1.8-5.1,2.6-7.4,2.3l-9.9-1.2c2.3.3,4.8-.5,7.4-2.3,1.4-1,2.7-2.1,3.8-3.3"/>
          </g>
        </g>
      </g>
      <path class="cls-22" d="M197.3,75.2c2,.8,4.1,2.3,6.1,4.3,2,2,3.6,4.4,4.7,7,1.1,2.6,1.1,5.3,0,8s-1.6,2.7-3.2,4.5l-114.1,102.1,44.8,18.4,17.1-43c1.6-3.9,4.4-6.1,8.4-6.3,4-.3,8,.4,12.1,2.1s7.4,4,10.1,7.1c2.7,3,3.3,6.5,1.7,10.5l-17.1,43,15.2,6.3c3.7,1.5,5.7,4.2,6.1,8.1s-.1,7.9-1.7,11.8-3.9,6.8-7.4,9.1c-3.4,2.3-6.5,2.9-9.4,1.8l-15.2-6.3-16,40.2c-1.4,3.5-4.2,5.5-8.3,6-4.1.5-8.2-.1-12.2-1.8s-7.4-4.1-10-7.4c-2.6-3.2-3.2-6.6-1.8-10.2l16-40.2-74.7-30.6c-3.5-1.4-5.8-3.6-6.9-6.6-1.2-3-1-6.4.5-10.1s1-2.1,1.8-3.2c.8-1.1,1.7-2.1,2.7-2.9l132.7-118.4c3.1-2.6,6.3-4,9.3-4.3s5.9,0,8.6,1.2Z"/>
    </g>
    <path class="cls-41" d="M39.3,475.5s-6.7,7.2-7.4,13.3l39.9,25.3s4.3-5.2,2.7-7.5-13.4-17.7-13.4-17.7l-21.8-13.4Z"/>
    <polygon class="cls-41" points="31.6 488.7 30.5 490.5 70.7 515.7 71.8 514.1 31.6 488.7"/>
    <rect class="cls-41" x="55.2" y="492" width="12" height="4.5" rx="2.1" ry="2.1" transform="translate(-144.1 40.5) rotate(-17.3)"/>
    <rect class="cls-41" x="59" y="497.6" width="12" height="4.5" rx="2.1" ry="2.1" transform="translate(-145.5 41.9) rotate(-17.3)"/>
    <path class="cls-41" d="M108.1,481s-3,9.3-1,15.2l46.9,5.8s1.6-6.5-.8-7.9c-2.4-1.4-19.7-10.2-19.7-10.2l-25.4-2.8Z"/>
    <polygon class="cls-41" points="106.8 496.1 106.6 498.2 153.7 503.8 154 501.9 106.8 496.1"/>
    <rect class="cls-41" x="129.9" y="486.3" width="12" height="4.5" rx="2.1" ry="2.1" transform="translate(-295.2 221.5) rotate(-42.7)"/>
    <rect class="cls-41" x="135.7" y="489.7" width="12" height="4.5" rx="2.1" ry="2.1" transform="translate(-295.9 226.4) rotate(-42.7)"/>
    <path class="cls-2" d="M100.6,377.7c1.1,13.5,2,26,1.2,30.7-.6,3.9-39.9,81.4-39.9,81.4l-25.6-15.5,31.1-66.7.9-14-17.4-62.1.7-4.4,60.5-4.1c13,18.7,39,76.9,39,76.9.6,14.1-16.6,84.4-16.6,84.4l-28.1-2.9s16.6-73.3,16.5-74.4-3.4-1.5-4.1-2.7-.6-2.5-.7-4.1-17.1-21.8-17.1-21.8l-.3-.6Z"/>
    <line class="cls-34" x1="97.1" y1="337.2" x2="100.6" y2="378.7"/>
    <path class="cls-8" d="M39.5,241.9s-13.8-4.1-4.1-41c9.8-37,16.2-56.8,32.7-49.9,0,0,11.7-13.1,23.7,16.9,12,30,5.1,65.4,2.7,68.7"/>
    <path class="cls-31" d="M60.9,159.1c-1,3.1-2.5,5.8-2.9,9.1-1-3.2.7-6.8,2.9-9.1h0Z"/>
    <path class="cls-31" d="M81.3,158.3c4.2,1,5.8,6.1,5.6,10-1.2-3.6-2.2-7.7-5.6-10h0Z"/>
    <path class="cls-31" d="M60.2,169.1c.9,1.2,1,2.6.5,4-.9-1.2-1-2.6-.5-4h0Z"/>
    <path class="cls-31" d="M83,165c.9,1.2,1,2.6.5,4-.9-1.2-1-2.6-.5-4h0Z"/>
    <path class="cls-31" d="M79.8,165.6c.9,1.2,1,2.6.5,4-.9-1.2-1-2.6-.5-4h0Z"/>
    <path class="cls-31" d="M76.5,166.1c.9,1.2,1,2.6.5,4-.9-1.2-1-2.6-.5-4h0Z"/>
    <path class="cls-31" d="M73.3,166.7c.9,1.2,1,2.6.5,4-.9-1.2-1-2.6-.5-4h0Z"/>
    <path class="cls-31" d="M70,167.2c.9,1.2,1,2.6.5,4-.9-1.2-1-2.6-.5-4h0Z"/>
    <path class="cls-31" d="M66.7,167.7c.9,1.2,1,2.6.5,4-.9-1.2-1-2.6-.5-4h0Z"/>
    <path class="cls-31" d="M63.5,168.3c.9,1.2,1,2.6.5,4-.9-1.2-1-2.6-.5-4h0Z"/>
    <path class="cls-1" d="M86.2,169.4l-25.3,4.4v11.7c0,0-1.4-1.8-2.4-.6-1,1.2-1.1,1.5-1,3,0,1.5,0,3,1.3,3.7s2.4.9,2.4.9c0,0,1.1,12.3-2.2,16.1s-2.8,3.2-2.8,3.2l21.7,3.3.5-7.4c4.6-.3,7.6-5.1,9.2-8.9,2.1-5.1.8-23.6-1.5-29.6Z"/>
    <path class="cls-25" d="M64.2,200.1s2.7,7.5,14.3,7.7l-.3,4.1s-13.3-1-14-11.8Z"/>
    <ellipse class="cls-4" cx="78.8" cy="197.9" rx="2.1" ry="1.6" transform="translate(-36.2 18.6) rotate(-11)"/>
    <path class="cls-10" d="M75.6,196.9c1.8.8,3.8,1.4,5.2-.4.6-.8.7-.8.4.2-.9,2.7-4.3,2.3-5.7.2h0Z"/>
    <circle class="cls-10" cx="70.1" cy="183" r=".8"/>
    <circle class="cls-10" cx="83.6" cy="180.4" r=".8"/>
    <g>
      <circle class="cls-39" cx="70.1" cy="183" r="4.8"/>
      <circle class="cls-38" cx="70.1" cy="183" r="4.8" transform="translate(-124.8 203.7) rotate(-75.1)"/>
    </g>
    <g>
      <circle class="cls-39" cx="83.6" cy="180.4" r="4.8"/>
      <circle class="cls-38" cx="83.6" cy="180.4" r="4.8" transform="translate(-111.1 220.3) rotate(-76.7)"/>
    </g>
    <path class="cls-14" d="M74.9,175.2c2.5,3.6,4.3,8,5.3,12,.4,1.9-2.5,1.3-3.4,1,0,0,0,0,0,0,.8,0,1.6,0,2.4-.2.2,0,.5-.2.5-.4-1.4-3.5-3.4-8.6-4.8-12.2,0,0,0,0,0,0h0Z"/>
    <path class="cls-37" d="M74.6,181.4s1.3-4,4.2-.9"/>
    <path class="cls-35" d="M64.9,183.5l-5.7.3s-1.3-.8-2.2,1.5"/>
    <path class="cls-8" d="M112.6,228"/>
    <path class="cls-31" d="M92.4,189c2.6,12.3,4.3,30.6-3.1,41.5.9-1.5,1.5-3.2,2.1-4.9,3.4-11.9,2.2-24.5,1-36.7h0Z"/>
    <path class="cls-31" d="M54,159.6c-6.2,16.2-11.3,33-14.3,50.1-.5,2.4-.8,4.9-1.2,7.4,1.5-19.9,7.1-39.5,15.5-57.5h0Z"/>
    <path class="cls-9" d="M120.3,257.5s5.8-4,7.1-5.6,3.3-6.3,3.8-6.7,1.1-.8,1.8-.3.5,4.3,0,5.4-2.5,4.6-2.4,5.3,11.9-.2,18.8-1.1c0,0,1.6,0,1.3,1.1s-.6,1-1.2,1.2-10.4,2.7-10.6,3.1-.9,1.1.3,1.3,11.5.4,12.7.6,1.4,1,1.4,1.6-.6,1.4-1.2,1.3-13.8-.2-13.8-.2c-.2,0-.5.5,0,.7.2.1,13.3.1,13.6.2.7.2.9,1.3.3,1.8-.4.4-11.4.7-13.6.8s-.6.2-.6.5,0,.6.2,1c.5.7,8,2.7,8.7,3.1.6.4.6,1.6.3,1.8-.6.4-10.3-1.3-12.1-1.4s-13.5-.9-13.5-.9l-1-15Z"/>
    <path class="cls-25" d="M60.5,186.9c-.3-.3-.6-.8-1-.9-.4.2-.7.4-.7.8,0,0,0,.4,0,.4,0,.6,0,1.2,0,1.8.2.5.2,1.2.8,1.4-.5.1-.9-.4-1.1-.8-.5-.9-.5-1.9-.4-2.9,0-.7.7-1.2,1.4-1.3.7,0,.9.9,1.1,1.4h0Z"/>
    <path class="cls-25" d="M60.4,188.4c0,.1-.2.2-.1.3,0,.2-.2.4-.3.6-.1,0-.2-.2-.2-.3-.1-.4.3-.9.6-.6h0Z"/>
    <path class="cls-37" d="M138.1,265.5s-1.6,1.1-.4,3.3"/>
    <g>
      <path class="cls-20" d="M186.7,241.7c-.1.1-.3.2-.4.3-.4.2-1,.6-1.5.5s-1.3-.9-1.2-1.2.7-1.7.7-1.7c0,0,0-.7-.6-.5s-2.2.9-3.6,1.4-2.1.4-2.5,0,0,0,0,0c-.4-.5-.8-.9-1.4-.9s-.2,0-.3-.1c-.6-.4-1.4-1.3-1.2-1.7s0-.9.4-1.3.4-.7.4-.7c0,0-3.1-2.1-1.8-3.5s2.4-2.1,3.6-3,.9-1.3.8-2.1,0,0,0-.1c.1-.5,1.8-4.1,2.5-4.4s1.1-.5,1.5-.3,1.5,1.4,1.4,1.8-.6,1.2-.9,1.5.5.2.9.5,1.9,2.1,1.9,2.4-.7,1.3-.7,1.3c0,0,1.1-.2,1.5,0s1.4,1.2,1.7,1.9-.1,1.4-.3,1.7.3,0,.8.2,1.2,1.6,1.4,2,1,.7.5,1.5-2,3-2.5,3.6-.1.2-.2.3l-.8.9Z"/>
      <path class="cls-1" d="M182.6,226.1l-3.7,2.1,3.2-2.9c.6-.5,1.2.4.6.8h0Z"/>
      <path class="cls-1" d="M185.2,229.7l-9.7,6.1,9.1-6.9c.5-.4,1.1.5.6.8h0Z"/>
      <path class="cls-1" d="M187.5,233.4l-10.1,5.5,9.5-6.4c.6-.4,1.1.5.5.9h0Z"/>
      <path class="cls-1" d="M183.8,238.9l5.3-3.8-4.7,4.6c-.5.5-1.2-.3-.6-.8h0Z"/>
    </g>
    <path class="cls-29" d="M56,211.9s-15.9,11.7-17.4,21c-1.5,9.3,15.1,39.4,16.1,43.2s2.5,6.9,1.7,11.3c-.8,4.4-6.3,35.1-5.6,38.3s48.9.8,64-2.5c0,0-11.1-21.2-13.2-40.9l20.1-9.4-1.1-17.7-19.1,4.2s.2-11.8-6.4-20.9c-6.6-9.1-14.6-18.7-16.5-23.2l-22.6-3.3Z"/>
    <path class="cls-40" d="M49.9,217s11.8,4.9,32.6,4.9"/>
    <path class="cls-40" d="M44.6,223s15.1,4.9,42.1,4.9"/>
    <path class="cls-40" d="M40.9,228.9s17.8,4.9,50.1,4.9"/>
    <path class="cls-40" d="M47.7,261.9s9.7,1.8,25.6-1.3"/>
    <path class="cls-40" d="M44.3,254.5s9.7,2.3,25.9,0"/>
    <path class="cls-40" d="M41.8,248.1s9.6,2.8,25.8,1.3"/>
    <path class="cls-40" d="M40.4,241.8s9.1,2.8,24.5,1.5"/>
    <path class="cls-40" d="M38.9,233.7s8.3,3.8,23,4.1"/>
    <path class="cls-40" d="M75.7,265.1c-14.6,4.9-24.1,4.2-24.1,4.2"/>
    <path class="cls-40" d="M58,279.3s8.3-3.3,18.2-13.4"/>
    <path class="cls-40" d="M64.9,287.1s6.6-7.1,12.3-21.8"/>
    <path class="cls-40" d="M73.3,286.4s5.2-7.5,8-21.9"/>
    <path class="cls-40" d="M87.2,263.1c-.8,14.3-4.9,22.3-4.9,22.3"/>
    <path class="cls-40" d="M88.5,284.4s4.1-8.2,4.9-22.8"/>
    <path class="cls-40" d="M95,283.3s4.1-8.2,4.9-22.8"/>
    <path class="cls-40" d="M103.2,281.4s3.8-8.3,4-22.8"/>
    <path class="cls-40" d="M110.3,277.8s3.5-7.6,3.3-20.7"/>
    <path class="cls-40" d="M117.6,275.1s2.8-7.3,1.3-19.1"/>
    <path class="cls-40" d="M72.7,257.4s23.2,1.5,28.7-.7"/>
    <path class="cls-40" d="M70,251.3s24.2,1.5,29.9-.7"/>
    <path class="cls-40" d="M67.3,245.2s24.8,1.5,30.7-.7"/>
    <path class="cls-40" d="M64.4,239.4s24.4,1.3,30.2-.6"/>
    <path class="cls-40" d="M56.4,282.3s2.1.5,4,.8"/>
    <path class="cls-40" d="M56,289.6s28.2,3.7,46.8,0"/>
    <path class="cls-40" d="M54.9,295.3s29.8,3.7,49.3,0"/>
    <path class="cls-40" d="M54,300.8s31.4,3.7,52,0"/>
    <path class="cls-40" d="M53.1,306.9s33.1,3.5,54.8,0"/>
    <path class="cls-40" d="M52.1,312.5s35.1,3.5,58.2,0"/>
    <path class="cls-40" d="M51.7,318.2s36.7,3.5,60.8,0"/>
    <path class="cls-40" d="M51,323.2s37.8,3.5,62.6,0"/>
    <polyline class="cls-36" points="60.9 234.2 76 265.4 101.4 259.6"/>
    <path class="cls-36" d="M54.2,274.6s8.4,12.3,11,13.4c0,0,29.2-3.5,36.5-5.7"/>
    <path class="cls-36" d="M95.2,238.4s5.1,7.4,5.8,13.5"/>
  </g>
</svg>