<?xml version="1.0" encoding="UTF-8"?>
<svg id="Calque_1" data-name="Calque 1" xmlns="http://www.w3.org/2000/svg" version="1.1" viewBox="0 0 48 48">
  <defs>
    <style>
      .cls-1 {
        fill: #fdfcea;
      }

      .cls-1, .cls-2, .cls-3 {
        stroke-width: 0px;
      }

      .cls-2 {
        fill: #e7f3f1;
      }

      .cls-3 {
        fill: #87c1b9;
      }
    </style>
  </defs>
  <polygon class="cls-1" points="46.57 28.74 46.7 28.74 46.57 28.74 46.24 28.94 46.24 28.94 46.57 28.74"/>
  <polygon class="cls-1" points="45.92 28.73 46.04 28.78 46.15 28.83 46.04 28.78 45.92 28.73"/>
  <polygon class="cls-1" points="45.68 28.76 45.81 28.76 45.68 28.76 45.64 28.87 45.68 28.76"/>
  <polygon class="cls-1" points="45.44 29.49 45.4 29.43 45.42 29.25 45.4 29.43 45.44 29.49"/>
  <polygon class="cls-1" points="45.39 25.46 45.43 25.51 45.43 25.51 45.39 25.46"/>
  <polygon class="cls-1" points="45.27 29.75 45.27 29.75 45.05 29.74 45.27 29.75"/>
  <polygon class="cls-1" points="45.21 23.24 45.11 23.4 45.11 23.4 45.21 23.24"/>
  <polygon class="cls-1" points="45 23.5 44.96 23.67 45 23.5 45 23.5"/>
  <polygon class="cls-1" points="44.94 29.8 45.05 29.74 44.94 29.8 44.72 29.85 44.63 29.91 44.72 29.85 44.94 29.8"/>
  <rect class="cls-1" x="44.87" y="23.82" width=".08" height="0"/>
  <rect class="cls-1" x="44.71" y="23.74" width=".07" height="0"/>
  <polygon class="cls-1" points="44.63 29.91 44.47 29.98 44.47 29.98 44.63 29.91"/>
  <polygon class="cls-1" points="44.39 24.15 44.39 24.15 44.1 24.37 44.39 24.15"/>
  <polygon class="cls-1" points="44.35 30.25 44.35 30.25 44.27 30.3 44.35 30.25"/>
  <polygon class="cls-1" points="44.24 22.59 44.17 22.66 44.02 22.81 44.02 22.8 44.17 22.66 44.24 22.59"/>
  <polygon class="cls-1" points="44.19 30.28 44.27 30.3 44.19 30.28 44.14 30.29 44.19 30.28"/>
  <polygon class="cls-1" points="44.14 30.29 44.11 30.3 44.11 30.3 44.14 30.29"/>
  <polygon class="cls-1" points="44.07 30.48 44.07 30.48 44.03 30.51 44.07 30.48"/>
  <polygon class="cls-1" points="44.02 31.33 44.24 31.37 44.02 31.33 43.94 31.35 43.94 31.35 44.02 31.33"/>
  <polygon class="cls-1" points="43.88 31.43 43.88 31.43 43.8 31.38 43.77 31.37 43.77 31.37 43.8 31.38 43.88 31.43"/>
  <polygon class="cls-1" points="43.77 32.14 43.7 32.14 43.7 32.14 43.77 32.14"/>
  <polygon class="cls-1" points="43.73 31.78 43.66 31.86 43.66 31.86 43.73 31.78"/>
  <polygon class="cls-1" points="43.63 32.27 43.63 32.27 43.62 32.27 43.63 32.27"/>
  <rect class="cls-1" x="43.54" y="32.13" width="0" height=".18" transform="translate(-6.84 52.12) rotate(-58.05)"/>
  <polygon class="cls-1" points="43.29 31.54 42.97 31.5 43.29 31.54 43.32 31.54 43.44 31.65 43.44 31.65 43.32 31.54 43.29 31.54"/>
  <polygon class="cls-1" points="42.8 31.81 42.9 31.76 42.95 31.68 42.9 31.76 42.8 31.81 42.73 31.81 42.72 31.8 42.73 31.81 42.8 31.81"/>
  <polygon class="cls-1" points="42.63 31.72 42.63 31.72 42.63 31.72 42.43 31.65 42.37 31.58 42.43 31.65 42.63 31.72"/>
  <polygon class="cls-1" points="42.5 20.96 42.41 21.2 42.42 21.23 42.41 21.2 42.5 20.96"/>
  <polygon class="cls-1" points="42.34 31.34 42.34 31.34 42.31 31.32 42.34 31.34"/>
  <polygon class="cls-1" points="42.23 31.31 41.94 31.45 41.69 31.45 41.94 31.45 42.23 31.31 42.29 31.31 42.31 31.32 42.31 31.32 42.29 31.31 42.25 31.31 42.23 31.31"/>
  <polygon class="cls-1" points="41.64 20.57 41.71 20.7 41.71 20.7 41.64 20.57"/>
  <polygon class="cls-1" points="41.69 31.45 41.55 31.55 41.55 31.55 41.69 31.45"/>
  <polygon class="cls-1" points="41.6 31.79 41.54 31.88 41.6 31.79 41.6 31.79"/>
  <polygon class="cls-1" points="41.54 31.88 41.5 32.24 41.5 32.24 41.54 31.88"/>
  <polygon class="cls-1" points="41.5 32.24 41.01 32.42 40.86 32.51 40.86 32.51 41.01 32.42 41.5 32.24"/>
  <rect class="cls-1" x="40.89" y="40.96" width=".04" height="0" transform="translate(-16.53 33.74) rotate(-37.87)"/>
  <polygon class="cls-1" points="40.81 41.45 40.68 41.48 40.81 41.45 40.88 41.39 40.88 41.39 40.81 41.45"/>
  <polygon class="cls-1" points="40.69 20.53 40.67 20.6 40.7 20.7 40.7 20.7 40.67 20.6 40.69 20.53 40.63 20.43 40.69 20.53"/>
  <polygon class="cls-1" points="40.68 41.48 40.66 41.48 40.66 41.48 40.68 41.48"/>
  <polygon class="cls-1" points="40.65 40.09 40.65 40.09 40.43 40.33 40.65 40.09"/>
  <polygon class="cls-1" points="40.6 33.32 40.68 33.26 40.68 33.26 40.6 33.32 40.49 33.32 40.6 33.32"/>
  <polygon class="cls-1" points="40.53 41.78 40.53 42.01 40.53 42.01 40.53 41.78"/>
  <polygon class="cls-1" points="40.53 42.01 40.26 42.16 40.26 42.16 40.53 42.01"/>
  <polygon class="cls-1" points="40.49 33.32 40.33 33.44 40.33 33.44 40.49 33.32"/>
  <polygon class="cls-1" points="40.45 33.85 40.44 33.79 40.44 33.79 40.45 33.85 40.31 34.03 40.45 33.85"/>
  <polygon class="cls-1" points="40.25 42.2 40.28 42.37 40.28 42.37 40.25 42.2"/>
  <rect class="cls-1" x="40.23" y="20.52" width="0" height=".13" transform="translate(-4.34 13.11) rotate(-17.58)"/>
  <polygon class="cls-1" points="40.22 34.28 39.92 34.44 39.92 34.44 40.22 34.28"/>
  <polygon class="cls-1" points="40.06 13.71 40.06 13.72 39.91 13.77 40.06 13.71"/>
  <polygon class="cls-1" points="40.05 14.2 40.05 14.22 40.02 14.34 40.04 14.22 40.03 14.19 40.05 14.2"/>
  <polygon class="cls-1" points="40.03 35.11 40.1 34.91 40.1 34.91 40.04 35.09 40.03 35.11"/>
  <polygon class="cls-1" points="39.96 39.7 39.98 39.78 39.98 39.78 39.96 39.7"/>
  <polygon class="cls-1" points="40.03 35.11 40.03 35.11 39.88 35.2 39.81 35.21 39.81 35.21 39.88 35.2 40.03 35.11"/>
  <polygon class="cls-1" points="39.82 43.15 39.79 43.11 39.82 43.15 39.93 43.06 40.06 42.96 40.13 42.91 40.18 42.87 40.4 42.69 40.51 42.6 40.51 42.6 40.4 42.69 40.18 42.87 40.13 42.91 40.06 42.96 39.93 43.06 39.83 43.15 39.82 43.15"/>
  <polygon class="cls-1" points="39.64 43.05 39.71 43.02 39.71 43.02 39.64 43.05 39.55 43.04 39.55 43.04 39.64 43.05"/>
  <polygon class="cls-1" points="39.64 12.99 39.61 13.06 39.63 12.99 39.64 12.99"/>
  <polygon class="cls-1" points="39.66 14.75 39.65 14.79 39.65 14.9 39.64 14.79 39.66 14.75"/>
  <polygon class="cls-1" points="39.39 35.47 39.3 35.67 39.39 35.47 39.47 35.4 39.58 35.37 39.72 35.41 39.79 35.34 39.79 35.34 39.72 35.41 39.58 35.37 39.47 35.4 39.39 35.47"/>
  <polygon class="cls-1" points="39.34 35.82 39.28 35.96 39.19 36.02 39.19 36.02 39.28 35.96 39.34 35.82"/>
  <path class="cls-1" d="M39.34,20.23h0s0,0,0,0Z"/>
  <polygon class="cls-1" points="39.34 14.99 39.33 15.12 39.27 15.23 39.32 15.12 39.34 14.99"/>
  <polygon class="cls-1" points="39.31 42.82 39.43 42.9 39.47 42.94 39.43 42.9 39.31 42.82 39.16 42.87 39.16 42.87 39.31 42.82"/>
  <polygon class="cls-1" points="39.16 16.32 38.88 16.56 38.88 16.55 39.16 16.32"/>
  <polygon class="cls-1" points="39.16 37.31 39.16 37.31 39.05 37.39 39.16 37.31"/>
  <polygon class="cls-1" points="39.28 37.1 39.33 37.11 39.36 37.12 39.41 37.08 39.46 37.06 39.46 37.06 39.41 37.08 39.36 37.12 39.33 37.11 39.28 37.1 39.18 37.09 39.14 37.08 39.14 37.08 39.08 37.13 39.14 37.08 39.18 37.09 39.28 37.1"/>
  <polygon class="cls-1" points="39.12 43.11 39.08 43.17 39.08 43.17 39.12 43.11"/>
  <polygon class="cls-1" points="39.12 17.02 39.11 17.03 39.05 16.87 39.12 17.02"/>
  <polygon class="cls-1" points="39.08 37.13 39.08 37.13 39.08 37.13 39.08 37.13"/>
  <polygon class="cls-1" points="39.05 16.86 39.05 16.87 39.03 16.86 39.05 16.86"/>
  <polygon class="cls-1" points="39.02 36.41 38.86 36.6 38.86 36.6 39.02 36.41 39.14 36.31 39.19 36.26 39.19 36.26 39.14 36.31 39.02 36.41"/>
  <polygon class="cls-1" points="39.01 37.63 39.01 37.63 38.92 37.71 39.01 37.63"/>
  <polygon class="cls-1" points="38.97 43.27 38.9 43.24 38.9 43.24 38.97 43.27 39.07 43.25 39.08 43.17 39.07 43.25 38.97 43.27"/>
  <polygon class="cls-1" points="38.87 43.18 38.9 43.24 38.87 43.18 38.76 43.16 38.76 43.16 38.87 43.18"/>
  <polygon class="cls-1" points="38.39 20.81 38.35 20.72 38.35 20.69 38.41 20.68 38.5 20.59 38.53 20.61 38.54 20.61 38.55 20.62 38.65 20.56 38.66 20.55 38.71 20.52 38.71 20.52 38.78 20.63 38.78 20.63 38.83 20.63 38.92 20.63 38.94 20.49 39.05 20.35 39.23 20.18 39.32 20.18 39.34 20.23 39.34 20.23 39.43 20.46 39.43 20.46 39.54 20.41 39.72 20.67 39.72 20.67 39.83 20.68 40.17 20.49 40.21 20.52 40.25 20.65 40.25 20.65 40.25 20.65 40.37 20.55 40.4 20.53 40.53 20.5 40.63 20.43 40.69 20.53 40.67 20.6 40.7 20.7 40.7 20.7 40.76 20.75 40.77 20.75 40.8 20.75 40.77 20.78 40.77 20.89 40.84 20.98 40.93 21.03 40.95 21.18 40.83 21.35 40.81 21.35 40.8 21.38 40.75 21.45 40.64 21.55 40.57 21.56 40.46 21.52 40.16 21.48 40 21.44 39.82 21.44 39.64 21.15 39.51 21.02 39.33 20.89 39.18 20.84 39.12 20.91 39.04 20.92 38.99 20.78 38.91 20.76 38.87 20.79 38.77 20.93 38.6 20.91 38.48 20.86 38.39 20.81"/>
  <polygon class="cls-1" points="38.7 20.52 38.71 20.52 38.66 20.55 38.7 20.52"/>
  <polygon class="cls-1" points="38.45 20.18 38.45 20.27 38.26 20.6 38.26 20.6 38.26 20.6 38.45 20.27 38.45 20.18"/>
  <polygon class="cls-1" points="38.4 19.72 38.4 19.74 38.4 19.72 38.4 19.72"/>
  <polygon class="cls-1" points="38.19 18.33 38.14 18.37 38.12 18.37 38.19 18.33"/>
  <polygon class="cls-1" points="38.2 43.11 38.49 43.23 38.74 43.25 38.74 43.25 38.49 43.23 38.2 43.11 37.94 43.09 37.86 43.08 37.69 43.18 37.69 43.18 37.86 43.08 37.94 43.09 38.2 43.11"/>
  <polygon class="cls-1" points="37.54 43.35 37.66 43.26 37.69 43.18 37.66 43.26 37.54 43.35 37.48 43.46 37.52 43.65 37.48 43.46 37.54 43.35"/>
  <rect class="cls-1" x="37.33" y="43.86" width=".11" height="0"/>
  <polygon class="cls-1" points="37.06 12.12 36.97 12.06 37.05 12.1 37.06 12.12"/>
  <polygon class="cls-1" points="36.94 43.47 37.22 43.62 37.27 43.67 37.22 43.62 36.94 43.47 36.81 43.45 36.71 43.47 36.71 43.47 36.8 43.45 36.94 43.47"/>
  <polygon class="cls-1" points="36.38 43.78 36.56 43.7 36.56 43.7 36.38 43.78 36.2 43.85 35.94 43.84 35.94 43.84 36.2 43.85 36.38 43.78"/>
  <polygon class="cls-1" points="35.82 44.13 35.82 44.13 35.7 44 35.82 44.13"/>
  <polygon class="cls-1" points="35.67 43.86 35.67 43.86 35.46 43.74 35.67 43.86"/>
  <rect class="cls-1" x="35.42" y="43.14" width=".21" height="0"/>
  <rect class="cls-1" x="35.39" y="42.78" width=".18" height="0"/>
  <path class="cls-1" d="M35.46,43.74l-.1-.06.1.06Z"/>
  <polygon class="cls-1" points="34.83 41.84 35.3 42.27 35.3 42.27 34.83 41.84 34.8 41.81 34.68 41.76 34.58 41.71 34.49 41.71 34.49 41.71 34.58 41.71 34.68 41.76 34.8 41.81 34.83 41.84"/>
  <rect class="cls-1" x="34.25" y="41.6" width=".12" height="0"/>
  <polygon class="cls-1" points="34.27 41.76 34.27 41.77 34.03 41.82 33.93 41.89 33.93 41.89 34.03 41.82 34.27 41.76"/>
  <polygon class="cls-1" points="33.82 40.79 33.82 40.79 33.56 40.62 33.82 40.79"/>
  <polygon class="cls-1" points="33.25 40.38 33.37 40.43 33.56 40.62 33.37 40.43 33.25 40.38 33.09 40.54 32.87 40.51 32.76 40.54 32.76 40.54 32.87 40.51 33.09 40.54 33.25 40.38"/>
  <polygon class="cls-1" points="32.57 40.4 32.65 40.4 32.65 40.4 32.57 40.4 32.51 40.44 32.32 40.39 32.17 40.42 32.32 40.39 32.51 40.44 32.57 40.4"/>
  <polygon class="cls-1" points="32.05 39.96 32.05 39.96 31.98 39.96 32.05 39.96"/>
  <rect class="cls-1" x="31.85" y="40.09" width=".05" height="0"/>
  <rect class="cls-1" x="31.69" y="40.03" width=".14" height="0"/>
  <polygon class="cls-1" points="31.1 39.16 31.23 39.11 31.32 39.17 31.23 39.11 31.1 39.16 31.02 39.16 30.97 39.16 30.97 39.16 31.01 39.16 31.1 39.16"/>
  <polygon class="cls-1" points="30.77 39.02 30.89 38.98 30.89 38.98 30.77 39.02 30.68 39 30.68 39 30.77 39.02"/>
  <polygon class="cls-1" points="30.68 39 30.47 38.89 30.3 38.78 30.47 38.89 30.68 39"/>
  <polygon class="cls-1" points="29.94 7.68 29.6 8.18 29.18 8.08 29.27 7.59 29.94 7.68"/>
  <polygon class="cls-1" points="29.93 38.39 30.07 38.42 30.07 38.42 29.93 38.39 29.83 38.39 29.78 38.43 29.71 38.39 29.71 38.39 29.78 38.43 29.83 38.39 29.93 38.39"/>
  <polygon class="cls-1" points="29.71 38.39 29.71 38.39 29.68 38.37 29.54 38.46 29.54 38.46 29.68 38.37 29.71 38.39"/>
  <polygon class="cls-1" points="29.54 38.46 29.53 38.55 29.25 38.65 29.53 38.55 29.54 38.46"/>
  <polygon class="cls-1" points="29.09 38.68 28.94 38.66 28.94 38.66 29.09 38.68"/>
  <polygon class="cls-1" points="28.94 38.66 28.73 38.53 28.68 38.53 28.68 38.53 28.73 38.53 28.94 38.66"/>
  <polygon class="cls-1" points="28.65 37.66 28.65 37.66 28.49 37.6 28.65 37.66"/>
  <rect class="cls-1" x="28.49" y="38.62" width=".15" height="0"/>
  <polygon class="cls-1" points="28.55 32.87 28.58 32.93 28.55 32.87 28.55 32.87"/>
  <polygon class="cls-1" points="28.52 31.89 28.26 31.8 28.26 31.8 28.52 31.89 28.74 31.86 28.75 31.86 28.52 31.89"/>
  <polygon class="cls-1" points="28.2 35.63 28.32 35.63 28.2 35.63 27.89 35.55 28.2 35.63"/>
  <polygon class="cls-1" points="28.11 31.62 28.04 31.65 28.02 31.73 28.04 31.65 28.11 31.62 28.11 31.62"/>
  <polygon class="cls-1" points="27.93 31.88 27.93 31.88 27.82 31.91 27.93 31.88"/>
  <polygon class="cls-1" points="27.62 6.82 27.37 6.9 27.61 6.81 27.62 6.82"/>
  <polygon class="cls-1" points="27.46 32.15 27.41 32.18 27.32 32.35 27.41 32.18 27.46 32.15 27.77 31.94 27.82 31.91 27.77 31.94 27.46 32.15"/>
  <polygon class="cls-1" points="27.32 32.35 27.3 32.51 27.23 32.64 27.3 32.51 27.32 32.35"/>
  <polygon class="cls-1" points="27.07 7.24 27 7.33 27.05 7.25 27.07 7.24"/>
  <polygon class="cls-1" points="27.23 32.64 27.23 32.65 27.17 32.71 27.03 32.71 26.71 32.9 26.71 32.9 27.03 32.71 27.16 32.71 27.23 32.64"/>
  <polygon class="cls-1" points="26.57 33.14 26.66 32.98 26.57 33.14 26.52 33.23 26.5 33.34 26.52 33.23 26.57 33.14"/>
  <polygon class="cls-1" points="26.5 33.34 26.42 33.49 26.43 33.56 26.42 33.49 26.5 33.34"/>
  <polygon class="cls-1" points="26.49 34.37 26.6 34.07 26.67 33.72 26.6 34.07 26.49 34.37 26.48 34.64 26.49 34.37"/>
  <polygon class="cls-1" points="25.76 34.88 26 34.86 26.06 34.84 26.1 34.83 26.17 34.78 26.42 34.75 26.42 34.75 26.17 34.78 26.1 34.83 26.06 34.84 26 34.86 25.76 34.88 25.68 34.95 25.32 34.96 25.18 35.02 25.18 35.02 25.32 34.96 25.68 34.95 25.76 34.88"/>
  <polygon class="cls-1" points="24.94 35.28 25.08 35.22 25.08 35.22 24.94 35.28 24.8 35.27 24.72 35.3 24.72 35.3 24.8 35.27 24.94 35.28"/>
  <polygon class="cls-1" points="24.41 35.67 24.12 35.69 24.06 35.71 24.12 35.69 24.41 35.67 24.6 35.5 24.6 35.5 24.41 35.67"/>
  <polygon class="cls-2" points="24.06 19.98 23.7 20.22 22.93 20.5 22.74 20.37 22.35 20.33 21.96 19.65 21.72 19.7 21.32 19.52 21.41 19.28 21.73 19.13 21.79 18.94 21.71 18.71 21.89 18.48 21.94 18.24 22.47 18 22.91 18.08 23.13 17.77 23.45 18.07 23.55 18.36 23.43 18.53 23.4 18.74 23.82 18.94 23.86 19.23 23.97 19.49 23.79 19.54 23.73 19.7 24.06 19.98"/>
  <polygon class="cls-1" points="24.06 35.71 23.78 35.82 23.62 35.85 23.78 35.82 24.06 35.71"/>
  <polygon class="cls-1" points="23.56 35.78 23.56 35.78 23.47 35.75 23.56 35.78"/>
  <polygon class="cls-1" points="22.86 35.58 22.5 35.55 22.86 35.58 22.86 35.58"/>
  <polygon class="cls-1" points="22.5 35.55 22.42 35.51 22.42 35.51 22.5 35.55"/>
  <rect class="cls-1" x="22.23" y="35.36" width=".06" height="0"/>
  <polygon class="cls-1" points="22.02 35.28 22.23 35.36 22.02 35.28 21.97 35.29 21.82 35.3 21.97 35.29 22.02 35.28"/>
  <polygon class="cls-1" points="21.33 35.37 21.12 35.46 21.33 35.37 21.7 35.35 21.82 35.3 21.7 35.35 21.33 35.37"/>
  <polygon class="cls-1" points="20.9 32.96 20.79 32.88 20.79 32.88 20.9 32.96"/>
  <polygon class="cls-1" points="20.84 35.48 20.74 35.52 20.74 35.52 20.84 35.48 20.93 35.48 20.99 35.48 21.12 35.46 20.99 35.48 20.93 35.48 20.84 35.48"/>
  <polygon class="cls-1" points="20.74 29.62 20.58 29.61 20.49 29.54 20.58 29.61 20.74 29.62 20.82 29.66 20.82 29.66 20.74 29.62"/>
  <polygon class="cls-1" points="20.48 35.15 20.48 35.15 20.4 35.13 20.48 35.15"/>
  <polygon class="cls-1" points="20.45 29.43 20.45 29.43 20.38 29.37 20.29 29.4 20.29 29.4 20.38 29.37 20.45 29.43"/>
  <polygon class="cls-1" points="20.41 29.74 20.39 29.86 20.41 29.74 20.41 29.74"/>
  <polygon class="cls-1" points="20.29 29.4 20.23 29.49 20.21 29.6 20.22 29.49 20.29 29.4"/>
  <rect class="cls-1" x="20.12" y="34.64" width=".09" height="0" transform="translate(-1.41 .86) rotate(-2.36)"/>
  <polygon class="cls-1" points="20.21 35.18 20.14 35.14 20.14 35.14 20.21 35.18"/>
  <polygon class="cls-1" points="20.21 29.93 20.06 29.93 20.06 29.93 20.21 29.93 20.39 29.86 20.39 29.87 20.21 29.93"/>
  <polygon class="cls-1" points="20.12 32.34 20.22 32.31 20.36 32.2 20.54 32.21 20.67 32.22 20.67 32.22 20.54 32.21 20.36 32.2 20.22 32.31 20.12 32.34 20 32.32 20 32.32 20.12 32.34"/>
  <rect class="cls-1" x="19.88" y="29.64" width=".07" height="0" transform="translate(-.99 .69) rotate(-1.94)"/>
  <polygon class="cls-1" points="19.6 28.93 19.6 28.94 19.5 28.89 19.6 28.93"/>
  <polygon class="cls-1" points="19.5 28.89 19.39 28.97 19.39 28.97 19.5 28.89"/>
  <polygon class="cls-1" points="19.28 28.72 19.28 28.72 19.2 28.65 19.28 28.72"/>
  <polygon class="cls-1" points="19.2 28.65 19.08 28.61 19.08 28.61 19.2 28.65"/>
  <polygon class="cls-1" points="18.92 28.41 18.84 28.34 18.84 28.34 18.92 28.41"/>
  <polygon class="cls-1" points="18.77 28.16 18.77 28.16 18.72 28.12 18.77 28.16"/>
  <rect class="cls-1" x="18.63" y="28.13" width=".09" height="0" transform="translate(-14.22 20.49) rotate(-43.35)"/>
  <polygon class="cls-1" points="18.58 28.25 18.58 28.25 18.46 28.26 18.35 28.32 18.46 28.26 18.58 28.25"/>
  <polygon class="cls-1" points="18.35 28.32 18.24 28.39 18.24 28.39 18.35 28.32"/>
  <polygon class="cls-1" points="18.14 28.33 18.14 28.33 18.03 28.41 18.14 28.33"/>
  <polygon class="cls-1" points="17.97 28.34 17.97 28.34 17.89 28.35 17.97 28.34"/>
  <polygon class="cls-1" points="17.29 28.64 17.1 28.58 17.1 28.58 17.29 28.64 17.61 28.55 17.82 28.4 17.61 28.55 17.29 28.64"/>
  <polygon class="cls-1" points="17.02 28.42 17.07 28.46 17.07 28.46 17.02 28.42 16.94 28.47 17.02 28.42"/>
  <polygon class="cls-1" points="16.94 28.47 16.85 28.43 16.85 28.43 16.94 28.47"/>
  <polygon class="cls-1" points="16.62 28.18 16.32 28.23 16.32 28.23 16.62 28.18"/>
  <rect class="cls-1" x="16.25" y="28.33" width=".05" height="0"/>
  <polygon class="cls-1" points="16.01 28.22 16.17 28.17 16.17 28.17 16.01 28.22 15.72 28.16 16.01 28.22"/>
  <polygon class="cls-1" points="15.72 28.16 15.55 28.29 15.51 28.26 15.55 28.29 15.72 28.16"/>
  <polygon class="cls-1" points="15.26 28.45 15.19 28.69 15.21 28.87 15.19 28.69 15.26 28.45"/>
  <polygon class="cls-1" points="15.18 28.95 15.18 28.95 14.98 28.82 15.18 28.95"/>
  <polygon class="cls-1" points="14.98 28.82 14.98 28.82 14.95 28.85 14.97 29 14.95 28.85 14.98 28.82"/>
  <rect class="cls-1" x="14.92" y="29.03" width=".05" height="0"/>
  <polygon class="cls-1" points="14.92 29.03 14.79 28.97 14.79 28.97 14.92 29.03"/>
  <polygon class="cls-1" points="14.44 28.08 14.44 28.08 14.41 28.06 14.44 28.08"/>
  <polygon class="cls-1" points="14.22 26.21 14.29 26.23 14.29 26.23 14.22 26.21 14.05 26.05 14.22 26.21"/>
  <polygon class="cls-1" points="13.7 25.57 13.76 25.59 13.76 25.59 13.7 25.57 13.54 25.68 13.7 25.57"/>
  <polygon class="cls-1" points="13.54 25.68 13.46 25.71 13.46 25.71 13.54 25.68"/>
  <polygon class="cls-1" points="13.23 25.53 13.34 25.59 13.34 25.59 13.23 25.53 13.08 25.59 12.9 25.59 12.64 25.7 12.45 25.74 12.45 25.74 12.64 25.7 12.9 25.59 13.08 25.59 13.23 25.53"/>
  <polygon class="cls-1" points="12.4 24.97 12.61 25.07 12.61 25.07 12.4 24.97 12.13 24.93 12.13 24.93 12.4 24.97"/>
  <polygon class="cls-1" points="11.85 25.38 11.92 25.35 11.92 25.35 11.85 25.38 11.74 25.37 11.69 25.37 11.64 25.37 11.64 25.37 11.69 25.37 11.74 25.37 11.85 25.38"/>
  <polygon class="cls-1" points="11.09 25.65 11.01 25.65 11.01 25.65 11.09 25.65"/>
  <polygon class="cls-1" points="10.56 25.35 10.77 25.41 10.77 25.41 10.56 25.35 10.04 25.05 10.04 25.05 10.56 25.35"/>
  <polygon class="cls-1" points="9.85 24.42 9.91 24.49 9.84 24.42 9.85 24.42"/>
  <polygon class="cls-1" points="9.61 21.96 9.75 22.14 9.75 22.14 9.61 21.96"/>
  <polygon class="cls-1" points="9.46 22.68 9.51 22.78 9.46 22.69 9.41 22.52 9.46 22.68"/>
  <polygon class="cls-1" points="9.43 22.37 9.41 22.52 9.43 22.37 9.43 22.37"/>
  <polygon class="cls-1" points="9.34 21.53 9.42 21.56 9.45 21.57 9.45 21.57 9.42 21.56 9.34 21.53 9.12 21.52 9.12 21.52 9.34 21.53"/>
  <polygon class="cls-1" points="8.94 21.1 8.98 21.2 8.94 21.1 8.8 21 8.8 21 8.94 21.1"/>
  <polygon class="cls-1" points="8.71 20.75 8.73 20.82 8.71 20.75 8.57 20.64 8.71 20.75"/>
  <polygon class="cls-1" points="8.57 20.64 8.57 20.64 8.57 20.64 8.57 20.64"/>
  <polygon class="cls-1" points="6.8 20.44 6.75 20.45 6.72 20.47 6.75 20.45 6.8 20.44"/>
  <polygon class="cls-1" points="6.58 20.58 6.64 20.53 6.58 20.58 6.46 20.61 6.58 20.58"/>
  <polygon class="cls-1" points="6.05 20.81 6.01 20.81 6.05 20.81 6.24 20.8 6.29 20.8 6.24 20.8 6.05 20.81"/>
  <polygon class="cls-1" points="5.86 20.96 5.88 21.12 5.84 21.21 5.88 21.12 5.86 20.96"/>
  <rect class="cls-1" x="5.77" y="21.22" width=".08" height="0"/>
  <polygon class="cls-1" points="5.74 21.31 5.71 21.52 5.7 21.66 5.71 21.52 5.74 21.31 5.77 21.23 5.74 21.31"/>
  <path class="cls-3" d="M40.07,13.24h-.11v-.02s-.03-.02-.03-.02l-.16.02h-.07s-.03-.03-.03-.03v-.11l-.06-.02.02-.07-.07-.09-.04-.02-.49-.22-.27.04-.18.07-.18-.03-.21-.04h-.04s-.07-.08-.07-.08l-.76-.13-.12-.2-.14-.17-.09-.06-.18-.1-.04-.36v-.34s.01-.05.01-.05l-.23-.21-.62-.42-.17.22-.03.05-.25.14-.12.02h-.07s-.14.22-.14.22l-.17-.04h-.05s0-.02,0-.02h-.03l-.55-.13-.11.24-.17-.02-.81.02-.16.08-.07-.03h-.03s-.13-.16-.13-.16v-.02s.21-.64.21-.64l-.25-.19-.07-.04-.1-.07-.48.12h-.18l-.15-.03.03-.2-.13-.44v-.02s-.34-.44-.34-.44l-.06-.06h0s-.23-.23-.23-.23l.23-.61-.1-.52-.09-.29h-.31l-.09-.09-.03-.22v-.03h-.07s-.07.08-.07.08l-.19.22.06.25-.04.05-.04.12-.16.16-.74.71-.09.09h-.06l-.27-.31h-.04s-.09-.04-.09-.04l-.28.05-.18-.03-.57.05-.2-.03-.14-.07-.03-.28.15-.03.53.18v-.18s-.06-.03-.06-.03v-.02s-.11-.21-.11-.21l.03-.18.12-.06v-.2s.07-.16.07-.16l-.02-.04-.08-.04-.1-.21-.36-.09-.05-.08-.25.08-.11.2-.08.05-.11.09-.07.09v.12l-.18.26v.12s-.13.12-.13.12l-.03.11-.18.19-.36.05-.09.03h-.04s-.26-.07-.26-.07l-.39-.09-.14-.03-.19.1h-.05s-.12-.23-.12-.23l-.07-.38.02-.25-.03-.15-.64.09h-.11s-.1.15-.1.15h-.15l-.06.02-.08.03h-.03s-.2.14-.2.14l-.54.28.07.15.03.27.15.29.4.53-.04.05.03.14-.19.1-.27.05h-.06s-.09-.04-.09-.04h-.2s-.12-.08-.12-.08l-.1-.19-.06-.07-.71.04h-.01l-.34.02h-.02l-.21.02-.02.06.21.17v.07s-.09.13-.09.13l-.56.69-.87.84-.44.21h-.02s-.15.12-.15.12l-.13.1h-.28s-.04-.01-.04-.01l-.38.12-.1.17-.19.18-.27.11h-.1s-.12-.12-.12-.12l-.08.03-.12.2-.2.04-.13-.02-.03-.07.07-.09.03-.13-.07-.06h-.07l-.1.15-.08.1-.22.04-.44-.04h-.05s-.05-.04-.05-.04h-.01l-.09-.06-.03-.32.03-.27.04-.11-.04-.09-.14-.09-.12.05-.13-.15h-.02l-.17-.02h-.15s-.17-.02-.17-.02h-.01l-.26-.13-.39-.04-.07-.06h-.14s-.09-.06-.09-.06l-.35-.25-.12-.05-.06.03-.03.06v.19s-.02.03-.02.03l-.06-.04-.12-.08h-.05s-.13.06-.13.06l-.12.06-.21-.11h-.04s-.01.02-.01.02v.03s.1.78.1.78l-.14.04-.22.04h-.1s-.23.03-.23.03h-.14s-.13-.01-.13-.01h-.01l-.12-.04-.06-.02-.07-.19-.08-.05-.45-.45h-.02v-.02l-.18-.22v-.06l.04-.03h.06s.01-.02.01-.02l-.08-.14-.05-.11.25-.25.03-.14-.04-.13-.09-.17-.07-.36-.1.03-.13.09-.35.1-.46.14-.23.14-.19.05h-.18l-.08.09-.08.04-.02-.11h-.09s-.1.12-.1.12h-.06s.1-.22.1-.22h-.06s-.09.09-.09.09l-.05.18-.09.05-.37.15-.23.08-.13.05-.47.24-.34.3-.64.43-.28.14-.24.16-.13.09-.14.05.1.18v.07s-.06-.03-.06-.03l-.06-.03-.03-.08h0s-.09-.04-.09-.04l-.07.1-.04.03-.46.36-.51.34-.19.12-.36.23-.39.22-.19.1h-.01s-.27.2-.27.2l-.37.15-.34.18h-.01s-.05.03-.05.03l-.3.18-.07.05-.16.12-.07.03-.39.2-.09.04.06.17.03.07.05.13.03.07v.03s.03.13.03.13l.12.7-.04.16.09.25.03.02.07.05.25.08.03.06v.11s.05.2.05.2l.02.03.08.11.08.25-.1.14-.02.08-.25.27-.1.1.06.07h.12s.03.16.03.16l.06.13-.03.26.05.09-.05.11.04.16-.14.29h.15l.04.04.05.16.1.16.06.28h.22s.06,0,.06,0l.06-.09.05-.07.04.03.07.04.02.02.05.08.08.02.18-.02.13.02.05.03.04.03.03.08-.03.16.02.04.08.08.03.11.19.13.13.17.07.18-.03.09.2.07.06.13v.18l.08.18.26.16.1-.02.25-.12.09.06.08.14.07.1v-.17l-.04-.1-.17-.21-.02-.07.06-.08-.02-.09-.04-.08v-.09l.04-.07.11-.06h.07l.05.08.05.02.12-.05.1.09h.07s.24-.03.24-.03l.05-.05v-.08s.02-.03.02-.03h.02l.27-.16h.12l.04-.05-.02-.1-.12-.08-.09-.11v-.05s.07-.03.07-.03h.07s.08-.06.08-.06l.23-.04.18-.12h.08s.13.07.13.07h.02s0,.08,0,.08l-.05.08v.07s.06.16.06.16l.13.07v.13s0,.05,0,.05v.02s.02,0,.02,0h.01s.2-.12.2-.12h.04s.07-.02.07-.02l.07.02.19.07h.11l.26-.23h.04s.13-.05.13-.05l.1-.02.08-.02.14.09v.12s.19.36.19.36l.22.06.1-.02.14-.07.17-.17.06.02.1.07.08.09.13.06.19.06h.15s.12-.01.12-.01v-.02s.12,0,.12,0l.08.04.08.08.1.18.05.28v.02s.04.03.04.03l.24.13.11.03.04-.02.02-.07.07-.11.24-.09.04-.04.02-.06.07-.12.05-.03.14-.03.06-.02.34-.25.13-.13h.11s.19.03.19.03h.37s.12-.04.12-.04h.1l.03.03.03.2v.23s.04.03.04.03l.19.06.08.06.07.03h.2s.05,0,.05,0l.03-.03h.19l.04.02.03.11.05.03.04.02h.11s.08-.05.08-.05v-.05s0-.13,0-.13l.02-.05.1-.14.1-.2.14-.14.05-.08.07-.07.06-.02.03-.03h.03l.14-.09h.03s.08.19.08.19h.18s.15-.06.15-.06l.14-.11h.04v.14s0,.1,0,.1l.07.1.06.06.06.12.04.02h.39s.04.01.04.01h.03l.08.08.07.03h.1s.18-.11.18-.11l.06-.03h.19s.1.02.1.02l.04.02.08.1.04.12v.12s-.05.25-.05.25v.08l.11.09.16.23.06.03.08-.02.1.07.07.02.39.02h.09s.1-.05.1-.05l.06-.04h.03l.08-.06h.06l.06.04h.11l.26-.11h.08l.04.04h.06s.03-.01.03-.01l.05-.14.04-.07.12-.03h.22l.36-.12.14-.16.19-.02.12.09.09.24.4.1.4.27.16-.17.38.08.17-.1.07-.33.19.02.07-.07.03-.1-.1.02.07-.18.09.04.18.33h.07l.15-.08v-.21s.55-.1.55-.1l.39-.29.27.02.25-.11.04.08-.11.22.24.19h.13s.06-.21.06-.21l.39-.06.3-.33.12-.02.03.38.48-.04.12-.13-.17-.3v-.15s.09-.12.09-.12l-.02-.26.57.12.22-.09.06.07.23-.22.21-.03.46.21.18.3.27.07.07.19h.51l.2-.14.1.12v.26l.19.13.31-.13.25-.31.34.07.27.29.02-.02h.07l.13.16.13.3.26.35h.15s.06.02.06.02h.08s.03-.02.03-.02l.08-.03v-.03l.23.03.11.04.2.17h.25l.11-.07.04-.08v-.06s-.02-.09-.02-.09l-.04-.02-.04-.04v-.06s.03-.03.03-.03h.06s.07.03.07.03l.1.02.13-.04.28.02.09-.08h.04s.09.16.09.16h.11l.09-.07.02-.04.09-.09.04-.02h.09l.09.03.18.12h.04s.04-.13.04-.13l.06-.07.19-.13.21-.13.07-.02h.27s.12.13.12.13l.13.2.06.06.24.04h.2s.05,0,.05,0l.1-.21.05-.04h.09s.05.09.05.09l.05.06h.1s.19-.12.19-.12l.04-.03.16-.08.04-.03-.02-.22.05-.08.21-.04.24-.07.11-.12h.03s.07-.03.07-.03l.23-.05.07-.03.03-.08.09-.1h.12s.12-.06.12-.06l.08-.07.06-.1.04-.08.04-.04.1-.02h.17s.11-.07.11-.07l-.07-.07-.21-.28-.17-.14-.07-.05-.06-.41v-.23l.04-.04.15-.14h.11s.07-.03.07-.03l.04-.03.03-.06.02-.06.03-.06v-.03s.04-.12.04-.12v-.07s.05,0,.05,0l.08-.02.15-.04.07-.02.11-.34.17-.2.07-.2.06-.04-.06-.16h-.02s-.25.08-.25.08l-.02-.02-.05-.07.15-.23.02-.07h0s.28-.24.28-.24l.06-.16.03-.08.03-.14.05-.3-.16-.09v-.09l.1-.23.05-.11.02-.13h.02l.06-.03h.03s.11.08.11.08l.02-.03.07-.11v-.11s0-.04,0-.04l.04-.1-.08-.14v-.09l.02-.02.05-.04.18.02h.03s.12-.04.12-.04l.02-.12v-.03s-.24-.1-.24-.1v-.14s.05-.16.05-.16l.06-.02.15-.06.09-.09.07-.12v-.14l-.15-.12ZM23.7,20.22l-.77.28-.19-.13-.39-.04-.39-.68-.24.05-.4-.18.09-.24.32-.15.06-.19-.08-.23.18-.23.05-.24.53-.24.44.08.22-.31.32.3.1.29-.12.17-.03.21.42.2.04.29.11.26-.18.05-.06.16.33.28-.36.24Z"/>
  <g>
    <polygon class="cls-2" points="46.76 28.68 46.73 28.74 46.57 28.74 46.24 28.94 46.15 28.83 46.04 28.78 45.92 28.73 45.85 28.72 45.81 28.76 45.68 28.76 45.64 28.87 45.58 28.94 45.53 28.99 45.49 29.17 45.42 29.25 45.4 29.43 45.44 29.49 45.48 29.54 45.27 29.75 45.05 29.74 44.94 29.8 44.72 29.85 44.63 29.91 44.47 29.98 44.44 30.02 44.41 30.15 44.35 30.25 44.27 30.3 44.19 30.28 44.14 30.29 44.11 30.3 44.09 30.33 44.08 30.38 44.07 30.41 44.07 30.48 44.03 30.51 43.97 30.55 44.03 30.61 44.14 30.67 44.18 30.74 44.21 30.93 44.2 31.1 44.27 31.26 44.24 31.37 44.02 31.33 43.94 31.35 43.88 31.43 43.8 31.38 43.77 31.37 43.67 31.58 43.75 31.75 43.73 31.78 43.66 31.86 43.66 31.87 43.8 31.87 43.85 32.03 43.77 32.14 43.7 32.14 43.67 32.2 43.63 32.27 43.62 32.27 43.47 32.18 43.36 32.03 43.43 31.86 43.37 31.75 43.44 31.65 43.32 31.54 43.29 31.54 42.97 31.5 42.95 31.68 42.9 31.76 42.8 31.81 42.73 31.81 42.72 31.8 42.64 31.73 42.63 31.72 42.43 31.65 42.37 31.58 42.34 31.34 42.31 31.32 42.29 31.31 42.23 31.31 41.94 31.45 41.69 31.45 41.55 31.55 41.57 31.77 41.6 31.79 41.54 31.88 41.5 32.24 41.01 32.42 40.86 32.51 40.78 32.65 40.77 32.79 40.71 32.94 40.67 33.04 40.7 33.18 40.68 33.26 40.6 33.32 40.49 33.32 40.33 33.44 40.29 33.55 40.3 33.63 40.44 33.79 40.45 33.85 40.31 34.03 40.31 34.1 40.22 34.28 39.92 34.44 39.88 34.5 39.91 34.69 39.92 34.72 39.93 34.74 39.97 34.83 39.97 34.84 40.1 34.91 40.03 35.11 39.88 35.2 39.81 35.21 39.76 35.25 39.79 35.34 39.72 35.41 39.58 35.37 39.47 35.4 39.39 35.47 39.3 35.67 39.34 35.82 39.28 35.96 39.19 36.02 39.19 36.26 39.14 36.31 39.02 36.41 38.86 36.6 39.03 36.74 39.18 36.76 39.3 36.83 39.42 36.96 39.43 37 39.46 37.06 39.41 37.08 39.36 37.12 39.33 37.11 39.28 37.1 39.18 37.09 39.14 37.08 39.08 37.13 39.16 37.31 39.05 37.39 39.05 37.51 39.01 37.63 38.92 37.71 38.95 37.75 39.03 37.87 39.03 38.1 39.07 38.17 39.09 38.53 39.28 38.49 39.41 38.51 39.5 38.43 39.8 39.12 39.87 39.26 40 39.39 40 39.49 39.96 39.68 39.96 39.7 39.98 39.78 40.17 39.85 40.31 39.77 40.4 39.77 40.48 39.82 40.65 40.09 40.43 40.33 40.39 40.54 40.34 40.68 40.33 40.69 40.81 40.87 40.93 40.95 40.89 40.97 40.87 41.09 40.86 41.11 40.84 41.16 40.87 41.32 40.88 41.39 40.81 41.45 40.68 41.48 40.66 41.48 40.66 41.58 40.64 41.61 40.53 41.78 40.53 42.01 40.26 42.16 40.25 42.2 40.28 42.37 40.43 42.35 40.5 42.37 40.45 42.49 40.51 42.6 40.4 42.69 40.18 42.87 40.13 42.91 40.06 42.96 39.93 43.06 39.82 43.15 39.79 43.11 39.75 43.07 39.71 43.02 39.64 43.05 39.55 43.04 39.47 42.94 39.43 42.9 39.31 42.82 39.16 42.87 39.11 42.98 39.12 43.11 39.08 43.17 39.07 43.25 38.97 43.27 38.9 43.24 38.87 43.18 38.76 43.16 38.74 43.25 38.49 43.23 38.2 43.11 37.94 43.09 37.86 43.08 37.69 43.18 37.66 43.26 37.54 43.35 37.48 43.46 37.52 43.65 37.53 43.69 37.5 43.77 37.44 43.88 37.34 43.84 37.27 43.67 37.22 43.62 36.94 43.47 36.8 43.45 36.71 43.47 36.56 43.7 36.38 43.78 36.2 43.85 35.94 43.84 35.85 43.96 35.83 44.1 35.82 44.13 35.7 44 35.67 43.86 35.46 43.74 35.36 43.68 35.43 43.63 35.45 43.63 35.52 43.62 35.63 43.5 35.73 43.42 35.73 43.41 35.72 43.34 35.62 43.2 35.44 43.08 35.57 42.81 35.4 42.76 35.28 42.38 35.3 42.27 34.83 41.84 34.8 41.81 34.68 41.76 34.58 41.71 34.49 41.71 34.36 41.57 34.26 41.62 34.27 41.76 34.03 41.82 33.93 41.89 33.91 41.95 33.82 41.68 33.86 41.52 33.98 41.33 34.11 41.19 33.96 40.96 33.9 40.89 33.82 40.79 33.56 40.62 33.37 40.43 33.25 40.38 33.09 40.54 32.87 40.51 32.76 40.54 32.7 40.52 32.65 40.4 32.57 40.4 32.51 40.44 32.32 40.39 32.17 40.42 32.12 40.39 32.14 40.27 32.14 40.24 32.13 40.12 32.05 39.96 31.98 39.96 31.9 40.1 31.86 40.08 31.83 40.02 31.69 40.04 31.65 39.98 31.68 39.75 31.32 39.17 31.23 39.11 31.1 39.16 30.97 39.16 30.94 39.05 30.89 38.98 30.77 39.02 30.68 39 30.47 38.89 30.3 38.78 30.19 38.56 30.16 38.51 30.07 38.42 29.93 38.39 29.83 38.39 29.78 38.43 29.71 38.39 29.68 38.37 29.54 38.46 29.53 38.55 29.25 38.65 29.09 38.68 28.94 38.66 28.73 38.53 28.68 38.53 28.64 38.63 28.5 38.6 28.48 38.53 28.53 38.48 28.61 38.2 28.72 38.1 28.73 38.04 28.64 37.83 28.65 37.66 28.49 37.6 28.44 37.3 28.45 37.26 28.53 37.24 28.55 37.19 28.59 37.06 28.64 36.93 28.67 36.84 28.81 36.62 28.83 36.52 28.77 36.24 28.73 36.11 28.6 36.02 28.56 35.96 28.53 35.92 28.43 35.71 28.32 35.63 28.2 35.63 27.89 35.55 27.82 35.53 27.72 35.4 27.77 35.14 27.81 35.04 27.94 35.01 28.01 34.84 28.05 34.74 28.07 34.71 28.04 34.59 28.07 34.49 28.01 34.4 28.07 34.17 28.3 33.95 28.3 33.85 28.12 33.7 28.15 33.65 28.13 33.48 28.13 33.46 28.29 33.43 28.33 33.31 28.33 33.19 28.38 33.1 28.33 33.01 28.35 32.89 28.55 32.87 28.58 32.93 28.64 33.05 28.68 33.02 28.69 32.88 28.64 32.82 28.67 32.59 28.65 32.4 28.78 32.3 28.83 32.26 28.97 32.15 28.78 32 28.78 31.92 28.75 31.86 28.74 31.86 28.52 31.89 28.26 31.8 28.19 31.72 28.11 31.62 28.04 31.65 28.02 31.73 27.93 31.88 27.82 31.91 27.77 31.94 27.46 32.15 27.41 32.18 27.32 32.35 27.3 32.51 27.23 32.64 27.16 32.71 27.03 32.71 26.71 32.9 26.66 32.98 26.57 33.14 26.52 33.23 26.5 33.34 26.42 33.49 26.43 33.56 26.43 33.57 26.65 33.6 26.67 33.72 26.6 34.07 26.49 34.37 26.48 34.64 26.42 34.75 26.17 34.78 26.1 34.83 26.06 34.84 26 34.86 25.76 34.88 25.68 34.95 25.32 34.96 25.18 35.02 25.08 35.22 24.94 35.28 24.8 35.27 24.72 35.3 24.66 35.39 24.6 35.5 24.41 35.67 24.12 35.69 24.06 35.71 23.78 35.82 23.62 35.85 23.56 35.78 23.47 35.75 23.13 35.66 23.01 35.69 22.92 35.65 22.86 35.58 22.5 35.55 22.42 35.51 22.29 35.36 22.23 35.36 22.02 35.28 21.97 35.29 21.82 35.3 21.7 35.35 21.33 35.37 21.12 35.46 20.99 35.48 20.84 35.48 20.74 35.52 20.69 35.46 20.7 35.28 20.62 35.23 20.51 35.22 20.5 35.18 20.48 35.15 20.4 35.13 20.21 35.18 20.14 35.14 20.11 35.07 20.26 34.85 20.32 34.76 20.22 34.64 20.12 34.64 20.07 34.48 20.07 34.2 20.1 34.13 20.26 33.83 20.31 33.78 20.46 33.78 20.48 33.79 20.58 33.81 20.67 33.76 20.75 33.66 21.07 33.47 21.12 33.37 21.12 33.27 21.08 33.22 21.03 33.12 20.9 32.96 20.79 32.88 20.79 32.83 20.82 32.78 20.8 32.75 20.74 32.68 20.78 32.55 20.78 32.53 20.76 32.41 20.75 32.38 20.75 32.37 20.77 32.25 20.67 32.22 20.54 32.21 20.36 32.2 20.22 32.31 20.12 32.34 20 32.32 19.92 32.24 20.01 32.05 20.01 31.89 20.23 31.7 20.19 31.57 20.18 31.51 20.17 31.47 20.22 31.33 20.29 31.23 20.32 31.06 20.2 30.77 20.24 30.71 20.41 30.68 20.49 30.55 20.51 30.43 20.87 30.16 20.94 30.06 20.96 29.89 20.9 29.77 20.82 29.66 20.74 29.62 20.58 29.61 20.49 29.54 20.45 29.43 20.38 29.37 20.29 29.4 20.22 29.49 20.21 29.6 20.41 29.74 20.39 29.86 20.21 29.93 20.06 29.93 20 29.83 20 29.71 19.99 29.71 19.96 29.64 19.88 29.64 19.88 29.62 19.86 29.55 19.88 29.43 19.87 29.4 19.85 29.32 19.81 29.16 19.81 29.15 19.76 29.1 19.74 29.09 19.73 29.08 19.6 28.94 19.6 28.93 19.5 28.89 19.39 28.97 19.28 28.72 19.2 28.65 19.08 28.61 19.07 28.57 19.04 28.45 18.92 28.41 18.84 28.34 18.81 28.27 18.77 28.16 18.72 28.12 18.63 28.14 18.58 28.25 18.46 28.26 18.35 28.32 18.24 28.39 18.14 28.33 18.03 28.41 17.97 28.34 17.89 28.35 17.82 28.4 17.61 28.55 17.29 28.64 17.1 28.58 17.07 28.46 17.02 28.42 16.94 28.47 16.85 28.43 16.74 28.31 16.62 28.18 16.32 28.23 16.3 28.31 16.25 28.34 16.16 28.24 16.17 28.17 16.01 28.22 15.72 28.16 15.55 28.29 15.51 28.26 15.49 28.24 15.37 28.27 15.26 28.45 15.19 28.69 15.21 28.87 15.21 28.89 15.18 28.95 14.98 28.82 14.95 28.85 14.97 29 14.97 29.02 14.92 29.03 14.79 28.97 14.67 28.85 14.69 28.77 14.58 28.62 14.55 28.42 14.46 28.27 14.44 28.08 14.41 28.06 14.39 28.04 14.37 27.97 14.37 27.95 14.41 27.76 14.55 27.44 14.53 27.32 14.53 27.19 14.54 27.13 14.48 26.91 14.49 26.75 14.43 26.65 14.37 26.56 14.37 26.32 14.29 26.23 14.22 26.21 14.05 26.05 14.04 26.02 14 25.88 13.76 25.59 13.7 25.57 13.54 25.68 13.46 25.71 13.34 25.59 13.23 25.53 13.08 25.59 12.9 25.59 12.64 25.7 12.45 25.74 12.42 25.56 12.46 25.44 12.48 25.4 12.69 25.15 12.61 25.07 12.4 24.97 12.13 24.93 11.98 25.16 11.92 25.35 11.85 25.38 11.74 25.37 11.64 25.37 11.61 25.42 11.58 25.42 11.47 25.47 11.35 25.45 11.24 25.47 11.12 25.61 11.09 25.65 11.01 25.65 10.77 25.41 10.56 25.35 10.04 25.05 9.96 24.95 9.85 24.81 9.86 24.58 9.91 24.49 9.85 24.42 9.93 24.37 9.86 24.23 9.88 24.16 9.9 24.07 9.83 23.88 9.86 23.72 9.82 23.67 9.81 23.58 9.81 23.43 9.66 23.25 9.58 23.16 9.5 22.96 9.48 22.89 9.51 22.78 9.46 22.68 9.41 22.52 9.43 22.37 9.47 22.31 9.71 22.19 9.75 22.14 9.61 21.96 9.61 21.91 9.62 21.8 9.45 21.57 9.42 21.56 9.34 21.53 9.12 21.52 9.04 21.39 8.91 21.32 8.98 21.2 8.94 21.1 8.8 21 8.75 20.92 8.73 20.82 8.71 20.75 8.57 20.64 8.79 20.7 8.89 20.68 9.03 20.61 9.2 20.44 9.26 20.46 9.36 20.53 9.44 20.62 9.57 20.68 9.76 20.74 9.91 20.75 10.03 20.73 10.04 20.71 10.15 20.7 10.23 20.74 10.31 20.82 10.41 21 10.46 21.28 10.47 21.3 10.5 21.33 10.74 21.46 10.85 21.49 10.89 21.47 10.91 21.4 10.98 21.29 11.22 21.2 11.26 21.16 11.28 21.1 11.35 20.98 11.4 20.95 11.54 20.92 11.6 20.9 11.94 20.65 12.07 20.52 12.18 20.51 12.37 20.55 12.74 20.56 12.86 20.51 12.96 20.51 12.99 20.54 13.02 20.74 13.03 20.97 13.06 21 13.25 21.06 13.33 21.12 13.4 21.15 13.6 21.16 13.65 21.14 13.68 21.11 13.87 21.11 13.91 21.13 13.94 21.24 13.99 21.27 14.03 21.29 14.14 21.28 14.22 21.24 14.23 21.19 14.22 21.06 14.24 21.01 14.34 20.87 14.44 20.67 14.58 20.53 14.63 20.45 14.7 20.38 14.76 20.36 14.79 20.33 14.82 20.33 14.96 20.24 14.99 20.25 15.07 20.43 15.25 20.44 15.4 20.37 15.54 20.26 15.58 20.26 15.57 20.4 15.58 20.5 15.65 20.6 15.71 20.66 15.77 20.78 15.81 20.8 16.2 20.79 16.24 20.81 16.27 20.81 16.35 20.89 16.42 20.92 16.52 20.93 16.7 20.81 16.76 20.78 16.95 20.77 17.05 20.8 17.09 20.82 17.17 20.92 17.21 21.04 17.21 21.14 17.2 21.16 17.16 21.41 17.16 21.49 17.27 21.58 17.43 21.81 17.49 21.84 17.57 21.82 17.67 21.89 17.74 21.91 18.13 21.93 18.22 21.92 18.32 21.88 18.38 21.84 18.41 21.84 18.49 21.78 18.55 21.78 18.61 21.82 18.72 21.82 18.98 21.71 19.06 21.71 19.1 21.75 19.16 21.76 19.19 21.74 19.24 21.6 19.28 21.53 19.4 21.5 19.62 21.5 19.98 21.38 20.12 21.22 20.31 21.2 20.43 21.29 20.52 21.53 20.92 21.63 21.32 21.9 21.48 21.73 21.86 21.81 22.03 21.71 22.1 21.38 22.29 21.4 22.36 21.33 22.39 21.23 22.29 21.25 22.36 21.07 22.45 21.11 22.63 21.44 22.7 21.44 22.85 21.36 22.84 21.15 23.4 21.05 23.79 20.76 24.06 20.78 24.31 20.67 24.35 20.75 24.24 20.97 24.48 21.16 24.61 21.17 24.67 20.95 25.06 20.89 25.36 20.56 25.48 20.54 25.51 20.92 25.99 20.88 26.11 20.75 25.94 20.45 25.95 20.3 26.03 20.18 26.01 19.92 26.58 20.04 26.8 19.95 26.86 20.02 27.09 19.8 27.3 19.77 27.76 19.98 27.94 20.28 28.21 20.35 28.28 20.54 28.79 20.54 28.99 20.4 29.09 20.52 29.09 20.78 29.28 20.91 29.59 20.78 29.84 20.47 30.18 20.54 30.45 20.83 30.47 20.81 30.54 20.81 30.67 20.97 30.8 21.27 31.06 21.62 31.21 21.61 31.27 21.64 31.35 21.65 31.38 21.62 31.46 21.59 31.46 21.56 31.69 21.59 31.8 21.63 32 21.8 32.25 21.8 32.36 21.73 32.4 21.65 32.41 21.59 32.38 21.5 32.34 21.48 32.3 21.44 32.29 21.38 32.33 21.35 32.39 21.34 32.46 21.38 32.56 21.4 32.69 21.36 32.97 21.38 33.06 21.3 33.1 21.31 33.19 21.46 33.3 21.46 33.39 21.39 33.41 21.35 33.5 21.26 33.54 21.24 33.63 21.24 33.72 21.27 33.9 21.39 33.94 21.38 33.98 21.26 34.04 21.19 34.23 21.06 34.44 20.93 34.51 20.91 34.78 20.92 34.9 21.04 35.03 21.24 35.09 21.3 35.33 21.34 35.53 21.35 35.58 21.34 35.68 21.13 35.73 21.09 35.8 21.09 35.82 21.1 35.87 21.18 35.92 21.24 36.02 21.23 36.21 21.12 36.25 21.09 36.41 21.01 36.45 20.98 36.43 20.76 36.48 20.68 36.69 20.64 36.93 20.57 37.04 20.45 37.07 20.46 37.14 20.42 37.37 20.37 37.44 20.34 37.47 20.26 37.56 20.16 37.68 20.15 37.8 20.1 37.88 20.03 37.94 19.93 37.98 19.85 38.02 19.81 38.12 19.79 38.29 19.78 38.4 19.72 38.4 19.74 38.42 19.8 38.36 19.94 38.45 20.18 38.45 20.27 38.26 20.6 38.25 20.62 38.27 20.63 38.35 20.69 38.35 20.72 38.39 20.81 38.48 20.86 38.6 20.91 38.77 20.93 38.87 20.79 38.91 20.76 38.99 20.78 39.04 20.92 39.12 20.91 39.18 20.84 39.33 20.89 39.51 21.02 39.64 21.15 39.82 21.44 40 21.44 40.16 21.48 40.46 21.52 40.57 21.56 40.64 21.55 40.75 21.45 40.8 21.38 40.81 21.35 40.83 21.35 40.95 21.18 40.93 21.03 40.84 20.98 40.77 20.89 40.77 20.78 40.8 20.75 40.83 20.74 40.91 20.7 41.02 20.74 41.08 20.74 41.16 20.69 41.27 20.66 41.33 20.65 41.51 20.57 41.64 20.57 41.71 20.7 41.73 20.71 41.79 20.73 42.02 20.72 42.29 20.74 42.46 20.86 42.5 20.96 42.41 21.2 42.42 21.23 42.42 21.24 42.45 21.37 42.49 21.37 42.58 21.38 42.67 21.28 42.74 21.28 42.82 21.32 43.32 21.32 43.41 21.49 43.45 21.66 43.82 22.15 43.87 22.22 43.93 22.25 44.01 22.43 44.06 22.53 44.18 22.57 44.24 22.59 44.17 22.66 44.02 22.8 44.02 22.81 44.08 22.94 44.16 23 44.15 23.05 44.18 23.1 44.26 23.08 44.37 23 44.56 23.03 44.76 23.11 44.8 23.12 44.93 23.15 45.21 23.1 45.21 23.24 45.11 23.4 45 23.5 44.96 23.67 44.94 23.79 44.88 23.85 44.78 23.75 44.71 23.73 44.65 23.87 44.48 24.03 44.39 24.15 44.1 24.37 44.14 24.45 44.14 24.62 44.17 24.69 44.25 24.72 44.31 24.69 44.35 24.77 44.35 24.85 44.3 24.92 44.43 25.09 44.49 25.2 44.51 25.24 44.58 25.26 44.68 25.53 44.75 25.53 44.92 25.42 45.01 25.4 45.04 25.42 45.11 25.46 45.19 25.42 45.34 25.41 45.39 25.46 45.43 25.51 45.49 25.52 45.65 25.49 45.69 25.52 45.92 25.57 46.09 25.68 46.1 25.83 46.05 25.96 46.03 26.01 46.05 26.09 46.06 26.16 46.12 26.2 46.44 26.39 46.45 26.65 46.34 26.81 46.31 26.96 46.32 27.02 46.35 27.15 46.08 27.55 46.03 27.68 46.27 27.9 46.33 27.97 46.38 28.05 46.7 28.34 46.76 28.68"/>
    <polygon class="cls-2" points="6.91 20.37 6.92 20.42 6.91 20.44 6.8 20.44 6.75 20.45 6.72 20.47 6.69 20.49 6.64 20.53 6.58 20.58 6.46 20.61 6.41 20.7 6.29 20.8 6.24 20.8 6.05 20.81 6.01 20.81 5.86 20.96 5.88 21.12 5.84 21.21 5.77 21.23 5.74 21.31 5.71 21.52 5.7 21.66 5.59 21.69 5.53 21.71 5.45 21.74 5.42 21.75 5.34 21.73 5.28 21.65 5.08 21.65 5.02 21.58 5.02 21.41 4.98 21.31 4.81 21.1 4.79 21.03 4.85 20.95 4.83 20.86 4.79 20.78 4.79 20.69 4.83 20.62 4.94 20.56 5.01 20.56 5.06 20.64 5.11 20.66 5.23 20.61 5.33 20.7 5.4 20.71 5.64 20.67 5.69 20.62 5.7 20.54 5.71 20.51 5.73 20.51 6 20.35 6.12 20.35 6.16 20.3 6.14 20.2 6.02 20.12 5.93 20.01 5.94 19.96 6 19.93 6.07 19.92 6.15 19.87 6.38 19.83 6.56 19.71 6.64 19.72 6.77 19.78 6.79 19.79 6.78 19.86 6.73 19.94 6.74 20.01 6.79 20.17 6.92 20.24 6.91 20.37"/>
  </g>
  <polygon class="cls-1" points="5.42 21.75 5.45 21.74 5.42 21.75 5.34 21.73 5.34 21.73 5.42 21.75"/>
  <polygon class="cls-1" points="5.23 21.65 5.28 21.65 5.28 21.65 5.23 21.65 5.08 21.65 5.23 21.65"/>
</svg>