<?xml version="1.0" encoding="UTF-8"?>
<svg id="Layer_1" data-name="Layer 1" xmlns="http://www.w3.org/2000/svg" version="1.1" viewBox="0 0 49.6 49.6">
  <defs>
    <style>
      .cls-1 {
        fill: #51746f;
        stroke-width: 0px;
      }
    </style>
  </defs>
  <path class="cls-1" d="M24.8,11.9c-7,0-12.8,5.7-12.8,12.8s5.7,12.8,12.8,12.8,12.8-5.8,12.8-12.8-5.8-12.8-12.8-12.8ZM24.8,32.9c-4.5,0-8.2-3.7-8.2-8.2s3.7-8.2,8.2-8.2,8.2,3.7,8.2,8.2-3.7,8.2-8.2,8.2Z"/>
  <circle class="cls-1" cx="38.1" cy="11.6" r="2.9"/>
  <path class="cls-1" d="M45.6,4.1c-2.6-2.7-6.3-4.1-10.5-4.1H14.5C5.8,0,0,5.8,0,14.5v20.5c0,4.3,1.4,8,4.2,10.7,2.7,2.6,6.3,3.9,10.4,3.9h20.4c4.3,0,7.9-1.4,10.5-3.9,2.7-2.6,4.1-6.3,4.1-10.6V14.5c0-4.2-1.4-7.8-4-10.4ZM45.2,35.1c0,3.1-1.1,5.6-2.9,7.3s-4.3,2.6-7.3,2.6H14.6c-3,0-5.5-.9-7.3-2.6-1.8-1.8-2.7-4.3-2.7-7.4V14.5c0-3,.9-5.5,2.7-7.3,1.7-1.7,4.3-2.6,7.3-2.6h20.6c3,0,5.5.9,7.3,2.7,1.7,1.8,2.7,4.3,2.7,7.2v20.6h0Z"/>
</svg>