<?xml version="1.0" encoding="UTF-8"?>
<svg id="Calque_1" data-name="Calque 1" xmlns="http://www.w3.org/2000/svg" version="1.1" viewBox="0 0 48 48">
  <defs>
    <style>
      .cls-1 {
        fill: #52756f;
        stroke-width: 0px;
      }
    </style>
  </defs>
  <path class="cls-1" d="M39.4,46.22c-.89,1.29-2.72,1.56-3.95.56-1.1-.89-1.31-2.48-.51-3.65,5.64-8.13,6.75-17.88,2.82-26-3.3-6.81-9.6-9.72-12.46-10.74-.58-.2-1.22-.2-1.79,0-2.85,1.01-9.15,3.91-12.46,10.74-3.94,8.11-2.82,17.86,2.82,26,.81,1.16.58,2.76-.51,3.65-.51.42-1.11.61-1.71.61-.86,0-1.71-.39-2.24-1.16C2.65,36.5,1.36,24.69,6.16,14.78c.24-.48.48-.94.73-1.4.33-.6.61-1.65.61-2.33v-3.95c0-1.49,1.22-2.72,2.72-2.72.75,0,1.43.3,1.92.8.18.18.33.38.44.6.14.26.47.33.69.13C18.35,1.89,24.21.61,24.39.61c.2,0,12.72,2.79,18.24,14.19,4.81,9.87,3.53,21.69-3.23,31.42Z"/>
  <path class="cls-1" d="M30.63,31.51c.48.55.42,1.37-.1,1.9l-2.9,2.9c-.39.39-.61.93-.61,1.49v3.36c0,1.43-1.22,2.58-2.72,2.58s-2.72-1.15-2.72-2.58v-11.55c0-.56-.21-1.1-.61-1.49l-3.02-3.02c-.51-.51-.58-1.35-.1-1.9.54-.6,1.43-.61,1.97-.07l.55.55c.67.67,1.19.43,1.19-.5v-12.23c0-1.41,1.22-2.58,2.72-2.58s2.72,1.15,2.72,2.58v3.86c0,.93.54,1.16,1.19.5l.42-.42c.51-.51,1.35-.58,1.9-.1.6.54.61,1.43.07,1.97l-2.96,2.96c-.39.39-.61.93-.61,1.49v10.15c0,.93.54,1.16,1.19.5l.44-.44c.59-.52,1.49-.48,2.01.09Z"/>
</svg>