<?xml version="1.0" encoding="UTF-8"?>
<svg xmlns="http://www.w3.org/2000/svg" xmlns:xlink="http://www.w3.org/1999/xlink" version="1.1" viewBox="0 0 1440 990">
  <defs>
    <style>
      .cls-1, .cls-2, .cls-3, .cls-4, .cls-5, .cls-6, .cls-7, .cls-8, .cls-9, .cls-10, .cls-11, .cls-12, .cls-13, .cls-14 {
        stroke-width: 0px;
      }

      .cls-1, .cls-6 {
        fill: #ffdf98;
        mix-blend-mode: screen;
      }

      .cls-1, .cls-15 {
        opacity: .5;
      }

      .cls-2 {
        fill: #1a2f2f;
      }

      .cls-16 {
        clip-path: url(#clippath);
      }

      .cls-3 {
        fill: none;
      }

      .cls-4 {
        fill: #477971;
      }

      .cls-5 {
        fill: url(#linear-gradient);
      }

      .cls-6 {
        opacity: .4;
      }

      .cls-7 {
        fill: url(#linear-gradient-3);
        mix-blend-mode: soft-light;
        opacity: .2;
      }

      .cls-17 {
        clip-path: url(#clippath-1);
      }

      .cls-18 {
        clip-path: url(#clippath-4);
      }

      .cls-19 {
        clip-path: url(#clippath-3);
      }

      .cls-20 {
        clip-path: url(#clippath-2);
      }

      .cls-21 {
        clip-path: url(#clippath-5);
      }

      .cls-8 {
        fill: #fefae6;
      }

      .cls-22 {
        opacity: .8;
      }

      .cls-23 {
        opacity: .7;
      }

      .cls-9 {
        fill: url(#linear-gradient-2);
      }

      .cls-10 {
        fill: #508c85;
      }

      .cls-11 {
        fill: #87c1b9;
      }

      .cls-24 {
        isolation: isolate;
      }

      .cls-12 {
        fill: #6a9a95;
      }

      .cls-13 {
        fill: #6fada8;
      }

      .cls-14 {
        fill: #2e4c48;
      }
    </style>
    <clipPath id="clippath">
      <rect class="cls-3" width="1440" height="990"/>
    </clipPath>
    <linearGradient id="linear-gradient" x1="720" y1="0" x2="720" y2="990" gradientUnits="userSpaceOnUse">
      <stop offset="0" stop-color="#d5ebe7"/>
      <stop offset=".02" stop-color="#d6ebe5"/>
      <stop offset=".34" stop-color="#eaf1d2"/>
      <stop offset=".66" stop-color="#f6f4c7"/>
      <stop offset=".99" stop-color="#faf6c4"/>
    </linearGradient>
    <linearGradient id="linear-gradient-2" x1="720" y1="990" x2="720" y2="639.65" gradientUnits="userSpaceOnUse">
      <stop offset="0" stop-color="#d5ebe7"/>
      <stop offset=".32" stop-color="#d9ece3"/>
      <stop offset=".65" stop-color="#e5efd7"/>
      <stop offset=".99" stop-color="#f9f5c4"/>
      <stop offset=".99" stop-color="#faf6c4"/>
    </linearGradient>
    <clipPath id="clippath-1">
      <rect class="cls-3" x="-22.5" y="639.65" width="1485" height="350.35"/>
    </clipPath>
    <clipPath id="clippath-2">
      <rect class="cls-3" x="-22.5" y="639.65" width="1485" height="350.35"/>
    </clipPath>
    <clipPath id="clippath-3">
      <rect class="cls-3" x="-22.5" y="639.65" width="1485" height="350.35"/>
    </clipPath>
    <clipPath id="clippath-4">
      <rect class="cls-3" x="-22.5" width="1485" height="990"/>
    </clipPath>
    <clipPath id="clippath-5">
      <rect class="cls-3" x="-22.5" width="1485" height="990"/>
    </clipPath>
    <linearGradient id="linear-gradient-3" x1="-22.5" y1="495" x2="1462.5" y2="495" xlink:href="#linear-gradient"/>
  </defs>
  <g class="cls-24">
    <g id="Calque_1" data-name="Calque 1">
      <g class="cls-16">
        <rect class="cls-5" x="-22.5" width="1485" height="990"/>
        <g>
          <g>
            <g>
              <g>
                <g>
                  <path class="cls-13" d="M1462.5,267.26l-20.79-5.9s-43.56-35.64-51.48-37.62c-7.92-1.98-64.35-22.77-69.3-24.75-4.95-1.98-61.38-37.62-68.31-38.61-6.93-.99-92.07-51.48-96.03-50.49s-48.51,44.55-55.44,47.52-66.33,58.41-71.28,62.37-53.46,65.34-57.42,69.3c-3.96,3.96-56.43,33.66-60.39,34.65s-56.43,20.79-60.39,24.75c-3.96,3.96-67.32,67.32-67.32,67.32l-52.47,21.78-71.28-14.85-58.41-14.85-44.55-36.63-30.69-14.85s-38.61-49.5-41.58-51.48-30.69-13.86-34.65-16.83-42.57-40.59-42.57-40.59c0,0-48.51,38.61-51.48,38.61s-50.49,23.76-55.44,25.74-44.55,38.61-48.51,39.6-50.49,15.84-53.46,15.84-62.37,5.94-65.34,7.92-35.64,19.8-38.61,20.79-39.6,6.93-42.57,7.92-31.68,1.98-36.63,4.95c-3.1,1.86-23.67,12.65-38.61,20.45v560.68h1485V267.26Z"/>
                  <path class="cls-12" d="M301.23,311.85c-4.95,1.98-44.55,38.61-48.51,39.6s-50.49,15.84-53.46,15.84-62.37,5.94-65.34,7.92-35.64,19.8-38.61,20.79-39.6,6.93-42.57,7.92-31.68,1.98-36.63,4.95c-3.1,1.86-23.67,12.65-38.61,20.45v197.35h719.73l-27.72-41.58s-52.47-45.54-58.41-47.52-32.67-23.76-32.67-23.76l-53.46,32.67,44.55-44.55s-15.84-26.73-21.78-27.72-19.8-23.76-24.75-25.74-24.75-24.75-24.75-24.75l-72.27,30.69,72.27-44.55s-9.9-6.93-15.84-8.91c-5.94-1.98-22.77-18.81-22.77-18.81l-21.78-36.63-48.51,29.7,48.51-48.51s-12.87-18.81-16.83-23.76-12.87-55.44-12.87-55.44c0,0-48.51,38.61-51.48,38.61s-50.49,23.76-55.44,25.74Z"/>
                  <path class="cls-11" d="M483.39,311.85l31.68,44.05,42.57,15.35-30.69-14.85s-38.61-49.5-41.58-51.48-30.69-13.86-34.65-16.83-42.57-40.59-42.57-40.59l43.56,53.46,31.68,10.89Z"/>
                  <path class="cls-12" d="M767.52,495s-21.78,29.7-23.76,32.67-141.57,99-141.57,99h392.04l32.67-75.24-144.54,37.62,147.51-51.48-6.93-36.63s3.96-57.42,5.94-63.36,27.23-39.6,27.23-39.6l-100.49,11.88,99.99-22.77s-3.96-17.82-1.98-22.77,18.81-31.68,23.76-37.62c4.95-5.94,15.84-27.72,16.83-32.67s4.95-34.65,4.95-34.65l-76.23,23.76,79.2-37.62s.99-22.77,5.94-27.72,27.72-39.6,30.69-45.54,17.82-62.37,17.82-62.37c-3.96.99-48.51,44.55-55.44,47.52s-66.33,58.41-71.28,62.37-53.46,65.34-57.42,69.3c-3.96,3.96-56.43,33.66-60.39,34.65s-56.43,20.79-60.39,24.75c-3.96,3.96-67.32,67.32-67.32,67.32l-39.6,60.39,22.77,18.81Z"/>
                  <path class="cls-11" d="M1289.25,191.07l19.8,22.77,82.17,18.81,42.57,45.54h28.71v-10.93l-20.79-5.9s-43.56-35.64-51.48-37.62c-7.92-1.98-64.35-22.77-69.3-24.75-4.95-1.98-61.38-37.62-68.31-38.61-6.79-.97-88.57-49.4-95.67-50.48h-.36s69.3,51.47,69.3,51.47l63.36,29.7Z"/>
                </g>
                <g>
                  <path class="cls-10" d="M1462.5,497.27c-29.68,10.25-71.45,24.9-75.24,27.43-5.94,3.96-45.54,34.65-52.47,37.62-6.93,2.97-52.47,14.85-59.4,14.85s-59.4,6.93-67.32,6.93-79.2-24.75-87.12-24.75-33.66-3.96-42.57-2.97-49.5,7.92-55.44,8.91-56.43,19.8-62.37,24.85c-5.94,5.05-46.53-5.05-51.48-6.04-4.95-.99-54.45-15.84-64.35-15.84s-20.79,7.92-26.73,8.91-28.71,0-35.64-2.97c-6.93-2.97-19.8-13.86-28.71-12.87s-36.63,5.94-40.59,4.95c-3.96-.99-41.58.99-46.53.99s-25.74,12.87-32.67,12.87-25.74-6.93-36.63-7.92-41.58-8.91-51.48-8.91-50.49,8.91-63.36,10.89c-12.87,1.98-37.62,3.96-45.54,6.93-7.92,2.97-21.78,9.9-30.69,8.91-8.91-.99-35.64-10.89-43.56-12.87-7.92-1.98-82.17-12.87-94.05-13.86s-22.77-10.89-26.73-13.86c-3.96-2.97-31.68-10.89-39.6-11.88s-44.55-19.8-53.46-19.8-57.42,1.98-63.36,0-14.85-9.9-19.8-11.88-33.66-13.86-45.54-10.89c-7.24,1.81-27.68,1.41-42.57.83v494.17h1485v-492.73Z"/>
                  <polygon class="cls-10" points="352.43 588.64 370.25 517.52 388.08 588.64 352.43 588.64"/>
                  <polygon class="cls-10" points="449.66 578.57 467.49 507.45 485.32 578.57 449.66 578.57"/>
                  <polygon class="cls-10" points="425.64 588.64 443.47 517.52 461.3 588.64 425.64 588.64"/>
                  <polygon class="cls-10" points="260.74 582.16 278.56 511.04 296.39 582.16 260.74 582.16"/>
                  <polygon class="cls-10" points="278.56 574.41 296.39 503.3 314.22 574.41 278.56 574.41"/>
                  <polygon class="cls-10" points="339.47 590.53 352.43 538.85 365.38 590.53 339.47 590.53"/>
                  <polygon class="cls-10" points="402.37 594.69 415.32 543.01 428.28 594.69 402.37 594.69"/>
                  <polygon class="cls-10" points="479.06 590.53 492.02 538.85 504.97 590.53 479.06 590.53"/>
                  <polygon class="cls-10" points="634.42 582.16 652.25 511.04 670.08 582.16 634.42 582.16"/>
                  <polygon class="cls-10" points="680.4 580.58 698.23 509.46 716.06 580.58 680.4 580.58"/>
                  <polygon class="cls-10" points="611.76 588.64 629.59 517.52 647.42 588.64 611.76 588.64"/>
                  <polygon class="cls-10" points="521.98 570.51 539.81 499.39 557.64 570.51 521.98 570.51"/>
                  <polygon class="cls-10" points="543.76 578.57 561.59 507.45 579.42 578.57 543.76 578.57"/>
                  <polygon class="cls-10" points="657.13 586.63 670.08 534.95 683.04 586.63 657.13 586.63"/>
                  <polygon class="cls-10" points="589.23 586.63 602.19 534.95 615.15 586.63 589.23 586.63"/>
                  <polygon class="cls-10" points="733.82 582.47 746.78 530.79 759.73 582.47 733.82 582.47"/>
                  <polygon class="cls-10" points="716.06 568.85 729.02 517.17 741.97 568.85 716.06 568.85"/>
                  <polygon class="cls-10" points="904.36 591.22 922.19 520.1 940.02 591.22 904.36 591.22"/>
                  <polygon class="cls-10" points="950.34 589.65 968.17 518.53 986 589.65 950.34 589.65"/>
                  <polygon class="cls-10" points="1062.54 561.8 1080.37 490.68 1098.2 561.8 1062.54 561.8"/>
                  <polygon class="cls-10" points="1016.72 572.56 1034.55 501.44 1052.38 572.56 1016.72 572.56"/>
                  <polygon class="cls-10" points="1087.62 574.41 1105.45 503.3 1123.28 574.41 1087.62 574.41"/>
                  <polygon class="cls-10" points="1358.88 552.08 1376.71 480.96 1394.54 552.08 1358.88 552.08"/>
                  <polygon class="cls-10" points="1426.69 516.52 1444.52 445.4 1462.35 516.52 1426.69 516.52"/>
                  <polygon class="cls-10" points="1170.78 585.5 1188.61 514.38 1206.44 585.5 1170.78 585.5"/>
                  <polygon class="cls-10" points="881.7 589.65 899.53 518.53 917.36 589.65 881.7 589.65"/>
                  <polygon class="cls-10" points="791.92 579.58 809.75 508.46 827.58 579.58 791.92 579.58"/>
                  <polygon class="cls-10" points="813.7 587.64 831.53 516.52 849.36 587.64 813.7 587.64"/>
                  <polygon class="cls-10" points="940.02 595.7 952.98 544.02 965.93 595.7 940.02 595.7"/>
                  <polygon class="cls-10" points="846.22 575.78 859.17 524.1 872.13 575.78 846.22 575.78"/>
                  <polygon class="cls-10" points="859.17 595.7 872.13 544.02 885.09 595.7 859.17 595.7"/>
                  <polygon class="cls-10" points="877.58 581.5 890.54 529.82 903.49 581.5 877.58 581.5"/>
                  <polygon class="cls-10" points="770.73 581.5 783.69 529.82 796.65 581.5 770.73 581.5"/>
                  <polygon class="cls-10" points="1336.66 581.37 1354.49 510.25 1372.32 581.37 1336.66 581.37"/>
                  <polygon class="cls-10" points="1314 579.79 1331.83 508.68 1349.66 579.79 1314 579.79"/>
                  <polygon class="cls-10" points="1224.22 588.29 1242.05 517.17 1259.88 588.29 1224.22 588.29"/>
                  <polygon class="cls-10" points="1246 596.35 1263.83 525.23 1281.66 596.35 1246 596.35"/>
                  <polygon class="cls-10" points="1278.52 584.49 1291.47 532.81 1304.43 584.49 1278.52 584.49"/>
                  <polygon class="cls-10" points="1291.47 604.41 1304.43 552.73 1317.39 604.41 1291.47 604.41"/>
                  <polygon class="cls-10" points="1384.29 540.22 1397.25 488.54 1410.2 540.22 1384.29 540.22"/>
                  <polygon class="cls-10" points="1413.74 516.52 1426.69 464.84 1439.65 516.52 1413.74 516.52"/>
                  <polygon class="cls-10" points="1309.88 571.65 1322.84 519.97 1335.79 571.65 1309.88 571.65"/>
                  <polygon class="cls-10" points="1203.03 590.22 1215.99 538.54 1228.95 590.22 1203.03 590.22"/>
                  <polygon class="cls-10" points="1003.76 591.54 1016.72 539.86 1029.67 591.54 1003.76 591.54"/>
                  <polygon class="cls-10" points="1123.28 588.68 1136.23 537 1149.19 588.68 1123.28 588.68"/>
                  <polygon class="cls-10" points="1136.23 600.25 1149.19 548.57 1162.14 600.25 1136.23 600.25"/>
                  <polygon class="cls-10" points="1149.19 577.92 1162.14 526.24 1175.1 577.92 1149.19 577.92"/>
                  <polygon class="cls-10" points="986 577.92 998.96 526.24 1011.91 577.92 986 577.92"/>
                  <polygon class="cls-10" points="1043.42 564.69 1056.38 513.02 1069.33 564.69 1043.42 564.69"/>
                  <polygon class="cls-10" points="308.62 573.99 321.57 522.31 334.53 573.99 308.62 573.99"/>
                  <polygon class="cls-10" points="120.12 530.56 137.95 459.44 155.78 530.56 120.12 530.56"/>
                  <polygon class="cls-10" points="175.51 557.87 193.34 486.75 211.17 557.87 175.51 557.87"/>
                  <polygon class="cls-10" points="157.68 534.95 175.51 463.83 193.34 534.95 157.68 534.95"/>
                  <polygon class="cls-10" points="-7.22 522.31 10.61 451.19 28.43 522.31 -7.22 522.31"/>
                  <polygon class="cls-10" points="34.5 509.11 52.33 437.99 70.16 509.11 34.5 509.11"/>
                  <polygon class="cls-10" points="10.61 509.11 28.43 437.99 46.26 509.11 10.61 509.11"/>
                  <polygon class="cls-10" points="100.31 525.23 113.26 473.55 126.22 525.23 100.31 525.23"/>
                  <polygon class="cls-10" points="144.73 532.87 157.68 481.19 170.64 532.87 144.73 532.87"/>
                  <polygon class="cls-10" points="211.1 558.71 224.06 507.03 237.01 558.71 211.1 558.71"/>
                  <polygon class="cls-10" points="60.9 520.84 73.86 469.16 86.82 520.84 60.9 520.84"/>
                </g>
                <path class="cls-4" d="M-22.5,569.81s103.1,16.05,117.55,17.15c14.45,1.1,63.29.22,68.57,0,5.28-.22,46.14,20.73,46.14,20.73,0,0,108.3,15.51,113.58,15.1,5.28-.41,61.24-8.82,61.24-8.82,0,0,61.89,7.79,66.8,2.14,4.91-5.65,100.32-2.28,106.26,2.66,5.94,4.94,91.31,2.6,102.89,4.38,11.58,1.78,127.45-18.27,134.05-15.46,6.6,2.82,77.16,13.92,83.36,14.91,6.2.99,122.29-2.07,128.14.19,5.85,2.26,124.96-26.28,136.98-29.85,12.02-3.57,74.98,5.85,87.77,3.92,12.79-1.93,98.12,3.68,106.69-.81,8.57-4.49,124.98-33.19,124.98-33.19v427.16H-22.5v-420.19Z"/>
              </g>
              <g>
                <path class="cls-8" d="M1038.32,275.07c-4.35-4.96-8.71-10.77-14.66-12.32-4.26-1.59-9.25,1.92-12.65,1.15-4.24-.74-6.88-4.9-11.14-6.49-7.66-2.35-15.28-3.01-23.75-3.65-9.29.23-16.07-.45-22.9-3.67-8.55-4.02-12.89-8.98-22.2-9.6-8.47-.64-15.94,4.61-23.52,5.64-9.27,1.07-16.13-2.99-24.45,2.29-7.48,5.25-11.43,16.33-19.77,20.76-7.52,3.56-17.73.43-22.6,9l197.65-3.12Z"/>
                <path class="cls-8" d="M70.67,333.82c6.74-7.7,13.52-16.72,22.76-19.12,6.62-2.46,14.35,2.97,19.63,1.79,6.59-1.15,10.68-7.61,17.29-10.07,11.89-3.64,23.72-4.67,36.86-5.66,14.42.35,24.94-.7,35.55-5.69,13.27-6.23,20.01-13.94,34.46-14.9,13.14-.99,24.74,7.16,36.51,8.76,14.39,1.66,25.03-4.64,37.95,3.55,11.6,8.15,17.74,25.35,30.69,32.22,11.67,5.53,27.52.67,35.07,13.97l-306.77-4.85Z"/>
                <path class="cls-8" d="M619.51,156.9c-18.14-13.66-30.12-10-48.56-11.78-22.37-3.2-36.59-15.44-57.47-25.21-22.17-11.12-50.01-6.53-70.93-14.98-23.55-8.51-44.17-28.83-70.7-24.22-31.84,5.8-36.52,34.74-59.32,48.69-18.77,11.41-50.34,6.66-61.43,27.51l368.4-.02Z"/>
                <path class="cls-8" d="M1445.22,169.52c-4.98-23.74-22.95-24.23-40.95-23.59-26.99.39-29.78-21.04-51.91-34-25.5-13.06-43.62-7.93-67.52,2.67-22.74,9.5-45.81,31.36-68.31,31.87-21.37.55-43.68-5.68-61.96,5.07-4.58,3.25-9.26,9.87-14.94,11.96-5.68,2.09-8.99-.24-13.51.76-9.05,2-17.03,6.28-24.99,9.44l344.07-4.17Z"/>
                <path class="cls-8" d="M121.66,190.39c2.55-12.16,11.75-12.41,20.97-12.08,13.82.2,15.25-10.77,26.58-17.41,13.06-6.69,22.34-4.06,34.57,1.37,11.64,4.87,23.46,16.06,34.98,16.32,10.94.28,22.37-2.91,31.73,2.59,2.35,1.66,4.74,5.05,7.65,6.12,2.91,1.07,4.6-.12,6.92.39,4.63,1.03,8.72,3.22,12.79,4.83l-176.19-2.13Z"/>
              </g>
            </g>
            <g>
              <g>
                <rect class="cls-9" x="-22.5" y="639.65" width="1485" height="350.35"/>
                <g class="cls-15">
                  <g class="cls-17">
                    <g>
                      <g>
                        <g>
                          <path class="cls-13" d="M1462.5,1011.86l-20.79,5.9s-43.56,35.64-51.48,37.62c-7.92,1.98-64.35,22.77-69.3,24.75s-61.38,37.62-68.31,38.61c-6.93.99-92.07,51.48-96.03,50.49-3.96-.99-48.51-44.55-55.44-47.52-6.93-2.97-66.33-58.41-71.28-62.37-4.95-3.96-53.46-65.34-57.42-69.3s-56.43-33.66-60.39-34.65-56.43-20.79-60.39-24.75c-3.96-3.96-67.32-67.32-67.32-67.32l-52.47-21.78-71.28,14.85-58.41,14.85-44.55,36.63-30.69,14.85s-38.61,49.5-41.58,51.48c-2.97,1.98-30.69,13.86-34.65,16.83-3.96,2.97-42.57,40.59-42.57,40.59,0,0-48.51-38.61-51.48-38.61s-50.49-23.76-55.44-25.74c-4.95-1.98-44.55-38.61-48.51-39.6-3.96-.99-50.49-15.84-53.46-15.84s-62.37-5.94-65.34-7.92c-2.97-1.98-35.64-19.8-38.61-20.79s-39.6-6.93-42.57-7.92-31.68-1.98-36.63-4.95c-3.1-1.86-23.67-12.65-38.61-20.45V289.12h1485v722.74Z"/>
                          <path class="cls-12" d="M301.23,967.27c-4.95-1.98-44.55-38.61-48.51-39.6-3.96-.99-50.49-15.84-53.46-15.84s-62.37-5.94-65.34-7.92c-2.97-1.98-35.64-19.8-38.61-20.79s-39.6-6.93-42.57-7.92-31.68-1.98-36.63-4.95c-3.1-1.86-23.67-12.65-38.61-20.45v-197.35h719.73l-27.72,41.58s-52.47,45.54-58.41,47.52-32.67,23.76-32.67,23.76l-53.46-32.67,44.55,44.55s-15.84,26.73-21.78,27.72c-5.94.99-19.8,23.76-24.75,25.74-4.95,1.98-24.75,24.75-24.75,24.75l-72.27-30.69,72.27,44.55s-9.9,6.93-15.84,8.91c-5.94,1.98-22.77,18.81-22.77,18.81l-21.78,36.63-48.51-29.7,48.51,48.51s-12.87,18.81-16.83,23.76-12.87,55.44-12.87,55.44c0,0-48.51-38.61-51.48-38.61s-50.49-23.76-55.44-25.74Z"/>
                          <path class="cls-11" d="M483.39,967.27l31.68-44.06,42.57-15.34-30.69,14.85s-38.61,49.5-41.58,51.48c-2.97,1.98-30.69,13.86-34.65,16.83-3.96,2.97-42.57,40.59-42.57,40.59l43.56-53.46,31.68-10.89Z"/>
                          <path class="cls-12" d="M767.52,784.12s-21.78-29.7-23.76-32.67-141.57-99-141.57-99h392.04l32.67,75.24-144.54-37.62,147.51,51.48-6.93,36.63s3.96,57.42,5.94,63.36c1.98,5.94,27.23,39.6,27.23,39.6l-100.49-11.88,99.99,22.77s-3.96,17.82-1.98,22.77c1.98,4.95,18.81,31.68,23.76,37.62s15.84,27.72,16.83,32.67,4.95,34.65,4.95,34.65l-76.23-23.76,79.2,37.62s.99,22.77,5.94,27.72c4.95,4.95,27.72,39.6,30.69,45.54s17.82,62.37,17.82,62.37c-3.96-.99-48.51-44.55-55.44-47.52-6.93-2.97-66.33-58.41-71.28-62.37-4.95-3.96-53.46-65.34-57.42-69.3s-56.43-33.66-60.39-34.65-56.43-20.79-60.39-24.75c-3.96-3.96-67.32-67.32-67.32-67.32l-39.6-60.39,22.77-18.81Z"/>
                          <path class="cls-11" d="M1289.25,1088.05l19.8-22.77,82.17-18.81,42.57-45.54h28.71v10.93l-20.79,5.9s-43.56,35.64-51.48,37.62c-7.92,1.98-64.35,22.77-69.3,24.75s-61.38,37.62-68.31,38.61c-6.79.97-88.57,49.4-95.67,50.48h-.36s69.3-51.47,69.3-51.47l63.36-29.7Z"/>
                        </g>
                        <g>
                          <path class="cls-10" d="M1462.5,781.85c-29.68-10.25-71.45-24.9-75.24-27.43-5.94-3.96-45.54-34.65-52.47-37.62-6.93-2.97-52.47-14.85-59.4-14.85s-59.4-6.93-67.32-6.93-79.2,24.75-87.12,24.75-33.66,3.96-42.57,2.97c-8.91-.99-49.5-7.92-55.44-8.91-5.94-.99-56.43-19.8-62.37-24.85-5.94-5.05-46.53,5.05-51.48,6.04s-54.45,15.84-64.35,15.84-20.79-7.92-26.73-8.91c-5.94-.99-28.71,0-35.64,2.97-6.93,2.97-19.8,13.86-28.71,12.87-8.91-.99-36.63-5.94-40.59-4.95-3.96.99-41.58-.99-46.53-.99s-25.74-12.87-32.67-12.87-25.74,6.93-36.63,7.92-41.58,8.91-51.48,8.91-50.49-8.91-63.36-10.89c-12.87-1.98-37.62-3.96-45.54-6.93-7.92-2.97-21.78-9.9-30.69-8.91-8.91.99-35.64,10.89-43.56,12.87-7.92,1.98-82.17,12.87-94.05,13.86s-22.77,10.89-26.73,13.86c-3.96,2.97-31.68,10.89-39.6,11.88-7.92.99-44.55,19.8-53.46,19.8s-57.42-1.98-63.36,0-14.85,9.9-19.8,11.88c-4.95,1.98-33.66,13.86-45.54,10.89-7.24-1.81-27.68-1.41-42.57-.83v-494.17h1485v492.73Z"/>
                          <polygon class="cls-10" points="352.43 690.48 370.25 761.6 388.08 690.48 352.43 690.48"/>
                          <polygon class="cls-10" points="449.66 700.55 467.49 771.67 485.32 700.55 449.66 700.55"/>
                          <polygon class="cls-10" points="425.64 690.48 443.47 761.6 461.3 690.48 425.64 690.48"/>
                          <polygon class="cls-10" points="260.74 696.96 278.56 768.08 296.39 696.96 260.74 696.96"/>
                          <polygon class="cls-10" points="278.56 704.71 296.39 775.82 314.22 704.71 278.56 704.71"/>
                          <polygon class="cls-10" points="339.47 688.59 352.43 740.26 365.38 688.59 339.47 688.59"/>
                          <polygon class="cls-10" points="402.37 684.43 415.32 736.11 428.28 684.43 402.37 684.43"/>
                          <polygon class="cls-10" points="479.06 688.59 492.02 740.26 504.97 688.59 479.06 688.59"/>
                          <polygon class="cls-10" points="634.42 696.96 652.25 768.08 670.08 696.96 634.42 696.96"/>
                          <polygon class="cls-10" points="680.4 698.54 698.23 769.66 716.06 698.54 680.4 698.54"/>
                          <polygon class="cls-10" points="611.76 690.48 629.59 761.6 647.42 690.48 611.76 690.48"/>
                          <polygon class="cls-10" points="521.98 708.61 539.81 779.73 557.64 708.61 521.98 708.61"/>
                          <polygon class="cls-10" points="543.76 700.55 561.59 771.67 579.42 700.55 543.76 700.55"/>
                          <polygon class="cls-10" points="657.13 692.49 670.08 744.17 683.04 692.49 657.13 692.49"/>
                          <polygon class="cls-10" points="589.23 692.49 602.19 744.17 615.15 692.49 589.23 692.49"/>
                          <polygon class="cls-10" points="733.82 696.65 746.78 748.33 759.73 696.65 733.82 696.65"/>
                          <polygon class="cls-10" points="716.06 710.27 729.02 761.95 741.97 710.27 716.06 710.27"/>
                          <polygon class="cls-10" points="904.36 687.9 922.19 759.02 940.02 687.9 904.36 687.9"/>
                          <polygon class="cls-10" points="950.34 689.47 968.17 760.59 986 689.47 950.34 689.47"/>
                          <polygon class="cls-10" points="1062.54 717.32 1080.37 788.44 1098.2 717.32 1062.54 717.32"/>
                          <polygon class="cls-10" points="1016.72 706.56 1034.55 777.68 1052.38 706.56 1016.72 706.56"/>
                          <polygon class="cls-10" points="1087.62 704.71 1105.45 775.82 1123.28 704.71 1087.62 704.71"/>
                          <polygon class="cls-10" points="1358.88 727.04 1376.71 798.16 1394.54 727.04 1358.88 727.04"/>
                          <polygon class="cls-10" points="1426.69 762.6 1444.52 833.72 1462.35 762.6 1426.69 762.6"/>
                          <polygon class="cls-10" points="1170.78 693.62 1188.61 764.74 1206.44 693.62 1170.78 693.62"/>
                          <polygon class="cls-10" points="881.7 689.47 899.53 760.59 917.36 689.47 881.7 689.47"/>
                          <polygon class="cls-10" points="791.92 699.54 809.75 770.66 827.58 699.54 791.92 699.54"/>
                          <polygon class="cls-10" points="813.7 691.48 831.53 762.6 849.36 691.48 813.7 691.48"/>
                          <polygon class="cls-10" points="940.02 683.42 952.98 735.1 965.93 683.42 940.02 683.42"/>
                          <polygon class="cls-10" points="846.22 703.34 859.17 755.02 872.13 703.34 846.22 703.34"/>
                          <polygon class="cls-10" points="859.17 683.42 872.13 735.1 885.09 683.42 859.17 683.42"/>
                          <polygon class="cls-10" points="877.58 697.62 890.54 749.3 903.49 697.62 877.58 697.62"/>
                          <polygon class="cls-10" points="770.73 697.62 783.69 749.3 796.65 697.62 770.73 697.62"/>
                          <polygon class="cls-10" points="1336.66 697.75 1354.49 768.87 1372.32 697.75 1336.66 697.75"/>
                          <polygon class="cls-10" points="1314 699.33 1331.83 770.44 1349.66 699.33 1314 699.33"/>
                          <polygon class="cls-10" points="1224.22 690.83 1242.05 761.95 1259.88 690.83 1224.22 690.83"/>
                          <polygon class="cls-10" points="1246 682.77 1263.83 753.89 1281.66 682.77 1246 682.77"/>
                          <polygon class="cls-10" points="1278.52 694.63 1291.47 746.31 1304.43 694.63 1278.52 694.63"/>
                          <polygon class="cls-10" points="1291.47 674.71 1304.43 726.39 1317.39 674.71 1291.47 674.71"/>
                          <polygon class="cls-10" points="1384.29 738.9 1397.25 790.58 1410.2 738.9 1384.29 738.9"/>
                          <polygon class="cls-10" points="1413.74 762.6 1426.69 814.28 1439.65 762.6 1413.74 762.6"/>
                          <polygon class="cls-10" points="1309.88 707.47 1322.84 759.15 1335.79 707.47 1309.88 707.47"/>
                          <polygon class="cls-10" points="1203.03 688.9 1215.99 740.58 1228.95 688.9 1203.03 688.9"/>
                          <polygon class="cls-10" points="1003.76 687.58 1016.72 739.26 1029.67 687.58 1003.76 687.58"/>
                          <polygon class="cls-10" points="1123.28 690.44 1136.23 742.12 1149.19 690.44 1123.28 690.44"/>
                          <polygon class="cls-10" points="1136.23 678.87 1149.19 730.55 1162.14 678.87 1136.23 678.87"/>
                          <polygon class="cls-10" points="1149.19 701.2 1162.14 752.88 1175.1 701.2 1149.19 701.2"/>
                          <polygon class="cls-10" points="986 701.2 998.96 752.88 1011.91 701.2 986 701.2"/>
                          <polygon class="cls-10" points="1043.42 714.43 1056.38 766.1 1069.33 714.43 1043.42 714.43"/>
                          <polygon class="cls-10" points="308.62 705.13 321.57 756.81 334.53 705.13 308.62 705.13"/>
                          <polygon class="cls-10" points="120.12 748.56 137.95 819.68 155.78 748.56 120.12 748.56"/>
                          <polygon class="cls-10" points="175.51 721.25 193.34 792.37 211.17 721.25 175.51 721.25"/>
                          <polygon class="cls-10" points="157.68 744.17 175.51 815.29 193.34 744.17 157.68 744.17"/>
                          <polygon class="cls-10" points="-7.22 756.81 10.61 827.93 28.43 756.81 -7.22 756.81"/>
                          <polygon class="cls-10" points="34.5 770.01 52.33 841.13 70.16 770.01 34.5 770.01"/>
                          <polygon class="cls-10" points="10.61 770.01 28.43 841.13 46.26 770.01 10.61 770.01"/>
                          <polygon class="cls-10" points="100.31 753.89 113.26 805.57 126.22 753.89 100.31 753.89"/>
                          <polygon class="cls-10" points="144.73 746.25 157.68 797.93 170.64 746.25 144.73 746.25"/>
                          <polygon class="cls-10" points="211.1 720.41 224.06 772.09 237.01 720.41 211.1 720.41"/>
                          <polygon class="cls-10" points="60.9 758.28 73.86 809.96 86.82 758.28 60.9 758.28"/>
                        </g>
                        <path class="cls-4" d="M-22.5,709.31s103.1-16.05,117.55-17.15,63.29-.22,68.57,0c5.28.22,46.14-20.73,46.14-20.73,0,0,108.3-15.51,113.58-15.1,5.28.41,61.24,8.82,61.24,8.82,0,0,61.89-7.79,66.8-2.14,4.91,5.65,100.32,2.28,106.26-2.66s91.31-2.6,102.89-4.38c11.58-1.78,127.45,18.27,134.05,15.46,6.6-2.82,77.16-13.92,83.36-14.91,6.2-.99,122.29,2.07,128.14-.19,5.85-2.26,124.96,26.28,136.98,29.85,12.02,3.57,74.98-5.85,87.77-3.92,12.79,1.93,98.12-3.68,106.69.81,8.57,4.49,124.98,33.19,124.98,33.19v-427.16H-22.5v420.19Z"/>
                      </g>
                      <g>
                        <path class="cls-8" d="M1038.32,1004.05c-4.35,4.96-8.71,10.77-14.66,12.32-4.26,1.59-9.25-1.92-12.65-1.15-4.24.74-6.88,4.9-11.14,6.49-7.66,2.35-15.28,3.01-23.75,3.65-9.29-.23-16.07.45-22.9,3.67-8.55,4.02-12.89,8.98-22.2,9.6-8.47.64-15.94-4.61-23.52-5.64-9.27-1.07-16.13,2.99-24.45-2.29-7.48-5.25-11.43-16.33-19.77-20.76-7.52-3.56-17.73-.43-22.6-9l197.65,3.12Z"/>
                        <path class="cls-8" d="M12.45,917.98c6.74,7.7,13.52,16.72,22.76,19.12,6.62,2.46,14.35-2.97,19.63-1.79,6.59,1.15,10.68,7.61,17.29,10.07,11.89,3.64,23.72,4.67,36.86,5.66,14.42-.35,24.94.7,35.55,5.69,13.27,6.23,20.01,13.94,34.46,14.9,13.14.99,24.74-7.16,36.51-8.76,14.39-1.66,25.03,4.64,37.95-3.55,11.6-8.15,17.74-25.35,30.69-32.22,11.67-5.53,27.52-.67,35.07-13.97l-306.77,4.85Z"/>
                        <path class="cls-8" d="M619.51,1122.22c-18.14,13.66-30.12,10-48.56,11.78-22.37,3.2-36.59,15.44-57.47,25.21-22.17,11.12-50.01,6.53-70.93,14.98-23.55,8.51-44.17,28.83-70.7,24.22-31.84-5.8-36.52-34.74-59.32-48.69-18.77-11.41-50.34-6.66-61.43-27.51l368.4.02Z"/>
                        <path class="cls-8" d="M1444.93,1098.76c-5.85,27.89-26.96,28.46-48.11,27.71-31.7-.46-34.98,24.72-60.98,39.95-29.96,15.34-51.25,9.31-79.31-3.13-26.71-11.16-53.82-36.84-80.24-37.44-25.11-.64-51.32,6.67-72.79-5.95-5.39-3.82-10.88-11.59-17.55-14.05-6.67-2.46-10.56.29-15.87-.89-10.63-2.35-20.01-7.38-29.35-11.09l404.2,4.9Z"/>
                        <path class="cls-8" d="M121.66,1088.73c2.55,12.16,11.75,12.41,20.97,12.08,13.82-.2,15.25,10.77,26.58,17.41,13.06,6.69,22.34,4.06,34.57-1.37,11.64-4.87,23.46-16.06,34.98-16.32,10.94-.28,22.37,2.91,31.73-2.59,2.35-1.66,4.74-5.05,7.65-6.12,2.91-1.07,4.6.12,6.92-.39,4.63-1.03,8.72-3.22,12.79-4.83l-176.19,2.13Z"/>
                      </g>
                    </g>
                  </g>
                </g>
                <g class="cls-23">
                  <g class="cls-20">
                    <g>
                      <path class="cls-14" d="M1062.54,687.06s21.32,26.07,43.16,33,59.08,23.66,65.72,31.92c6.64,8.26,57.09,1.18,71.7,0,14.62-1.18,53.79,19.37,62.75,21.39,8.96,2.02,53.27,20.61,68.3,18.49,15.03-2.11,90.72,6.27,90.72,6.27v-111.08h-402.36Z"/>
                      <path class="cls-14" d="M1419.62,781.64c4.96-2.04,7.88-2.34,7.88-2.34-15.77,18.69-17.81,38.67-17.81,38.67,6.13-1.33,10.22,0,10.22,0-6.13,3.34-10.8,9.7-10.8,9.7,4.91-1.64,7.56-2.38,7.56-2.38-12.29,14.17-19.53,50.86-19.53,50.86,3.8-1.55,9.49-2.39,9.49-2.39-10.18,19.16-12.54,33.54-12.54,33.54,1.91-.78,4.77-.15,4.77-.15-3.86,4.48-6.46,8.98-6.46,8.98l4.16-1.97c-7.59,5.26-10.66,26.39-10.66,26.39,2.18-1.6,5.11-1.25,5.11-1.25-7.3,7.88-12.26,27.74-12.26,27.74,0,0-4.96-19.86-12.26-27.74,0,0,2.94-.36,5.11,1.25,0,0-3.07-21.14-10.66-26.39l4.16,1.97s-2.6-4.5-6.46-8.98c0,0,2.86-.64,4.77.15,0,0-2.36-14.38-12.54-33.54,0,0,5.69.85,9.49,2.39,0,0-7.24-36.69-19.54-50.86,0,0,2.66.74,7.56,2.38,0,0-4.67-6.36-10.8-9.7,0,0,4.09-1.33,10.22,0,0,0-2.04-19.98-17.81-38.67,0,0,2.92.29,7.88,2.34,0,0-4.67-10.36-12.26-19.78h106.28c-7.59,9.42-12.26,19.78-12.26,19.78Z"/>
                      <path class="cls-14" d="M1381.06,783.84c3.95-1.63,6.27-1.86,6.27-1.86-12.54,14.86-14.17,30.76-14.17,30.76,4.88-1.06,8.13,0,8.13,0-4.88,2.66-8.59,7.72-8.59,7.72,3.9-1.31,6.02-1.89,6.02-1.89-9.78,11.27-15.54,40.45-15.54,40.45,3.02-1.23,7.55-1.9,7.55-1.9-8.1,15.24-9.98,26.68-9.98,26.68,1.52-.62,3.79-.12,3.79-.12-3.07,3.56-5.14,7.14-5.14,7.14l3.31-1.57c-6.04,4.18-8.48,20.99-8.48,20.99,1.73-1.28,4.07-.99,4.07-.99-5.81,6.27-9.75,22.06-9.75,22.06,0,0-3.95-15.79-9.75-22.06,0,0,2.34-.28,4.07.99,0,0-2.44-16.81-8.48-20.99l3.31,1.57s-2.07-3.58-5.14-7.14c0,0,2.27-.51,3.79.12,0,0-1.88-11.44-9.98-26.68,0,0,4.53.67,7.55,1.9,0,0-5.76-29.18-15.54-40.45,0,0,2.11.59,6.02,1.89,0,0-3.72-5.06-8.59-7.72,0,0,3.25-1.06,8.13,0,0,0-1.63-15.9-14.17-30.76,0,0,2.32.23,6.27,1.86,0,0-3.72-8.24-9.75-15.73h84.54c-6.04,7.49-9.75,15.73-9.75,15.73Z"/>
                      <path class="cls-14" d="M1465.11,791.7c3.95-1.63,6.27-1.86,6.27-1.86-12.54,14.86-14.17,30.76-14.17,30.76,4.88-1.06,8.13,0,8.13,0-4.88,2.66-8.59,7.72-8.59,7.72,3.9-1.31,6.02-1.89,6.02-1.89-9.78,11.27-15.54,40.45-15.54,40.45,3.02-1.23,7.55-1.9,7.55-1.9-8.1,15.24-9.98,26.68-9.98,26.68,1.52-.62,3.79-.12,3.79-.12-3.07,3.56-5.14,7.14-5.14,7.14l3.31-1.57c-6.04,4.18-8.48,20.99-8.48,20.99,1.73-1.28,4.07-.99,4.07-.99-5.81,6.27-9.75,22.06-9.75,22.06,0,0-3.95-15.79-9.75-22.06,0,0,2.34-.28,4.07.99,0,0-2.44-16.81-8.48-20.99l3.31,1.57s-2.07-3.58-5.14-7.14c0,0,2.27-.51,3.79.12,0,0-1.88-11.44-9.98-26.68,0,0,4.53.67,7.55,1.9,0,0-5.76-29.18-15.54-40.45,0,0,2.11.59,6.02,1.89,0,0-3.72-5.06-8.59-7.72,0,0,3.25-1.06,8.13,0,0,0-1.63-15.9-14.17-30.76,0,0,2.32.23,6.27,1.86,0,0-3.72-8.24-9.75-15.73h84.54c-6.04,7.49-9.75,15.73-9.75,15.73Z"/>
                      <path class="cls-14" d="M1284.37,770.51c5.6-2.31,8.9-2.64,8.9-2.64-17.79,21.09-20.1,43.64-20.1,43.64,6.92-1.5,11.53,0,11.53,0-6.92,3.77-12.19,10.95-12.19,10.95,5.54-1.85,8.53-2.69,8.53-2.69-13.87,15.99-22.04,57.39-22.04,57.39,4.28-1.75,10.71-2.7,10.71-2.7-11.49,21.62-14.15,37.85-14.15,37.85,2.16-.89,5.38-.17,5.38-.17-4.36,5.05-7.29,10.13-7.29,10.13l4.7-2.22c-8.57,5.93-12.03,29.78-12.03,29.78,2.46-1.81,5.77-1.41,5.77-1.41-8.24,8.9-13.84,31.3-13.84,31.3,0,0-5.6-22.4-13.84-31.3,0,0,3.31-.4,5.77,1.41,0,0-3.46-23.85-12.03-29.78l4.7,2.22s-2.93-5.08-7.29-10.13c0,0,3.22-.72,5.38.17,0,0-2.66-16.23-14.15-37.85,0,0,6.43.96,10.71,2.7,0,0-8.17-41.4-22.04-57.39,0,0,3,.83,8.53,2.69,0,0-5.27-7.18-12.19-10.95,0,0,4.61-1.5,11.53,0,0,0-2.31-22.55-20.1-43.64,0,0,3.29.33,8.9,2.64,0,0-5.27-11.7-13.84-22.32h119.93c-8.57,10.63-13.84,22.32-13.84,22.32Z"/>
                      <path class="cls-14" d="M1349.72,775.9c6.48-2.67,10.3-3.05,10.3-3.05-20.6,24.41-23.27,50.52-23.27,50.52,8.01-1.74,13.35,0,13.35,0-8.01,4.36-14.11,12.68-14.11,12.68,6.41-2.14,9.88-3.11,9.88-3.11-16.06,18.51-25.52,66.44-25.52,66.44,4.96-2.02,12.4-3.13,12.4-3.13-13.3,25.03-16.39,43.82-16.39,43.82,2.5-1.02,6.23-.19,6.23-.19-5.04,5.85-8.44,11.73-8.44,11.73l5.44-2.57c-9.92,6.87-13.93,34.48-13.93,34.48,2.84-2.1,6.68-1.63,6.68-1.63-9.54,10.3-16.02,36.24-16.02,36.24,0,0-6.48-25.94-16.02-36.24,0,0,3.84-.47,6.68,1.63,0,0-4.01-27.61-13.93-34.48l5.44,2.57s-3.39-5.88-8.44-11.73c0,0,3.73-.83,6.23.19,0,0-3.08-18.79-16.39-43.82,0,0,7.44,1.11,12.4,3.13,0,0-9.46-47.93-25.52-66.44,0,0,3.47.97,9.88,3.11,0,0-6.1-8.31-14.11-12.68,0,0,5.34-1.74,13.35,0,0,0-2.67-26.11-23.27-50.52,0,0,3.81.38,10.3,3.05,0,0-6.1-13.54-16.02-25.84h138.84c-9.92,12.3-16.02,25.84-16.02,25.84Z"/>
                    </g>
                  </g>
                </g>
                <g class="cls-22">
                  <g class="cls-19">
                    <g>
                      <path class="cls-2" d="M-60.69,794.6h630.28s-39.03,25.6-65.05,34.41c-26.02,8.82-83.71,16.16-92.33,19.1-8.62,2.94-68.86,33.79-83.55,41.14-14.69,7.35-120.41,0-129.26,0s-61.58,14.69-81.5,17.63c-19.91,2.94-86.94-2.94-95.3,0-8.36,2.94-83.29,38.2-83.29,38.2v-150.48Z"/>
                      <path class="cls-2" d="M91.5,916.29c9.27-3.82,14.72-4.36,14.72-4.36-29.43,34.88-33.25,72.19-33.25,72.19,11.45-2.49,19.08,0,19.08,0-11.45,6.24-20.17,18.12-20.17,18.12,9.16-3.06,14.12-4.44,14.12-4.44-22.94,26.45-36.47,94.94-36.47,94.94,7.09-2.89,17.71-4.47,17.71-4.47-19.01,35.77-23.41,62.61-23.41,62.61,3.57-1.46,8.9-.27,8.9-.27-7.21,8.36-12.06,16.76-12.06,16.76l7.77-3.68c-14.17,9.81-19.9,49.27-19.9,49.27,4.07-3,9.55-2.33,9.55-2.33-13.63,14.72-22.89,51.78-22.89,51.78,0,0-9.27-37.06-22.89-51.78,0,0,5.48-.67,9.55,2.33,0,0-5.73-39.46-19.9-49.27l7.77,3.68s-4.85-8.4-12.06-16.76c0,0,5.33-1.19,8.9.27,0,0-4.41-26.85-23.41-62.61,0,0,10.63,1.58,17.71,4.47,0,0-13.52-68.49-36.47-94.94,0,0,4.96,1.38,14.12,4.44,0,0-8.72-11.88-20.17-18.12,0,0,7.63-2.49,19.08,0,0,0-3.82-37.3-33.25-72.19,0,0,5.45.54,14.72,4.36,0,0-8.72-19.35-22.89-36.93H114.39c-14.17,17.58-22.89,36.93-22.89,36.93Z"/>
                      <path class="cls-2" d="M148.76,888.3c7.02-2.89,11.16-3.31,11.16-3.31-22.31,26.45-25.21,54.72-25.21,54.72,8.68-1.88,14.46,0,14.46,0-8.68,4.73-15.29,13.73-15.29,13.73,6.94-2.32,10.7-3.37,10.7-3.37-17.39,20.05-27.64,71.97-27.64,71.97,5.37-2.19,13.43-3.39,13.43-3.39-14.41,27.12-17.75,47.47-17.75,47.47,2.71-1.11,6.75-.21,6.75-.21-5.46,6.34-9.14,12.71-9.14,12.71l5.89-2.79c-10.74,7.44-15.09,37.35-15.09,37.35,3.08-2.27,7.24-1.76,7.24-1.76-10.33,11.16-17.35,39.25-17.35,39.25,0,0-7.02-28.1-17.35-39.25,0,0,4.16-.51,7.24,1.76,0,0-4.35-29.91-15.09-37.35l5.89,2.79s-3.68-6.37-9.14-12.71c0,0,4.04-.9,6.75.21,0,0-3.34-20.35-17.75-47.47,0,0,8.06,1.2,13.43,3.39,0,0-10.25-51.92-27.64-71.97,0,0,3.76,1.05,10.7,3.37,0,0-6.61-9.01-15.29-13.73,0,0,5.78-1.88,14.46,0,0,0-2.89-28.28-25.21-54.72,0,0,4.13.41,11.16,3.31,0,0-6.61-14.67-17.35-27.99h150.41c-10.74,13.33-17.35,27.99-17.35,27.99Z"/>
                      <path class="cls-2" d="M299,885.92c7.96-3.28,12.65-3.75,12.65-3.75-25.29,29.98-28.57,62.03-28.57,62.03,9.84-2.14,16.39,0,16.39,0-9.84,5.36-17.33,15.57-17.33,15.57,7.87-2.63,12.13-3.82,12.13-3.82-19.72,22.73-31.34,81.58-31.34,81.58,6.09-2.48,15.22-3.84,15.22-3.84-16.33,30.74-20.12,53.8-20.12,53.8,3.07-1.26,7.65-.24,7.65-.24-6.19,7.18-10.36,14.4-10.36,14.4l6.67-3.16c-12.18,8.43-17.1,42.34-17.1,42.34,3.49-2.57,8.2-2,8.2-2-11.71,12.65-19.67,44.49-19.67,44.49,0,0-7.96-31.85-19.67-44.49,0,0,4.71-.57,8.2,2,0,0-4.93-33.91-17.1-42.34l6.67,3.16s-4.17-7.22-10.36-14.4c0,0,4.58-1.02,7.65.24,0,0-3.79-23.07-20.12-53.8,0,0,9.13,1.36,15.22,3.84,0,0-11.62-58.85-31.34-81.58,0,0,4.26,1.18,12.13,3.82,0,0-7.49-10.21-17.33-15.57,0,0,6.56-2.14,16.39,0,0,0-3.28-32.05-28.57-62.03,0,0,4.68.47,12.65,3.75,0,0-7.49-16.63-19.67-31.73h170.49c-12.18,15.11-19.67,31.73-19.67,31.73Z"/>
                      <path class="cls-2" d="M396.17,989.95c-1.76-7.02-7.96-7.84-13.78-8.51-.06-6.71-.59-17.04-3.22-18.84-3.96-2.71-11.07-3.49-11.47-8.24-.34-4.11-20.82-10.3-28.51-20.6-.27-13.59,1.23-53.2,1.61-60.87.4-7.91,6.33-13.6,6.33-13.6h-20.96s3.56,3.32,5.33,8.86c1.77,5.54,2.58,30.85,2.98,36.78.06.86.11,2.97.17,5.96-4.61,3.67-15.7,12.41-17.57,13.03-2.37.79-15.82,3.16-17.4,7.91-.36,1.07-.7,3.34-1.02,6.21l-14.8,7.89v3.11l14.37-6.73c-.4,4.51-.75,9.62-1.01,13.84-2.46.73-4.92,1.52-7.03,1.79-3.96.4-7.51-1.58-11.47-1.58s-9.89,1.58-10.68,5.93c-1.19,5.14,4.75,5.93,1.58,10.28-1.19,1.98-3.56,0-4.75,3.56-.4,1.98,0,4.35,1.19,5.93,3.16,4.35,8.31,1.98,12.26,3.56,5.14,1.98,9.49,7.51,15.03.79v.4c5.93,1.58,14.63-.4,20.96-1.19,9.1-1.19,21.75-8.31,9.1-16.61,8.58-15.3-10.65-15.46-20.82-14.1.93-7.58,2.23-18.4,2.23-19.95,0-2.41,10.28-5.5,13.84-6.3,2.76-.61,12.07-6.94,16.1-9.74.24,21.21.31,58.52-.28,60.09-.79,2.1-8.31,5.81-8.31,12.57v15.48c-9.92-3.6-25.48-2.12-22.94,10.59-9.89,1.58-11.47,1.19-13.84,10.28-1.19,3.96-3.16,4.35-1.19,9.1.79,3.16,3.56,7.51,5.54,9.49,4.75,6.33,12.26,5.93,16.61,11.07,2.77,3.16,1.19,5.54,6.72,6.72,3.5.78,7.38-.75,9.39-3.81,3.91,1.94,8.41-.4,12.37.25,3.96.79,4.35,4.35,8.7,1.19,2.77-1.98,2.77-5.93,1.58-9.1,7.91.4,12.66,1.98,20.96-1.19,5.14-2.37,6.33-3.16,5.14-8.31-.4-1.58-1.98-3.16-2.37-5.14-.4-1.58,1.19-2.77.79-4.75-1.58-4.35-6.72-5.54-9.1-9.1-3.16-4.75,0-3.56-.79-9.1-1.55-8.15-13.02-14.01-18.3-6.36-.92-4.85-2.14-9.66-3.46-10.49-1.96-1.23-7.76-3.67-10.99-4.99.09-1.79.25-3.11.5-3.65,1.37-2.94,7.72-4.18,7.72-8.34,0-3.65.3-27.21.11-41.24,1.62,1.54,4.09,3.54,7.8,5.71,8.31,4.88,18.19,8.13,18.19,12.04,0,2.28.13,9.48.25,15.11-.37.36-.86.79-1.83,1.07-5.54,1.19-5.54.4-10.68-.79-10.68-2.77-6.72,5.54-6.33,12.26.4,3.16-2.77,2.77.4,5.93,1.58,1.98,3.56,1.58,5.54,1.58,1.54,0,3.44-.37,5-.76,1.77,2.68,3.91,5.31,6.87,6.29,2.37.79,4.75-.4,6.72,0,1.58.79,3.16,3.16,5.54,3.96,5.93,2.37,7.51-1.58,12.26-3.96,3.96-1.98,8.7-1.19,7.12-8.7ZM331.11,1009.65c-.13-3.72-.23-7.99-.22-11.65,2.77.74,7.37,2.15,8.73,3.63.7.76,1.29,3.11,1.78,5.84-3.4-.77-7.33.24-9.29,3.04-.3-.3-.64-.58-.99-.86ZM378.7,980.96c-1.95-.32-3.72-.79-5.08-1.69-1.03-.82-1.73-2.28-2.45-3.6.03-3.9.03-8.38-.09-10.82-.23-4.95,6.1-.66,7.29,2.73.72,2.07.56,8.61.33,13.39Z"/>
                      <path class="cls-2" d="M460.94,921.64c-3.65-1-3.23,11.81-6.62,10.91-4.08,3.99-14.86-9.55-19.94-9.55-2.38,0-9.53-1.02-9.88-4.77,0-4.43,7.15-3.41,9.88-4.09,6.06-1.84,6.21-8.57,11.17-10.11-.17-4.61-.66-9.91-1.97-10.66-1.89-1.08-22.62-7.97-31.04-10.76.02,5,.09,9.09.28,10.41.57,4.09,7.61,6.13,7.61,10.68,0,3.89-.75,24.65-1.18,34.02l15.14,13.12-2.04,2.66-13.42-9.33c-.24,5.2-.6,14.93-.87,22.32,5.59-.18,11.6-2.93,16.68-2.64,3.75,0,8.51.68,11.58,3.06,1.02,1.02,6.81,7.15,7.15,8.85,1.36,4.43-4.77,5.79-4.09,9.87,1.02,5.45,6.81,2.72,2.72,9.19-4.77,7.83-15.32,4.09-22.47,7.15-6.47,2.72-10.56,8.85-18.05,8.17l-.68-.34c-8.51,2.38-10.22-5.79-17.03-8.51-7.83-2.72-14.64-4.09-17.71-12.6-.68-3.06-3.41-6.81-4.09-9.87-.68-4.77,2.72-4.77,7.15-5.79,2.72-.68,7.15-.68,9.19-2.04,3.75-2.38,1.7-5.11,5.11-8.17,7.56-6.62,13.38.47,19.6,2.91.67-16.87,2.19-55.91,2.19-59.13,0-2.27-3.31-5.13-6.16-7.86-.05,4.92-.41,10.23-1.67,10.55-2.38.6-19.65,4.85-19.65,7.91v12.96c3.42-1.31,6.8-2.1,11.82-.36,8.91,3.3,14.3,11.4,2.85,13.13-4.13,3.59-10.55.47-15.11.15-5.45-.34-15.32,5.45-19.75,0-2.04-2.72-.68-7.83,1.7-9.19,2.38-1.36,7.15,0,9.87-.68,1.3-.28,2.49-.65,3.61-1.06.25-5.65.7-14.4,1.16-16.65.68-3.41,20.09-8.17,20.43-11.79.22-2.29.51-7.05.7-10.24-.05-.27-.06-.53-.02-.78.05-.29.1-.72.13-1.25.04-.7.06-1.13.06-1.13.33-7.6-.2-28.22-.2-32.69,0-5.11-8.85-11.26-8.85-11.26h28.26s-11.58,7.51-11.69,9.89c-.07,1.39-.25,12.33-.28,21.99,9.32,2.8,33.99,10.52,35.56,14.11,1,2.29.97,7.2.7,11.42.78.08,1.64.23,2.6.49,4.09,1.36,6.13,4.43,9.53,6.81,3.41,2.04,7.83,3.06,9.88,7.49,3.75,8.51-5.45,4.09-9.88,3.06Z"/>
                    </g>
                  </g>
                </g>
              </g>
              <g>
                <polygon class="cls-6" points="-22.5 639.65 1300.83 639.65 -22.5 660.66 -22.5 639.65"/>
                <polygon class="cls-6" points="-22.5 704.22 867.42 704.22 -22.5 742.17 -22.5 704.22"/>
              </g>
              <g>
                <polygon class="cls-1" points="1462.5 891.66 257.34 891.66 1372.74 990 1462.5 990 1462.5 891.66"/>
                <polygon class="cls-1" points="1462.5 795.86 528.42 795.86 1462.5 814.82 1462.5 795.86"/>
              </g>
            </g>
            <g class="cls-18">
              <g>
                <path class="cls-2" d="M-60.69,795.86h630.28s-39.03-25.6-65.05-34.41c-26.02-8.82-83.71-16.16-92.33-19.1-8.62-2.94-68.86-33.79-83.55-41.14-14.69-7.35-120.41,0-129.26,0s-61.58-14.69-81.5-17.63c-19.91-2.94-86.94,2.94-95.3,0-8.36-2.94-83.29-38.2-83.29-38.2v150.48Z"/>
                <path class="cls-2" d="M91.5,674.17c9.27,3.82,14.72,4.36,14.72,4.36-29.43-34.88-33.25-72.19-33.25-72.19,11.45,2.49,19.08,0,19.08,0-11.45-6.24-20.17-18.12-20.17-18.12,9.16,3.06,14.12,4.44,14.12,4.44-22.94-26.45-36.47-94.94-36.47-94.94,7.09,2.89,17.71,4.47,17.71,4.47-19.01-35.77-23.41-62.61-23.41-62.61,3.57,1.46,8.9.27,8.9.27-7.21-8.36-12.06-16.76-12.06-16.76l7.77,3.68c-14.17-9.81-19.9-49.27-19.9-49.27,4.07,3,9.55,2.33,9.55,2.33-13.63-14.72-22.89-51.78-22.89-51.78,0,0-9.27,37.06-22.89,51.78,0,0,5.48.67,9.55-2.33,0,0-5.73,39.46-19.9,49.27l7.77-3.68s-4.85,8.4-12.06,16.76c0,0,5.33,1.19,8.9-.27,0,0-4.41,26.85-23.41,62.61,0,0,10.63-1.58,17.71-4.47,0,0-13.52,68.49-36.47,94.94,0,0,4.96-1.38,14.12-4.44,0,0-8.72,11.88-20.17,18.12,0,0,7.63,2.49,19.08,0,0,0-3.82,37.3-33.25,72.19,0,0,5.45-.54,14.72-4.36,0,0-8.72,19.35-22.89,36.93H114.39c-14.17-17.58-22.89-36.93-22.89-36.93Z"/>
                <path class="cls-2" d="M148.76,702.17c7.02,2.89,11.16,3.31,11.16,3.31-22.31-26.45-25.21-54.72-25.21-54.72,8.68,1.88,14.46,0,14.46,0-8.68-4.73-15.29-13.73-15.29-13.73,6.94,2.32,10.7,3.37,10.7,3.37-17.39-20.05-27.64-71.97-27.64-71.97,5.37,2.19,13.43,3.39,13.43,3.39-14.41-27.12-17.75-47.47-17.75-47.47,2.71,1.11,6.75.21,6.75.21-5.46-6.34-9.14-12.71-9.14-12.71l5.89,2.79c-10.74-7.44-15.09-37.35-15.09-37.35,3.08,2.27,7.24,1.76,7.24,1.76-10.33-11.16-17.35-39.25-17.35-39.25,0,0-7.02,28.1-17.35,39.25,0,0,4.16.51,7.24-1.76,0,0-4.35,29.91-15.09,37.35l5.89-2.79s-3.68,6.37-9.14,12.71c0,0,4.04.9,6.75-.21,0,0-3.34,20.35-17.75,47.47,0,0,8.06-1.2,13.43-3.39,0,0-10.25,51.92-27.64,71.97,0,0,3.76-1.05,10.7-3.37,0,0-6.61,9.01-15.29,13.73,0,0,5.78,1.88,14.46,0,0,0-2.89,28.28-25.21,54.72,0,0,4.13-.41,11.16-3.31,0,0-6.61,14.67-17.35,27.99h150.41c-10.74-13.33-17.35-27.99-17.35-27.99Z"/>
                <path class="cls-2" d="M299,704.55c7.96,3.28,12.65,3.75,12.65,3.75-25.29-29.98-28.57-62.03-28.57-62.03,9.84,2.14,16.39,0,16.39,0-9.84-5.36-17.33-15.57-17.33-15.57,7.87,2.63,12.13,3.82,12.13,3.82-19.72-22.73-31.34-81.58-31.34-81.58,6.09,2.48,15.22,3.84,15.22,3.84-16.33-30.74-20.12-53.8-20.12-53.8,3.07,1.26,7.65.24,7.65.24-6.19-7.18-10.36-14.4-10.36-14.4l6.67,3.16c-12.18-8.43-17.1-42.34-17.1-42.34,3.49,2.57,8.2,2,8.2,2-11.71-12.65-19.67-44.49-19.67-44.49,0,0-7.96,31.85-19.67,44.49,0,0,4.71.57,8.2-2,0,0-4.93,33.91-17.1,42.34l6.67-3.16s-4.17,7.22-10.36,14.4c0,0,4.58,1.02,7.65-.24,0,0-3.79,23.07-20.12,53.8,0,0,9.13-1.36,15.22-3.84,0,0-11.62,58.85-31.34,81.58,0,0,4.26-1.18,12.13-3.82,0,0-7.49,10.21-17.33,15.57,0,0,6.56,2.14,16.39,0,0,0-3.28,32.05-28.57,62.03,0,0,4.68-.47,12.65-3.75,0,0-7.49,16.63-19.67,31.73h170.49c-12.18-15.11-19.67-31.73-19.67-31.73Z"/>
                <path class="cls-2" d="M389.05,591.82c-4.75-2.37-6.33-6.33-12.26-3.96-2.37.79-3.96,3.16-5.54,3.96-1.98.4-4.35-.79-6.72,0-2.96.99-5.09,3.62-6.87,6.29-1.56-.38-3.46-.76-5-.76-1.98,0-3.96-.4-5.54,1.58-3.16,3.16,0,2.77-.4,5.93-.4,6.72-4.35,15.03,6.33,12.26,5.14-1.19,5.14-1.98,10.68-.79.97.28,1.45.7,1.83,1.07-.11,5.63-.25,12.83-.25,15.11,0,3.91-9.89,7.16-18.19,12.04-3.7,2.18-6.18,4.17-7.8,5.71.19-14.03-.11-37.59-.11-41.24,0-4.16-6.35-5.39-7.72-8.34-.25-.54-.41-1.86-.5-3.65,3.24-1.33,9.04-3.76,10.99-4.99,1.31-.82,2.53-5.64,3.46-10.49,5.28,7.65,16.74,1.79,18.3-6.36.79-5.54-2.37-4.35.79-9.1,2.37-3.56,7.51-4.75,9.1-9.1.4-1.98-1.19-3.16-.79-4.75.4-1.98,1.98-3.56,2.37-5.14,1.19-5.14,0-5.93-5.14-8.31-8.31-3.16-13.05-1.58-20.96-1.19,1.19-3.16,1.19-7.12-1.58-9.1-4.35-3.16-4.75.4-8.7,1.19-3.95.66-8.46-1.69-12.37.25-2.01-3.06-5.88-4.59-9.39-3.81-5.54,1.19-3.96,3.56-6.72,6.72-4.35,5.14-11.87,4.75-16.61,11.07-1.98,1.98-4.75,6.33-5.54,9.49-1.98,4.75,0,5.14,1.19,9.1,2.37,9.1,3.96,8.7,13.84,10.28-2.54,12.7,13.02,14.18,22.94,10.59v15.48c0,6.76,7.51,10.48,8.31,12.57.59,1.57.52,38.88.28,60.09-4.03-2.81-13.34-9.13-16.1-9.74-3.56-.79-13.84-3.89-13.84-6.3,0-1.54-1.3-12.37-2.23-19.95,10.17,1.36,29.41,1.2,20.82-14.1,12.66-8.31,0-15.42-9.1-16.61-6.33-.79-15.03-2.77-20.96-1.19v.4c-5.54-6.72-9.89-1.19-15.03.79-3.96,1.58-9.1-.79-12.26,3.56-1.19,1.58-1.58,3.96-1.19,5.93,1.19,3.56,3.56,1.58,4.75,3.56,3.16,4.35-2.77,5.14-1.58,10.28.79,4.35,6.72,5.93,10.68,5.93s7.51-1.98,11.47-1.58c2.11.26,4.57,1.05,7.03,1.79.26,4.22.61,9.34,1.01,13.84l-14.37-6.73v3.11l14.8,7.89c.32,2.87.67,5.14,1.02,6.21,1.58,4.75,15.03,7.12,17.4,7.91,1.87.62,12.96,9.36,17.57,13.03-.05,2.99-.11,5.1-.17,5.96-.4,5.93-1.21,31.24-2.98,36.78-1.77,5.54-5.33,8.86-5.33,8.86h20.96s-5.93-5.69-6.33-13.6c-.38-7.67-1.88-47.28-1.61-60.87,7.68-10.31,28.16-16.49,28.51-20.6.4-4.75,7.51-5.54,11.47-8.24,2.63-1.8,3.16-12.13,3.22-18.84,5.82-.67,12.03-1.49,13.78-8.51,1.58-7.51-3.16-6.72-7.12-8.7ZM332.1,579.95c1.96,2.8,5.89,3.81,9.29,3.04-.48,2.73-1.08,5.08-1.78,5.84-1.36,1.48-5.96,2.89-8.73,3.63-.01-3.66.09-7.93.22-11.65.36-.28.69-.56.99-.86ZM378.37,622.89c-1.19,3.39-7.51,7.68-7.29,2.73.11-2.45.11-6.92.09-10.82.72-1.33,1.43-2.78,2.45-3.6,1.35-.9,3.12-1.37,5.08-1.69.23,4.78.4,11.32-.33,13.39Z"/>
                <path class="cls-2" d="M460.94,668.82c-3.65,1-3.23-11.81-6.62-10.91-4.08-3.99-14.86,9.55-19.94,9.55-2.38,0-9.53,1.02-9.88,4.77,0,4.43,7.15,3.41,9.88,4.09,6.06,1.84,6.21,8.57,11.17,10.11-.17,4.61-.66,9.91-1.97,10.66-1.89,1.08-22.62,7.97-31.04,10.76.02-5,.09-9.09.28-10.41.57-4.09,7.61-6.13,7.61-10.68,0-3.89-.75-24.65-1.18-34.02l15.14-13.12-2.04-2.66-13.42,9.33c-.24-5.2-.6-14.93-.87-22.32,5.59.18,11.6,2.93,16.68,2.64,3.75,0,8.51-.68,11.58-3.06,1.02-1.02,6.81-7.15,7.15-8.85,1.36-4.43-4.77-5.79-4.09-9.87,1.02-5.45,6.81-2.72,2.72-9.19-4.77-7.83-15.32-4.09-22.47-7.15-6.47-2.72-10.56-8.85-18.05-8.17l-.68.34c-8.51-2.38-10.22,5.79-17.03,8.51-7.83,2.72-14.64,4.09-17.71,12.6-.68,3.06-3.41,6.81-4.09,9.87-.68,4.77,2.72,4.77,7.15,5.79,2.72.68,7.15.68,9.19,2.04,3.75,2.38,1.7,5.11,5.11,8.17,7.56,6.62,13.38-.47,19.6-2.91.67,16.87,2.19,55.91,2.19,59.13,0,2.27-3.31,5.13-6.16,7.86-.05-4.92-.41-10.23-1.67-10.55-2.38-.6-19.65-4.85-19.65-7.91v-12.96c3.42,1.31,6.8,2.1,11.82.36,8.91-3.3,14.3-11.4,2.85-13.13-4.13-3.59-10.55-.47-15.11-.15-5.45.34-15.32-5.45-19.75,0-2.04,2.72-.68,7.83,1.7,9.19,2.38,1.36,7.15,0,9.87.68,1.3.28,2.49.65,3.61,1.06.25,5.65.7,14.4,1.16,16.65.68,3.41,20.09,8.17,20.43,11.79.22,2.29.51,7.05.7,10.24-.05.27-.06.53-.02.78.05.29.1.72.13,1.25.04.7.06,1.13.06,1.13.33,7.6-.2,28.22-.2,32.69,0,5.11-8.85,11.26-8.85,11.26h28.26s-11.58-7.51-11.69-9.89c-.07-1.39-.25-12.33-.28-21.99,9.32-2.8,33.99-10.52,35.56-14.11,1-2.29.97-7.2.7-11.42.78-.08,1.64-.23,2.6-.49,4.09-1.36,6.13-4.43,9.53-6.81,3.41-2.04,7.83-3.06,9.88-7.49,3.75-8.51-5.45-4.09-9.88-3.06Z"/>
              </g>
            </g>
            <g class="cls-21">
              <g>
                <path class="cls-14" d="M1062.54,687.06s21.32-26.07,43.16-33,59.08-23.66,65.72-31.92c6.64-8.26,57.09-1.18,71.7,0,14.62,1.18,53.79-19.37,62.75-21.39s53.27-20.61,68.3-18.49c15.03,2.11,90.72-6.27,90.72-6.27v111.08h-402.36Z"/>
                <path class="cls-14" d="M1419.62,592.48c4.96,2.04,7.88,2.34,7.88,2.34-15.77-18.69-17.81-38.67-17.81-38.67,6.13,1.33,10.22,0,10.22,0-6.13-3.34-10.8-9.7-10.8-9.7,4.91,1.64,7.56,2.38,7.56,2.38-12.29-14.17-19.53-50.86-19.53-50.86,3.8,1.55,9.49,2.39,9.49,2.39-10.18-19.16-12.54-33.54-12.54-33.54,1.91.78,4.77.15,4.77.15-3.86-4.48-6.46-8.98-6.46-8.98l4.16,1.97c-7.59-5.26-10.66-26.39-10.66-26.39,2.18,1.6,5.11,1.25,5.11,1.25-7.3-7.88-12.26-27.74-12.26-27.74,0,0-4.96,19.86-12.26,27.74,0,0,2.94.36,5.11-1.25,0,0-3.07,21.14-10.66,26.39l4.16-1.97s-2.6,4.5-6.46,8.98c0,0,2.86.64,4.77-.15,0,0-2.36,14.38-12.54,33.54,0,0,5.69-.85,9.49-2.39,0,0-7.24,36.69-19.54,50.86,0,0,2.66-.74,7.56-2.38,0,0-4.67,6.36-10.8,9.7,0,0,4.09,1.33,10.22,0,0,0-2.04,19.98-17.81,38.67,0,0,2.92-.29,7.88-2.34,0,0-4.67,10.36-12.26,19.78h106.28c-7.59-9.42-12.26-19.78-12.26-19.78Z"/>
                <path class="cls-14" d="M1381.06,590.28c3.95,1.63,6.27,1.86,6.27,1.86-12.54-14.86-14.17-30.76-14.17-30.76,4.88,1.06,8.13,0,8.13,0-4.88-2.66-8.59-7.72-8.59-7.72,3.9,1.31,6.02,1.89,6.02,1.89-9.78-11.27-15.54-40.45-15.54-40.45,3.02,1.23,7.55,1.9,7.55,1.9-8.1-15.24-9.98-26.68-9.98-26.68,1.52.62,3.79.12,3.79.12-3.07-3.56-5.14-7.14-5.14-7.14l3.31,1.57c-6.04-4.18-8.48-20.99-8.48-20.99,1.73,1.28,4.07.99,4.07.99-5.81-6.27-9.75-22.06-9.75-22.06,0,0-3.95,15.79-9.75,22.06,0,0,2.34.28,4.07-.99,0,0-2.44,16.81-8.48,20.99l3.31-1.57s-2.07,3.58-5.14,7.14c0,0,2.27.51,3.79-.12,0,0-1.88,11.44-9.98,26.68,0,0,4.53-.67,7.55-1.9,0,0-5.76,29.18-15.54,40.45,0,0,2.11-.59,6.02-1.89,0,0-3.72,5.06-8.59,7.72,0,0,3.25,1.06,8.13,0,0,0-1.63,15.9-14.17,30.76,0,0,2.32-.23,6.27-1.86,0,0-3.72,8.24-9.75,15.73h84.54c-6.04-7.49-9.75-15.73-9.75-15.73Z"/>
                <path class="cls-14" d="M1465.11,582.42c3.95,1.63,6.27,1.86,6.27,1.86-12.54-14.86-14.17-30.76-14.17-30.76,4.88,1.06,8.13,0,8.13,0-4.88-2.66-8.59-7.72-8.59-7.72,3.9,1.31,6.02,1.89,6.02,1.89-9.78-11.27-15.54-40.45-15.54-40.45,3.02,1.23,7.55,1.9,7.55,1.9-8.1-15.24-9.98-26.68-9.98-26.68,1.52.62,3.79.12,3.79.12-3.07-3.56-5.14-7.14-5.14-7.14l3.31,1.57c-6.04-4.18-8.48-20.99-8.48-20.99,1.73,1.28,4.07.99,4.07.99-5.81-6.27-9.75-22.06-9.75-22.06,0,0-3.95,15.79-9.75,22.06,0,0,2.34.28,4.07-.99,0,0-2.44,16.81-8.48,20.99l3.31-1.57s-2.07,3.58-5.14,7.14c0,0,2.27.51,3.79-.12,0,0-1.88,11.44-9.98,26.68,0,0,4.53-.67,7.55-1.9,0,0-5.76,29.18-15.54,40.45,0,0,2.11-.59,6.02-1.89,0,0-3.72,5.06-8.59,7.72,0,0,3.25,1.06,8.13,0,0,0-1.63,15.9-14.17,30.76,0,0,2.32-.23,6.27-1.86,0,0-3.72,8.24-9.75,15.73h84.54c-6.04-7.49-9.75-15.73-9.75-15.73Z"/>
                <path class="cls-14" d="M1284.37,603.61c5.6,2.31,8.9,2.64,8.9,2.64-17.79-21.09-20.1-43.64-20.1-43.64,6.92,1.5,11.53,0,11.53,0-6.92-3.77-12.19-10.95-12.19-10.95,5.54,1.85,8.53,2.69,8.53,2.69-13.87-15.99-22.04-57.39-22.04-57.39,4.28,1.75,10.71,2.7,10.71,2.7-11.49-21.62-14.15-37.85-14.15-37.85,2.16.89,5.38.17,5.38.17-4.36-5.05-7.29-10.13-7.29-10.13l4.7,2.22c-8.57-5.93-12.03-29.78-12.03-29.78,2.46,1.81,5.77,1.41,5.77,1.41-8.24-8.9-13.84-31.3-13.84-31.3,0,0-5.6,22.4-13.84,31.3,0,0,3.31.4,5.77-1.41,0,0-3.46,23.85-12.03,29.78l4.7-2.22s-2.93,5.08-7.29,10.13c0,0,3.22.72,5.38-.17,0,0-2.66,16.23-14.15,37.85,0,0,6.43-.96,10.71-2.7,0,0-8.17,41.4-22.04,57.39,0,0,3-.83,8.53-2.69,0,0-5.27,7.18-12.19,10.95,0,0,4.61,1.5,11.53,0,0,0-2.31,22.55-20.1,43.64,0,0,3.29-.33,8.9-2.64,0,0-5.27,11.7-13.84,22.32h119.93c-8.57-10.63-13.84-22.32-13.84-22.32Z"/>
                <path class="cls-14" d="M1349.72,598.22c6.48,2.67,10.3,3.05,10.3,3.05-20.6-24.41-23.27-50.52-23.27-50.52,8.01,1.74,13.35,0,13.35,0-8.01-4.36-14.11-12.68-14.11-12.68,6.41,2.14,9.88,3.11,9.88,3.11-16.06-18.51-25.52-66.44-25.52-66.44,4.96,2.02,12.4,3.13,12.4,3.13-13.3-25.03-16.39-43.82-16.39-43.82,2.5,1.02,6.23.19,6.23.19-5.04-5.85-8.44-11.73-8.44-11.73l5.44,2.57c-9.92-6.87-13.93-34.48-13.93-34.48,2.84,2.1,6.68,1.63,6.68,1.63-9.54-10.3-16.02-36.24-16.02-36.24,0,0-6.48,25.94-16.02,36.24,0,0,3.84.47,6.68-1.63,0,0-4.01,27.61-13.93,34.48l5.44-2.57s-3.39,5.88-8.44,11.73c0,0,3.73.83,6.23-.19,0,0-3.08,18.79-16.39,43.82,0,0,7.44-1.11,12.4-3.13,0,0-9.46,47.93-25.52,66.44,0,0,3.47-.97,9.88-3.11,0,0-6.1,8.31-14.11,12.68,0,0,5.34,1.74,13.35,0,0,0-2.67,26.11-23.27,50.52,0,0,3.81-.38,10.3-3.05,0,0-6.1,13.54-16.02,25.84h138.84c-9.92-12.3-16.02-25.84-16.02-25.84Z"/>
              </g>
            </g>
          </g>
          <rect class="cls-7" x="-22.5" width="1485" height="990"/>
        </g>
      </g>
    </g>
  </g>
</svg>