<?xml version="1.0" encoding="UTF-8"?>
<svg id="Calque_1" data-name="Calque 1" xmlns="http://www.w3.org/2000/svg" version="1.1" viewBox="0 0 731.24 282.1">
  <defs>
    <style>
      .cls-1 {
        fill: none;
      }

      .cls-1, .cls-2, .cls-3 {
        stroke-width: 0px;
      }

      .cls-2 {
        fill: #52756f;
      }

      .cls-3 {
        fill: #000;
      }

      .cls-4 {
        fill: #cbbba0;
        font-family: Dosis-ExtraBold, Dosis;
        font-size: 160.91px;
        font-weight: 700;
        isolation: isolate;
      }

      .cls-5 {
        display: none;
      }
    </style>
  </defs>
  <g id="Calque_1-2" data-name="Calque 1" class="cls-5">
    <path class="cls-3" d="M259.64,250.8h0c-5.3-4.3-6.3-12-2.5-17.6,27.2-39.2,32.6-86.2,13.6-125.2-15.9-32.9-46.3-46.9-60-51.7-2.8-1-5.8-1-8.6,0-13.7,4.8-44.1,18.8-60,51.7-18.9,39.1-13.6,86.1,13.6,125.2,3.9,5.6,2.8,13.3-2.5,17.6h0c-5.9,4.8-14.7,3.6-19.1-2.7-32.6-46.9-38.8-103.8-15.6-151.5,26.6-54.9,82.8-67.5,85.1-68h0c1.8-.4,3.7-.4,5.5,0h0c2.4.5,58.5,13.1,85.1,68,23.1,47.7,17,104.6-15.6,151.5-4.3,6.3-13.1,7.5-19,2.7Z"/>
    <path class="cls-3" d="M151.24,85.3h-26.2v-25.8c0-7.2,5.9-13.1,13.1-13.1h0c7.2,0,13.1,5.9,13.1,13.1v25.8h0Z"/>
    <g>
      <line class="cls-1" x1="206.44" y1="219.7" x2="232.04" y2="194"/>
      <path class="cls-3" d="M206.44,226.2c-1.7,0-3.3-.6-4.6-1.9-2.6-2.6-2.6-6.7,0-9.2l25.6-25.6c2.6-2.6,6.7-2.6,9.2,0,2.6,2.6,2.6,6.7,0,9.2l-25.6,25.6c-1.3,1.3-2.9,1.9-4.6,1.9Z"/>
    </g>
    <g>
      <line class="cls-1" x1="205.94" y1="179.8" x2="180.34" y2="154.2"/>
      <path class="cls-3" d="M205.94,186.3c-1.7,0-3.3-.6-4.6-1.9l-25.7-25.6c-2.6-2.6-2.6-6.7,0-9.2,2.6-2.6,6.7-2.6,9.2,0l25.6,25.6c2.6,2.6,2.6,6.7,0,9.2-1.2,1.3-2.8,1.9-4.5,1.9Z"/>
    </g>
    <g>
      <line class="cls-1" x1="206.44" y1="139.9" x2="232.04" y2="114.3"/>
      <path class="cls-3" d="M206.44,146.5c-1.7,0-3.3-.6-4.6-1.9-2.6-2.6-2.6-6.7,0-9.2l25.6-25.6c2.6-2.6,6.7-2.6,9.2,0,2.6,2.6,2.6,6.7,0,9.2l-25.6,25.5c-1.3,1.3-2.9,2-4.6,2Z"/>
    </g>
    <path class="cls-3" d="M206.44,248.6c-7.2,0-13.1-5.5-13.1-12.4V90.9c0-6.8,5.9-12.4,13.1-12.4s13.1,5.5,13.1,12.4v145.4c0,6.8-5.9,12.3-13.1,12.3Z"/>
  </g>
  <g id="Calque_2" data-name="Calque 2" class="cls-5">
    <path class="cls-3" d="M379.34,190.4c-3.3,0-6-.7-8.1-2.2s-3.2-3.1-3.2-4.8v-55.9c0-2.1,1-3.7,3.2-5,2.1-1.3,4.8-1.9,8.1-1.9,2.7,0,5.1.6,7,1.9,2,1.3,2.9,2.9,2.9,5v3.4c1.4-2.8,3.8-5.4,7.2-7.7,3.4-2.3,7.6-3.4,12.5-3.4,4.5,0,8.6,1.4,12.4,4.2s6.8,6.5,9.1,11.1,3.4,9.8,3.4,15.5v32.9c0,2.3-1.2,4.1-3.6,5.3s-5,1.8-7.8,1.8c-2.6,0-5.2-.6-7.6-1.8s-3.7-2.9-3.7-5.3v-32.9c0-1.9-.5-3.6-1.4-5.3s-2.2-3-3.8-4.1c-1.6-1.1-3.4-1.6-5.4-1.6-1.6,0-3.1.4-4.6,1.3-1.5.9-2.8,2.1-3.7,3.7-1,1.6-1.5,3.6-1.5,5.9v32.9c0,1.8-1.1,3.4-3.4,4.8-2.2,1.4-4.8,2.2-8,2.2Z"/>
    <path class="cls-3" d="M480.84,191.8c-7.2,0-13.6-1.3-19.2-3.9-5.6-2.6-10-6.2-13.1-10.9-3.2-4.7-4.8-10.1-4.8-16.3v-10.7c0-5.5,1.5-10.5,4.5-15.1s7.1-8.3,12.2-11.1c5.1-2.8,10.8-4.2,17-4.2,5.7,0,10.9,1.2,15.6,3.5,4.7,2.3,8.6,5.6,11.5,9.8s4.4,9,4.4,14.6c0,4.4-.7,7.6-2.1,9.5-1.4,1.9-3.2,3.1-5.4,3.5s-4.4.7-6.7.7h-28.3v.9c0,3.6,1.4,6.5,4.1,8.7,2.7,2.2,6.4,3.3,10.9,3.3,3,0,5.6-.5,7.8-1.4,2.1-.9,4.1-1.8,5.7-2.7,1.7-.9,3.3-1.3,4.8-1.3,1.8,0,3.3.6,4.5,1.8,1.3,1.2,2.2,2.5,2.9,4.1.6,1.6,1,2.9,1,4.1,0,1.9-1.1,3.8-3.4,5.9-2.3,2.1-5.4,3.8-9.5,5.2-4,1.3-8.8,2-14.4,2ZM466.54,148.4h18.2c1.1,0,1.9-.2,2.3-.7.5-.5.7-1.4.7-2.8,0-2-.5-3.6-1.5-4.9-1-1.3-2.3-2.3-4-2.9-1.6-.6-3.4-1-5.2-1s-3.4.3-5.1,1c-1.6.6-2.9,1.6-4,2.9-1,1.3-1.5,3-1.5,4.9v3.5h.1Z"/>
    <path class="cls-3" d="M543.54,191.8c-5.1,0-9.8-.6-14-1.9-4.3-1.3-7.6-2.9-10.1-5s-3.7-4.3-3.7-6.6c0-1.2.3-2.5,1-4.1.6-1.6,1.5-2.9,2.6-4.1,1.1-1.2,2.4-1.8,3.9-1.8,1.6,0,3.1.6,4.7,1.7,1.6,1.1,3.5,2.2,5.8,3.3s5.4,1.6,9.3,1.6,6.4-.6,7.5-1.7c1.1-1.1,1.6-2.2,1.6-3.2,0-1.7-.8-3-2.5-3.9s-3.8-1.7-6.4-2.3c-2.6-.6-5.4-1.4-8.3-2.2-2.9-.8-5.7-2-8.3-3.4-2.6-1.5-4.7-3.5-6.4-6s-2.5-5.9-2.5-10c0-3.6.9-7.2,2.6-10.6,1.7-3.5,4.6-6.3,8.6-8.6,4-2.2,9.5-3.4,16.4-3.4,4.3,0,8.3.4,12.1,1.3,3.8.9,6.8,2.1,9.2,3.7,2.4,1.6,3.6,3.4,3.6,5.5,0,1-.3,2.3-1,4-.6,1.7-1.6,3.3-2.8,4.6-1.2,1.4-2.7,2.1-4.5,2.1-1.3,0-2.7-.4-4.3-1.1-1.6-.7-3.3-1.5-5.3-2.2s-4.3-1.1-6.9-1.1c-2,0-3.5.2-4.8.7-1.2.5-2.1,1.1-2.7,1.8-.6.7-.9,1.4-.9,2.2,0,1.4.8,2.4,2.5,3.2,1.7.7,3.8,1.4,6.5,2.1,2.6.6,5.4,1.4,8.4,2.2,2.9.8,5.7,2.1,8.4,3.7,2.6,1.6,4.8,3.8,6.5,6.5s2.5,6.2,2.5,10.5c0,6.8-2.4,12.3-7.3,16.4s-11.9,6.1-21,6.1Z"/>
    <path class="cls-3" d="M610.54,190.4c-9.3,0-16.4-2-21.3-5.9-4.9-4-7.4-10.2-7.4-18.8v-68.5c0-2.1,1.2-3.7,3.7-5,2.4-1.3,5-1.9,7.6-1.9,2.8,0,5.5.6,7.8,1.9,2.4,1.3,3.6,2.9,3.6,5v23.5h16.5c1.9,0,3.2.9,4.2,2.6.9,1.7,1.4,3.5,1.4,5.5,0,2.1-.5,3.9-1.4,5.6-.9,1.7-2.3,2.5-4.2,2.5h-16.6v28.9c0,2.2.4,3.6,1.3,4.5.9.8,2.4,1.2,4.7,1.2h6.3c3.3,0,5.8,1,7.3,3,1.6,2,2.3,4.2,2.3,6.5s-.8,4.6-2.3,6.6c-1.6,2-4,2.9-7.3,2.9h-6.2v-.1Z"/>
  </g>
  <g id="Calque_3" data-name="Calque 3" class="cls-5">
    <text class="cls-4" transform="translate(338.05 191.57)"><tspan x="0" y="0">nest</tspan></text>
  </g>
  <g id="Calque_4" data-name="Calque 4">
    <g>
      <path class="cls-2" d="M346.04,220.7c-4.4,0-8-1-10.8-3.1-2.8-2-4.2-4.2-4.2-6.6v-92.6c0-2.8,1.4-5.1,4.2-6.8,2.8-1.7,6.4-2.6,10.8-2.6,3.8,0,6.9.9,9.5,2.6,2.6,1.7,3.9,4,3.9,6.8v7.1c2.4-4.5,6.2-8.7,11.6-12.3,5.4-3.7,12-5.5,19.9-5.5,7.4,0,14.1,2.2,20.2,6.5s11,10.1,14.7,17.3,5.5,15.2,5.5,24v55.7c0,3.1-1.6,5.5-4.7,7.2-3.1,1.6-6.7,2.5-10.6,2.5-3.4,0-6.8-.8-10.1-2.5-3.3-1.6-4.9-4-4.9-7.2v-55.7c0-3.6-.9-7-2.7-10.1-1.8-3.1-4.3-5.8-7.4-7.9-3.1-2.1-6.6-3.2-10.3-3.2-3.1,0-6.2.9-9.2,2.6-3,1.7-5.4,4.2-7.3,7.3s-2.8,6.9-2.8,11.3v55.7c0,2.3-1.5,4.5-4.5,6.6-3,1.9-6.6,2.9-10.8,2.9Z"/>
      <path class="cls-2" d="M506.54,222.8c-11.1,0-21-2-29.5-6s-15.2-9.6-20.1-16.9c-4.9-7.3-7.3-15.7-7.3-25.3v-20c0-8.5,2.3-16.3,6.9-23.4,4.6-7.1,10.8-12.8,18.6-17.2,7.8-4.3,16.4-6.5,26-6.5,8.8,0,16.8,1.9,24.1,5.6,7.3,3.8,13.2,8.9,17.7,15.5s6.8,14.3,6.8,23c0,6.7-1.1,11.6-3.3,14.5s-5,4.7-8.3,5.4c-3.4.7-6.9,1.1-10.5,1.1h-47.6v3.5c0,6.7,2.5,12.2,7.6,16.3,5.1,4.2,11.7,6.2,19.9,6.2,5.2,0,9.5-.8,12.9-2.4s6.4-3.1,8.9-4.5,4.9-2.1,7.1-2.1c2.4,0,4.4.8,6.1,2.4,1.7,1.6,3.1,3.4,4,5.5s1.4,4,1.4,5.5c0,2.7-1.7,5.5-5.1,8.6-3.4,3.1-8.1,5.6-14.3,7.8-6.2,2.4-13.5,3.4-22,3.4ZM480.04,154.9h34.3c2.7,0,4.5-.4,5.5-1.3,1-.9,1.5-2.5,1.5-5.1,0-3.6-.9-6.8-2.8-9.6-1.9-2.8-4.4-5-7.5-6.6s-6.6-2.4-10.3-2.4-7,.7-10.1,2.2-5.7,3.6-7.6,6.3c-2,2.7-2.9,6-2.9,9.8v6.7h-.1Z"/>
      <path class="cls-2" d="M604.34,222.8c-7.8,0-15-1-21.5-2.9-6.5-2-11.6-4.5-15.3-7.6s-5.5-6.3-5.5-9.6c0-1.6.4-3.4,1.3-5.5.9-2.1,2-4,3.5-5.5,1.5-1.6,3.3-2.4,5.3-2.4,2.2,0,4.5.9,6.9,2.7,2.4,1.8,5.5,3.6,9.2,5.3,3.7,1.7,8.8,2.6,15.4,2.6,7.1,0,11.7-1.1,14-3.3,2.3-2.2,3.4-4.5,3.4-6.8,0-3.4-1.4-6.1-4.1-8-2.7-1.9-6.2-3.4-10.5-4.7-4.2-1.3-8.7-2.5-13.5-3.9-4.8-1.3-9.3-3.1-13.5-5.4-4.2-2.3-7.7-5.4-10.3-9.4-2.7-4-4-9.2-4-15.6,0-5.6,1.3-11.1,4-16.5,2.7-5.3,7.1-9.8,13.2-13.3,6.1-3.5,14.4-5.3,24.9-5.3,6.4,0,12.5.7,18.2,2s10.4,3.2,14,5.5c3.6,2.4,5.4,4.9,5.4,7.8,0,1.4-.5,3.3-1.4,5.5-.9,2.3-2.2,4.3-3.9,6.2-1.6,1.9-3.6,2.8-6,2.8-1.7,0-3.8-.6-6.2-1.8s-5.2-2.3-8.3-3.4c-3.1-1.1-6.9-1.6-11.3-1.6-3.9,0-7.1.6-9.4,1.6-2.3,1.1-4.1,2.4-5.2,4-1.1,1.6-1.6,3.2-1.6,4.9,0,2.8,1.3,5,4,6.6s6.1,2.9,10.5,4c4.3,1.1,8.9,2.3,13.6,3.6,4.8,1.3,9.3,3.3,13.6,5.9,4.3,2.6,7.8,6,10.5,10.2s4,9.9,4,16.9c0,10.3-3.7,18.7-11.2,24.9-7.5,6.4-18.2,9.5-32.2,9.5Z"/>
      <path class="cls-2" d="M708.94,220.7c-14.1,0-24.9-3.1-32.3-9.2-7.4-6.1-11.2-15.7-11.2-28.9v-114c0-2.8,1.6-5.1,4.9-6.8,3.3-1.7,6.7-2.6,10.1-2.6,3.8,0,7.2.9,10.5,2.6,3.2,1.7,4.8,4,4.8,6.8v40.4h27.7c2.5,0,4.4,1.1,5.8,3.4,1.3,2.3,2,4.8,2,7.6s-.7,5.4-2,7.6c-1.3,2.3-3.3,3.4-5.8,3.4h-27.7v51.5c0,4.5,1,7.8,2.9,9.6,2,1.9,5.4,2.8,10.2,2.8h9.2c4.4,0,7.6,1.3,9.8,4,2.1,2.7,3.2,5.6,3.2,8.7,0,3.3-1.1,6.3-3.2,8.9-2.1,2.7-5.4,4-9.8,4h-9.1v.2Z"/>
    </g>
    <path class="cls-2" d="M217.74,275c-5.4,7.8-16.4,9.4-23.8,3.4-6.6-5.4-7.9-15-3.1-22,34-49,40.7-107.8,17-156.7-19.9-41.1-57.9-58.6-75.1-64.7-3.5-1.2-7.3-1.2-10.8,0-17.2,6.1-55.2,23.6-75.1,64.7-23.7,48.9-17,107.7,17,156.7,4.9,7,3.5,16.6-3.1,22-3.1,2.5-6.7,3.7-10.3,3.7-5.2,0-10.3-2.4-13.5-7C-3.86,216.4-11.56,145.2,17.34,85.5c1.4-2.9,2.9-5.7,4.4-8.4,2-3.6,3.7-9.9,3.7-14v-23.9c0-9,7.3-16.4,16.4-16.4,4.5,0,8.6,1.8,11.6,4.8,1.1,1.1,2,2.3,2.7,3.6.9,1.6,2.8,2,4.2.8C90.84,7.7,126.14,0,127.24,0c1.2,0,76.7,16.8,110,85.5,29,59.6,21.3,130.8-19.5,189.5Z"/>
    <path class="cls-2" d="M164.84,186.3c2.9,3.3,2.5,8.3-.6,11.4l-17.5,17.5c-2.4,2.4-3.7,5.6-3.7,9v20.3c0,8.6-7.3,15.5-16.4,15.5s-16.4-6.9-16.4-15.5v-69.6c0-3.4-1.3-6.6-3.7-9l-18.2-18.2c-3.1-3.1-3.5-8.1-.6-11.4,3.2-3.6,8.6-3.7,11.9-.4l3.3,3.3c4,4,7.2,2.6,7.2-3V62.5c0-8.5,7.3-15.5,16.4-15.5s16.4,6.9,16.4,15.5v23.2c0,5.6,3.2,7,7.2,3l2.5-2.5c3.1-3.1,8.1-3.5,11.4-.6,3.6,3.2,3.7,8.6.4,11.9l-17.8,17.8c-2.4,2.4-3.7,5.6-3.7,9v61.2c0,5.6,3.2,7,7.2,3l2.7-2.7c3.4-3.2,8.9-3,12,.5Z"/>
  </g>
</svg>