<?xml version="1.0" encoding="UTF-8"?>
<svg xmlns="http://www.w3.org/2000/svg" xmlns:xlink="http://www.w3.org/1999/xlink" version="1.1" viewBox="0 0 375 667">
  <defs>
    <style>
      .cls-1, .cls-2, .cls-3, .cls-4, .cls-5, .cls-6, .cls-7, .cls-8, .cls-9, .cls-10, .cls-11, .cls-12, .cls-13, .cls-14 {
        stroke-width: 0px;
      }

      .cls-1, .cls-6 {
        fill: #ffdf98;
        mix-blend-mode: screen;
      }

      .cls-1, .cls-15 {
        opacity: .5;
      }

      .cls-2 {
        fill: #1a2f2f;
      }

      .cls-16 {
        clip-path: url(#clippath);
      }

      .cls-3 {
        fill: none;
      }

      .cls-4 {
        fill: #477971;
      }

      .cls-5 {
        fill: url(#linear-gradient);
      }

      .cls-6 {
        opacity: .4;
      }

      .cls-7 {
        fill: url(#linear-gradient-3);
        mix-blend-mode: soft-light;
        opacity: .2;
      }

      .cls-17 {
        clip-path: url(#clippath-1);
      }

      .cls-18 {
        clip-path: url(#clippath-4);
      }

      .cls-19 {
        clip-path: url(#clippath-3);
      }

      .cls-20 {
        clip-path: url(#clippath-2);
      }

      .cls-21 {
        clip-path: url(#clippath-5);
      }

      .cls-8 {
        fill: #fefae6;
      }

      .cls-22 {
        opacity: .8;
      }

      .cls-23 {
        opacity: .7;
      }

      .cls-9 {
        fill: url(#linear-gradient-2);
      }

      .cls-10 {
        fill: #508c85;
      }

      .cls-11 {
        fill: #87c1b9;
      }

      .cls-24 {
        isolation: isolate;
      }

      .cls-12 {
        fill: #6a9a95;
      }

      .cls-13 {
        fill: #6fada8;
      }

      .cls-14 {
        fill: #2e4c48;
      }
    </style>
    <clipPath id="clippath">
      <rect class="cls-3" width="375" height="667"/>
    </clipPath>
    <linearGradient id="linear-gradient" x1="373.58" y1="0" x2="373.58" y2="667" gradientUnits="userSpaceOnUse">
      <stop offset="0" stop-color="#d5ebe7"/>
      <stop offset=".02" stop-color="#d6ebe5"/>
      <stop offset=".34" stop-color="#eaf1d2"/>
      <stop offset=".66" stop-color="#f6f4c7"/>
      <stop offset=".99" stop-color="#faf6c4"/>
    </linearGradient>
    <linearGradient id="linear-gradient-2" x1="373.58" y1="667" x2="373.58" y2="430.96" gradientUnits="userSpaceOnUse">
      <stop offset="0" stop-color="#d5ebe7"/>
      <stop offset=".32" stop-color="#d9ece3"/>
      <stop offset=".65" stop-color="#e5efd7"/>
      <stop offset=".99" stop-color="#f9f5c4"/>
      <stop offset=".99" stop-color="#faf6c4"/>
    </linearGradient>
    <clipPath id="clippath-1">
      <rect class="cls-3" x="-126.67" y="430.96" width="1000.5" height="236.04"/>
    </clipPath>
    <clipPath id="clippath-2">
      <rect class="cls-3" x="-126.67" y="430.96" width="1000.5" height="236.04"/>
    </clipPath>
    <clipPath id="clippath-3">
      <rect class="cls-3" x="-126.67" y="430.96" width="1000.5" height="236.04"/>
    </clipPath>
    <clipPath id="clippath-4">
      <rect class="cls-3" x="-126.67" width="1000.5" height="667"/>
    </clipPath>
    <clipPath id="clippath-5">
      <rect class="cls-3" x="-126.67" width="1000.5" height="667"/>
    </clipPath>
    <linearGradient id="linear-gradient-3" x1="-126.67" y1="333.5" x2="873.83" y2="333.5" xlink:href="#linear-gradient"/>
  </defs>
  <g class="cls-24">
    <g id="Calque_1" data-name="Calque 1">
      <g class="cls-16">
        <rect class="cls-5" x="-126.67" width="1000.5" height="667"/>
        <g>
          <g>
            <g>
              <g>
                <g>
                  <path class="cls-13" d="M873.83,180.06l-14.01-3.98s-29.35-24.01-34.68-25.35-43.35-15.34-46.69-16.68-41.35-25.35-46.02-26.01-62.03-34.68-64.7-34.02-32.68,30.02-37.35,32.02-44.69,39.35-48.02,42.02c-3.33,2.67-36.02,44.02-38.69,46.69s-38.02,22.68-40.69,23.34-38.02,14.01-40.69,16.68-45.36,45.36-45.36,45.36l-35.35,14.67-48.02-10.01-39.35-10.01-30.01-24.68-20.68-10.01s-26.01-33.35-28.01-34.68-20.68-9.34-23.34-11.34-28.68-27.35-28.68-27.35c0,0-32.68,26.01-34.68,26.01s-34.02,16.01-37.35,17.34-30.02,26.01-32.68,26.68-34.02,10.67-36.02,10.67-42.02,4-44.02,5.34-24.01,13.34-26.01,14.01-26.68,4.67-28.68,5.34-21.34,1.33-24.68,3.33c-2.09,1.25-15.94,8.52-26.01,13.78v377.75h1000.5V180.06Z"/>
                  <path class="cls-12" d="M91.44,210.11c-3.34,1.33-30.02,26.01-32.68,26.68s-34.02,10.67-36.02,10.67-42.02,4-44.02,5.34-24.01,13.34-26.01,14.01-26.68,4.67-28.68,5.34-21.34,1.33-24.68,3.33c-2.09,1.25-15.94,8.52-26.01,13.78v132.96h484.91l-18.68-28.01s-35.35-30.68-39.35-32.02-22.01-16.01-22.01-16.01l-36.02,22.01,30.02-30.01s-10.67-18.01-14.67-18.68-13.34-16.01-16.67-17.34-16.67-16.68-16.67-16.68l-48.69,20.68,48.69-30.02s-6.67-4.67-10.67-6-15.34-12.67-15.34-12.67l-14.67-24.68-32.68,20.01,32.68-32.68s-8.67-12.67-11.34-16.01-8.67-37.35-8.67-37.35c0,0-32.68,26.01-34.68,26.01s-34.02,16.01-37.35,17.34Z"/>
                  <path class="cls-11" d="M214.17,210.11l21.34,29.68,28.68,10.34-20.68-10.01s-26.01-33.35-28.01-34.68-20.68-9.34-23.34-11.34-28.68-27.35-28.68-27.35l29.35,36.02,21.34,7.34Z"/>
                  <path class="cls-12" d="M405.6,333.5s-14.67,20.01-16.01,22.01-95.38,66.7-95.38,66.7h264.13l22.01-50.69-97.38,25.35,99.38-34.68-4.67-24.68s2.67-38.69,4-42.69,18.34-26.68,18.34-26.68l-67.7,8,67.37-15.34s-2.67-12.01-1.33-15.34,12.67-21.34,16.01-25.35c3.34-4,10.67-18.68,11.34-22.01s3.33-23.35,3.33-23.35l-51.36,16.01,53.36-25.35s.67-15.34,4-18.68,18.68-26.68,20.68-30.68c2-4,12.01-42.02,12.01-42.02-2.67.67-32.68,30.02-37.35,32.02s-44.69,39.35-48.02,42.02c-3.33,2.67-36.02,44.02-38.69,46.69s-38.02,22.68-40.69,23.34-38.02,14.01-40.69,16.68-45.36,45.36-45.36,45.36l-26.68,40.69,15.34,12.67Z"/>
                  <path class="cls-11" d="M757.11,128.73l13.34,15.34,55.36,12.67,28.68,30.68h19.34v-7.36l-14.01-3.98s-29.35-24.01-34.68-25.35-43.35-15.34-46.69-16.68-41.35-25.35-46.02-26.01c-4.57-.65-59.67-33.28-64.46-34.01h-.24s46.69,34.68,46.69,34.68l42.69,20.01Z"/>
                </g>
                <g>
                  <path class="cls-10" d="M873.83,335.03c-20,6.91-48.14,16.78-50.69,18.48-4,2.67-30.68,23.35-35.35,25.35-4.67,2-35.35,10.01-40.02,10.01s-40.02,4.67-45.36,4.67-53.36-16.67-58.7-16.67-22.68-2.67-28.68-2-33.35,5.34-37.35,6c-4,.67-38.02,13.34-42.02,16.74-4,3.4-31.35-3.4-34.68-4.07s-36.68-10.67-43.35-10.67-14.01,5.34-18.01,6-19.34,0-24.01-2-13.34-9.34-19.34-8.67-24.68,4-27.35,3.33-28.01.67-31.35.67-17.34,8.67-22.01,8.67-17.34-4.67-24.68-5.34c-7.34-.67-28.01-6-34.68-6s-34.02,6-42.69,7.34c-8.67,1.33-25.35,2.67-30.68,4.67s-14.67,6.67-20.68,6-24.01-7.34-29.35-8.67-55.36-8.67-63.36-9.34c-8-.67-15.34-7.34-18.01-9.34s-21.34-7.34-26.68-8-30.02-13.34-36.02-13.34-38.69,1.33-42.69,0-10.01-6.67-13.34-8-22.68-9.34-30.68-7.34c-4.87,1.22-18.65.95-28.68.56v332.94h1000.5v-331.97Z"/>
                  <polygon class="cls-10" points="125.93 396.59 137.95 348.67 149.96 396.59 125.93 396.59"/>
                  <polygon class="cls-10" points="191.44 389.8 203.46 341.89 215.47 389.8 191.44 389.8"/>
                  <polygon class="cls-10" points="175.26 396.59 187.28 348.67 199.29 396.59 175.26 396.59"/>
                  <polygon class="cls-10" points="64.16 392.22 76.17 344.3 88.18 392.22 64.16 392.22"/>
                  <polygon class="cls-10" points="76.17 387 88.18 339.09 100.19 387 76.17 387"/>
                  <polygon class="cls-10" points="117.21 397.87 125.93 363.05 134.66 397.87 117.21 397.87"/>
                  <polygon class="cls-10" points="159.58 400.67 168.31 365.85 177.04 400.67 159.58 400.67"/>
                  <polygon class="cls-10" points="211.26 397.87 219.98 363.05 228.71 397.87 211.26 397.87"/>
                  <polygon class="cls-10" points="315.93 392.22 327.94 344.3 339.95 392.22 315.93 392.22"/>
                  <polygon class="cls-10" points="346.91 391.16 358.92 343.24 370.93 391.16 346.91 391.16"/>
                  <polygon class="cls-10" points="300.66 396.59 312.67 348.67 324.68 396.59 300.66 396.59"/>
                  <polygon class="cls-10" points="240.17 384.37 252.18 336.46 264.19 384.37 240.17 384.37"/>
                  <polygon class="cls-10" points="254.85 389.8 266.86 341.89 278.87 389.8 254.85 389.8"/>
                  <polygon class="cls-10" points="331.22 395.23 339.95 360.42 348.68 395.23 331.22 395.23"/>
                  <polygon class="cls-10" points="285.48 395.23 294.21 360.42 302.94 395.23 285.48 395.23"/>
                  <polygon class="cls-10" points="382.9 392.43 391.62 357.62 400.35 392.43 382.9 392.43"/>
                  <polygon class="cls-10" points="370.93 383.26 379.66 348.44 388.39 383.26 370.93 383.26"/>
                  <polygon class="cls-10" points="497.8 398.33 509.81 350.41 521.82 398.33 497.8 398.33"/>
                  <polygon class="cls-10" points="528.77 397.27 540.79 349.35 552.8 397.27 528.77 397.27"/>
                  <polygon class="cls-10" points="604.37 378.5 616.38 330.59 628.39 378.5 604.37 378.5"/>
                  <polygon class="cls-10" points="573.49 385.76 585.51 337.84 597.52 385.76 573.49 385.76"/>
                  <polygon class="cls-10" points="621.26 387 633.27 339.09 645.28 387 621.26 387"/>
                  <polygon class="cls-10" points="804.02 371.95 816.03 324.04 828.04 371.95 804.02 371.95"/>
                  <polygon class="cls-10" points="849.71 348 861.72 300.08 873.73 348 849.71 348"/>
                  <polygon class="cls-10" points="677.29 394.47 689.3 346.56 701.31 394.47 677.29 394.47"/>
                  <polygon class="cls-10" points="482.53 397.27 494.54 349.35 506.55 397.27 482.53 397.27"/>
                  <polygon class="cls-10" points="422.04 390.48 434.05 342.57 446.06 390.48 422.04 390.48"/>
                  <polygon class="cls-10" points="436.71 395.91 448.73 348 460.74 395.91 436.71 395.91"/>
                  <polygon class="cls-10" points="521.82 401.34 530.55 366.52 539.28 401.34 521.82 401.34"/>
                  <polygon class="cls-10" points="458.62 387.92 467.35 353.1 476.08 387.92 458.62 387.92"/>
                  <polygon class="cls-10" points="467.35 401.34 476.08 366.52 484.81 401.34 467.35 401.34"/>
                  <polygon class="cls-10" points="479.75 391.78 488.48 356.96 497.21 391.78 479.75 391.78"/>
                  <polygon class="cls-10" points="407.76 391.78 416.49 356.96 425.22 391.78 407.76 391.78"/>
                  <polygon class="cls-10" points="789.05 391.69 801.06 343.77 813.08 391.69 789.05 391.69"/>
                  <polygon class="cls-10" points="773.79 390.63 785.8 342.71 797.81 390.63 773.79 390.63"/>
                  <polygon class="cls-10" points="713.3 396.35 725.31 348.44 737.32 396.35 713.3 396.35"/>
                  <polygon class="cls-10" points="727.97 401.78 739.98 353.87 751.99 401.78 727.97 401.78"/>
                  <polygon class="cls-10" points="749.88 393.79 758.61 358.98 767.34 393.79 749.88 393.79"/>
                  <polygon class="cls-10" points="758.61 407.21 767.34 372.4 776.06 407.21 758.61 407.21"/>
                  <polygon class="cls-10" points="821.14 363.97 829.87 329.15 838.6 363.97 821.14 363.97"/>
                  <polygon class="cls-10" points="840.98 348 849.71 313.18 858.44 348 840.98 348"/>
                  <polygon class="cls-10" points="771.01 385.14 779.74 350.32 788.47 385.14 771.01 385.14"/>
                  <polygon class="cls-10" points="699.02 397.65 707.75 362.83 716.48 397.65 699.02 397.65"/>
                  <polygon class="cls-10" points="564.77 398.54 573.49 363.72 582.22 398.54 564.77 398.54"/>
                  <polygon class="cls-10" points="645.28 396.62 654.01 361.8 662.74 396.62 645.28 396.62"/>
                  <polygon class="cls-10" points="654.01 404.41 662.74 369.6 671.47 404.41 654.01 404.41"/>
                  <polygon class="cls-10" points="662.74 389.36 671.47 354.55 680.2 389.36 662.74 389.36"/>
                  <polygon class="cls-10" points="552.8 389.36 561.53 354.55 570.25 389.36 552.8 389.36"/>
                  <polygon class="cls-10" points="591.48 380.46 600.21 345.64 608.94 380.46 591.48 380.46"/>
                  <polygon class="cls-10" points="96.42 386.72 105.15 351.9 113.88 386.72 96.42 386.72"/>
                  <polygon class="cls-10" points="-30.58 357.46 -18.57 309.54 -6.55 357.46 -30.58 357.46"/>
                  <polygon class="cls-10" points="6.74 375.85 18.75 327.94 30.76 375.85 6.74 375.85"/>
                  <polygon class="cls-10" points="-5.27 360.42 6.74 312.5 18.75 360.42 -5.27 360.42"/>
                  <polygon class="cls-10" points="-116.38 351.9 -104.36 303.98 -92.35 351.9 -116.38 351.9"/>
                  <polygon class="cls-10" points="-88.26 343.01 -76.25 295.09 -64.24 343.01 -88.26 343.01"/>
                  <polygon class="cls-10" points="-104.36 343.01 -92.35 295.09 -80.34 343.01 -104.36 343.01"/>
                  <polygon class="cls-10" points="-43.93 353.87 -35.2 319.05 -26.47 353.87 -43.93 353.87"/>
                  <polygon class="cls-10" points="-14 359.02 -5.27 324.2 3.46 359.02 -14 359.02"/>
                  <polygon class="cls-10" points="30.72 376.43 39.45 341.61 48.18 376.43 30.72 376.43"/>
                  <polygon class="cls-10" points="-70.47 350.91 -61.75 316.09 -53.02 350.91 -70.47 350.91"/>
                </g>
                <path class="cls-4" d="M-126.67,383.9s69.46,10.81,79.2,11.56,42.64.15,46.2,0c3.56-.15,31.08,13.96,31.08,13.96,0,0,72.97,10.45,76.53,10.17,3.56-.27,41.26-5.94,41.26-5.94,0,0,41.7,5.25,45,1.44,3.31-3.81,67.59-1.54,71.59,1.79s61.52,1.75,69.32,2.95c7.8,1.2,85.87-12.31,90.32-10.42,4.45,1.9,51.99,9.38,56.16,10.05,4.17.67,82.39-1.39,86.34.13,3.94,1.52,84.19-17.71,92.29-20.11,8.1-2.41,50.52,3.94,59.13,2.64,8.62-1.3,66.1,2.48,71.88-.55,5.78-3.03,84.2-22.36,84.2-22.36v287.79H-126.67v-283.1Z"/>
              </g>
              <g>
                <path class="cls-8" d="M588.05,185.32c-2.93-3.34-5.87-7.26-9.88-8.3-2.87-1.07-6.23,1.29-8.52.78-2.86-.5-4.63-3.3-7.51-4.37-5.16-1.58-10.3-2.03-16-2.46-6.26.15-10.82-.31-15.43-2.47-5.76-2.71-8.69-6.05-14.96-6.47-5.7-.43-10.74,3.11-15.85,3.8-6.24.72-10.87-2.01-16.47,1.54-5.04,3.54-7.7,11-13.32,13.99-5.07,2.4-11.95.29-15.22,6.06l133.17-2.1Z"/>
                <path class="cls-8" d="M-63.89,224.91c4.54-5.19,9.11-11.26,15.33-12.88,4.46-1.66,9.67,2,13.22,1.21,4.44-.78,7.19-5.13,11.65-6.78,8.01-2.46,15.98-3.15,24.83-3.81,9.71.24,16.8-.47,23.95-3.83,8.94-4.2,13.48-9.39,23.22-10.04,8.85-.67,16.67,4.82,24.6,5.9,9.69,1.12,16.86-3.12,25.57,2.39,7.82,5.49,11.95,17.08,20.68,21.71,7.86,3.73,18.54.45,23.63,9.41l-206.68-3.26Z"/>
                <path class="cls-8" d="M305.88,105.71c-12.22-9.2-20.29-6.74-32.72-7.94-15.07-2.16-24.65-10.4-38.72-16.98-14.94-7.49-33.69-4.4-47.79-10.09-15.87-5.73-29.76-19.43-47.63-16.32-21.45,3.91-24.61,23.4-39.96,32.8-12.65,7.69-33.92,4.49-41.39,18.54h248.2Z"/>
                <path class="cls-8" d="M862.19,114.21c-3.35-15.99-15.46-16.32-27.59-15.89-18.18.26-20.06-14.18-34.97-22.91-17.18-8.8-29.39-5.34-45.49,1.8-15.32,6.4-30.86,21.13-46.02,21.47-14.4.37-29.43-3.83-41.74,3.41-3.09,2.19-6.24,6.65-10.06,8.06-3.82,1.41-6.05-.16-9.1.51-6.1,1.35-11.47,4.23-16.83,6.36l231.82-2.81Z"/>
                <path class="cls-8" d="M-29.54,128.27c1.72-8.19,7.92-8.36,14.13-8.14,9.31.14,10.27-7.26,17.91-11.73,8.8-4.5,15.05-2.73,23.29.92,7.84,3.28,15.81,10.82,23.57,11,7.37.19,15.07-1.96,21.38,1.75,1.58,1.12,3.19,3.4,5.15,4.13,1.96.72,3.1-.08,4.66.26,3.12.69,5.88,2.17,8.62,3.26l-118.71-1.44Z"/>
              </g>
            </g>
            <g>
              <g>
                <rect class="cls-9" x="-126.67" y="430.96" width="1000.5" height="236.04"/>
                <g class="cls-15">
                  <g class="cls-17">
                    <g>
                      <g>
                        <g>
                          <path class="cls-13" d="M873.83,681.73l-14.01,3.98s-29.35,24.01-34.68,25.35c-5.34,1.33-43.35,15.34-46.69,16.67s-41.35,25.35-46.02,26.01c-4.67.67-62.03,34.68-64.7,34.02s-32.68-30.01-37.35-32.02-44.69-39.35-48.02-42.02c-3.33-2.67-36.02-44.02-38.69-46.69s-38.02-22.68-40.69-23.35-38.02-14.01-40.69-16.67l-45.36-45.36-35.35-14.67-48.02,10-39.35,10.01-30.01,24.68-20.68,10.01s-26.01,33.35-28.01,34.68-20.68,9.34-23.34,11.34-28.68,27.35-28.68,27.35c0,0-32.68-26.01-34.68-26.01s-34.02-16.01-37.35-17.34-30.02-26.01-32.68-26.68-34.02-10.67-36.02-10.67-42.02-4-44.02-5.34-24.01-13.34-26.01-14.01-26.68-4.67-28.68-5.34-21.34-1.33-24.68-3.33c-2.09-1.25-15.94-8.52-26.01-13.78V194.79h1000.5v486.94Z"/>
                          <path class="cls-12" d="M91.44,651.69c-3.34-1.33-30.02-26.01-32.68-26.68s-34.02-10.67-36.02-10.67-42.02-4-44.02-5.34-24.01-13.34-26.01-14.01-26.68-4.67-28.68-5.34-21.34-1.33-24.68-3.33c-2.09-1.25-15.94-8.52-26.01-13.78v-132.96h484.91l-18.68,28.01s-35.35,30.68-39.35,32.02-22.01,16.01-22.01,16.01l-36.02-22.01,30.02,30.01s-10.67,18.01-14.67,18.68-13.34,16.01-16.67,17.34-16.67,16.68-16.67,16.68l-48.69-20.68,48.69,30.02s-6.67,4.67-10.67,6-15.34,12.67-15.34,12.67l-14.67,24.68-32.68-20.01,32.68,32.68s-8.67,12.67-11.34,16.01-8.67,37.35-8.67,37.35c0,0-32.68-26.01-34.68-26.01s-34.02-16.01-37.35-17.34Z"/>
                          <path class="cls-11" d="M214.17,651.69l21.34-29.68,28.68-10.34-20.68,10.01s-26.01,33.35-28.01,34.68-20.68,9.34-23.34,11.34-28.68,27.35-28.68,27.35l29.35-36.02,21.34-7.34Z"/>
                          <path class="cls-12" d="M405.6,528.29s-14.67-20.01-16.01-22.01-95.38-66.7-95.38-66.7h264.13l22.01,50.69-97.38-25.35,99.38,34.68-4.67,24.68s2.67,38.69,4,42.69,18.34,26.68,18.34,26.68l-67.7-8,67.37,15.34s-2.67,12.01-1.33,15.34,12.67,21.34,16.01,25.35c3.34,4,10.67,18.68,11.34,22.01s3.33,23.35,3.33,23.35l-51.36-16.01,53.36,25.35s.67,15.34,4,18.68c3.34,3.33,18.68,26.68,20.68,30.68,2,4,12.01,42.02,12.01,42.02-2.67-.67-32.68-30.01-37.35-32.02s-44.69-39.35-48.02-42.02c-3.33-2.67-36.02-44.02-38.69-46.69s-38.02-22.68-40.69-23.35-38.02-14.01-40.69-16.67l-45.36-45.36-26.68-40.69,15.34-12.67Z"/>
                          <path class="cls-11" d="M757.11,733.06l13.34-15.34,55.36-12.67,28.68-30.68h19.34v7.36l-14.01,3.98s-29.35,24.01-34.68,25.35c-5.34,1.33-43.35,15.34-46.69,16.67s-41.35,25.35-46.02,26.01c-4.57.65-59.67,33.28-64.46,34.01h-.24s46.69-34.68,46.69-34.68l42.69-20.01Z"/>
                        </g>
                        <g>
                          <path class="cls-10" d="M873.83,526.76c-20-6.91-48.14-16.78-50.69-18.48-4-2.67-30.68-23.35-35.35-25.35-4.67-2-35.35-10.01-40.02-10.01s-40.02-4.67-45.36-4.67-53.36,16.67-58.7,16.67-22.68,2.67-28.68,2-33.35-5.34-37.35-6-38.02-13.34-42.02-16.74c-4-3.4-31.35,3.4-34.68,4.07s-36.68,10.67-43.35,10.67-14.01-5.34-18.01-6-19.34,0-24.01,2-13.34,9.34-19.34,8.67-24.68-4-27.35-3.33-28.01-.67-31.35-.67-17.34-8.67-22.01-8.67-17.34,4.67-24.68,5.34c-7.34.67-28.01,6-34.68,6s-34.02-6-42.69-7.34c-8.67-1.33-25.35-2.67-30.68-4.67s-14.67-6.67-20.68-6c-6,.67-24.01,7.34-29.35,8.67s-55.36,8.67-63.36,9.34c-8,.67-15.34,7.34-18.01,9.34s-21.34,7.34-26.68,8-30.02,13.34-36.02,13.34-38.69-1.33-42.69,0-10.01,6.67-13.34,8-22.68,9.34-30.68,7.34c-4.87-1.22-18.65-.95-28.68-.56V194.79h1000.5v331.97Z"/>
                          <polygon class="cls-10" points="125.93 465.2 137.95 513.12 149.96 465.2 125.93 465.2"/>
                          <polygon class="cls-10" points="191.44 471.99 203.46 519.9 215.47 471.99 191.44 471.99"/>
                          <polygon class="cls-10" points="175.26 465.2 187.28 513.12 199.29 465.2 175.26 465.2"/>
                          <polygon class="cls-10" points="64.16 469.57 76.17 517.49 88.18 469.57 64.16 469.57"/>
                          <polygon class="cls-10" points="76.17 474.79 88.18 522.7 100.19 474.79 76.17 474.79"/>
                          <polygon class="cls-10" points="117.21 463.93 125.93 498.74 134.66 463.93 117.21 463.93"/>
                          <polygon class="cls-10" points="159.58 461.13 168.31 495.94 177.04 461.13 159.58 461.13"/>
                          <polygon class="cls-10" points="211.26 463.93 219.98 498.74 228.71 463.93 211.26 463.93"/>
                          <polygon class="cls-10" points="315.93 469.57 327.94 517.49 339.95 469.57 315.93 469.57"/>
                          <polygon class="cls-10" points="346.91 470.63 358.92 518.55 370.93 470.63 346.91 470.63"/>
                          <polygon class="cls-10" points="300.66 465.2 312.67 513.12 324.68 465.2 300.66 465.2"/>
                          <polygon class="cls-10" points="240.17 477.42 252.18 525.33 264.19 477.42 240.17 477.42"/>
                          <polygon class="cls-10" points="254.85 471.99 266.86 519.9 278.87 471.99 254.85 471.99"/>
                          <polygon class="cls-10" points="331.22 466.56 339.95 501.37 348.68 466.56 331.22 466.56"/>
                          <polygon class="cls-10" points="285.48 466.56 294.21 501.37 302.94 466.56 285.48 466.56"/>
                          <polygon class="cls-10" points="382.9 469.36 391.62 504.17 400.35 469.36 382.9 469.36"/>
                          <polygon class="cls-10" points="370.93 478.54 379.66 513.35 388.39 478.54 370.93 478.54"/>
                          <polygon class="cls-10" points="497.8 463.46 509.81 511.38 521.82 463.46 497.8 463.46"/>
                          <polygon class="cls-10" points="528.77 464.52 540.79 512.44 552.8 464.52 528.77 464.52"/>
                          <polygon class="cls-10" points="604.37 483.29 616.38 531.2 628.39 483.29 604.37 483.29"/>
                          <polygon class="cls-10" points="573.49 476.03 585.51 523.95 597.52 476.03 573.49 476.03"/>
                          <polygon class="cls-10" points="621.26 474.79 633.27 522.7 645.28 474.79 621.26 474.79"/>
                          <polygon class="cls-10" points="804.02 489.84 816.03 537.75 828.04 489.84 804.02 489.84"/>
                          <polygon class="cls-10" points="849.71 513.79 861.72 561.71 873.73 513.79 849.71 513.79"/>
                          <polygon class="cls-10" points="677.29 467.32 689.3 515.24 701.31 467.32 677.29 467.32"/>
                          <polygon class="cls-10" points="482.53 464.52 494.54 512.44 506.55 464.52 482.53 464.52"/>
                          <polygon class="cls-10" points="422.04 471.31 434.05 519.22 446.06 471.31 422.04 471.31"/>
                          <polygon class="cls-10" points="436.71 465.88 448.73 513.79 460.74 465.88 436.71 465.88"/>
                          <polygon class="cls-10" points="521.82 460.45 530.55 495.27 539.28 460.45 521.82 460.45"/>
                          <polygon class="cls-10" points="458.62 473.87 467.35 508.69 476.08 473.87 458.62 473.87"/>
                          <polygon class="cls-10" points="467.35 460.45 476.08 495.27 484.81 460.45 467.35 460.45"/>
                          <polygon class="cls-10" points="479.75 470.01 488.48 504.83 497.21 470.01 479.75 470.01"/>
                          <polygon class="cls-10" points="407.76 470.01 416.49 504.83 425.22 470.01 407.76 470.01"/>
                          <polygon class="cls-10" points="789.05 470.1 801.06 518.02 813.08 470.1 789.05 470.1"/>
                          <polygon class="cls-10" points="773.79 471.16 785.8 519.08 797.81 471.16 773.79 471.16"/>
                          <polygon class="cls-10" points="713.3 465.44 725.31 513.35 737.32 465.44 713.3 465.44"/>
                          <polygon class="cls-10" points="727.97 460.01 739.98 507.92 751.99 460.01 727.97 460.01"/>
                          <polygon class="cls-10" points="749.88 468 758.61 502.82 767.34 468 749.88 468"/>
                          <polygon class="cls-10" points="758.61 454.58 767.34 489.4 776.06 454.58 758.61 454.58"/>
                          <polygon class="cls-10" points="821.14 497.83 829.87 532.64 838.6 497.83 821.14 497.83"/>
                          <polygon class="cls-10" points="840.98 513.79 849.71 548.61 858.44 513.79 840.98 513.79"/>
                          <polygon class="cls-10" points="771.01 476.65 779.74 511.47 788.47 476.65 771.01 476.65"/>
                          <polygon class="cls-10" points="699.02 464.14 707.75 498.96 716.48 464.14 699.02 464.14"/>
                          <polygon class="cls-10" points="564.77 463.25 573.49 498.07 582.22 463.25 564.77 463.25"/>
                          <polygon class="cls-10" points="645.28 465.17 654.01 499.99 662.74 465.17 645.28 465.17"/>
                          <polygon class="cls-10" points="654.01 457.38 662.74 492.2 671.47 457.38 654.01 457.38"/>
                          <polygon class="cls-10" points="662.74 472.43 671.47 507.25 680.2 472.43 662.74 472.43"/>
                          <polygon class="cls-10" points="552.8 472.43 561.53 507.25 570.25 472.43 552.8 472.43"/>
                          <polygon class="cls-10" points="591.48 481.33 600.21 516.15 608.94 481.33 591.48 481.33"/>
                          <polygon class="cls-10" points="96.42 475.08 105.15 509.89 113.88 475.08 96.42 475.08"/>
                          <polygon class="cls-10" points="-30.58 504.33 -18.57 552.25 -6.55 504.33 -30.58 504.33"/>
                          <polygon class="cls-10" points="6.74 485.94 18.75 533.85 30.76 485.94 6.74 485.94"/>
                          <polygon class="cls-10" points="-5.27 501.37 6.74 549.29 18.75 501.37 -5.27 501.37"/>
                          <polygon class="cls-10" points="-116.38 509.89 -104.36 557.81 -92.35 509.89 -116.38 509.89"/>
                          <polygon class="cls-10" points="-88.26 518.78 -76.25 566.7 -64.24 518.78 -88.26 518.78"/>
                          <polygon class="cls-10" points="-104.36 518.78 -92.35 566.7 -80.34 518.78 -104.36 518.78"/>
                          <polygon class="cls-10" points="-43.93 507.92 -35.2 542.74 -26.47 507.92 -43.93 507.92"/>
                          <polygon class="cls-10" points="-14 502.77 -5.27 537.59 3.46 502.77 -14 502.77"/>
                          <polygon class="cls-10" points="30.72 485.37 39.45 520.18 48.18 485.37 30.72 485.37"/>
                          <polygon class="cls-10" points="-70.47 510.88 -61.75 545.7 -53.02 510.88 -70.47 510.88"/>
                        </g>
                        <path class="cls-4" d="M-126.67,477.89s69.46-10.81,79.2-11.56c9.73-.74,42.64-.15,46.2,0,3.56.15,31.08-13.96,31.08-13.96,0,0,72.97-10.45,76.53-10.17,3.56.27,41.26,5.94,41.26,5.94,0,0,41.7-5.25,45-1.44,3.31,3.81,67.59,1.54,71.59-1.79s61.52-1.75,69.32-2.95c7.8-1.2,85.87,12.31,90.32,10.42,4.45-1.9,51.99-9.38,56.16-10.05,4.17-.67,82.39,1.39,86.34-.13,3.94-1.52,84.19,17.71,92.29,20.11,8.1,2.41,50.52-3.94,59.13-2.64,8.62,1.3,66.1-2.48,71.88.55,5.78,3.03,84.2,22.36,84.2,22.36V194.79H-126.67v283.1Z"/>
                      </g>
                      <g>
                        <path class="cls-8" d="M588.05,676.47c-2.93,3.34-5.87,7.26-9.88,8.3-2.87,1.07-6.23-1.29-8.52-.78-2.86.5-4.63,3.3-7.51,4.37-5.16,1.58-10.3,2.03-16,2.46-6.26-.15-10.82.31-15.43,2.47-5.76,2.71-8.69,6.05-14.96,6.47-5.7.43-10.74-3.11-15.85-3.8-6.24-.72-10.87,2.01-16.47-1.54-5.04-3.54-7.7-11-13.32-13.99-5.07-2.4-11.95-.29-15.22-6.06l133.17,2.1Z"/>
                        <path class="cls-8" d="M-103.12,618.47c4.54,5.19,9.11,11.26,15.33,12.88,4.46,1.66,9.67-2,13.22-1.21,4.44.78,7.19,5.13,11.65,6.78,8.01,2.46,15.98,3.15,24.83,3.81,9.71-.24,16.8.47,23.95,3.83,8.94,4.2,13.48,9.39,23.22,10.04,8.85.67,16.67-4.82,24.6-5.9,9.69-1.12,16.86,3.12,25.57-2.39,7.82-5.49,11.95-17.08,20.68-21.71,7.86-3.73,18.54-.45,23.63-9.41l-206.68,3.26Z"/>
                        <path class="cls-8" d="M305.88,756.08c-12.22,9.2-20.29,6.74-32.72,7.94-15.07,2.16-24.65,10.4-38.72,16.98-14.94,7.49-33.69,4.4-47.79,10.09-15.87,5.73-29.76,19.43-47.63,16.32-21.45-3.91-24.61-23.4-39.96-32.8-12.65-7.69-33.92-4.49-41.39-18.54h248.2Z"/>
                        <path class="cls-8" d="M861.99,740.28c-3.94,18.79-18.16,19.17-32.41,18.67-21.36-.31-23.57,16.65-41.09,26.91-20.18,10.33-34.53,6.27-53.44-2.11-18-7.52-36.26-24.82-54.06-25.23-16.92-.43-34.58,4.5-49.04-4.01-3.63-2.57-7.33-7.81-11.82-9.47-4.49-1.66-7.11.19-10.69-.6-7.16-1.59-13.48-4.97-19.77-7.47l272.33,3.3Z"/>
                        <path class="cls-8" d="M-29.54,733.52c1.72,8.19,7.92,8.36,14.13,8.14,9.31-.14,10.27,7.26,17.91,11.73,8.8,4.5,15.05,2.73,23.29-.92,7.84-3.28,15.81-10.82,23.57-11,7.37-.19,15.07,1.96,21.38-1.75,1.58-1.12,3.19-3.4,5.15-4.13,1.96-.72,3.1.08,4.66-.26,3.12-.69,5.88-2.17,8.62-3.26l-118.71,1.44Z"/>
                      </g>
                    </g>
                  </g>
                </g>
                <g class="cls-23">
                  <g class="cls-20">
                    <g>
                      <path class="cls-14" d="M604.37,462.9s14.36,17.57,29.08,22.23c14.72,4.67,39.81,15.94,44.28,21.51,4.47,5.57,38.46.8,48.31,0,9.85-.8,36.24,13.05,42.28,14.41,6.04,1.36,35.89,13.88,46.02,12.46,10.13-1.42,61.12,4.22,61.12,4.22v-74.84h-271.08Z"/>
                      <path class="cls-14" d="M844.94,526.62c3.34-1.38,5.31-1.57,5.31-1.57-10.62,12.59-12,26.05-12,26.05,4.13-.9,6.89,0,6.89,0-4.13,2.25-7.28,6.54-7.28,6.54,3.31-1.11,5.1-1.6,5.1-1.6-8.28,9.55-13.16,34.26-13.16,34.26,2.56-1.04,6.39-1.61,6.39-1.61-6.86,12.91-8.45,22.6-8.45,22.6,1.29-.53,3.21-.1,3.21-.1-2.6,3.02-4.35,6.05-4.35,6.05l2.8-1.33c-5.11,3.54-7.18,17.78-7.18,17.78,1.47-1.08,3.45-.84,3.45-.84-4.92,5.31-8.26,18.69-8.26,18.69,0,0-3.34-13.38-8.26-18.69,0,0,1.98-.24,3.45.84,0,0-2.07-14.24-7.18-17.78l2.8,1.33s-1.75-3.03-4.35-6.05c0,0,1.93-.43,3.21.1,0,0-1.59-9.69-8.45-22.6,0,0,3.84.57,6.39,1.61,0,0-4.88-24.72-13.16-34.26,0,0,1.79.5,5.1,1.6,0,0-3.15-4.29-7.28-6.54,0,0,2.75-.9,6.89,0,0,0-1.38-13.46-12-26.05,0,0,1.97.2,5.31,1.57,0,0-3.15-6.98-8.26-13.33h71.61c-5.11,6.34-8.26,13.33-8.26,13.33Z"/>
                      <path class="cls-14" d="M818.96,528.11c2.66-1.1,4.22-1.25,4.22-1.25-8.45,10.01-9.55,20.72-9.55,20.72,3.29-.71,5.48,0,5.48,0-3.29,1.79-5.79,5.2-5.79,5.2,2.63-.88,4.05-1.28,4.05-1.28-6.59,7.59-10.47,27.26-10.47,27.26,2.03-.83,5.09-1.28,5.09-1.28-5.46,10.27-6.72,17.98-6.72,17.98,1.02-.42,2.56-.08,2.56-.08-2.07,2.4-3.46,4.81-3.46,4.81l2.23-1.06c-4.07,2.82-5.71,14.14-5.71,14.14,1.17-.86,2.74-.67,2.74-.67-3.91,4.22-6.57,14.87-6.57,14.87,0,0-2.66-10.64-6.57-14.87,0,0,1.57-.19,2.74.67,0,0-1.65-11.33-5.71-14.14l2.23,1.06s-1.39-2.41-3.46-4.81c0,0,1.53-.34,2.56.08,0,0-1.26-7.71-6.72-17.98,0,0,3.05.45,5.09,1.28,0,0-3.88-19.66-10.47-27.26,0,0,1.42.4,4.05,1.28,0,0-2.5-3.41-5.79-5.2,0,0,2.19-.71,5.48,0,0,0-1.1-10.71-9.55-20.72,0,0,1.56.16,4.22,1.25,0,0-2.5-5.55-6.57-10.6h56.96c-4.07,5.05-6.57,10.6-6.57,10.6Z"/>
                      <path class="cls-14" d="M875.59,533.4c2.66-1.1,4.23-1.25,4.23-1.25-8.45,10.01-9.55,20.72-9.55,20.72,3.29-.71,5.48,0,5.48,0-3.29,1.79-5.79,5.2-5.79,5.2,2.63-.88,4.05-1.28,4.05-1.28-6.59,7.59-10.47,27.26-10.47,27.26,2.03-.83,5.09-1.28,5.09-1.28-5.46,10.27-6.72,17.98-6.72,17.98,1.02-.42,2.56-.08,2.56-.08-2.07,2.4-3.46,4.81-3.46,4.81l2.23-1.06c-4.07,2.82-5.71,14.14-5.71,14.14,1.17-.86,2.74-.67,2.74-.67-3.91,4.22-6.57,14.87-6.57,14.87,0,0-2.66-10.64-6.57-14.87,0,0,1.57-.19,2.74.67,0,0-1.65-11.33-5.71-14.14l2.23,1.06s-1.39-2.41-3.46-4.81c0,0,1.53-.34,2.56.08,0,0-1.26-7.71-6.72-17.98,0,0,3.05.45,5.09,1.28,0,0-3.88-19.66-10.47-27.26,0,0,1.42.4,4.05,1.28,0,0-2.5-3.41-5.79-5.2,0,0,2.19-.71,5.48,0,0,0-1.1-10.71-9.55-20.72,0,0,1.56.16,4.22,1.25,0,0-2.5-5.55-6.57-10.6h56.96c-4.07,5.05-6.57,10.6-6.57,10.6Z"/>
                      <path class="cls-14" d="M753.82,519.12c3.77-1.55,5.99-1.78,5.99-1.78-11.99,14.21-13.54,29.4-13.54,29.4,4.66-1.01,7.77,0,7.77,0-4.66,2.54-8.21,7.38-8.21,7.38,3.73-1.25,5.75-1.81,5.75-1.81-9.34,10.77-14.85,38.67-14.85,38.67,2.89-1.18,7.21-1.82,7.21-1.82-7.74,14.57-9.54,25.5-9.54,25.5,1.45-.6,3.63-.11,3.63-.11-2.94,3.4-4.91,6.83-4.91,6.83l3.16-1.5c-5.77,4-8.11,20.07-8.11,20.07,1.66-1.22,3.89-.95,3.89-.95-5.55,5.99-9.32,21.09-9.32,21.09,0,0-3.77-15.1-9.32-21.09,0,0,2.23-.27,3.89.95,0,0-2.33-16.07-8.11-20.07l3.16,1.5s-1.98-3.42-4.91-6.83c0,0,2.17-.48,3.63.11,0,0-1.79-10.93-9.54-25.5,0,0,4.33.64,7.21,1.82,0,0-5.51-27.89-14.85-38.67,0,0,2.02.56,5.75,1.81,0,0-3.55-4.84-8.21-7.38,0,0,3.11-1.01,7.77,0,0,0-1.55-15.19-13.54-29.4,0,0,2.22.22,5.99,1.78,0,0-3.55-7.88-9.32-15.04h80.8c-5.77,7.16-9.32,15.04-9.32,15.04Z"/>
                      <path class="cls-14" d="M797.85,522.75c4.37-1.8,6.94-2.06,6.94-2.06-13.88,16.45-15.68,34.04-15.68,34.04,5.4-1.17,8.99,0,8.99,0-5.4,2.94-9.51,8.54-9.51,8.54,4.32-1.44,6.66-2.09,6.66-2.09-10.82,12.47-17.19,44.76-17.19,44.76,3.34-1.36,8.35-2.11,8.35-2.11-8.96,16.86-11.04,29.52-11.04,29.52,1.68-.69,4.2-.13,4.2-.13-3.4,3.94-5.69,7.9-5.69,7.9l3.66-1.73c-6.68,4.63-9.38,23.23-9.38,23.23,1.92-1.41,4.5-1.1,4.5-1.1-6.42,6.94-10.79,24.41-10.79,24.41,0,0-4.37-17.47-10.79-24.41,0,0,2.58-.32,4.5,1.1,0,0-2.7-18.6-9.38-23.23l3.66,1.73s-2.29-3.96-5.69-7.9c0,0,2.51-.56,4.2.13,0,0-2.08-12.66-11.04-29.52,0,0,5.01.75,8.35,2.11,0,0-6.38-32.29-17.19-44.76,0,0,2.34.65,6.66,2.09,0,0-4.11-5.6-9.51-8.54,0,0,3.6-1.17,8.99,0,0,0-1.8-17.59-15.68-34.04,0,0,2.57.26,6.94,2.06,0,0-4.11-9.12-10.79-17.41h93.54c-6.68,8.29-10.79,17.41-10.79,17.41Z"/>
                    </g>
                  </g>
                </g>
                <g class="cls-22">
                  <g class="cls-19">
                    <g>
                      <path class="cls-2" d="M-152.4,535.35h424.64s-26.3,17.25-43.83,23.19c-17.53,5.94-56.4,10.89-62.21,12.87-5.81,1.98-46.39,22.77-56.29,27.72-9.9,4.95-81.13,0-87.09,0s-41.49,9.9-54.91,11.88c-13.42,1.98-58.57-1.98-64.21,0-5.63,1.98-56.12,25.74-56.12,25.74v-101.39Z"/>
                      <path class="cls-2" d="M-49.86,617.34c6.24-2.57,9.91-2.94,9.91-2.94-19.83,23.5-22.4,48.63-22.4,48.63,7.71-1.67,12.85,0,12.85,0-7.71,4.2-13.59,12.21-13.59,12.21,6.17-2.06,9.51-2.99,9.51-2.99-15.46,17.82-24.57,63.96-24.57,63.96,4.77-1.95,11.93-3.01,11.93-3.01-12.81,24.1-15.78,42.19-15.78,42.19,2.4-.99,6-.18,6-.18-4.86,5.63-8.12,11.29-8.12,11.29l5.23-2.48c-9.55,6.61-13.41,33.2-13.41,33.2,2.74-2.02,6.43-1.57,6.43-1.57-9.18,9.92-15.42,34.89-15.42,34.89,0,0-6.24-24.97-15.42-34.89,0,0,3.69-.45,6.43,1.57,0,0-3.86-26.59-13.41-33.2l5.23,2.48s-3.27-5.66-8.12-11.29c0,0,3.59-.8,6,.18,0,0-2.97-18.09-15.78-42.19,0,0,7.16,1.07,11.93,3.01,0,0-9.11-46.14-24.57-63.96,0,0,3.34.93,9.51,2.99,0,0-5.88-8-13.59-12.21,0,0,5.14-1.67,12.85,0,0,0-2.57-25.13-22.4-48.63,0,0,3.67.37,9.92,2.94,0,0-5.88-13.03-15.42-24.88H-34.44c-9.55,11.84-15.42,24.88-15.42,24.88Z"/>
                      <path class="cls-2" d="M-11.29,598.48c4.73-1.95,7.52-2.23,7.52-2.23-15.03,17.82-16.98,36.87-16.98,36.87,5.85-1.27,9.74,0,9.74,0-5.85,3.18-10.3,9.25-10.3,9.25,4.68-1.57,7.21-2.27,7.21-2.27-11.72,13.51-18.63,48.49-18.63,48.49,3.62-1.48,9.05-2.28,9.05-2.28-9.71,18.27-11.96,31.98-11.96,31.98,1.82-.75,4.55-.14,4.55-.14-3.68,4.27-6.16,8.56-6.16,8.56l3.97-1.88c-7.24,5.01-10.17,25.16-10.17,25.16,2.08-1.53,4.88-1.19,4.88-1.19-6.96,7.52-11.69,26.45-11.69,26.45,0,0-4.73-18.93-11.69-26.45,0,0,2.8-.34,4.88,1.19,0,0-2.93-20.15-10.17-25.16l3.97,1.88s-2.48-4.29-6.16-8.56c0,0,2.72-.61,4.55.14,0,0-2.25-13.71-11.96-31.98,0,0,5.43.81,9.05,2.28,0,0-6.91-34.98-18.63-48.49,0,0,2.53.7,7.21,2.27,0,0-4.45-6.07-10.3-9.25,0,0,3.9-1.27,9.74,0,0,0-1.95-19.05-16.98-36.87,0,0,2.78.28,7.52,2.23,0,0-4.45-9.88-11.69-18.86H.41c-7.24,8.98-11.69,18.86-11.69,18.86Z"/>
                      <path class="cls-2" d="M89.94,596.88c5.36-2.21,8.52-2.52,8.52-2.52-17.04,20.2-19.25,41.79-19.25,41.79,6.63-1.44,11.04,0,11.04,0-6.63,3.61-11.68,10.49-11.68,10.49,5.3-1.77,8.17-2.57,8.17-2.57-13.28,15.31-21.11,54.96-21.11,54.96,4.1-1.67,10.26-2.59,10.26-2.59-11.01,20.71-13.56,36.25-13.56,36.25,2.07-.85,5.15-.16,5.15-.16-4.17,4.84-6.98,9.7-6.98,9.7l4.5-2.13c-8.2,5.68-11.52,28.52-11.52,28.52,2.35-1.73,5.53-1.35,5.53-1.35-7.89,8.52-13.25,29.98-13.25,29.98,0,0-5.36-21.46-13.25-29.98,0,0,3.17-.39,5.53,1.35,0,0-3.32-22.84-11.52-28.52l4.5,2.13s-2.81-4.86-6.98-9.7c0,0,3.09-.69,5.15.16,0,0-2.55-15.54-13.56-36.25,0,0,6.15.92,10.26,2.59,0,0-7.83-39.65-21.11-54.96,0,0,2.87.8,8.17,2.57,0,0-5.05-6.88-11.68-10.49,0,0,4.42-1.44,11.04,0,0,0-2.21-21.6-19.25-41.79,0,0,3.16.32,8.52,2.52,0,0-5.05-11.2-13.25-21.38h114.86c-8.2,10.18-13.25,21.38-13.25,21.38Z"/>
                      <path class="cls-2" d="M155.41,666.96c-1.18-4.73-5.37-5.28-9.29-5.73-.04-4.52-.4-11.48-2.17-12.69-2.66-1.82-7.46-2.35-7.73-5.55-.23-2.77-14.03-6.94-19.21-13.88-.18-9.16.83-35.84,1.09-41.01.27-5.33,4.26-9.17,4.26-9.17h-14.12s2.4,2.24,3.59,5.97c1.19,3.73,1.74,20.78,2.01,24.78.04.58.08,2,.11,4.01-3.1,2.47-10.58,8.36-11.84,8.78-1.6.53-10.66,2.13-11.72,5.33-.24.72-.47,2.25-.69,4.19l-9.97,5.31v2.09l9.68-4.53c-.27,3.04-.51,6.48-.68,9.33-1.66.49-3.32,1.03-4.74,1.2-2.66.27-5.06-1.07-7.73-1.07s-6.66,1.07-7.19,4c-.8,3.46,3.2,4,1.07,6.93-.8,1.33-2.4,0-3.2,2.4-.27,1.33,0,2.93.8,4,2.13,2.93,5.6,1.33,8.26,2.4,3.46,1.33,6.4,5.06,10.13.53v.27c4,1.07,9.86-.27,14.12-.8,6.13-.8,14.66-5.6,6.13-11.19,5.78-10.31-7.18-10.42-14.03-9.5.63-5.1,1.5-12.4,1.5-13.44,0-1.62,6.93-3.71,9.33-4.24,1.86-.41,8.13-4.67,10.85-6.56.16,14.29.21,39.43-.19,40.49-.53,1.41-5.6,3.92-5.6,8.47v10.43c-6.68-2.42-17.17-1.43-15.46,7.13-6.66,1.07-7.73.8-9.33,6.93-.8,2.66-2.13,2.93-.8,6.13.53,2.13,2.4,5.06,3.73,6.4,3.2,4.26,8.26,4,11.19,7.46,1.87,2.13.8,3.73,4.53,4.53,2.36.52,4.97-.51,6.32-2.57,2.63,1.31,5.67-.27,8.33.17,2.66.53,2.93,2.93,5.86.8,1.87-1.33,1.87-4,1.07-6.13,5.33.27,8.53,1.33,14.12-.8,3.46-1.6,4.26-2.13,3.46-5.6-.27-1.07-1.33-2.13-1.6-3.46-.27-1.07.8-1.87.53-3.2-1.07-2.93-4.53-3.73-6.13-6.13-2.13-3.2,0-2.4-.53-6.13-1.05-5.49-8.77-9.44-12.33-4.29-.62-3.27-1.44-6.51-2.33-7.07-1.32-.83-5.23-2.47-7.41-3.36.06-1.21.17-2.09.34-2.46.93-1.98,5.2-2.81,5.2-5.62,0-2.46.2-18.33.08-27.79,1.09,1.04,2.76,2.38,5.25,3.85,5.6,3.29,12.26,5.48,12.26,8.11,0,1.54.09,6.39.17,10.18-.25.25-.58.53-1.23.72-3.73.8-3.73.27-7.19-.53-7.19-1.87-4.53,3.73-4.26,8.26.27,2.13-1.87,1.87.27,4,1.07,1.33,2.4,1.07,3.73,1.07,1.03,0,2.32-.25,3.37-.51,1.2,1.8,2.63,3.58,4.63,4.24,1.6.53,3.2-.27,4.53,0,1.07.53,2.13,2.13,3.73,2.66,4,1.6,5.06-1.07,8.26-2.66,2.66-1.33,5.86-.8,4.8-5.86ZM111.57,680.24c-.09-2.51-.16-5.38-.15-7.85,1.86.5,4.97,1.45,5.88,2.44.47.51.87,2.1,1.2,3.93-2.29-.52-4.94.16-6.26,2.05-.2-.2-.43-.39-.67-.58ZM143.64,660.91c-1.32-.22-2.51-.53-3.42-1.14-.69-.55-1.17-1.54-1.65-2.43.02-2.63.02-5.64-.06-7.29-.15-3.34,4.11-.44,4.91,1.84.49,1.39.38,5.8.22,9.02Z"/>
                      <path class="cls-2" d="M199.04,620.94c-2.46-.67-2.18,7.96-4.46,7.35-2.75,2.69-10.02-6.43-13.44-6.43-1.61,0-6.42-.69-6.65-3.21,0-2.98,4.82-2.29,6.65-2.75,4.08-1.24,4.19-5.77,7.52-6.81-.12-3.11-.44-6.68-1.33-7.18-1.28-.73-15.24-5.37-20.91-7.25.01,3.37.06,6.12.19,7.02.38,2.75,5.12,4.13,5.12,7.2,0,2.62-.5,16.61-.79,22.92l10.2,8.84-1.38,1.79-9.04-6.29c-.16,3.5-.41,10.06-.59,15.04,3.77-.12,7.82-1.97,11.24-1.78,2.52,0,5.74.46,7.8,2.06.69.69,4.59,4.82,4.82,5.96.92,2.98-3.21,3.9-2.75,6.65.69,3.67,4.59,1.84,1.84,6.19-3.21,5.28-10.32,2.75-15.14,4.82-4.36,1.84-7.11,5.96-12.16,5.51l-.46-.23c-5.74,1.61-6.88-3.9-11.47-5.74-5.28-1.84-9.86-2.75-11.93-8.49-.46-2.06-2.29-4.59-2.75-6.65-.46-3.21,1.84-3.21,4.82-3.9,1.84-.46,4.82-.46,6.19-1.38,2.52-1.61,1.15-3.44,3.44-5.51,5.1-4.46,9.01.32,13.2,1.96.45-11.36,1.48-37.67,1.48-39.84,0-1.53-2.23-3.46-4.15-5.3-.04,3.32-.27,6.89-1.13,7.1-1.61.41-13.24,3.27-13.24,5.33v8.73c2.3-.89,4.58-1.41,7.97-.24,6,2.22,9.64,7.68,1.92,8.85-2.78,2.42-7.11.32-10.18.1-3.67-.23-10.32,3.67-13.31,0-1.38-1.84-.46-5.28,1.15-6.19,1.61-.92,4.82,0,6.65-.46.88-.19,1.68-.44,2.43-.71.17-3.81.47-9.7.78-11.22.46-2.29,13.54-5.51,13.77-7.94.15-1.54.34-4.75.47-6.9-.03-.18-.04-.36-.01-.53.04-.19.06-.48.09-.84.03-.47.04-.76.04-.76.22-5.12-.13-19.02-.13-22.03,0-3.44-5.96-7.58-5.96-7.58h19.04s-7.8,5.06-7.88,6.67c-.05.94-.17,8.3-.19,14.81,6.28,1.89,22.9,7.09,23.96,9.51.68,1.54.65,4.85.47,7.7.53.05,1.11.16,1.75.33,2.75.92,4.13,2.98,6.42,4.59,2.29,1.38,5.28,2.06,6.65,5.05,2.52,5.74-3.67,2.75-6.65,2.06Z"/>
                    </g>
                  </g>
                </g>
              </g>
              <g>
                <polygon class="cls-6" points="-126.67 430.96 764.91 430.96 -126.67 445.11 -126.67 430.96"/>
                <polygon class="cls-6" points="-126.67 474.46 472.9 474.46 -126.67 500.03 -126.67 474.46"/>
              </g>
              <g>
                <polygon class="cls-1" points="873.83 600.74 61.87 600.74 813.36 667 873.83 667 873.83 600.74"/>
                <polygon class="cls-1" points="873.83 536.2 244.51 536.2 873.83 548.98 873.83 536.2"/>
              </g>
            </g>
            <g class="cls-18">
              <g>
                <path class="cls-2" d="M-152.4,536.2h424.64s-26.3-17.25-43.83-23.19c-17.53-5.94-56.4-10.89-62.21-12.87-5.81-1.98-46.39-22.77-56.29-27.72-9.9-4.95-81.13,0-87.09,0s-41.49-9.9-54.91-11.88c-13.42-1.98-58.57,1.98-64.21,0-5.63-1.98-56.12-25.74-56.12-25.74v101.39Z"/>
                <path class="cls-2" d="M-49.86,454.22c6.24,2.57,9.91,2.94,9.91,2.94-19.83-23.5-22.4-48.63-22.4-48.63,7.71,1.67,12.85,0,12.85,0-7.71-4.2-13.59-12.21-13.59-12.21,6.17,2.06,9.51,2.99,9.51,2.99-15.46-17.82-24.57-63.96-24.57-63.96,4.77,1.95,11.93,3.01,11.93,3.01-12.81-24.1-15.78-42.19-15.78-42.19,2.4.99,6,.18,6,.18-4.86-5.63-8.12-11.29-8.12-11.29l5.23,2.48c-9.55-6.61-13.41-33.2-13.41-33.2,2.74,2.02,6.43,1.57,6.43,1.57-9.18-9.92-15.42-34.89-15.42-34.89,0,0-6.24,24.97-15.42,34.89,0,0,3.69.45,6.43-1.57,0,0-3.86,26.59-13.41,33.2l5.23-2.48s-3.27,5.66-8.12,11.29c0,0,3.59.8,6-.18,0,0-2.97,18.09-15.78,42.19,0,0,7.16-1.07,11.93-3.01,0,0-9.11,46.14-24.57,63.96,0,0,3.34-.93,9.51-2.99,0,0-5.88,8-13.59,12.21,0,0,5.14,1.67,12.85,0,0,0-2.57,25.13-22.4,48.63,0,0,3.67-.37,9.92-2.94,0,0-5.88,13.03-15.42,24.88H-34.44c-9.55-11.84-15.42-24.88-15.42-24.88Z"/>
                <path class="cls-2" d="M-11.29,473.08c4.73,1.95,7.52,2.23,7.52,2.23-15.03-17.82-16.98-36.87-16.98-36.87,5.85,1.27,9.74,0,9.74,0-5.85-3.18-10.3-9.25-10.3-9.25,4.68,1.57,7.21,2.27,7.21,2.27-11.72-13.51-18.63-48.49-18.63-48.49,3.62,1.48,9.05,2.28,9.05,2.28-9.71-18.27-11.96-31.98-11.96-31.98,1.82.75,4.55.14,4.55.14-3.68-4.27-6.16-8.56-6.16-8.56l3.97,1.88c-7.24-5.01-10.17-25.16-10.17-25.16,2.08,1.53,4.88,1.19,4.88,1.19-6.96-7.52-11.69-26.45-11.69-26.45,0,0-4.73,18.93-11.69,26.45,0,0,2.8.34,4.88-1.19,0,0-2.93,20.15-10.17,25.16l3.97-1.88s-2.48,4.29-6.16,8.56c0,0,2.72.61,4.55-.14,0,0-2.25,13.71-11.96,31.98,0,0,5.43-.81,9.05-2.28,0,0-6.91,34.98-18.63,48.49,0,0,2.53-.7,7.21-2.27,0,0-4.45,6.07-10.3,9.25,0,0,3.9,1.27,9.74,0,0,0-1.95,19.05-16.98,36.87,0,0,2.78-.28,7.52-2.23,0,0-4.45,9.88-11.69,18.86H.41c-7.24-8.98-11.69-18.86-11.69-18.86Z"/>
                <path class="cls-2" d="M89.94,474.68c5.36,2.21,8.52,2.52,8.52,2.52-17.04-20.2-19.25-41.79-19.25-41.79,6.63,1.44,11.04,0,11.04,0-6.63-3.61-11.68-10.49-11.68-10.49,5.3,1.77,8.17,2.57,8.17,2.57-13.28-15.31-21.11-54.96-21.11-54.96,4.1,1.67,10.26,2.59,10.26,2.59-11.01-20.71-13.56-36.25-13.56-36.25,2.07.85,5.15.16,5.15.16-4.17-4.84-6.98-9.7-6.98-9.7l4.5,2.13c-8.2-5.68-11.52-28.52-11.52-28.52,2.35,1.73,5.53,1.35,5.53,1.35-7.89-8.52-13.25-29.98-13.25-29.98,0,0-5.36,21.46-13.25,29.98,0,0,3.17.39,5.53-1.35,0,0-3.32,22.84-11.52,28.52l4.5-2.13s-2.81,4.86-6.98,9.7c0,0,3.09.69,5.15-.16,0,0-2.55,15.54-13.56,36.25,0,0,6.15-.92,10.26-2.59,0,0-7.83,39.65-21.11,54.96,0,0,2.87-.8,8.17-2.57,0,0-5.05,6.88-11.68,10.49,0,0,4.42,1.44,11.04,0,0,0-2.21,21.6-19.25,41.79,0,0,3.16-.32,8.52-2.52,0,0-5.05,11.2-13.25,21.38h114.86c-8.2-10.18-13.25-21.38-13.25-21.38Z"/>
                <path class="cls-2" d="M150.61,398.73c-3.2-1.6-4.26-4.26-8.26-2.66-1.6.53-2.66,2.13-3.73,2.66-1.33.27-2.93-.53-4.53,0-1.99.66-3.43,2.44-4.63,4.24-1.05-.26-2.33-.51-3.37-.51-1.33,0-2.66-.27-3.73,1.07-2.13,2.13,0,1.87-.27,4-.27,4.53-2.93,10.13,4.26,8.26,3.46-.8,3.46-1.33,7.19-.53.66.19.98.47,1.23.72-.08,3.79-.17,8.64-.17,10.18,0,2.64-6.66,4.82-12.26,8.11-2.49,1.47-4.16,2.81-5.25,3.85.13-9.45-.08-25.33-.08-27.79,0-2.8-4.28-3.63-5.2-5.62-.17-.36-.28-1.25-.34-2.46,2.18-.89,6.09-2.53,7.41-3.36.88-.56,1.71-3.8,2.33-7.07,3.56,5.16,11.28,1.21,12.33-4.29.53-3.73-1.6-2.93.53-6.13,1.6-2.4,5.06-3.2,6.13-6.13.27-1.33-.8-2.13-.53-3.2.27-1.33,1.33-2.4,1.6-3.46.8-3.46,0-4-3.46-5.6-5.6-2.13-8.79-1.07-14.12-.8.8-2.13.8-4.8-1.07-6.13-2.93-2.13-3.2.27-5.86.8-2.66.44-5.7-1.14-8.33.17-1.35-2.06-3.96-3.09-6.32-2.57-3.73.8-2.66,2.4-4.53,4.53-2.93,3.46-7.99,3.2-11.19,7.46-1.33,1.33-3.2,4.26-3.73,6.4-1.33,3.2,0,3.46.8,6.13,1.6,6.13,2.66,5.86,9.33,6.93-1.71,8.56,8.77,9.55,15.46,7.13v10.43c0,4.55,5.06,7.06,5.6,8.47.4,1.06.35,26.19.19,40.49-2.72-1.89-8.99-6.15-10.85-6.56-2.4-.53-9.33-2.62-9.33-4.24,0-1.04-.88-8.33-1.5-13.44,6.85.92,19.81.81,14.03-9.5,8.53-5.6,0-10.39-6.13-11.19-4.26-.53-10.13-1.87-14.12-.8v.27c-3.73-4.53-6.66-.8-10.13.53-2.66,1.07-6.13-.53-8.26,2.4-.8,1.07-1.07,2.66-.8,4,.8,2.4,2.4,1.07,3.2,2.4,2.13,2.93-1.87,3.46-1.07,6.93.53,2.93,4.53,4,7.19,4s5.06-1.33,7.73-1.07c1.42.18,3.08.71,4.74,1.2.17,2.85.41,6.29.68,9.33l-9.68-4.53v2.09l9.97,5.31c.22,1.93.45,3.46.69,4.19,1.07,3.2,10.13,4.8,11.72,5.33,1.26.42,8.73,6.31,11.84,8.78-.04,2.01-.07,3.44-.11,4.01-.27,4-.81,21.05-2.01,24.78-1.19,3.73-3.59,5.97-3.59,5.97h14.12s-4-3.84-4.26-9.17c-.26-5.17-1.27-31.85-1.09-41.01,5.18-6.94,18.98-11.11,19.21-13.88.27-3.2,5.06-3.73,7.73-5.55,1.77-1.21,2.13-8.18,2.17-12.69,3.92-.45,8.1-1,9.29-5.73,1.07-5.06-2.13-4.53-4.8-5.86ZM112.24,390.74c1.32,1.89,3.97,2.56,6.26,2.05-.33,1.84-.73,3.42-1.2,3.93-.91.99-4.02,1.94-5.88,2.44,0-2.46.06-5.34.15-7.85.24-.19.47-.38.67-.58ZM143.42,419.67c-.8,2.28-5.06,5.18-4.91,1.84.08-1.65.08-4.66.06-7.29.48-.89.96-1.88,1.65-2.43.91-.61,2.1-.92,3.42-1.14.16,3.22.27,7.62-.22,9.02Z"/>
                <path class="cls-2" d="M199.04,450.61c-2.46.67-2.18-7.96-4.46-7.35-2.75-2.69-10.02,6.43-13.44,6.43-1.61,0-6.42.69-6.65,3.21,0,2.98,4.82,2.29,6.65,2.75,4.08,1.24,4.19,5.77,7.52,6.81-.12,3.11-.44,6.68-1.33,7.18-1.28.73-15.24,5.37-20.91,7.25.01-3.37.06-6.12.19-7.02.38-2.75,5.12-4.13,5.12-7.2,0-2.62-.5-16.61-.79-22.92l10.2-8.84-1.38-1.79-9.04,6.29c-.16-3.5-.41-10.06-.59-15.04,3.77.12,7.82,1.97,11.24,1.78,2.52,0,5.74-.46,7.8-2.06.69-.69,4.59-4.82,4.82-5.96.92-2.98-3.21-3.9-2.75-6.65.69-3.67,4.59-1.84,1.84-6.19-3.21-5.28-10.32-2.75-15.14-4.82-4.36-1.84-7.11-5.96-12.16-5.51l-.46.23c-5.74-1.61-6.88,3.9-11.47,5.74-5.28,1.84-9.86,2.75-11.93,8.49-.46,2.06-2.29,4.59-2.75,6.65-.46,3.21,1.84,3.21,4.82,3.9,1.84.46,4.82.46,6.19,1.38,2.52,1.61,1.15,3.44,3.44,5.51,5.1,4.46,9.01-.32,13.2-1.96.45,11.36,1.48,37.67,1.48,39.84,0,1.53-2.23,3.46-4.15,5.3-.04-3.32-.27-6.89-1.13-7.1-1.61-.41-13.24-3.27-13.24-5.33v-8.73c2.3.89,4.58,1.41,7.97.24,6-2.22,9.64-7.68,1.92-8.85-2.78-2.42-7.11-.32-10.18-.1-3.67.23-10.32-3.67-13.31,0-1.38,1.84-.46,5.28,1.15,6.19,1.61.92,4.82,0,6.65.46.88.19,1.68.44,2.43.71.17,3.81.47,9.7.78,11.22.46,2.29,13.54,5.51,13.77,7.94.15,1.54.34,4.75.47,6.9-.03.18-.04.36-.01.53.04.19.06.48.09.84.03.47.04.76.04.76.22,5.12-.13,19.02-.13,22.03,0,3.44-5.96,7.58-5.96,7.58h19.04s-7.8-5.06-7.88-6.67c-.05-.94-.17-8.3-.19-14.81,6.28-1.89,22.9-7.09,23.96-9.51.68-1.54.65-4.85.47-7.7.53-.05,1.11-.16,1.75-.33,2.75-.92,4.13-2.98,6.42-4.59,2.29-1.38,5.28-2.06,6.65-5.05,2.52-5.74-3.67-2.75-6.65-2.06Z"/>
              </g>
            </g>
            <g class="cls-21">
              <g>
                <path class="cls-14" d="M604.37,462.9s14.36-17.57,29.08-22.23c14.72-4.67,39.81-15.94,44.28-21.51s38.46-.8,48.31,0c9.85.8,36.24-13.05,42.28-14.41,6.04-1.36,35.89-13.88,46.02-12.46,10.13,1.42,61.12-4.22,61.12-4.22v74.84h-271.08Z"/>
                <path class="cls-14" d="M844.94,399.18c3.34,1.38,5.31,1.57,5.31,1.57-10.62-12.59-12-26.05-12-26.05,4.13.9,6.89,0,6.89,0-4.13-2.25-7.28-6.54-7.28-6.54,3.31,1.11,5.1,1.6,5.1,1.6-8.28-9.55-13.16-34.26-13.16-34.26,2.56,1.04,6.39,1.61,6.39,1.61-6.86-12.91-8.45-22.6-8.45-22.6,1.29.53,3.21.1,3.21.1-2.6-3.02-4.35-6.05-4.35-6.05l2.8,1.33c-5.11-3.54-7.18-17.78-7.18-17.78,1.47,1.08,3.45.84,3.45.84-4.92-5.31-8.26-18.69-8.26-18.69,0,0-3.34,13.38-8.26,18.69,0,0,1.98.24,3.45-.84,0,0-2.07,14.24-7.18,17.78l2.8-1.33s-1.75,3.03-4.35,6.05c0,0,1.93.43,3.21-.1,0,0-1.59,9.69-8.45,22.6,0,0,3.84-.57,6.39-1.61,0,0-4.88,24.72-13.16,34.26,0,0,1.79-.5,5.1-1.6,0,0-3.15,4.29-7.28,6.54,0,0,2.75.9,6.89,0,0,0-1.38,13.46-12,26.05,0,0,1.97-.2,5.31-1.57,0,0-3.15,6.98-8.26,13.33h71.61c-5.11-6.34-8.26-13.33-8.26-13.33Z"/>
                <path class="cls-14" d="M818.96,397.69c2.66,1.1,4.22,1.25,4.22,1.25-8.45-10.01-9.55-20.72-9.55-20.72,3.29.71,5.48,0,5.48,0-3.29-1.79-5.79-5.2-5.79-5.2,2.63.88,4.05,1.28,4.05,1.28-6.59-7.59-10.47-27.26-10.47-27.26,2.03.83,5.09,1.28,5.09,1.28-5.46-10.27-6.72-17.98-6.72-17.98,1.02.42,2.56.08,2.56.08-2.07-2.4-3.46-4.81-3.46-4.81l2.23,1.06c-4.07-2.82-5.71-14.14-5.71-14.14,1.17.86,2.74.67,2.74.67-3.91-4.22-6.57-14.87-6.57-14.87,0,0-2.66,10.64-6.57,14.87,0,0,1.57.19,2.74-.67,0,0-1.65,11.33-5.71,14.14l2.23-1.06s-1.39,2.41-3.46,4.81c0,0,1.53.34,2.56-.08,0,0-1.26,7.71-6.72,17.98,0,0,3.05-.45,5.09-1.28,0,0-3.88,19.66-10.47,27.26,0,0,1.42-.4,4.05-1.28,0,0-2.5,3.41-5.79,5.2,0,0,2.19.71,5.48,0,0,0-1.1,10.71-9.55,20.72,0,0,1.56-.16,4.22-1.25,0,0-2.5,5.55-6.57,10.6h56.96c-4.07-5.05-6.57-10.6-6.57-10.6Z"/>
                <path class="cls-14" d="M875.59,392.4c2.66,1.1,4.23,1.25,4.23,1.25-8.45-10.01-9.55-20.72-9.55-20.72,3.29.71,5.48,0,5.48,0-3.29-1.79-5.79-5.2-5.79-5.2,2.63.88,4.05,1.28,4.05,1.28-6.59-7.59-10.47-27.26-10.47-27.26,2.03.83,5.09,1.28,5.09,1.28-5.46-10.27-6.72-17.98-6.72-17.98,1.02.42,2.56.08,2.56.08-2.07-2.4-3.46-4.81-3.46-4.81l2.23,1.06c-4.07-2.82-5.71-14.14-5.71-14.14,1.17.86,2.74.67,2.74.67-3.91-4.22-6.57-14.87-6.57-14.87,0,0-2.66,10.64-6.57,14.87,0,0,1.57.19,2.74-.67,0,0-1.65,11.33-5.71,14.14l2.23-1.06s-1.39,2.41-3.46,4.81c0,0,1.53.34,2.56-.08,0,0-1.26,7.71-6.72,17.98,0,0,3.05-.45,5.09-1.28,0,0-3.88,19.66-10.47,27.26,0,0,1.42-.4,4.05-1.28,0,0-2.5,3.41-5.79,5.2,0,0,2.19.71,5.48,0,0,0-1.1,10.71-9.55,20.72,0,0,1.56-.16,4.22-1.25,0,0-2.5,5.55-6.57,10.6h56.96c-4.07-5.05-6.57-10.6-6.57-10.6Z"/>
                <path class="cls-14" d="M753.82,406.67c3.77,1.55,5.99,1.78,5.99,1.78-11.99-14.21-13.54-29.4-13.54-29.4,4.66,1.01,7.77,0,7.77,0-4.66-2.54-8.21-7.38-8.21-7.38,3.73,1.25,5.75,1.81,5.75,1.81-9.34-10.77-14.85-38.67-14.85-38.67,2.89,1.18,7.21,1.82,7.21,1.82-7.74-14.57-9.54-25.5-9.54-25.5,1.45.6,3.63.11,3.63.11-2.94-3.4-4.91-6.83-4.91-6.83l3.16,1.5c-5.77-4-8.11-20.07-8.11-20.07,1.66,1.22,3.89.95,3.89.95-5.55-5.99-9.32-21.09-9.32-21.09,0,0-3.77,15.1-9.32,21.09,0,0,2.23.27,3.89-.95,0,0-2.33,16.07-8.11,20.07l3.16-1.5s-1.98,3.42-4.91,6.83c0,0,2.17.48,3.63-.11,0,0-1.79,10.93-9.54,25.5,0,0,4.33-.64,7.21-1.82,0,0-5.51,27.89-14.85,38.67,0,0,2.02-.56,5.75-1.81,0,0-3.55,4.84-8.21,7.38,0,0,3.11,1.01,7.77,0,0,0-1.55,15.19-13.54,29.4,0,0,2.22-.22,5.99-1.78,0,0-3.55,7.88-9.32,15.04h80.8c-5.77-7.16-9.32-15.04-9.32-15.04Z"/>
                <path class="cls-14" d="M797.85,403.05c4.37,1.8,6.94,2.06,6.94,2.06-13.88-16.45-15.68-34.04-15.68-34.04,5.4,1.17,8.99,0,8.99,0-5.4-2.94-9.51-8.54-9.51-8.54,4.32,1.44,6.66,2.09,6.66,2.09-10.82-12.47-17.19-44.76-17.19-44.76,3.34,1.36,8.35,2.11,8.35,2.11-8.96-16.86-11.04-29.52-11.04-29.52,1.68.69,4.2.13,4.2.13-3.4-3.94-5.69-7.9-5.69-7.9l3.66,1.73c-6.68-4.63-9.38-23.23-9.38-23.23,1.92,1.41,4.5,1.1,4.5,1.1-6.42-6.94-10.79-24.41-10.79-24.41,0,0-4.37,17.47-10.79,24.41,0,0,2.58.32,4.5-1.1,0,0-2.7,18.6-9.38,23.23l3.66-1.73s-2.29,3.96-5.69,7.9c0,0,2.51.56,4.2-.13,0,0-2.08,12.66-11.04,29.52,0,0,5.01-.75,8.35-2.11,0,0-6.38,32.29-17.19,44.76,0,0,2.34-.65,6.66-2.09,0,0-4.11,5.6-9.51,8.54,0,0,3.6,1.17,8.99,0,0,0-1.8,17.59-15.68,34.04,0,0,2.57-.26,6.94-2.06,0,0-4.11,9.12-10.79,17.41h93.54c-6.68-8.29-10.79-17.41-10.79-17.41Z"/>
              </g>
            </g>
          </g>
          <rect class="cls-7" x="-126.67" width="1000.5" height="667"/>
        </g>
      </g>
    </g>
  </g>
</svg>